M48
; DRILL file {KiCad 9.0.6} date 2025-11-17T11:05:30-0500
; FORMAT={-:-/ absolute / inch / decimal}
; #@! TF.CreationDate,2025-11-17T11:05:30-05:00
; #@! TF.GenerationSoftware,Kicad,Pcbnew,9.0.6
; #@! TF.FileFunction,Plated,1,2,PTH
FMAT,2
INCH
; #@! TA.AperFunction,Plated,PTH,ViaDrill
T1C0.0118
; #@! TA.AperFunction,Plated,PTH,ComponentDrill
T2C0.0295
; #@! TA.AperFunction,Plated,PTH,ComponentDrill
T3C0.0433
; #@! TA.AperFunction,Plated,PTH,ComponentDrill
T4C0.0709
%
G90
G05
T1
X4.275Y-2.735
X4.275Y-3.0
X4.35Y-2.735
X4.35Y-3.0
X4.425Y-2.735
X4.425Y-3.0
X4.5Y-2.735
X4.5Y-3.0
X4.575Y-2.735
X4.575Y-3.0
X4.575Y-3.075
X4.65Y-2.735
X4.725Y-2.735
X4.795Y-2.97
X4.795Y-3.12
X4.8Y-2.735
X4.82Y-3.28
X4.875Y-2.735
X4.89Y-2.945
X4.95Y-2.735
X4.965Y-2.945
X4.99Y-3.02
X4.99Y-3.095
X5.025Y-2.735
X5.035Y-2.825
X5.055Y-2.91
X5.1Y-2.735
X5.17Y-3.28
X5.175Y-2.735
X5.185Y-2.91
X5.195Y-3.085
X5.225Y-3.21
X5.235Y-3.085
X5.25Y-2.735
X5.265Y-2.92
X5.2753Y-3.1103
X5.31Y-3.13
X5.325Y-2.735
X5.325Y-2.92
X5.4Y-2.735
X5.475Y-2.735
X5.55Y-2.735
X5.625Y-2.735
X5.63Y-3.2676
X5.7Y-2.735
X5.775Y-2.735
X5.825Y-2.95
X5.825Y-3.0
X5.825Y-3.05
X5.825Y-3.1
X5.85Y-2.735
X5.875Y-2.95
X5.875Y-3.0
X5.875Y-3.05
X5.875Y-3.1
X5.925Y-2.735
X5.925Y-2.95
X5.925Y-3.0
X5.925Y-3.05
X5.925Y-3.1
X5.975Y-2.95
X5.975Y-3.0
X5.975Y-3.05
X5.975Y-3.1
X6.0Y-2.735
X6.075Y-2.735
X6.15Y-2.735
X6.225Y-2.735
X6.3Y-2.735
X6.325Y-3.0
X6.375Y-2.735
X6.4Y-3.0
X6.45Y-2.735
X6.475Y-3.0
X6.525Y-2.735
X6.55Y-3.0
X6.6Y-2.735
X6.6Y-2.8
X6.6Y-2.875
X6.6Y-2.95
T2
X4.725Y-2.85
X4.775Y-2.85
X4.825Y-2.85
X5.125Y-2.825
X5.125Y-2.875
X5.125Y-2.925
X5.15Y-3.125
X5.15Y-3.175
X5.15Y-3.225
T3
X5.4581Y-2.92
X5.4581Y-3.02
X5.4581Y-3.12
T4
X4.4Y-2.889
X4.4Y-3.2
X6.45Y-2.889
X6.45Y-3.2
M30
