%TF.GenerationSoftware,KiCad,Pcbnew,9.0.6*%
%TF.CreationDate,2025-11-17T11:05:33-05:00*%
%TF.ProjectId,vldo,766c646f-2e6b-4696-9361-645f70636258,0.1*%
%TF.SameCoordinates,Original*%
%TF.FileFunction,Copper,L2,Bot*%
%TF.FilePolarity,Positive*%
%FSLAX46Y46*%
G04 Gerber Fmt 4.6, Leading zero omitted, Abs format (unit mm)*
G04 Created by KiCad (PCBNEW 9.0.6) date 2025-11-17 11:05:33*
%MOMM*%
%LPD*%
G01*
G04 APERTURE LIST*
%TA.AperFunction,ComponentPad*%
%ADD10C,2.200000*%
%TD*%
%TA.AperFunction,ComponentPad*%
%ADD11R,2.000000X1.905000*%
%TD*%
%TA.AperFunction,ComponentPad*%
%ADD12O,2.000000X1.905000*%
%TD*%
%TA.AperFunction,ComponentPad*%
%ADD13R,1.050000X1.500000*%
%TD*%
%TA.AperFunction,ComponentPad*%
%ADD14O,1.050000X1.500000*%
%TD*%
%TA.AperFunction,ComponentPad*%
%ADD15R,1.500000X1.050000*%
%TD*%
%TA.AperFunction,ComponentPad*%
%ADD16O,1.500000X1.050000*%
%TD*%
%TA.AperFunction,ViaPad*%
%ADD17C,0.600000*%
%TD*%
%TA.AperFunction,Conductor*%
%ADD18C,0.406400*%
%TD*%
G04 APERTURE END LIST*
D10*
%TO.P,J2,2,Pin_2*%
%TO.N,0*%
X163830000Y-73380000D03*
%TO.P,J2,1,Pin_1*%
%TO.N,/Vout*%
X163830000Y-81280000D03*
%TD*%
%TO.P,J1,1,Pin_1*%
%TO.N,Vin*%
X111760000Y-81280000D03*
%TO.P,J1,2,Pin_2*%
%TO.N,0*%
X111760000Y-73380000D03*
%TD*%
D11*
%TO.P,M2,1,G*%
%TO.N,/M1G*%
X138634746Y-74168000D03*
D12*
%TO.P,M2,2,D*%
%TO.N,/Vout*%
X138634746Y-76708000D03*
%TO.P,M2,3,S*%
%TO.N,Vin*%
X138634746Y-79248000D03*
%TD*%
D13*
%TO.P,U4,1,VO*%
%TO.N,Vldo*%
X122555000Y-72390000D03*
D14*
%TO.P,U4,2,GND*%
%TO.N,0*%
X121285000Y-72390000D03*
%TO.P,U4,3,VI*%
%TO.N,Vin*%
X120015000Y-72390000D03*
%TD*%
D15*
%TO.P,Q1,1,C*%
%TO.N,/M1G*%
X130175000Y-71755000D03*
D16*
%TO.P,Q1,2,B*%
%TO.N,Vldo*%
X130175000Y-73025000D03*
%TO.P,Q1,3,E*%
%TO.N,/Q12E*%
X130175000Y-74295000D03*
%TD*%
D15*
%TO.P,Q2,1,C*%
%TO.N,/Vout*%
X130810000Y-81915000D03*
D16*
%TO.P,Q2,2,B*%
%TO.N,/Q2B*%
X130810000Y-80645000D03*
%TO.P,Q2,3,E*%
%TO.N,/Q12E*%
X130810000Y-79375000D03*
%TD*%
D17*
%TO.N,/M1G*%
X143002000Y-82997000D03*
%TO.N,Vldo*%
X127889000Y-71755000D03*
%TO.N,0*%
X128397000Y-73914000D03*
X154305000Y-69469000D03*
X110490000Y-69469000D03*
X160020000Y-69469000D03*
X144780000Y-69469000D03*
X126746000Y-78613000D03*
X126111000Y-74803000D03*
X118110000Y-69469000D03*
X135255000Y-69469000D03*
X140970000Y-69469000D03*
X123825000Y-69469000D03*
X167640000Y-69469000D03*
X121920000Y-69469000D03*
X131445000Y-69469000D03*
X131699000Y-73914000D03*
X116205000Y-69469000D03*
X121793000Y-79248000D03*
X124206000Y-74803000D03*
X108585000Y-69469000D03*
X134874000Y-79502000D03*
X165735000Y-69469000D03*
X164465000Y-76200000D03*
X167640000Y-71120000D03*
X148590000Y-69469000D03*
X129540000Y-69469000D03*
X156210000Y-69469000D03*
X152400000Y-69469000D03*
X162560000Y-76200000D03*
X167640000Y-74930000D03*
X160655000Y-76200000D03*
X108585000Y-76200000D03*
X161925000Y-69469000D03*
X166370000Y-76200000D03*
X150495000Y-69469000D03*
X146685000Y-69469000D03*
X132969000Y-78359000D03*
X112395000Y-69469000D03*
X112395000Y-76200000D03*
X121793000Y-75438000D03*
X114300000Y-76200000D03*
X125730000Y-69469000D03*
X120015000Y-69469000D03*
X126746000Y-76708000D03*
X137160000Y-69469000D03*
X133350000Y-69469000D03*
X114300000Y-69469000D03*
X110490000Y-76200000D03*
X127635000Y-69469000D03*
X139065000Y-69469000D03*
X163830000Y-69469000D03*
X167640000Y-73025000D03*
X116205000Y-76200000D03*
X131953000Y-78359000D03*
X116205000Y-78105000D03*
X122428000Y-83312000D03*
X158115000Y-69469000D03*
X142875000Y-69469000D03*
%TO.N,/Q2B*%
X131318000Y-83312000D03*
X132715000Y-81534000D03*
%TO.N,/Vout*%
X147955000Y-77470000D03*
X150495000Y-76200000D03*
X147955000Y-78740000D03*
X149225000Y-76200000D03*
X151765000Y-78740000D03*
X147955000Y-74930000D03*
X151765000Y-76200000D03*
X151765000Y-77470000D03*
X149225000Y-74930000D03*
X149225000Y-78740000D03*
X133992544Y-79001544D03*
X150495000Y-74930000D03*
X149225000Y-77470000D03*
X150495000Y-78740000D03*
X150495000Y-77470000D03*
X147955000Y-76200000D03*
X151765000Y-74930000D03*
%TO.N,/M1G*%
X135255000Y-74168000D03*
X133731000Y-74168000D03*
%TD*%
D18*
%TO.N,/M1G*%
X140970000Y-76503254D02*
X138634746Y-74168000D01*
X140970000Y-81534000D02*
X140970000Y-76503254D01*
X143002000Y-82997000D02*
X140970000Y-81534000D01*
%TO.N,Vldo*%
X129159000Y-73025000D02*
X130175000Y-73025000D01*
X127889000Y-71755000D02*
X129159000Y-73025000D01*
%TO.N,/Q2B*%
X132715000Y-81915000D02*
X131318000Y-83312000D01*
X132715000Y-81534000D02*
X132715000Y-81915000D01*
%TO.N,/Vout*%
X130810000Y-81915000D02*
X131079087Y-81915000D01*
X136286087Y-76708000D02*
X138634746Y-76708000D01*
X131079087Y-81915000D02*
X133992544Y-79001544D01*
X133992544Y-79001544D02*
X136286087Y-76708000D01*
%TO.N,/M1G*%
X138634746Y-74168000D02*
X135255000Y-74168000D01*
X135255000Y-74168000D02*
X133731000Y-74168000D01*
%TD*%
%TA.AperFunction,Conductor*%
%TO.N,0*%
G36*
X168986621Y-69100502D02*
G01*
X169033114Y-69154158D01*
X169044500Y-69206500D01*
X169044500Y-86368500D01*
X169024498Y-86436621D01*
X168970842Y-86483114D01*
X168918500Y-86494500D01*
X107941500Y-86494500D01*
X107873379Y-86474498D01*
X107826886Y-86420842D01*
X107815500Y-86368500D01*
X107815500Y-81161404D01*
X110253100Y-81161404D01*
X110253100Y-81398596D01*
X110285574Y-81603627D01*
X110290206Y-81632872D01*
X110351807Y-81822459D01*
X110363501Y-81858449D01*
X110471183Y-82069788D01*
X110471185Y-82069791D01*
X110610602Y-82261682D01*
X110778317Y-82429397D01*
X110778320Y-82429399D01*
X110970212Y-82568817D01*
X111181551Y-82676499D01*
X111407133Y-82749795D01*
X111641404Y-82786900D01*
X111641407Y-82786900D01*
X111878593Y-82786900D01*
X111878596Y-82786900D01*
X112112867Y-82749795D01*
X112338449Y-82676499D01*
X112549788Y-82568817D01*
X112741680Y-82429399D01*
X112909399Y-82261680D01*
X113048817Y-82069788D01*
X113156499Y-81858449D01*
X113229795Y-81632867D01*
X113266900Y-81398596D01*
X113266900Y-81161404D01*
X113229795Y-80927133D01*
X113156499Y-80701551D01*
X113048817Y-80490212D01*
X112991020Y-80410661D01*
X112909397Y-80298317D01*
X112741682Y-80130602D01*
X112549791Y-79991185D01*
X112549790Y-79991184D01*
X112549788Y-79991183D01*
X112338449Y-79883501D01*
X112338446Y-79883500D01*
X112338444Y-79883499D01*
X112112872Y-79810206D01*
X112112868Y-79810205D01*
X112112867Y-79810205D01*
X111878596Y-79773100D01*
X111641404Y-79773100D01*
X111407133Y-79810205D01*
X111407127Y-79810206D01*
X111181555Y-79883499D01*
X111181549Y-79883502D01*
X110970208Y-79991185D01*
X110778317Y-80130602D01*
X110610602Y-80298317D01*
X110471185Y-80490208D01*
X110363502Y-80701549D01*
X110363499Y-80701555D01*
X110290206Y-80927127D01*
X110290205Y-80927132D01*
X110290205Y-80927133D01*
X110253100Y-81161404D01*
X107815500Y-81161404D01*
X107815500Y-79283213D01*
X129653100Y-79283213D01*
X129653100Y-79466786D01*
X129688912Y-79646825D01*
X129759161Y-79816420D01*
X129803982Y-79883499D01*
X129841733Y-79939998D01*
X129862948Y-80007751D01*
X129844165Y-80076218D01*
X129841737Y-80079995D01*
X129777669Y-80175881D01*
X129759161Y-80203580D01*
X129688914Y-80373169D01*
X129688912Y-80373174D01*
X129653100Y-80553213D01*
X129653100Y-80736786D01*
X129688912Y-80916825D01*
X129688914Y-80916830D01*
X129736579Y-81031903D01*
X129744168Y-81102492D01*
X129729055Y-81137916D01*
X129731210Y-81139014D01*
X129726708Y-81147848D01*
X129726708Y-81147849D01*
X129668191Y-81262694D01*
X129653100Y-81357976D01*
X129653100Y-82472024D01*
X129668191Y-82567306D01*
X129668961Y-82568817D01*
X129726707Y-82682151D01*
X129817848Y-82773292D01*
X129844556Y-82786900D01*
X129932694Y-82831809D01*
X130027976Y-82846900D01*
X130556936Y-82846900D01*
X130625057Y-82866902D01*
X130671550Y-82920558D01*
X130681654Y-82990832D01*
X130673344Y-83021119D01*
X130638269Y-83105793D01*
X130638266Y-83105803D01*
X130611100Y-83242372D01*
X130611100Y-83381627D01*
X130637128Y-83512476D01*
X130638266Y-83518195D01*
X130691554Y-83646843D01*
X130768915Y-83762622D01*
X130867378Y-83861085D01*
X130983157Y-83938446D01*
X131111805Y-83991734D01*
X131248376Y-84018900D01*
X131387624Y-84018900D01*
X131524195Y-83991734D01*
X131652843Y-83938446D01*
X131768622Y-83861085D01*
X131867085Y-83762622D01*
X131944446Y-83646843D01*
X131997734Y-83518195D01*
X131997735Y-83518191D01*
X131998639Y-83515213D01*
X131999708Y-83513429D01*
X132000103Y-83512476D01*
X132000244Y-83512534D01*
X132030115Y-83462695D01*
X133188896Y-82303916D01*
X133255664Y-82203991D01*
X133301654Y-82092960D01*
X133325100Y-81975090D01*
X133325100Y-81930986D01*
X133339218Y-81874619D01*
X133339077Y-81874561D01*
X133339472Y-81873606D01*
X133339977Y-81871592D01*
X133341442Y-81868849D01*
X133341442Y-81868848D01*
X133341446Y-81868843D01*
X133394734Y-81740195D01*
X133421900Y-81603624D01*
X133421900Y-81464376D01*
X133394734Y-81327805D01*
X133341446Y-81199157D01*
X133264085Y-81083378D01*
X133165622Y-80984915D01*
X133165620Y-80984913D01*
X133165617Y-80984911D01*
X133117254Y-80952596D01*
X133071726Y-80898119D01*
X133062879Y-80827675D01*
X133093520Y-80763632D01*
X133098140Y-80758757D01*
X134143237Y-79713661D01*
X134193078Y-79683788D01*
X134193020Y-79683647D01*
X134193973Y-79683252D01*
X134195757Y-79682183D01*
X134198735Y-79681279D01*
X134198735Y-79681278D01*
X134198739Y-79681278D01*
X134327387Y-79627990D01*
X134443166Y-79550629D01*
X134541629Y-79452166D01*
X134618990Y-79336387D01*
X134672278Y-79207739D01*
X134672279Y-79207735D01*
X134673183Y-79204757D01*
X134674252Y-79202973D01*
X134674647Y-79202020D01*
X134674788Y-79202078D01*
X134704661Y-79152237D01*
X136501894Y-77355005D01*
X136564206Y-77320979D01*
X136590989Y-77318100D01*
X137295203Y-77318100D01*
X137363324Y-77338102D01*
X137407469Y-77386896D01*
X137424582Y-77420481D01*
X137550353Y-77593590D01*
X137550355Y-77593592D01*
X137550357Y-77593595D01*
X137701650Y-77744888D01*
X137701653Y-77744890D01*
X137701656Y-77744893D01*
X137844285Y-77848519D01*
X137878770Y-77873574D01*
X137878127Y-77874458D01*
X137922240Y-77923219D01*
X137933844Y-77993261D01*
X137905739Y-78058457D01*
X137878502Y-78082057D01*
X137878770Y-78082426D01*
X137701653Y-78211109D01*
X137701650Y-78211111D01*
X137550357Y-78362404D01*
X137550355Y-78362407D01*
X137424584Y-78535515D01*
X137327441Y-78726169D01*
X137327440Y-78726171D01*
X137261318Y-78929670D01*
X137261318Y-78929673D01*
X137227846Y-79141013D01*
X137227846Y-79354987D01*
X137243237Y-79452166D01*
X137261318Y-79566329D01*
X137300533Y-79687018D01*
X137327440Y-79769829D01*
X137424582Y-79960481D01*
X137550353Y-80133590D01*
X137550355Y-80133592D01*
X137550357Y-80133595D01*
X137701650Y-80284888D01*
X137701653Y-80284890D01*
X137701656Y-80284893D01*
X137874765Y-80410664D01*
X138065417Y-80507806D01*
X138268919Y-80573928D01*
X138480259Y-80607400D01*
X138480261Y-80607400D01*
X138789231Y-80607400D01*
X138789233Y-80607400D01*
X139000573Y-80573928D01*
X139204075Y-80507806D01*
X139394727Y-80410664D01*
X139567836Y-80284893D01*
X139719139Y-80133590D01*
X139844910Y-79960481D01*
X139942052Y-79769829D01*
X140008174Y-79566327D01*
X140041646Y-79354987D01*
X140041646Y-79141013D01*
X140008174Y-78929673D01*
X139942052Y-78726171D01*
X139844910Y-78535519D01*
X139719139Y-78362410D01*
X139719136Y-78362407D01*
X139719134Y-78362404D01*
X139567841Y-78211111D01*
X139567838Y-78211109D01*
X139567836Y-78211107D01*
X139394727Y-78085336D01*
X139390722Y-78082426D01*
X139391365Y-78081540D01*
X139347257Y-78032794D01*
X139335645Y-77962753D01*
X139363743Y-77897553D01*
X139390990Y-77873943D01*
X139390722Y-77873574D01*
X139410850Y-77858949D01*
X139567836Y-77744893D01*
X139719139Y-77593590D01*
X139844910Y-77420481D01*
X139942052Y-77229829D01*
X140008174Y-77026327D01*
X140041646Y-76814987D01*
X140041646Y-76741902D01*
X140047984Y-76720314D01*
X140049590Y-76697870D01*
X140057791Y-76686913D01*
X140061648Y-76673781D01*
X140078653Y-76659045D01*
X140092137Y-76641034D01*
X140104959Y-76636251D01*
X140115304Y-76627288D01*
X140137576Y-76624085D01*
X140158657Y-76616223D01*
X140172029Y-76619131D01*
X140185578Y-76617184D01*
X140206044Y-76626531D01*
X140228031Y-76631314D01*
X140246044Y-76644799D01*
X140250158Y-76646678D01*
X140256741Y-76652807D01*
X140322995Y-76719061D01*
X140357021Y-76781373D01*
X140359900Y-76808156D01*
X140359900Y-81521120D01*
X140359823Y-81525523D01*
X140358172Y-81572727D01*
X140359900Y-81583340D01*
X140359900Y-81594090D01*
X140369540Y-81642559D01*
X140369897Y-81644747D01*
X140369896Y-81644748D01*
X140377482Y-81691337D01*
X140377487Y-81691358D01*
X140377680Y-81691872D01*
X140381248Y-81701419D01*
X140383346Y-81711960D01*
X140402246Y-81757592D01*
X140403018Y-81759655D01*
X140403026Y-81759674D01*
X140419565Y-81803916D01*
X140419866Y-81804403D01*
X140429115Y-81822459D01*
X140429334Y-81822989D01*
X140429336Y-81822992D01*
X140455579Y-81862268D01*
X140455580Y-81862268D01*
X140456795Y-81864087D01*
X140482799Y-81906113D01*
X140490130Y-81913975D01*
X140496104Y-81922916D01*
X140531063Y-81957875D01*
X140564757Y-81994011D01*
X140573477Y-82000289D01*
X140580685Y-82007497D01*
X140580686Y-82007499D01*
X140581078Y-82007891D01*
X140581083Y-82007895D01*
X140620388Y-82034159D01*
X140624005Y-82036669D01*
X141520532Y-82682151D01*
X141861130Y-82927375D01*
X142326353Y-83262326D01*
X142369140Y-83316361D01*
X142375549Y-83331835D01*
X142375553Y-83331841D01*
X142375554Y-83331843D01*
X142452915Y-83447622D01*
X142551378Y-83546085D01*
X142667157Y-83623446D01*
X142795805Y-83676734D01*
X142932376Y-83703900D01*
X143071624Y-83703900D01*
X143208195Y-83676734D01*
X143336843Y-83623446D01*
X143452622Y-83546085D01*
X143551085Y-83447622D01*
X143628446Y-83331843D01*
X143681734Y-83203195D01*
X143708900Y-83066624D01*
X143708900Y-82927376D01*
X143681734Y-82790805D01*
X143628446Y-82662157D01*
X143551085Y-82546378D01*
X143452622Y-82447915D01*
X143336843Y-82370554D01*
X143208196Y-82317266D01*
X143088382Y-82293433D01*
X143039343Y-82272108D01*
X143024859Y-82261680D01*
X142565550Y-81930986D01*
X141632479Y-81259192D01*
X141628895Y-81254585D01*
X141623588Y-81252162D01*
X141607866Y-81227699D01*
X141591486Y-81208795D01*
X141590793Y-81205613D01*
X141588883Y-81203157D01*
X141587534Y-81196062D01*
X141585204Y-81192436D01*
X141580742Y-81161404D01*
X162323100Y-81161404D01*
X162323100Y-81398596D01*
X162355574Y-81603627D01*
X162360206Y-81632872D01*
X162421807Y-81822459D01*
X162433501Y-81858449D01*
X162541183Y-82069788D01*
X162541185Y-82069791D01*
X162680602Y-82261682D01*
X162848317Y-82429397D01*
X162848320Y-82429399D01*
X163040212Y-82568817D01*
X163251551Y-82676499D01*
X163477133Y-82749795D01*
X163711404Y-82786900D01*
X163711407Y-82786900D01*
X163948593Y-82786900D01*
X163948596Y-82786900D01*
X164182867Y-82749795D01*
X164408449Y-82676499D01*
X164619788Y-82568817D01*
X164811680Y-82429399D01*
X164979399Y-82261680D01*
X165118817Y-82069788D01*
X165226499Y-81858449D01*
X165299795Y-81632867D01*
X165336900Y-81398596D01*
X165336900Y-81161404D01*
X165299795Y-80927133D01*
X165226499Y-80701551D01*
X165118817Y-80490212D01*
X165061020Y-80410661D01*
X164979397Y-80298317D01*
X164811682Y-80130602D01*
X164619791Y-79991185D01*
X164619790Y-79991184D01*
X164619788Y-79991183D01*
X164408449Y-79883501D01*
X164408446Y-79883500D01*
X164408444Y-79883499D01*
X164182872Y-79810206D01*
X164182868Y-79810205D01*
X164182867Y-79810205D01*
X163948596Y-79773100D01*
X163711404Y-79773100D01*
X163477133Y-79810205D01*
X163477127Y-79810206D01*
X163251555Y-79883499D01*
X163251549Y-79883502D01*
X163040208Y-79991185D01*
X162848317Y-80130602D01*
X162680602Y-80298317D01*
X162541185Y-80490208D01*
X162433502Y-80701549D01*
X162433499Y-80701555D01*
X162360206Y-80927127D01*
X162360205Y-80927132D01*
X162360205Y-80927133D01*
X162323100Y-81161404D01*
X141580742Y-81161404D01*
X141580100Y-81156938D01*
X141580100Y-76443167D01*
X141580100Y-76443164D01*
X141577259Y-76428883D01*
X141556655Y-76325294D01*
X141510745Y-76214460D01*
X141510702Y-76214319D01*
X141443896Y-76114338D01*
X141410277Y-76080719D01*
X141358916Y-76029358D01*
X140078551Y-74748993D01*
X140044525Y-74686681D01*
X140041646Y-74659898D01*
X140041646Y-73240112D01*
X146273100Y-73240112D01*
X146273100Y-73245067D01*
X146273100Y-80175889D01*
X146276624Y-80229657D01*
X146281783Y-80268845D01*
X146287259Y-80300708D01*
X146287262Y-80300717D01*
X146333443Y-80421024D01*
X146372624Y-80488889D01*
X146372628Y-80488895D01*
X146438079Y-80574192D01*
X146438098Y-80574213D01*
X146501772Y-80637887D01*
X146501786Y-80637900D01*
X146501799Y-80637913D01*
X146537280Y-80669029D01*
X146542318Y-80673448D01*
X146573658Y-80697495D01*
X146573665Y-80697500D01*
X146600074Y-80716164D01*
X146717803Y-80768581D01*
X146793503Y-80788865D01*
X146900112Y-80802900D01*
X146900120Y-80802900D01*
X158534890Y-80802900D01*
X158542432Y-80802405D01*
X158588654Y-80799376D01*
X158627839Y-80794217D01*
X158659710Y-80788740D01*
X158780022Y-80742558D01*
X158847893Y-80703373D01*
X158933201Y-80637913D01*
X158996913Y-80574201D01*
X159032440Y-80533691D01*
X159056500Y-80502335D01*
X159075176Y-80475907D01*
X159093048Y-80435757D01*
X159101545Y-80421044D01*
X159136581Y-80342357D01*
X159143456Y-80298947D01*
X159147864Y-80282499D01*
X159161900Y-80175888D01*
X159161900Y-73253451D01*
X162222000Y-73253451D01*
X162222000Y-73506548D01*
X162261596Y-73756546D01*
X162339806Y-73997253D01*
X162339809Y-73997259D01*
X162454717Y-74222779D01*
X162527639Y-74323148D01*
X162527641Y-74323148D01*
X163037256Y-73813533D01*
X163130924Y-73953717D01*
X163256283Y-74079076D01*
X163396465Y-74172742D01*
X162886850Y-74682357D01*
X162886850Y-74682359D01*
X162987220Y-74755282D01*
X163212740Y-74870190D01*
X163212746Y-74870193D01*
X163453454Y-74948403D01*
X163453451Y-74948403D01*
X163703451Y-74988000D01*
X163956549Y-74988000D01*
X164206546Y-74948403D01*
X164447253Y-74870193D01*
X164447259Y-74870190D01*
X164672775Y-74755284D01*
X164773148Y-74682358D01*
X164773148Y-74682357D01*
X164263534Y-74172743D01*
X164403717Y-74079076D01*
X164529076Y-73953717D01*
X164622743Y-73813534D01*
X165132357Y-74323148D01*
X165132358Y-74323148D01*
X165205284Y-74222775D01*
X165320190Y-73997259D01*
X165320193Y-73997253D01*
X165398403Y-73756546D01*
X165438000Y-73506548D01*
X165438000Y-73253451D01*
X165398403Y-73003453D01*
X165320193Y-72762746D01*
X165320190Y-72762740D01*
X165205282Y-72537220D01*
X165132359Y-72436850D01*
X165132357Y-72436850D01*
X164622742Y-72946465D01*
X164529076Y-72806283D01*
X164403717Y-72680924D01*
X164263533Y-72587256D01*
X164773148Y-72077641D01*
X164773148Y-72077639D01*
X164672779Y-72004717D01*
X164447259Y-71889809D01*
X164447253Y-71889806D01*
X164206545Y-71811596D01*
X164206548Y-71811596D01*
X163956549Y-71772000D01*
X163703451Y-71772000D01*
X163453453Y-71811596D01*
X163212746Y-71889806D01*
X163212740Y-71889809D01*
X162987225Y-72004714D01*
X162987224Y-72004715D01*
X162886850Y-72077640D01*
X162886850Y-72077641D01*
X163396465Y-72587256D01*
X163256283Y-72680924D01*
X163130924Y-72806283D01*
X163037256Y-72946465D01*
X162527641Y-72436850D01*
X162527640Y-72436850D01*
X162454715Y-72537224D01*
X162454714Y-72537225D01*
X162339809Y-72762740D01*
X162339806Y-72762746D01*
X162261596Y-73003453D01*
X162222000Y-73253451D01*
X159161900Y-73253451D01*
X159161900Y-73240112D01*
X159158376Y-73186346D01*
X159153217Y-73147161D01*
X159147740Y-73115290D01*
X159101558Y-72994978D01*
X159062373Y-72927107D01*
X159052062Y-72913669D01*
X158996920Y-72841807D01*
X158996901Y-72841786D01*
X158933227Y-72778112D01*
X158933212Y-72778098D01*
X158933201Y-72778087D01*
X158892691Y-72742560D01*
X158892681Y-72742551D01*
X158861341Y-72718504D01*
X158844757Y-72706784D01*
X158834926Y-72699836D01*
X158813003Y-72690075D01*
X158717200Y-72647420D01*
X158717198Y-72647419D01*
X158717197Y-72647419D01*
X158641497Y-72627135D01*
X158641492Y-72627134D01*
X158641487Y-72627133D01*
X158534892Y-72613100D01*
X158534888Y-72613100D01*
X146900112Y-72613100D01*
X146900110Y-72613100D01*
X146846342Y-72616624D01*
X146807154Y-72621783D01*
X146775291Y-72627259D01*
X146775282Y-72627262D01*
X146654975Y-72673443D01*
X146587110Y-72712624D01*
X146587104Y-72712628D01*
X146501807Y-72778079D01*
X146501786Y-72778098D01*
X146438112Y-72841772D01*
X146438085Y-72841801D01*
X146402551Y-72882318D01*
X146378496Y-72913669D01*
X146359841Y-72940065D01*
X146359836Y-72940073D01*
X146344643Y-72974196D01*
X146338662Y-72985934D01*
X146333446Y-72994969D01*
X146333433Y-72994994D01*
X146298419Y-73073639D01*
X146298419Y-73073640D01*
X146298419Y-73073643D01*
X146291543Y-73117053D01*
X146287135Y-73133506D01*
X146273100Y-73240112D01*
X140041646Y-73240112D01*
X140041646Y-73183479D01*
X140039832Y-73172024D01*
X140026555Y-73088194D01*
X139979054Y-72994969D01*
X139968038Y-72973348D01*
X139876897Y-72882207D01*
X139797606Y-72841807D01*
X139762052Y-72823691D01*
X139666770Y-72808600D01*
X137602722Y-72808600D01*
X137507440Y-72823691D01*
X137507438Y-72823691D01*
X137507438Y-72823692D01*
X137392594Y-72882207D01*
X137301453Y-72973348D01*
X137250351Y-73073643D01*
X137242937Y-73088194D01*
X137229660Y-73172024D01*
X137227846Y-73183479D01*
X137227846Y-73431900D01*
X137207844Y-73500021D01*
X137154188Y-73546514D01*
X137101846Y-73557900D01*
X135651986Y-73557900D01*
X135595619Y-73543781D01*
X135595561Y-73543923D01*
X135594606Y-73543527D01*
X135592592Y-73543023D01*
X135589849Y-73541557D01*
X135589845Y-73541555D01*
X135589843Y-73541554D01*
X135461196Y-73488266D01*
X135324627Y-73461100D01*
X135324624Y-73461100D01*
X135185376Y-73461100D01*
X135185372Y-73461100D01*
X135048803Y-73488266D01*
X135048802Y-73488267D01*
X134920150Y-73541557D01*
X134917408Y-73543023D01*
X134915393Y-73543527D01*
X134914439Y-73543923D01*
X134914380Y-73543781D01*
X134858014Y-73557900D01*
X134127986Y-73557900D01*
X134071619Y-73543781D01*
X134071561Y-73543923D01*
X134070606Y-73543527D01*
X134068592Y-73543023D01*
X134065849Y-73541557D01*
X134065845Y-73541555D01*
X134065843Y-73541554D01*
X133937196Y-73488266D01*
X133800627Y-73461100D01*
X133800624Y-73461100D01*
X133661376Y-73461100D01*
X133661372Y-73461100D01*
X133524803Y-73488266D01*
X133524802Y-73488267D01*
X133469715Y-73511085D01*
X133419684Y-73531809D01*
X133396155Y-73541555D01*
X133280382Y-73618912D01*
X133280375Y-73618917D01*
X133181917Y-73717375D01*
X133181912Y-73717382D01*
X133122458Y-73806362D01*
X133104554Y-73833157D01*
X133082483Y-73886440D01*
X133051267Y-73961802D01*
X133051266Y-73961803D01*
X133024100Y-74098372D01*
X133024100Y-74237627D01*
X133032529Y-74280000D01*
X133051266Y-74374195D01*
X133104554Y-74502843D01*
X133181915Y-74618622D01*
X133280378Y-74717085D01*
X133396157Y-74794446D01*
X133524805Y-74847734D01*
X133661376Y-74874900D01*
X133800624Y-74874900D01*
X133937195Y-74847734D01*
X134065843Y-74794446D01*
X134065849Y-74794442D01*
X134068592Y-74792977D01*
X134070606Y-74792472D01*
X134071561Y-74792077D01*
X134071619Y-74792218D01*
X134127986Y-74778100D01*
X134858014Y-74778100D01*
X134914380Y-74792218D01*
X134914439Y-74792077D01*
X134915393Y-74792472D01*
X134917408Y-74792977D01*
X134920150Y-74794442D01*
X134920152Y-74794443D01*
X134920157Y-74794446D01*
X135048805Y-74847734D01*
X135185376Y-74874900D01*
X135324624Y-74874900D01*
X135461195Y-74847734D01*
X135589843Y-74794446D01*
X135589849Y-74794442D01*
X135592592Y-74792977D01*
X135594606Y-74792472D01*
X135595561Y-74792077D01*
X135595619Y-74792218D01*
X135651986Y-74778100D01*
X137101846Y-74778100D01*
X137169967Y-74798102D01*
X137216460Y-74851758D01*
X137227846Y-74904100D01*
X137227846Y-75152524D01*
X137242937Y-75247806D01*
X137242938Y-75247807D01*
X137301453Y-75362651D01*
X137392594Y-75453792D01*
X137431854Y-75473795D01*
X137507440Y-75512309D01*
X137567943Y-75521891D01*
X137632095Y-75552304D01*
X137669622Y-75612572D01*
X137668608Y-75683561D01*
X137637327Y-75735435D01*
X137550353Y-75822409D01*
X137424582Y-75995518D01*
X137407469Y-76029104D01*
X137358720Y-76080719D01*
X137295203Y-76097900D01*
X136225994Y-76097900D01*
X136108126Y-76121346D01*
X136108121Y-76121348D01*
X135997095Y-76167336D01*
X135926865Y-76214263D01*
X135897171Y-76234103D01*
X135897165Y-76234108D01*
X133841846Y-78289427D01*
X133792007Y-78319300D01*
X133792066Y-78319442D01*
X133791113Y-78319836D01*
X133789331Y-78320905D01*
X133786352Y-78321808D01*
X133657701Y-78375098D01*
X133541926Y-78452456D01*
X133541919Y-78452461D01*
X133443461Y-78550919D01*
X133443456Y-78550926D01*
X133366098Y-78666701D01*
X133312808Y-78795352D01*
X133311905Y-78798331D01*
X133310836Y-78800113D01*
X133310442Y-78801066D01*
X133310300Y-78801007D01*
X133280427Y-78850846D01*
X131996180Y-80135093D01*
X131977393Y-80145351D01*
X131961467Y-80159658D01*
X131946858Y-80162025D01*
X131933868Y-80169119D01*
X131912513Y-80167591D01*
X131891384Y-80171016D01*
X131877815Y-80165109D01*
X131863053Y-80164054D01*
X131845914Y-80151224D01*
X131826287Y-80142681D01*
X131809420Y-80123904D01*
X131806217Y-80121507D01*
X131802330Y-80116014D01*
X131778265Y-80079999D01*
X131757051Y-80012251D01*
X131775833Y-79943784D01*
X131778236Y-79940044D01*
X131860839Y-79816420D01*
X131931088Y-79646825D01*
X131966900Y-79466784D01*
X131966900Y-79283216D01*
X131931088Y-79103175D01*
X131860839Y-78933580D01*
X131758854Y-78780948D01*
X131629052Y-78651146D01*
X131476420Y-78549161D01*
X131306825Y-78478912D01*
X131126786Y-78443100D01*
X131126784Y-78443100D01*
X130493216Y-78443100D01*
X130493213Y-78443100D01*
X130313174Y-78478912D01*
X130313169Y-78478914D01*
X130143580Y-78549161D01*
X129990949Y-78651145D01*
X129990943Y-78651150D01*
X129861150Y-78780943D01*
X129861145Y-78780949D01*
X129759161Y-78933580D01*
X129688914Y-79103169D01*
X129688912Y-79103174D01*
X129653100Y-79283213D01*
X107815500Y-79283213D01*
X107815500Y-73253451D01*
X110152000Y-73253451D01*
X110152000Y-73506548D01*
X110191596Y-73756546D01*
X110269806Y-73997253D01*
X110269809Y-73997259D01*
X110384717Y-74222779D01*
X110457639Y-74323148D01*
X110457641Y-74323148D01*
X110967256Y-73813533D01*
X111060924Y-73953717D01*
X111186283Y-74079076D01*
X111326465Y-74172742D01*
X110816850Y-74682357D01*
X110816850Y-74682359D01*
X110917220Y-74755282D01*
X111142740Y-74870190D01*
X111142746Y-74870193D01*
X111383454Y-74948403D01*
X111383451Y-74948403D01*
X111633451Y-74988000D01*
X111886549Y-74988000D01*
X112136546Y-74948403D01*
X112377253Y-74870193D01*
X112377259Y-74870190D01*
X112602775Y-74755284D01*
X112703148Y-74682358D01*
X112703148Y-74682357D01*
X112193534Y-74172743D01*
X112333717Y-74079076D01*
X112459076Y-73953717D01*
X112552743Y-73813534D01*
X113062357Y-74323148D01*
X113062358Y-74323148D01*
X113135284Y-74222775D01*
X113250190Y-73997259D01*
X113250193Y-73997253D01*
X113328403Y-73756546D01*
X113368000Y-73506548D01*
X113368000Y-73253451D01*
X113328403Y-73003453D01*
X113250193Y-72762746D01*
X113250190Y-72762740D01*
X113135282Y-72537220D01*
X113062359Y-72436850D01*
X113062357Y-72436850D01*
X112552742Y-72946465D01*
X112459076Y-72806283D01*
X112333717Y-72680924D01*
X112193533Y-72587256D01*
X112703148Y-72077641D01*
X112703148Y-72077639D01*
X112697056Y-72073213D01*
X119083100Y-72073213D01*
X119083100Y-72706786D01*
X119097281Y-72778079D01*
X119118912Y-72886825D01*
X119189161Y-73056420D01*
X119291146Y-73209052D01*
X119420948Y-73338854D01*
X119573580Y-73440839D01*
X119743175Y-73511088D01*
X119923216Y-73546900D01*
X119923217Y-73546900D01*
X120106783Y-73546900D01*
X120106784Y-73546900D01*
X120286825Y-73511088D01*
X120456420Y-73440839D01*
X120489012Y-73419061D01*
X120556761Y-73397847D01*
X120625228Y-73416629D01*
X120629014Y-73419062D01*
X120795691Y-73530432D01*
X120983683Y-73608301D01*
X120983690Y-73608303D01*
X121030999Y-73617713D01*
X121031000Y-73617713D01*
X121031000Y-72666330D01*
X121054745Y-72690075D01*
X121140255Y-72739444D01*
X121235630Y-72765000D01*
X121334370Y-72765000D01*
X121429745Y-72739444D01*
X121515255Y-72690075D01*
X121539000Y-72666330D01*
X121539000Y-73617713D01*
X121586309Y-73608303D01*
X121586316Y-73608301D01*
X121774307Y-73530433D01*
X121777642Y-73528651D01*
X121779590Y-73528245D01*
X121780028Y-73528064D01*
X121780062Y-73528146D01*
X121847147Y-73514177D01*
X121894247Y-73527505D01*
X121902694Y-73531809D01*
X121997976Y-73546900D01*
X121997979Y-73546900D01*
X123112021Y-73546900D01*
X123112024Y-73546900D01*
X123207306Y-73531809D01*
X123322151Y-73473292D01*
X123413292Y-73382151D01*
X123471809Y-73267306D01*
X123486900Y-73172024D01*
X123486900Y-71685372D01*
X127182100Y-71685372D01*
X127182100Y-71824627D01*
X127209266Y-71961195D01*
X127262554Y-72089843D01*
X127339915Y-72205622D01*
X127438378Y-72304085D01*
X127554157Y-72381446D01*
X127682805Y-72434734D01*
X127682811Y-72434735D01*
X127685773Y-72435634D01*
X127687553Y-72436700D01*
X127688524Y-72437103D01*
X127688464Y-72437246D01*
X127738305Y-72467117D01*
X128685104Y-73413916D01*
X128770084Y-73498896D01*
X128870009Y-73565664D01*
X128883244Y-73571146D01*
X128981040Y-73611655D01*
X129071747Y-73629697D01*
X129078205Y-73631721D01*
X129102315Y-73647839D01*
X129128016Y-73661283D01*
X129131453Y-73667319D01*
X129137227Y-73671179D01*
X129148795Y-73697774D01*
X129163148Y-73722978D01*
X129162776Y-73729913D01*
X129165547Y-73736283D01*
X129160900Y-73764913D01*
X129159348Y-73793873D01*
X129154689Y-73803179D01*
X129154173Y-73806362D01*
X129151742Y-73809066D01*
X129145291Y-73821955D01*
X129124162Y-73853576D01*
X129124161Y-73853579D01*
X129053914Y-74023169D01*
X129053912Y-74023174D01*
X129018100Y-74203213D01*
X129018100Y-74386786D01*
X129053912Y-74566825D01*
X129124161Y-74736420D01*
X129226146Y-74889052D01*
X129355948Y-75018854D01*
X129508580Y-75120839D01*
X129678175Y-75191088D01*
X129858216Y-75226900D01*
X129858217Y-75226900D01*
X130491783Y-75226900D01*
X130491784Y-75226900D01*
X130671825Y-75191088D01*
X130841420Y-75120839D01*
X130994052Y-75018854D01*
X131123854Y-74889052D01*
X131225839Y-74736420D01*
X131296088Y-74566825D01*
X131331900Y-74386784D01*
X131331900Y-74203216D01*
X131296088Y-74023175D01*
X131225839Y-73853580D01*
X131143264Y-73729998D01*
X131122051Y-73662249D01*
X131140834Y-73593782D01*
X131143236Y-73590044D01*
X131225839Y-73466420D01*
X131296088Y-73296825D01*
X131331900Y-73116784D01*
X131331900Y-72933216D01*
X131296088Y-72753175D01*
X131248419Y-72638094D01*
X131240831Y-72567507D01*
X131255959Y-72532092D01*
X131253790Y-72530987D01*
X131286333Y-72467117D01*
X131316809Y-72407306D01*
X131331900Y-72312024D01*
X131331900Y-71197976D01*
X131316809Y-71102694D01*
X131278295Y-71027108D01*
X131258292Y-70987848D01*
X131167151Y-70896707D01*
X131090098Y-70857447D01*
X131052306Y-70838191D01*
X130957024Y-70823100D01*
X129392976Y-70823100D01*
X129297694Y-70838191D01*
X129297692Y-70838191D01*
X129297692Y-70838192D01*
X129182848Y-70896707D01*
X129091707Y-70987848D01*
X129061008Y-71048100D01*
X129033191Y-71102694D01*
X129022262Y-71171699D01*
X129018100Y-71197979D01*
X129018100Y-71717098D01*
X128998098Y-71785219D01*
X128944442Y-71831712D01*
X128874168Y-71841816D01*
X128809588Y-71812322D01*
X128803005Y-71806193D01*
X128601117Y-71604305D01*
X128571246Y-71554464D01*
X128571103Y-71554524D01*
X128570700Y-71553553D01*
X128569634Y-71551773D01*
X128568735Y-71548811D01*
X128568734Y-71548805D01*
X128515446Y-71420157D01*
X128438085Y-71304378D01*
X128339622Y-71205915D01*
X128223843Y-71128554D01*
X128095196Y-71075266D01*
X127958627Y-71048100D01*
X127958624Y-71048100D01*
X127819376Y-71048100D01*
X127819372Y-71048100D01*
X127682803Y-71075266D01*
X127682802Y-71075267D01*
X127554155Y-71128555D01*
X127438382Y-71205912D01*
X127438375Y-71205917D01*
X127339917Y-71304375D01*
X127339912Y-71304382D01*
X127277460Y-71397849D01*
X127262554Y-71420157D01*
X127253860Y-71441146D01*
X127209267Y-71548802D01*
X127209266Y-71548803D01*
X127182100Y-71685372D01*
X123486900Y-71685372D01*
X123486900Y-71607976D01*
X123471809Y-71512694D01*
X123424658Y-71420155D01*
X123413292Y-71397848D01*
X123322151Y-71306707D01*
X123241469Y-71265598D01*
X123207306Y-71248191D01*
X123112024Y-71233100D01*
X121997976Y-71233100D01*
X121977517Y-71236340D01*
X121902693Y-71248190D01*
X121894239Y-71252498D01*
X121824461Y-71265598D01*
X121777652Y-71251353D01*
X121774315Y-71249569D01*
X121586318Y-71171699D01*
X121586315Y-71171698D01*
X121539000Y-71162286D01*
X121539000Y-72113670D01*
X121515255Y-72089925D01*
X121429745Y-72040556D01*
X121334370Y-72015000D01*
X121235630Y-72015000D01*
X121140255Y-72040556D01*
X121054745Y-72089925D01*
X121031000Y-72113670D01*
X121031000Y-71162286D01*
X121030999Y-71162286D01*
X120983684Y-71171698D01*
X120983681Y-71171699D01*
X120795690Y-71249567D01*
X120629014Y-71360937D01*
X120561261Y-71382152D01*
X120492794Y-71363369D01*
X120489010Y-71360937D01*
X120456420Y-71339161D01*
X120286825Y-71268912D01*
X120270164Y-71265598D01*
X120106786Y-71233100D01*
X120106784Y-71233100D01*
X119923216Y-71233100D01*
X119923213Y-71233100D01*
X119743174Y-71268912D01*
X119743169Y-71268914D01*
X119573580Y-71339161D01*
X119420949Y-71441145D01*
X119420943Y-71441150D01*
X119291150Y-71570943D01*
X119291145Y-71570949D01*
X119189161Y-71723580D01*
X119118914Y-71893169D01*
X119118912Y-71893174D01*
X119083100Y-72073213D01*
X112697056Y-72073213D01*
X112602779Y-72004717D01*
X112377259Y-71889809D01*
X112377253Y-71889806D01*
X112136545Y-71811596D01*
X112136548Y-71811596D01*
X111886549Y-71772000D01*
X111633451Y-71772000D01*
X111383453Y-71811596D01*
X111142746Y-71889806D01*
X111142740Y-71889809D01*
X110917225Y-72004714D01*
X110917224Y-72004715D01*
X110816850Y-72077640D01*
X110816850Y-72077641D01*
X111326465Y-72587256D01*
X111186283Y-72680924D01*
X111060924Y-72806283D01*
X110967256Y-72946465D01*
X110457641Y-72436850D01*
X110457640Y-72436850D01*
X110384715Y-72537224D01*
X110384714Y-72537225D01*
X110269809Y-72762740D01*
X110269806Y-72762746D01*
X110191596Y-73003453D01*
X110152000Y-73253451D01*
X107815500Y-73253451D01*
X107815500Y-69206500D01*
X107835502Y-69138379D01*
X107889158Y-69091886D01*
X107941500Y-69080500D01*
X168918500Y-69080500D01*
X168986621Y-69100502D01*
G37*
%TD.AperFunction*%
%TD*%
%TA.AperFunction,Conductor*%
%TO.N,/Vout*%
G36*
X158610588Y-73045284D02*
G01*
X158641944Y-73069344D01*
X158705656Y-73133056D01*
X158744841Y-73200927D01*
X158750000Y-73240112D01*
X158750000Y-80175888D01*
X158744841Y-80195141D01*
X158744841Y-80215073D01*
X158734874Y-80232334D01*
X158729716Y-80251588D01*
X158705656Y-80282944D01*
X158641944Y-80346656D01*
X158574073Y-80385841D01*
X158534888Y-80391000D01*
X146900112Y-80391000D01*
X146824412Y-80370716D01*
X146793056Y-80346656D01*
X146729344Y-80282944D01*
X146690159Y-80215073D01*
X146685000Y-80175888D01*
X146685000Y-76576879D01*
X153294246Y-76576879D01*
X153294246Y-76839120D01*
X153328476Y-77099118D01*
X153396347Y-77352415D01*
X153396351Y-77352427D01*
X153496698Y-77594688D01*
X153496705Y-77594702D01*
X153627823Y-77821805D01*
X153627826Y-77821809D01*
X153787463Y-78029850D01*
X153972895Y-78215282D01*
X154180936Y-78374919D01*
X154180940Y-78374922D01*
X154408043Y-78506040D01*
X154408057Y-78506047D01*
X154581541Y-78577906D01*
X154650327Y-78606398D01*
X154903630Y-78674270D01*
X155163626Y-78708500D01*
X155425866Y-78708500D01*
X155685862Y-78674270D01*
X155939165Y-78606398D01*
X156112657Y-78534534D01*
X156181434Y-78506047D01*
X156181437Y-78506045D01*
X156181443Y-78506043D01*
X156408549Y-78374924D01*
X156616597Y-78215282D01*
X156802028Y-78029851D01*
X156961670Y-77821803D01*
X157092789Y-77594697D01*
X157193144Y-77352419D01*
X157261016Y-77099116D01*
X157295246Y-76839120D01*
X157295246Y-76576880D01*
X157261016Y-76316884D01*
X157193144Y-76063581D01*
X157164652Y-75994795D01*
X157092793Y-75821311D01*
X157092786Y-75821297D01*
X156961668Y-75594194D01*
X156961665Y-75594190D01*
X156802028Y-75386149D01*
X156616596Y-75200717D01*
X156408555Y-75041080D01*
X156408551Y-75041077D01*
X156181448Y-74909959D01*
X156181434Y-74909952D01*
X155939173Y-74809605D01*
X155939169Y-74809603D01*
X155939165Y-74809602D01*
X155909236Y-74801582D01*
X155685864Y-74741730D01*
X155425866Y-74707500D01*
X155163626Y-74707500D01*
X154903627Y-74741730D01*
X154650330Y-74809601D01*
X154650318Y-74809605D01*
X154408057Y-74909952D01*
X154408043Y-74909959D01*
X154180940Y-75041077D01*
X154180936Y-75041080D01*
X153972895Y-75200717D01*
X153787463Y-75386149D01*
X153627826Y-75594190D01*
X153627823Y-75594194D01*
X153496705Y-75821297D01*
X153496698Y-75821311D01*
X153396351Y-76063572D01*
X153396347Y-76063584D01*
X153328476Y-76316881D01*
X153294246Y-76576879D01*
X146685000Y-76576879D01*
X146685000Y-73240112D01*
X146690159Y-73220858D01*
X146690159Y-73200927D01*
X146700125Y-73183665D01*
X146705284Y-73164412D01*
X146729344Y-73133056D01*
X146793056Y-73069344D01*
X146860927Y-73030159D01*
X146900112Y-73025000D01*
X158534888Y-73025000D01*
X158610588Y-73045284D01*
G37*
%TD.AperFunction*%
%TD*%
M02*
