%TF.GenerationSoftware,KiCad,Pcbnew,9.0.6*%
%TF.CreationDate,2025-11-17T11:05:30-05:00*%
%TF.ProjectId,vldo,766c646f-2e6b-4696-9361-645f70636258,0.1*%
%TF.SameCoordinates,Original*%
%TF.FileFunction,Drillmap*%
%TF.FilePolarity,Positive*%
%FSLAX45Y45*%
G04 Gerber Fmt 4.5, Leading zero omitted, Abs format (unit mm)*
G04 Created by KiCad (PCBNEW 9.0.6) date 2025-11-17 11:05:30*
%MOMM*%
%LPD*%
G01*
G04 APERTURE LIST*
%ADD10C,0.304800*%
%ADD11C,0.200000*%
%ADD12C,0.350000*%
G04 APERTURE END LIST*
D10*
X10731500Y-6858000D02*
X16954500Y-6858000D01*
X16954500Y-8699500D01*
X10731500Y-8699500D01*
X10731500Y-6858000D01*
D11*
D12*
X15354475Y-7495800D02*
X15704475Y-7845800D01*
X15704475Y-7495800D02*
X15354475Y-7845800D01*
D11*
X10977037Y-9026224D02*
X10977037Y-8826224D01*
X10977037Y-8826224D02*
X11024656Y-8826224D01*
X11024656Y-8826224D02*
X11053227Y-8835748D01*
X11053227Y-8835748D02*
X11072275Y-8854795D01*
X11072275Y-8854795D02*
X11081799Y-8873843D01*
X11081799Y-8873843D02*
X11091323Y-8911938D01*
X11091323Y-8911938D02*
X11091323Y-8940510D01*
X11091323Y-8940510D02*
X11081799Y-8978605D01*
X11081799Y-8978605D02*
X11072275Y-8997652D01*
X11072275Y-8997652D02*
X11053227Y-9016700D01*
X11053227Y-9016700D02*
X11024656Y-9026224D01*
X11024656Y-9026224D02*
X10977037Y-9026224D01*
X11177037Y-9026224D02*
X11177037Y-8892890D01*
X11177037Y-8930986D02*
X11186561Y-8911938D01*
X11186561Y-8911938D02*
X11196084Y-8902414D01*
X11196084Y-8902414D02*
X11215132Y-8892890D01*
X11215132Y-8892890D02*
X11234180Y-8892890D01*
X11300846Y-9026224D02*
X11300846Y-8892890D01*
X11300846Y-8826224D02*
X11291322Y-8835748D01*
X11291322Y-8835748D02*
X11300846Y-8845271D01*
X11300846Y-8845271D02*
X11310370Y-8835748D01*
X11310370Y-8835748D02*
X11300846Y-8826224D01*
X11300846Y-8826224D02*
X11300846Y-8845271D01*
X11424656Y-9026224D02*
X11405608Y-9016700D01*
X11405608Y-9016700D02*
X11396084Y-8997652D01*
X11396084Y-8997652D02*
X11396084Y-8826224D01*
X11529418Y-9026224D02*
X11510370Y-9016700D01*
X11510370Y-9016700D02*
X11500846Y-8997652D01*
X11500846Y-8997652D02*
X11500846Y-8826224D01*
X11757989Y-9026224D02*
X11757989Y-8826224D01*
X11757989Y-8826224D02*
X11824656Y-8969081D01*
X11824656Y-8969081D02*
X11891322Y-8826224D01*
X11891322Y-8826224D02*
X11891322Y-9026224D01*
X12072275Y-9026224D02*
X12072275Y-8921462D01*
X12072275Y-8921462D02*
X12062751Y-8902414D01*
X12062751Y-8902414D02*
X12043703Y-8892890D01*
X12043703Y-8892890D02*
X12005608Y-8892890D01*
X12005608Y-8892890D02*
X11986561Y-8902414D01*
X12072275Y-9016700D02*
X12053227Y-9026224D01*
X12053227Y-9026224D02*
X12005608Y-9026224D01*
X12005608Y-9026224D02*
X11986561Y-9016700D01*
X11986561Y-9016700D02*
X11977037Y-8997652D01*
X11977037Y-8997652D02*
X11977037Y-8978605D01*
X11977037Y-8978605D02*
X11986561Y-8959557D01*
X11986561Y-8959557D02*
X12005608Y-8950033D01*
X12005608Y-8950033D02*
X12053227Y-8950033D01*
X12053227Y-8950033D02*
X12072275Y-8940510D01*
X12167513Y-8892890D02*
X12167513Y-9092890D01*
X12167513Y-8902414D02*
X12186561Y-8892890D01*
X12186561Y-8892890D02*
X12224656Y-8892890D01*
X12224656Y-8892890D02*
X12243703Y-8902414D01*
X12243703Y-8902414D02*
X12253227Y-8911938D01*
X12253227Y-8911938D02*
X12262751Y-8930986D01*
X12262751Y-8930986D02*
X12262751Y-8988129D01*
X12262751Y-8988129D02*
X12253227Y-9007176D01*
X12253227Y-9007176D02*
X12243703Y-9016700D01*
X12243703Y-9016700D02*
X12224656Y-9026224D01*
X12224656Y-9026224D02*
X12186561Y-9026224D01*
X12186561Y-9026224D02*
X12167513Y-9016700D01*
X12348465Y-9007176D02*
X12357989Y-9016700D01*
X12357989Y-9016700D02*
X12348465Y-9026224D01*
X12348465Y-9026224D02*
X12338942Y-9016700D01*
X12338942Y-9016700D02*
X12348465Y-9007176D01*
X12348465Y-9007176D02*
X12348465Y-9026224D01*
X12348465Y-8902414D02*
X12357989Y-8911938D01*
X12357989Y-8911938D02*
X12348465Y-8921462D01*
X12348465Y-8921462D02*
X12338942Y-8911938D01*
X12338942Y-8911938D02*
X12348465Y-8902414D01*
X12348465Y-8902414D02*
X12348465Y-8921462D01*
X10516260Y-9254740D02*
X10716260Y-9454740D01*
X10716260Y-9254740D02*
X10516260Y-9454740D01*
X10957989Y-9246224D02*
X11081799Y-9246224D01*
X11081799Y-9246224D02*
X11015132Y-9322414D01*
X11015132Y-9322414D02*
X11043704Y-9322414D01*
X11043704Y-9322414D02*
X11062751Y-9331938D01*
X11062751Y-9331938D02*
X11072275Y-9341462D01*
X11072275Y-9341462D02*
X11081799Y-9360510D01*
X11081799Y-9360510D02*
X11081799Y-9408129D01*
X11081799Y-9408129D02*
X11072275Y-9427176D01*
X11072275Y-9427176D02*
X11062751Y-9436700D01*
X11062751Y-9436700D02*
X11043704Y-9446224D01*
X11043704Y-9446224D02*
X10986561Y-9446224D01*
X10986561Y-9446224D02*
X10967513Y-9436700D01*
X10967513Y-9436700D02*
X10957989Y-9427176D01*
X11167513Y-9427176D02*
X11177037Y-9436700D01*
X11177037Y-9436700D02*
X11167513Y-9446224D01*
X11167513Y-9446224D02*
X11157989Y-9436700D01*
X11157989Y-9436700D02*
X11167513Y-9427176D01*
X11167513Y-9427176D02*
X11167513Y-9446224D01*
X11357989Y-9246224D02*
X11262751Y-9246224D01*
X11262751Y-9246224D02*
X11253227Y-9341462D01*
X11253227Y-9341462D02*
X11262751Y-9331938D01*
X11262751Y-9331938D02*
X11281799Y-9322414D01*
X11281799Y-9322414D02*
X11329418Y-9322414D01*
X11329418Y-9322414D02*
X11348465Y-9331938D01*
X11348465Y-9331938D02*
X11357989Y-9341462D01*
X11357989Y-9341462D02*
X11367513Y-9360510D01*
X11367513Y-9360510D02*
X11367513Y-9408129D01*
X11367513Y-9408129D02*
X11357989Y-9427176D01*
X11357989Y-9427176D02*
X11348465Y-9436700D01*
X11348465Y-9436700D02*
X11329418Y-9446224D01*
X11329418Y-9446224D02*
X11281799Y-9446224D01*
X11281799Y-9446224D02*
X11262751Y-9436700D01*
X11262751Y-9436700D02*
X11253227Y-9427176D01*
X11491322Y-9246224D02*
X11510370Y-9246224D01*
X11510370Y-9246224D02*
X11529418Y-9255748D01*
X11529418Y-9255748D02*
X11538942Y-9265271D01*
X11538942Y-9265271D02*
X11548465Y-9284319D01*
X11548465Y-9284319D02*
X11557989Y-9322414D01*
X11557989Y-9322414D02*
X11557989Y-9370033D01*
X11557989Y-9370033D02*
X11548465Y-9408129D01*
X11548465Y-9408129D02*
X11538942Y-9427176D01*
X11538942Y-9427176D02*
X11529418Y-9436700D01*
X11529418Y-9436700D02*
X11510370Y-9446224D01*
X11510370Y-9446224D02*
X11491322Y-9446224D01*
X11491322Y-9446224D02*
X11472275Y-9436700D01*
X11472275Y-9436700D02*
X11462751Y-9427176D01*
X11462751Y-9427176D02*
X11453227Y-9408129D01*
X11453227Y-9408129D02*
X11443703Y-9370033D01*
X11443703Y-9370033D02*
X11443703Y-9322414D01*
X11443703Y-9322414D02*
X11453227Y-9284319D01*
X11453227Y-9284319D02*
X11462751Y-9265271D01*
X11462751Y-9265271D02*
X11472275Y-9255748D01*
X11472275Y-9255748D02*
X11491322Y-9246224D01*
X11681799Y-9246224D02*
X11700846Y-9246224D01*
X11700846Y-9246224D02*
X11719894Y-9255748D01*
X11719894Y-9255748D02*
X11729418Y-9265271D01*
X11729418Y-9265271D02*
X11738942Y-9284319D01*
X11738942Y-9284319D02*
X11748465Y-9322414D01*
X11748465Y-9322414D02*
X11748465Y-9370033D01*
X11748465Y-9370033D02*
X11738942Y-9408129D01*
X11738942Y-9408129D02*
X11729418Y-9427176D01*
X11729418Y-9427176D02*
X11719894Y-9436700D01*
X11719894Y-9436700D02*
X11700846Y-9446224D01*
X11700846Y-9446224D02*
X11681799Y-9446224D01*
X11681799Y-9446224D02*
X11662751Y-9436700D01*
X11662751Y-9436700D02*
X11653227Y-9427176D01*
X11653227Y-9427176D02*
X11643703Y-9408129D01*
X11643703Y-9408129D02*
X11634180Y-9370033D01*
X11634180Y-9370033D02*
X11634180Y-9322414D01*
X11634180Y-9322414D02*
X11643703Y-9284319D01*
X11643703Y-9284319D02*
X11653227Y-9265271D01*
X11653227Y-9265271D02*
X11662751Y-9255748D01*
X11662751Y-9255748D02*
X11681799Y-9246224D01*
X11834180Y-9446224D02*
X11834180Y-9312890D01*
X11834180Y-9331938D02*
X11843703Y-9322414D01*
X11843703Y-9322414D02*
X11862751Y-9312890D01*
X11862751Y-9312890D02*
X11891323Y-9312890D01*
X11891323Y-9312890D02*
X11910370Y-9322414D01*
X11910370Y-9322414D02*
X11919894Y-9341462D01*
X11919894Y-9341462D02*
X11919894Y-9446224D01*
X11919894Y-9341462D02*
X11929418Y-9322414D01*
X11929418Y-9322414D02*
X11948465Y-9312890D01*
X11948465Y-9312890D02*
X11977037Y-9312890D01*
X11977037Y-9312890D02*
X11996084Y-9322414D01*
X11996084Y-9322414D02*
X12005608Y-9341462D01*
X12005608Y-9341462D02*
X12005608Y-9446224D01*
X12100846Y-9446224D02*
X12100846Y-9312890D01*
X12100846Y-9331938D02*
X12110370Y-9322414D01*
X12110370Y-9322414D02*
X12129418Y-9312890D01*
X12129418Y-9312890D02*
X12157989Y-9312890D01*
X12157989Y-9312890D02*
X12177037Y-9322414D01*
X12177037Y-9322414D02*
X12186561Y-9341462D01*
X12186561Y-9341462D02*
X12186561Y-9446224D01*
X12186561Y-9341462D02*
X12196084Y-9322414D01*
X12196084Y-9322414D02*
X12215132Y-9312890D01*
X12215132Y-9312890D02*
X12243703Y-9312890D01*
X12243703Y-9312890D02*
X12262751Y-9322414D01*
X12262751Y-9322414D02*
X12272275Y-9341462D01*
X12272275Y-9341462D02*
X12272275Y-9446224D01*
X12662751Y-9236700D02*
X12491323Y-9493843D01*
X12919894Y-9246224D02*
X12938942Y-9246224D01*
X12938942Y-9246224D02*
X12957989Y-9255748D01*
X12957989Y-9255748D02*
X12967513Y-9265271D01*
X12967513Y-9265271D02*
X12977037Y-9284319D01*
X12977037Y-9284319D02*
X12986561Y-9322414D01*
X12986561Y-9322414D02*
X12986561Y-9370033D01*
X12986561Y-9370033D02*
X12977037Y-9408129D01*
X12977037Y-9408129D02*
X12967513Y-9427176D01*
X12967513Y-9427176D02*
X12957989Y-9436700D01*
X12957989Y-9436700D02*
X12938942Y-9446224D01*
X12938942Y-9446224D02*
X12919894Y-9446224D01*
X12919894Y-9446224D02*
X12900846Y-9436700D01*
X12900846Y-9436700D02*
X12891323Y-9427176D01*
X12891323Y-9427176D02*
X12881799Y-9408129D01*
X12881799Y-9408129D02*
X12872275Y-9370033D01*
X12872275Y-9370033D02*
X12872275Y-9322414D01*
X12872275Y-9322414D02*
X12881799Y-9284319D01*
X12881799Y-9284319D02*
X12891323Y-9265271D01*
X12891323Y-9265271D02*
X12900846Y-9255748D01*
X12900846Y-9255748D02*
X12919894Y-9246224D01*
X13072275Y-9427176D02*
X13081799Y-9436700D01*
X13081799Y-9436700D02*
X13072275Y-9446224D01*
X13072275Y-9446224D02*
X13062751Y-9436700D01*
X13062751Y-9436700D02*
X13072275Y-9427176D01*
X13072275Y-9427176D02*
X13072275Y-9446224D01*
X13272275Y-9446224D02*
X13157989Y-9446224D01*
X13215132Y-9446224D02*
X13215132Y-9246224D01*
X13215132Y-9246224D02*
X13196085Y-9274795D01*
X13196085Y-9274795D02*
X13177037Y-9293843D01*
X13177037Y-9293843D02*
X13157989Y-9303367D01*
X13338942Y-9246224D02*
X13462751Y-9246224D01*
X13462751Y-9246224D02*
X13396085Y-9322414D01*
X13396085Y-9322414D02*
X13424656Y-9322414D01*
X13424656Y-9322414D02*
X13443704Y-9331938D01*
X13443704Y-9331938D02*
X13453227Y-9341462D01*
X13453227Y-9341462D02*
X13462751Y-9360510D01*
X13462751Y-9360510D02*
X13462751Y-9408129D01*
X13462751Y-9408129D02*
X13453227Y-9427176D01*
X13453227Y-9427176D02*
X13443704Y-9436700D01*
X13443704Y-9436700D02*
X13424656Y-9446224D01*
X13424656Y-9446224D02*
X13367513Y-9446224D01*
X13367513Y-9446224D02*
X13348466Y-9436700D01*
X13348466Y-9436700D02*
X13338942Y-9427176D01*
X13529418Y-9246224D02*
X13662751Y-9246224D01*
X13662751Y-9246224D02*
X13577037Y-9446224D01*
X13767513Y-9331938D02*
X13748466Y-9322414D01*
X13748466Y-9322414D02*
X13738942Y-9312890D01*
X13738942Y-9312890D02*
X13729418Y-9293843D01*
X13729418Y-9293843D02*
X13729418Y-9284319D01*
X13729418Y-9284319D02*
X13738942Y-9265271D01*
X13738942Y-9265271D02*
X13748466Y-9255748D01*
X13748466Y-9255748D02*
X13767513Y-9246224D01*
X13767513Y-9246224D02*
X13805608Y-9246224D01*
X13805608Y-9246224D02*
X13824656Y-9255748D01*
X13824656Y-9255748D02*
X13834180Y-9265271D01*
X13834180Y-9265271D02*
X13843704Y-9284319D01*
X13843704Y-9284319D02*
X13843704Y-9293843D01*
X13843704Y-9293843D02*
X13834180Y-9312890D01*
X13834180Y-9312890D02*
X13824656Y-9322414D01*
X13824656Y-9322414D02*
X13805608Y-9331938D01*
X13805608Y-9331938D02*
X13767513Y-9331938D01*
X13767513Y-9331938D02*
X13748466Y-9341462D01*
X13748466Y-9341462D02*
X13738942Y-9350986D01*
X13738942Y-9350986D02*
X13729418Y-9370033D01*
X13729418Y-9370033D02*
X13729418Y-9408129D01*
X13729418Y-9408129D02*
X13738942Y-9427176D01*
X13738942Y-9427176D02*
X13748466Y-9436700D01*
X13748466Y-9436700D02*
X13767513Y-9446224D01*
X13767513Y-9446224D02*
X13805608Y-9446224D01*
X13805608Y-9446224D02*
X13824656Y-9436700D01*
X13824656Y-9436700D02*
X13834180Y-9427176D01*
X13834180Y-9427176D02*
X13843704Y-9408129D01*
X13843704Y-9408129D02*
X13843704Y-9370033D01*
X13843704Y-9370033D02*
X13834180Y-9350986D01*
X13834180Y-9350986D02*
X13824656Y-9341462D01*
X13824656Y-9341462D02*
X13805608Y-9331938D01*
X13919894Y-9246224D02*
X13919894Y-9284319D01*
X13996085Y-9246224D02*
X13996085Y-9284319D01*
X14291323Y-9522414D02*
X14281799Y-9512890D01*
X14281799Y-9512890D02*
X14262751Y-9484319D01*
X14262751Y-9484319D02*
X14253228Y-9465271D01*
X14253228Y-9465271D02*
X14243704Y-9436700D01*
X14243704Y-9436700D02*
X14234180Y-9389081D01*
X14234180Y-9389081D02*
X14234180Y-9350986D01*
X14234180Y-9350986D02*
X14243704Y-9303367D01*
X14243704Y-9303367D02*
X14253228Y-9274795D01*
X14253228Y-9274795D02*
X14262751Y-9255748D01*
X14262751Y-9255748D02*
X14281799Y-9227176D01*
X14281799Y-9227176D02*
X14291323Y-9217652D01*
X14472275Y-9446224D02*
X14357989Y-9446224D01*
X14415132Y-9446224D02*
X14415132Y-9246224D01*
X14415132Y-9246224D02*
X14396085Y-9274795D01*
X14396085Y-9274795D02*
X14377037Y-9293843D01*
X14377037Y-9293843D02*
X14357989Y-9303367D01*
X14710370Y-9446224D02*
X14710370Y-9246224D01*
X14796085Y-9446224D02*
X14796085Y-9341462D01*
X14796085Y-9341462D02*
X14786561Y-9322414D01*
X14786561Y-9322414D02*
X14767513Y-9312890D01*
X14767513Y-9312890D02*
X14738942Y-9312890D01*
X14738942Y-9312890D02*
X14719894Y-9322414D01*
X14719894Y-9322414D02*
X14710370Y-9331938D01*
X14919894Y-9446224D02*
X14900847Y-9436700D01*
X14900847Y-9436700D02*
X14891323Y-9427176D01*
X14891323Y-9427176D02*
X14881799Y-9408129D01*
X14881799Y-9408129D02*
X14881799Y-9350986D01*
X14881799Y-9350986D02*
X14891323Y-9331938D01*
X14891323Y-9331938D02*
X14900847Y-9322414D01*
X14900847Y-9322414D02*
X14919894Y-9312890D01*
X14919894Y-9312890D02*
X14948466Y-9312890D01*
X14948466Y-9312890D02*
X14967513Y-9322414D01*
X14967513Y-9322414D02*
X14977037Y-9331938D01*
X14977037Y-9331938D02*
X14986561Y-9350986D01*
X14986561Y-9350986D02*
X14986561Y-9408129D01*
X14986561Y-9408129D02*
X14977037Y-9427176D01*
X14977037Y-9427176D02*
X14967513Y-9436700D01*
X14967513Y-9436700D02*
X14948466Y-9446224D01*
X14948466Y-9446224D02*
X14919894Y-9446224D01*
X15100847Y-9446224D02*
X15081799Y-9436700D01*
X15081799Y-9436700D02*
X15072275Y-9417652D01*
X15072275Y-9417652D02*
X15072275Y-9246224D01*
X15253228Y-9436700D02*
X15234180Y-9446224D01*
X15234180Y-9446224D02*
X15196085Y-9446224D01*
X15196085Y-9446224D02*
X15177037Y-9436700D01*
X15177037Y-9436700D02*
X15167513Y-9417652D01*
X15167513Y-9417652D02*
X15167513Y-9341462D01*
X15167513Y-9341462D02*
X15177037Y-9322414D01*
X15177037Y-9322414D02*
X15196085Y-9312890D01*
X15196085Y-9312890D02*
X15234180Y-9312890D01*
X15234180Y-9312890D02*
X15253228Y-9322414D01*
X15253228Y-9322414D02*
X15262751Y-9341462D01*
X15262751Y-9341462D02*
X15262751Y-9360510D01*
X15262751Y-9360510D02*
X15167513Y-9379557D01*
X15329418Y-9522414D02*
X15338942Y-9512890D01*
X15338942Y-9512890D02*
X15357990Y-9484319D01*
X15357990Y-9484319D02*
X15367513Y-9465271D01*
X15367513Y-9465271D02*
X15377037Y-9436700D01*
X15377037Y-9436700D02*
X15386561Y-9389081D01*
X15386561Y-9389081D02*
X15386561Y-9350986D01*
X15386561Y-9350986D02*
X15377037Y-9303367D01*
X15377037Y-9303367D02*
X15367513Y-9274795D01*
X15367513Y-9274795D02*
X15357990Y-9255748D01*
X15357990Y-9255748D02*
X15338942Y-9227176D01*
X15338942Y-9227176D02*
X15329418Y-9217652D01*
X15691323Y-9522414D02*
X15681799Y-9512890D01*
X15681799Y-9512890D02*
X15662751Y-9484319D01*
X15662751Y-9484319D02*
X15653228Y-9465271D01*
X15653228Y-9465271D02*
X15643704Y-9436700D01*
X15643704Y-9436700D02*
X15634180Y-9389081D01*
X15634180Y-9389081D02*
X15634180Y-9350986D01*
X15634180Y-9350986D02*
X15643704Y-9303367D01*
X15643704Y-9303367D02*
X15653228Y-9274795D01*
X15653228Y-9274795D02*
X15662751Y-9255748D01*
X15662751Y-9255748D02*
X15681799Y-9227176D01*
X15681799Y-9227176D02*
X15691323Y-9217652D01*
X15767513Y-9312890D02*
X15767513Y-9446224D01*
X15767513Y-9331938D02*
X15777037Y-9322414D01*
X15777037Y-9322414D02*
X15796085Y-9312890D01*
X15796085Y-9312890D02*
X15824656Y-9312890D01*
X15824656Y-9312890D02*
X15843704Y-9322414D01*
X15843704Y-9322414D02*
X15853228Y-9341462D01*
X15853228Y-9341462D02*
X15853228Y-9446224D01*
X15977037Y-9446224D02*
X15957990Y-9436700D01*
X15957990Y-9436700D02*
X15948466Y-9427176D01*
X15948466Y-9427176D02*
X15938942Y-9408129D01*
X15938942Y-9408129D02*
X15938942Y-9350986D01*
X15938942Y-9350986D02*
X15948466Y-9331938D01*
X15948466Y-9331938D02*
X15957990Y-9322414D01*
X15957990Y-9322414D02*
X15977037Y-9312890D01*
X15977037Y-9312890D02*
X16005609Y-9312890D01*
X16005609Y-9312890D02*
X16024656Y-9322414D01*
X16024656Y-9322414D02*
X16034180Y-9331938D01*
X16034180Y-9331938D02*
X16043704Y-9350986D01*
X16043704Y-9350986D02*
X16043704Y-9408129D01*
X16043704Y-9408129D02*
X16034180Y-9427176D01*
X16034180Y-9427176D02*
X16024656Y-9436700D01*
X16024656Y-9436700D02*
X16005609Y-9446224D01*
X16005609Y-9446224D02*
X15977037Y-9446224D01*
X16100847Y-9312890D02*
X16177037Y-9312890D01*
X16129418Y-9246224D02*
X16129418Y-9417652D01*
X16129418Y-9417652D02*
X16138942Y-9436700D01*
X16138942Y-9436700D02*
X16157990Y-9446224D01*
X16157990Y-9446224D02*
X16177037Y-9446224D01*
X16396085Y-9312890D02*
X16396085Y-9512890D01*
X16396085Y-9322414D02*
X16415132Y-9312890D01*
X16415132Y-9312890D02*
X16453228Y-9312890D01*
X16453228Y-9312890D02*
X16472275Y-9322414D01*
X16472275Y-9322414D02*
X16481799Y-9331938D01*
X16481799Y-9331938D02*
X16491323Y-9350986D01*
X16491323Y-9350986D02*
X16491323Y-9408129D01*
X16491323Y-9408129D02*
X16481799Y-9427176D01*
X16481799Y-9427176D02*
X16472275Y-9436700D01*
X16472275Y-9436700D02*
X16453228Y-9446224D01*
X16453228Y-9446224D02*
X16415132Y-9446224D01*
X16415132Y-9446224D02*
X16396085Y-9436700D01*
X16605609Y-9446224D02*
X16586561Y-9436700D01*
X16586561Y-9436700D02*
X16577037Y-9417652D01*
X16577037Y-9417652D02*
X16577037Y-9246224D01*
X16767513Y-9446224D02*
X16767513Y-9341462D01*
X16767513Y-9341462D02*
X16757990Y-9322414D01*
X16757990Y-9322414D02*
X16738942Y-9312890D01*
X16738942Y-9312890D02*
X16700847Y-9312890D01*
X16700847Y-9312890D02*
X16681799Y-9322414D01*
X16767513Y-9436700D02*
X16748466Y-9446224D01*
X16748466Y-9446224D02*
X16700847Y-9446224D01*
X16700847Y-9446224D02*
X16681799Y-9436700D01*
X16681799Y-9436700D02*
X16672275Y-9417652D01*
X16672275Y-9417652D02*
X16672275Y-9398605D01*
X16672275Y-9398605D02*
X16681799Y-9379557D01*
X16681799Y-9379557D02*
X16700847Y-9370033D01*
X16700847Y-9370033D02*
X16748466Y-9370033D01*
X16748466Y-9370033D02*
X16767513Y-9360510D01*
X16834180Y-9312890D02*
X16910371Y-9312890D01*
X16862752Y-9246224D02*
X16862752Y-9417652D01*
X16862752Y-9417652D02*
X16872275Y-9436700D01*
X16872275Y-9436700D02*
X16891323Y-9446224D01*
X16891323Y-9446224D02*
X16910371Y-9446224D01*
X17053228Y-9436700D02*
X17034180Y-9446224D01*
X17034180Y-9446224D02*
X16996085Y-9446224D01*
X16996085Y-9446224D02*
X16977037Y-9436700D01*
X16977037Y-9436700D02*
X16967514Y-9417652D01*
X16967514Y-9417652D02*
X16967514Y-9341462D01*
X16967514Y-9341462D02*
X16977037Y-9322414D01*
X16977037Y-9322414D02*
X16996085Y-9312890D01*
X16996085Y-9312890D02*
X17034180Y-9312890D01*
X17034180Y-9312890D02*
X17053228Y-9322414D01*
X17053228Y-9322414D02*
X17062752Y-9341462D01*
X17062752Y-9341462D02*
X17062752Y-9360510D01*
X17062752Y-9360510D02*
X16967514Y-9379557D01*
X17234180Y-9446224D02*
X17234180Y-9246224D01*
X17234180Y-9436700D02*
X17215133Y-9446224D01*
X17215133Y-9446224D02*
X17177037Y-9446224D01*
X17177037Y-9446224D02*
X17157990Y-9436700D01*
X17157990Y-9436700D02*
X17148466Y-9427176D01*
X17148466Y-9427176D02*
X17138942Y-9408129D01*
X17138942Y-9408129D02*
X17138942Y-9350986D01*
X17138942Y-9350986D02*
X17148466Y-9331938D01*
X17148466Y-9331938D02*
X17157990Y-9322414D01*
X17157990Y-9322414D02*
X17177037Y-9312890D01*
X17177037Y-9312890D02*
X17215133Y-9312890D01*
X17215133Y-9312890D02*
X17234180Y-9322414D01*
X17310371Y-9522414D02*
X17319895Y-9512890D01*
X17319895Y-9512890D02*
X17338942Y-9484319D01*
X17338942Y-9484319D02*
X17348466Y-9465271D01*
X17348466Y-9465271D02*
X17357990Y-9436700D01*
X17357990Y-9436700D02*
X17367514Y-9389081D01*
X17367514Y-9389081D02*
X17367514Y-9350986D01*
X17367514Y-9350986D02*
X17357990Y-9303367D01*
X17357990Y-9303367D02*
X17348466Y-9274795D01*
X17348466Y-9274795D02*
X17338942Y-9255748D01*
X17338942Y-9255748D02*
X17319895Y-9227176D01*
X17319895Y-9227176D02*
X17310371Y-9217652D01*
M02*
