%TF.GenerationSoftware,KiCad,Pcbnew,9.0.6*%
%TF.CreationDate,2025-11-17T11:05:33-05:00*%
%TF.ProjectId,vldo,766c646f-2e6b-4696-9361-645f70636258,0.1*%
%TF.SameCoordinates,Original*%
%TF.FileFunction,Legend,Top*%
%TF.FilePolarity,Positive*%
%FSLAX46Y46*%
G04 Gerber Fmt 4.6, Leading zero omitted, Abs format (unit mm)*
G04 Created by KiCad (PCBNEW 9.0.6) date 2025-11-17 11:05:33*
%MOMM*%
%LPD*%
G01*
G04 APERTURE LIST*
%ADD10C,0.200000*%
%ADD11C,0.125000*%
%ADD12C,0.150000*%
%ADD13C,0.130000*%
%ADD14C,0.100000*%
%ADD15C,0.120000*%
G04 APERTURE END LIST*
D10*
X158455419Y-85244183D02*
X159455419Y-84910850D01*
X159455419Y-84910850D02*
X158455419Y-84577517D01*
X159455419Y-84101326D02*
X159407800Y-84196564D01*
X159407800Y-84196564D02*
X159360180Y-84244183D01*
X159360180Y-84244183D02*
X159264942Y-84291802D01*
X159264942Y-84291802D02*
X158979228Y-84291802D01*
X158979228Y-84291802D02*
X158883990Y-84244183D01*
X158883990Y-84244183D02*
X158836371Y-84196564D01*
X158836371Y-84196564D02*
X158788752Y-84101326D01*
X158788752Y-84101326D02*
X158788752Y-83958469D01*
X158788752Y-83958469D02*
X158836371Y-83863231D01*
X158836371Y-83863231D02*
X158883990Y-83815612D01*
X158883990Y-83815612D02*
X158979228Y-83767993D01*
X158979228Y-83767993D02*
X159264942Y-83767993D01*
X159264942Y-83767993D02*
X159360180Y-83815612D01*
X159360180Y-83815612D02*
X159407800Y-83863231D01*
X159407800Y-83863231D02*
X159455419Y-83958469D01*
X159455419Y-83958469D02*
X159455419Y-84101326D01*
X158788752Y-82910850D02*
X159455419Y-82910850D01*
X158788752Y-83339421D02*
X159312561Y-83339421D01*
X159312561Y-83339421D02*
X159407800Y-83291802D01*
X159407800Y-83291802D02*
X159455419Y-83196564D01*
X159455419Y-83196564D02*
X159455419Y-83053707D01*
X159455419Y-83053707D02*
X159407800Y-82958469D01*
X159407800Y-82958469D02*
X159360180Y-82910850D01*
X158788752Y-82577516D02*
X158788752Y-82196564D01*
X158455419Y-82434659D02*
X159312561Y-82434659D01*
X159312561Y-82434659D02*
X159407800Y-82387040D01*
X159407800Y-82387040D02*
X159455419Y-82291802D01*
X159455419Y-82291802D02*
X159455419Y-82196564D01*
X158407800Y-81148945D02*
X159693514Y-82006087D01*
X159455419Y-80244183D02*
X158979228Y-80577516D01*
X159455419Y-80815611D02*
X158455419Y-80815611D01*
X158455419Y-80815611D02*
X158455419Y-80434659D01*
X158455419Y-80434659D02*
X158503038Y-80339421D01*
X158503038Y-80339421D02*
X158550657Y-80291802D01*
X158550657Y-80291802D02*
X158645895Y-80244183D01*
X158645895Y-80244183D02*
X158788752Y-80244183D01*
X158788752Y-80244183D02*
X158883990Y-80291802D01*
X158883990Y-80291802D02*
X158931609Y-80339421D01*
X158931609Y-80339421D02*
X158979228Y-80434659D01*
X158979228Y-80434659D02*
X158979228Y-80815611D01*
X158931609Y-79815611D02*
X158931609Y-79482278D01*
X159455419Y-79339421D02*
X159455419Y-79815611D01*
X159455419Y-79815611D02*
X158455419Y-79815611D01*
X158455419Y-79815611D02*
X158455419Y-79339421D01*
X159455419Y-78910849D02*
X158455419Y-78910849D01*
X158455419Y-78910849D02*
X158455419Y-78672754D01*
X158455419Y-78672754D02*
X158503038Y-78529897D01*
X158503038Y-78529897D02*
X158598276Y-78434659D01*
X158598276Y-78434659D02*
X158693514Y-78387040D01*
X158693514Y-78387040D02*
X158883990Y-78339421D01*
X158883990Y-78339421D02*
X159026847Y-78339421D01*
X159026847Y-78339421D02*
X159217323Y-78387040D01*
X159217323Y-78387040D02*
X159312561Y-78434659D01*
X159312561Y-78434659D02*
X159407800Y-78529897D01*
X159407800Y-78529897D02*
X159455419Y-78672754D01*
X159455419Y-78672754D02*
X159455419Y-78910849D01*
X158503038Y-76449517D02*
X158455419Y-76544755D01*
X158455419Y-76544755D02*
X158455419Y-76687612D01*
X158455419Y-76687612D02*
X158503038Y-76830469D01*
X158503038Y-76830469D02*
X158598276Y-76925707D01*
X158598276Y-76925707D02*
X158693514Y-76973326D01*
X158693514Y-76973326D02*
X158883990Y-77020945D01*
X158883990Y-77020945D02*
X159026847Y-77020945D01*
X159026847Y-77020945D02*
X159217323Y-76973326D01*
X159217323Y-76973326D02*
X159312561Y-76925707D01*
X159312561Y-76925707D02*
X159407800Y-76830469D01*
X159407800Y-76830469D02*
X159455419Y-76687612D01*
X159455419Y-76687612D02*
X159455419Y-76592374D01*
X159455419Y-76592374D02*
X159407800Y-76449517D01*
X159407800Y-76449517D02*
X159360180Y-76401898D01*
X159360180Y-76401898D02*
X159026847Y-76401898D01*
X159026847Y-76401898D02*
X159026847Y-76592374D01*
X159455419Y-75973326D02*
X158455419Y-75973326D01*
X158455419Y-75973326D02*
X159455419Y-75401898D01*
X159455419Y-75401898D02*
X158455419Y-75401898D01*
X159455419Y-74925707D02*
X158455419Y-74925707D01*
X158455419Y-74925707D02*
X158455419Y-74687612D01*
X158455419Y-74687612D02*
X158503038Y-74544755D01*
X158503038Y-74544755D02*
X158598276Y-74449517D01*
X158598276Y-74449517D02*
X158693514Y-74401898D01*
X158693514Y-74401898D02*
X158883990Y-74354279D01*
X158883990Y-74354279D02*
X159026847Y-74354279D01*
X159026847Y-74354279D02*
X159217323Y-74401898D01*
X159217323Y-74401898D02*
X159312561Y-74449517D01*
X159312561Y-74449517D02*
X159407800Y-74544755D01*
X159407800Y-74544755D02*
X159455419Y-74687612D01*
X159455419Y-74687612D02*
X159455419Y-74925707D01*
X158407800Y-73211422D02*
X159693514Y-74068564D01*
X158931609Y-72544755D02*
X158979228Y-72401898D01*
X158979228Y-72401898D02*
X159026847Y-72354279D01*
X159026847Y-72354279D02*
X159122085Y-72306660D01*
X159122085Y-72306660D02*
X159264942Y-72306660D01*
X159264942Y-72306660D02*
X159360180Y-72354279D01*
X159360180Y-72354279D02*
X159407800Y-72401898D01*
X159407800Y-72401898D02*
X159455419Y-72497136D01*
X159455419Y-72497136D02*
X159455419Y-72878088D01*
X159455419Y-72878088D02*
X158455419Y-72878088D01*
X158455419Y-72878088D02*
X158455419Y-72544755D01*
X158455419Y-72544755D02*
X158503038Y-72449517D01*
X158503038Y-72449517D02*
X158550657Y-72401898D01*
X158550657Y-72401898D02*
X158645895Y-72354279D01*
X158645895Y-72354279D02*
X158741133Y-72354279D01*
X158741133Y-72354279D02*
X158836371Y-72401898D01*
X158836371Y-72401898D02*
X158883990Y-72449517D01*
X158883990Y-72449517D02*
X158931609Y-72544755D01*
X158931609Y-72544755D02*
X158931609Y-72878088D01*
X159455419Y-71401898D02*
X159455419Y-71878088D01*
X159455419Y-71878088D02*
X158455419Y-71878088D01*
X159455419Y-71068564D02*
X158455419Y-71068564D01*
X159455419Y-70497136D02*
X158883990Y-70925707D01*
X158455419Y-70497136D02*
X159026847Y-71068564D01*
D11*
X122762474Y-84977119D02*
X123095807Y-85977119D01*
X123095807Y-85977119D02*
X123429140Y-84977119D01*
X124238664Y-85977119D02*
X123762474Y-85977119D01*
X123762474Y-85977119D02*
X123762474Y-84977119D01*
X124571998Y-85977119D02*
X124571998Y-84977119D01*
X124571998Y-84977119D02*
X124810093Y-84977119D01*
X124810093Y-84977119D02*
X124952950Y-85024738D01*
X124952950Y-85024738D02*
X125048188Y-85119976D01*
X125048188Y-85119976D02*
X125095807Y-85215214D01*
X125095807Y-85215214D02*
X125143426Y-85405690D01*
X125143426Y-85405690D02*
X125143426Y-85548547D01*
X125143426Y-85548547D02*
X125095807Y-85739023D01*
X125095807Y-85739023D02*
X125048188Y-85834261D01*
X125048188Y-85834261D02*
X124952950Y-85929500D01*
X124952950Y-85929500D02*
X124810093Y-85977119D01*
X124810093Y-85977119D02*
X124571998Y-85977119D01*
X125762474Y-84977119D02*
X125952950Y-84977119D01*
X125952950Y-84977119D02*
X126048188Y-85024738D01*
X126048188Y-85024738D02*
X126143426Y-85119976D01*
X126143426Y-85119976D02*
X126191045Y-85310452D01*
X126191045Y-85310452D02*
X126191045Y-85643785D01*
X126191045Y-85643785D02*
X126143426Y-85834261D01*
X126143426Y-85834261D02*
X126048188Y-85929500D01*
X126048188Y-85929500D02*
X125952950Y-85977119D01*
X125952950Y-85977119D02*
X125762474Y-85977119D01*
X125762474Y-85977119D02*
X125667236Y-85929500D01*
X125667236Y-85929500D02*
X125571998Y-85834261D01*
X125571998Y-85834261D02*
X125524379Y-85643785D01*
X125524379Y-85643785D02*
X125524379Y-85310452D01*
X125524379Y-85310452D02*
X125571998Y-85119976D01*
X125571998Y-85119976D02*
X125667236Y-85024738D01*
X125667236Y-85024738D02*
X125762474Y-84977119D01*
X127286284Y-85310452D02*
X127524379Y-85977119D01*
X127524379Y-85977119D02*
X127762474Y-85310452D01*
X128333903Y-84977119D02*
X128429141Y-84977119D01*
X128429141Y-84977119D02*
X128524379Y-85024738D01*
X128524379Y-85024738D02*
X128571998Y-85072357D01*
X128571998Y-85072357D02*
X128619617Y-85167595D01*
X128619617Y-85167595D02*
X128667236Y-85358071D01*
X128667236Y-85358071D02*
X128667236Y-85596166D01*
X128667236Y-85596166D02*
X128619617Y-85786642D01*
X128619617Y-85786642D02*
X128571998Y-85881880D01*
X128571998Y-85881880D02*
X128524379Y-85929500D01*
X128524379Y-85929500D02*
X128429141Y-85977119D01*
X128429141Y-85977119D02*
X128333903Y-85977119D01*
X128333903Y-85977119D02*
X128238665Y-85929500D01*
X128238665Y-85929500D02*
X128191046Y-85881880D01*
X128191046Y-85881880D02*
X128143427Y-85786642D01*
X128143427Y-85786642D02*
X128095808Y-85596166D01*
X128095808Y-85596166D02*
X128095808Y-85358071D01*
X128095808Y-85358071D02*
X128143427Y-85167595D01*
X128143427Y-85167595D02*
X128191046Y-85072357D01*
X128191046Y-85072357D02*
X128238665Y-85024738D01*
X128238665Y-85024738D02*
X128333903Y-84977119D01*
X129095808Y-85881880D02*
X129143427Y-85929500D01*
X129143427Y-85929500D02*
X129095808Y-85977119D01*
X129095808Y-85977119D02*
X129048189Y-85929500D01*
X129048189Y-85929500D02*
X129095808Y-85881880D01*
X129095808Y-85881880D02*
X129095808Y-85977119D01*
X130095807Y-85977119D02*
X129524379Y-85977119D01*
X129810093Y-85977119D02*
X129810093Y-84977119D01*
X129810093Y-84977119D02*
X129714855Y-85119976D01*
X129714855Y-85119976D02*
X129619617Y-85215214D01*
X129619617Y-85215214D02*
X129524379Y-85262833D01*
D12*
X137226561Y-74543588D02*
X137274180Y-74448350D01*
X137274180Y-74448350D02*
X137274180Y-74305493D01*
X137274180Y-74305493D02*
X137226561Y-74162636D01*
X137226561Y-74162636D02*
X137131323Y-74067398D01*
X137131323Y-74067398D02*
X137036085Y-74019779D01*
X137036085Y-74019779D02*
X136845609Y-73972160D01*
X136845609Y-73972160D02*
X136702752Y-73972160D01*
X136702752Y-73972160D02*
X136512276Y-74019779D01*
X136512276Y-74019779D02*
X136417038Y-74067398D01*
X136417038Y-74067398D02*
X136321800Y-74162636D01*
X136321800Y-74162636D02*
X136274180Y-74305493D01*
X136274180Y-74305493D02*
X136274180Y-74400731D01*
X136274180Y-74400731D02*
X136321800Y-74543588D01*
X136321800Y-74543588D02*
X136369419Y-74591207D01*
X136369419Y-74591207D02*
X136702752Y-74591207D01*
X136702752Y-74591207D02*
X136702752Y-74400731D01*
X136274180Y-76543589D02*
X137274180Y-76543589D01*
X137274180Y-76543589D02*
X137274180Y-76781684D01*
X137274180Y-76781684D02*
X137226561Y-76924541D01*
X137226561Y-76924541D02*
X137131323Y-77019779D01*
X137131323Y-77019779D02*
X137036085Y-77067398D01*
X137036085Y-77067398D02*
X136845609Y-77115017D01*
X136845609Y-77115017D02*
X136702752Y-77115017D01*
X136702752Y-77115017D02*
X136512276Y-77067398D01*
X136512276Y-77067398D02*
X136417038Y-77019779D01*
X136417038Y-77019779D02*
X136321800Y-76924541D01*
X136321800Y-76924541D02*
X136274180Y-76781684D01*
X136274180Y-76781684D02*
X136274180Y-76543589D01*
X136321800Y-79019780D02*
X136274180Y-79162637D01*
X136274180Y-79162637D02*
X136274180Y-79400732D01*
X136274180Y-79400732D02*
X136321800Y-79495970D01*
X136321800Y-79495970D02*
X136369419Y-79543589D01*
X136369419Y-79543589D02*
X136464657Y-79591208D01*
X136464657Y-79591208D02*
X136559895Y-79591208D01*
X136559895Y-79591208D02*
X136655133Y-79543589D01*
X136655133Y-79543589D02*
X136702752Y-79495970D01*
X136702752Y-79495970D02*
X136750371Y-79400732D01*
X136750371Y-79400732D02*
X136797990Y-79210256D01*
X136797990Y-79210256D02*
X136845609Y-79115018D01*
X136845609Y-79115018D02*
X136893228Y-79067399D01*
X136893228Y-79067399D02*
X136988466Y-79019780D01*
X136988466Y-79019780D02*
X137083704Y-79019780D01*
X137083704Y-79019780D02*
X137178942Y-79067399D01*
X137178942Y-79067399D02*
X137226561Y-79115018D01*
X137226561Y-79115018D02*
X137274180Y-79210256D01*
X137274180Y-79210256D02*
X137274180Y-79448351D01*
X137274180Y-79448351D02*
X137226561Y-79591208D01*
D10*
X116262838Y-76430250D02*
X116215219Y-76525488D01*
X116215219Y-76525488D02*
X116215219Y-76668345D01*
X116215219Y-76668345D02*
X116262838Y-76811202D01*
X116262838Y-76811202D02*
X116358076Y-76906440D01*
X116358076Y-76906440D02*
X116453314Y-76954059D01*
X116453314Y-76954059D02*
X116643790Y-77001678D01*
X116643790Y-77001678D02*
X116786647Y-77001678D01*
X116786647Y-77001678D02*
X116977123Y-76954059D01*
X116977123Y-76954059D02*
X117072361Y-76906440D01*
X117072361Y-76906440D02*
X117167600Y-76811202D01*
X117167600Y-76811202D02*
X117215219Y-76668345D01*
X117215219Y-76668345D02*
X117215219Y-76573107D01*
X117215219Y-76573107D02*
X117167600Y-76430250D01*
X117167600Y-76430250D02*
X117119980Y-76382631D01*
X117119980Y-76382631D02*
X116786647Y-76382631D01*
X116786647Y-76382631D02*
X116786647Y-76573107D01*
X117215219Y-75954059D02*
X116215219Y-75954059D01*
X116215219Y-75954059D02*
X117215219Y-75382631D01*
X117215219Y-75382631D02*
X116215219Y-75382631D01*
X117215219Y-74906440D02*
X116215219Y-74906440D01*
X116215219Y-74906440D02*
X116215219Y-74668345D01*
X116215219Y-74668345D02*
X116262838Y-74525488D01*
X116262838Y-74525488D02*
X116358076Y-74430250D01*
X116358076Y-74430250D02*
X116453314Y-74382631D01*
X116453314Y-74382631D02*
X116643790Y-74335012D01*
X116643790Y-74335012D02*
X116786647Y-74335012D01*
X116786647Y-74335012D02*
X116977123Y-74382631D01*
X116977123Y-74382631D02*
X117072361Y-74430250D01*
X117072361Y-74430250D02*
X117167600Y-74525488D01*
X117167600Y-74525488D02*
X117215219Y-74668345D01*
X117215219Y-74668345D02*
X117215219Y-74906440D01*
X116167600Y-73192155D02*
X117453314Y-74049297D01*
X116691409Y-72525488D02*
X116739028Y-72382631D01*
X116739028Y-72382631D02*
X116786647Y-72335012D01*
X116786647Y-72335012D02*
X116881885Y-72287393D01*
X116881885Y-72287393D02*
X117024742Y-72287393D01*
X117024742Y-72287393D02*
X117119980Y-72335012D01*
X117119980Y-72335012D02*
X117167600Y-72382631D01*
X117167600Y-72382631D02*
X117215219Y-72477869D01*
X117215219Y-72477869D02*
X117215219Y-72858821D01*
X117215219Y-72858821D02*
X116215219Y-72858821D01*
X116215219Y-72858821D02*
X116215219Y-72525488D01*
X116215219Y-72525488D02*
X116262838Y-72430250D01*
X116262838Y-72430250D02*
X116310457Y-72382631D01*
X116310457Y-72382631D02*
X116405695Y-72335012D01*
X116405695Y-72335012D02*
X116500933Y-72335012D01*
X116500933Y-72335012D02*
X116596171Y-72382631D01*
X116596171Y-72382631D02*
X116643790Y-72430250D01*
X116643790Y-72430250D02*
X116691409Y-72525488D01*
X116691409Y-72525488D02*
X116691409Y-72858821D01*
X117215219Y-71382631D02*
X117215219Y-71858821D01*
X117215219Y-71858821D02*
X116215219Y-71858821D01*
X117215219Y-71049297D02*
X116215219Y-71049297D01*
X117215219Y-70477869D02*
X116643790Y-70906440D01*
X116215219Y-70477869D02*
X116786647Y-71049297D01*
X116215219Y-84482183D02*
X117215219Y-84148850D01*
X117215219Y-84148850D02*
X116215219Y-83815517D01*
X117215219Y-83482183D02*
X116548552Y-83482183D01*
X116215219Y-83482183D02*
X116262838Y-83529802D01*
X116262838Y-83529802D02*
X116310457Y-83482183D01*
X116310457Y-83482183D02*
X116262838Y-83434564D01*
X116262838Y-83434564D02*
X116215219Y-83482183D01*
X116215219Y-83482183D02*
X116310457Y-83482183D01*
X116548552Y-83005993D02*
X117215219Y-83005993D01*
X116643790Y-83005993D02*
X116596171Y-82958374D01*
X116596171Y-82958374D02*
X116548552Y-82863136D01*
X116548552Y-82863136D02*
X116548552Y-82720279D01*
X116548552Y-82720279D02*
X116596171Y-82625041D01*
X116596171Y-82625041D02*
X116691409Y-82577422D01*
X116691409Y-82577422D02*
X117215219Y-82577422D01*
X116167600Y-81386946D02*
X117453314Y-82244088D01*
X117215219Y-80482184D02*
X116739028Y-80815517D01*
X117215219Y-81053612D02*
X116215219Y-81053612D01*
X116215219Y-81053612D02*
X116215219Y-80672660D01*
X116215219Y-80672660D02*
X116262838Y-80577422D01*
X116262838Y-80577422D02*
X116310457Y-80529803D01*
X116310457Y-80529803D02*
X116405695Y-80482184D01*
X116405695Y-80482184D02*
X116548552Y-80482184D01*
X116548552Y-80482184D02*
X116643790Y-80529803D01*
X116643790Y-80529803D02*
X116691409Y-80577422D01*
X116691409Y-80577422D02*
X116739028Y-80672660D01*
X116739028Y-80672660D02*
X116739028Y-81053612D01*
X116691409Y-80053612D02*
X116691409Y-79720279D01*
X117215219Y-79577422D02*
X117215219Y-80053612D01*
X117215219Y-80053612D02*
X116215219Y-80053612D01*
X116215219Y-80053612D02*
X116215219Y-79577422D01*
X117215219Y-79148850D02*
X116215219Y-79148850D01*
X116215219Y-79148850D02*
X116215219Y-78910755D01*
X116215219Y-78910755D02*
X116262838Y-78767898D01*
X116262838Y-78767898D02*
X116358076Y-78672660D01*
X116358076Y-78672660D02*
X116453314Y-78625041D01*
X116453314Y-78625041D02*
X116643790Y-78577422D01*
X116643790Y-78577422D02*
X116786647Y-78577422D01*
X116786647Y-78577422D02*
X116977123Y-78625041D01*
X116977123Y-78625041D02*
X117072361Y-78672660D01*
X117072361Y-78672660D02*
X117167600Y-78767898D01*
X117167600Y-78767898D02*
X117215219Y-78910755D01*
X117215219Y-78910755D02*
X117215219Y-79148850D01*
D13*
X157721333Y-85389335D02*
X157721333Y-85960763D01*
X157721333Y-85960763D02*
X157683238Y-86075049D01*
X157683238Y-86075049D02*
X157607047Y-86151240D01*
X157607047Y-86151240D02*
X157492762Y-86189335D01*
X157492762Y-86189335D02*
X157416571Y-86189335D01*
X158064190Y-85465525D02*
X158102286Y-85427430D01*
X158102286Y-85427430D02*
X158178476Y-85389335D01*
X158178476Y-85389335D02*
X158368952Y-85389335D01*
X158368952Y-85389335D02*
X158445143Y-85427430D01*
X158445143Y-85427430D02*
X158483238Y-85465525D01*
X158483238Y-85465525D02*
X158521333Y-85541716D01*
X158521333Y-85541716D02*
X158521333Y-85617906D01*
X158521333Y-85617906D02*
X158483238Y-85732192D01*
X158483238Y-85732192D02*
X158026095Y-86189335D01*
X158026095Y-86189335D02*
X158521333Y-86189335D01*
X141719381Y-84437335D02*
X141719381Y-83637335D01*
X141719381Y-83637335D02*
X141986047Y-84208763D01*
X141986047Y-84208763D02*
X142252714Y-83637335D01*
X142252714Y-83637335D02*
X142252714Y-84437335D01*
X142976524Y-83904001D02*
X142976524Y-84437335D01*
X142786048Y-83599240D02*
X142595571Y-84170668D01*
X142595571Y-84170668D02*
X143090810Y-84170668D01*
X142731859Y-82552906D02*
X142665192Y-82519573D01*
X142665192Y-82519573D02*
X142565192Y-82519573D01*
X142565192Y-82519573D02*
X142465192Y-82552906D01*
X142465192Y-82552906D02*
X142398526Y-82619573D01*
X142398526Y-82619573D02*
X142365192Y-82686240D01*
X142365192Y-82686240D02*
X142331859Y-82819573D01*
X142331859Y-82819573D02*
X142331859Y-82919573D01*
X142331859Y-82919573D02*
X142365192Y-83052906D01*
X142365192Y-83052906D02*
X142398526Y-83119573D01*
X142398526Y-83119573D02*
X142465192Y-83186240D01*
X142465192Y-83186240D02*
X142565192Y-83219573D01*
X142565192Y-83219573D02*
X142631859Y-83219573D01*
X142631859Y-83219573D02*
X142731859Y-83186240D01*
X142731859Y-83186240D02*
X142765192Y-83152906D01*
X142765192Y-83152906D02*
X142765192Y-82919573D01*
X142765192Y-82919573D02*
X142631859Y-82919573D01*
X147552192Y-83104573D02*
X147552192Y-82404573D01*
X147552192Y-82404573D02*
X147718859Y-82404573D01*
X147718859Y-82404573D02*
X147818859Y-82437906D01*
X147818859Y-82437906D02*
X147885526Y-82504573D01*
X147885526Y-82504573D02*
X147918859Y-82571240D01*
X147918859Y-82571240D02*
X147952192Y-82704573D01*
X147952192Y-82704573D02*
X147952192Y-82804573D01*
X147952192Y-82804573D02*
X147918859Y-82937906D01*
X147918859Y-82937906D02*
X147885526Y-83004573D01*
X147885526Y-83004573D02*
X147818859Y-83071240D01*
X147818859Y-83071240D02*
X147718859Y-83104573D01*
X147718859Y-83104573D02*
X147552192Y-83104573D01*
X143518859Y-86321240D02*
X143618859Y-86354573D01*
X143618859Y-86354573D02*
X143785526Y-86354573D01*
X143785526Y-86354573D02*
X143852192Y-86321240D01*
X143852192Y-86321240D02*
X143885526Y-86287906D01*
X143885526Y-86287906D02*
X143918859Y-86221240D01*
X143918859Y-86221240D02*
X143918859Y-86154573D01*
X143918859Y-86154573D02*
X143885526Y-86087906D01*
X143885526Y-86087906D02*
X143852192Y-86054573D01*
X143852192Y-86054573D02*
X143785526Y-86021240D01*
X143785526Y-86021240D02*
X143652192Y-85987906D01*
X143652192Y-85987906D02*
X143585526Y-85954573D01*
X143585526Y-85954573D02*
X143552192Y-85921240D01*
X143552192Y-85921240D02*
X143518859Y-85854573D01*
X143518859Y-85854573D02*
X143518859Y-85787906D01*
X143518859Y-85787906D02*
X143552192Y-85721240D01*
X143552192Y-85721240D02*
X143585526Y-85687906D01*
X143585526Y-85687906D02*
X143652192Y-85654573D01*
X143652192Y-85654573D02*
X143818859Y-85654573D01*
X143818859Y-85654573D02*
X143918859Y-85687906D01*
X128245812Y-77325335D02*
X127979145Y-76944382D01*
X127788669Y-77325335D02*
X127788669Y-76525335D01*
X127788669Y-76525335D02*
X128093431Y-76525335D01*
X128093431Y-76525335D02*
X128169621Y-76563430D01*
X128169621Y-76563430D02*
X128207716Y-76601525D01*
X128207716Y-76601525D02*
X128245812Y-76677716D01*
X128245812Y-76677716D02*
X128245812Y-76792001D01*
X128245812Y-76792001D02*
X128207716Y-76868192D01*
X128207716Y-76868192D02*
X128169621Y-76906287D01*
X128169621Y-76906287D02*
X128093431Y-76944382D01*
X128093431Y-76944382D02*
X127788669Y-76944382D01*
X128550573Y-76601525D02*
X128588669Y-76563430D01*
X128588669Y-76563430D02*
X128664859Y-76525335D01*
X128664859Y-76525335D02*
X128855335Y-76525335D01*
X128855335Y-76525335D02*
X128931526Y-76563430D01*
X128931526Y-76563430D02*
X128969621Y-76601525D01*
X128969621Y-76601525D02*
X129007716Y-76677716D01*
X129007716Y-76677716D02*
X129007716Y-76753906D01*
X129007716Y-76753906D02*
X128969621Y-76868192D01*
X128969621Y-76868192D02*
X128512478Y-77325335D01*
X128512478Y-77325335D02*
X129007716Y-77325335D01*
X116573333Y-84780335D02*
X116573333Y-85351763D01*
X116573333Y-85351763D02*
X116535238Y-85466049D01*
X116535238Y-85466049D02*
X116459047Y-85542240D01*
X116459047Y-85542240D02*
X116344762Y-85580335D01*
X116344762Y-85580335D02*
X116268571Y-85580335D01*
X117373333Y-85580335D02*
X116916190Y-85580335D01*
X117144762Y-85580335D02*
X117144762Y-84780335D01*
X117144762Y-84780335D02*
X117068571Y-84894620D01*
X117068571Y-84894620D02*
X116992381Y-84970811D01*
X116992381Y-84970811D02*
X116916190Y-85008906D01*
X154165381Y-71229335D02*
X154165381Y-70429335D01*
X154165381Y-70429335D02*
X154432047Y-71000763D01*
X154432047Y-71000763D02*
X154698714Y-70429335D01*
X154698714Y-70429335D02*
X154698714Y-71229335D01*
X155041571Y-70505525D02*
X155079667Y-70467430D01*
X155079667Y-70467430D02*
X155155857Y-70429335D01*
X155155857Y-70429335D02*
X155346333Y-70429335D01*
X155346333Y-70429335D02*
X155422524Y-70467430D01*
X155422524Y-70467430D02*
X155460619Y-70505525D01*
X155460619Y-70505525D02*
X155498714Y-70581716D01*
X155498714Y-70581716D02*
X155498714Y-70657906D01*
X155498714Y-70657906D02*
X155460619Y-70772192D01*
X155460619Y-70772192D02*
X155003476Y-71229335D01*
X155003476Y-71229335D02*
X155498714Y-71229335D01*
X134994667Y-74277335D02*
X134728000Y-73896382D01*
X134537524Y-74277335D02*
X134537524Y-73477335D01*
X134537524Y-73477335D02*
X134842286Y-73477335D01*
X134842286Y-73477335D02*
X134918476Y-73515430D01*
X134918476Y-73515430D02*
X134956571Y-73553525D01*
X134956571Y-73553525D02*
X134994667Y-73629716D01*
X134994667Y-73629716D02*
X134994667Y-73744001D01*
X134994667Y-73744001D02*
X134956571Y-73820192D01*
X134956571Y-73820192D02*
X134918476Y-73858287D01*
X134918476Y-73858287D02*
X134842286Y-73896382D01*
X134842286Y-73896382D02*
X134537524Y-73896382D01*
X135756571Y-74277335D02*
X135299428Y-74277335D01*
X135528000Y-74277335D02*
X135528000Y-73477335D01*
X135528000Y-73477335D02*
X135451809Y-73591620D01*
X135451809Y-73591620D02*
X135375619Y-73667811D01*
X135375619Y-73667811D02*
X135299428Y-73705906D01*
X134232667Y-79738330D02*
X133966000Y-79357377D01*
X133775524Y-79738330D02*
X133775524Y-78938330D01*
X133775524Y-78938330D02*
X134080286Y-78938330D01*
X134080286Y-78938330D02*
X134156476Y-78976425D01*
X134156476Y-78976425D02*
X134194571Y-79014520D01*
X134194571Y-79014520D02*
X134232667Y-79090711D01*
X134232667Y-79090711D02*
X134232667Y-79204996D01*
X134232667Y-79204996D02*
X134194571Y-79281187D01*
X134194571Y-79281187D02*
X134156476Y-79319282D01*
X134156476Y-79319282D02*
X134080286Y-79357377D01*
X134080286Y-79357377D02*
X133775524Y-79357377D01*
X134918381Y-79204996D02*
X134918381Y-79738330D01*
X134727905Y-78900235D02*
X134537428Y-79471663D01*
X134537428Y-79471663D02*
X135032667Y-79471663D01*
X148069381Y-71229335D02*
X148069381Y-70429335D01*
X148069381Y-70429335D02*
X148336047Y-71000763D01*
X148336047Y-71000763D02*
X148602714Y-70429335D01*
X148602714Y-70429335D02*
X148602714Y-71229335D01*
X149402714Y-71229335D02*
X148945571Y-71229335D01*
X149174143Y-71229335D02*
X149174143Y-70429335D01*
X149174143Y-70429335D02*
X149097952Y-70543620D01*
X149097952Y-70543620D02*
X149021762Y-70619811D01*
X149021762Y-70619811D02*
X148945571Y-70657906D01*
X118770476Y-75001335D02*
X118770476Y-75648954D01*
X118770476Y-75648954D02*
X118808571Y-75725144D01*
X118808571Y-75725144D02*
X118846666Y-75763240D01*
X118846666Y-75763240D02*
X118922857Y-75801335D01*
X118922857Y-75801335D02*
X119075238Y-75801335D01*
X119075238Y-75801335D02*
X119151428Y-75763240D01*
X119151428Y-75763240D02*
X119189523Y-75725144D01*
X119189523Y-75725144D02*
X119227619Y-75648954D01*
X119227619Y-75648954D02*
X119227619Y-75001335D01*
X120027618Y-75801335D02*
X119570475Y-75801335D01*
X119799047Y-75801335D02*
X119799047Y-75001335D01*
X119799047Y-75001335D02*
X119722856Y-75115620D01*
X119722856Y-75115620D02*
X119646666Y-75191811D01*
X119646666Y-75191811D02*
X119570475Y-75229906D01*
X133597667Y-73925239D02*
X133559571Y-73963335D01*
X133559571Y-73963335D02*
X133445286Y-74001430D01*
X133445286Y-74001430D02*
X133369095Y-74001430D01*
X133369095Y-74001430D02*
X133254809Y-73963335D01*
X133254809Y-73963335D02*
X133178619Y-73887144D01*
X133178619Y-73887144D02*
X133140524Y-73810954D01*
X133140524Y-73810954D02*
X133102428Y-73658573D01*
X133102428Y-73658573D02*
X133102428Y-73544287D01*
X133102428Y-73544287D02*
X133140524Y-73391906D01*
X133140524Y-73391906D02*
X133178619Y-73315715D01*
X133178619Y-73315715D02*
X133254809Y-73239525D01*
X133254809Y-73239525D02*
X133369095Y-73201430D01*
X133369095Y-73201430D02*
X133445286Y-73201430D01*
X133445286Y-73201430D02*
X133559571Y-73239525D01*
X133559571Y-73239525D02*
X133597667Y-73277620D01*
X134359571Y-74001430D02*
X133902428Y-74001430D01*
X134131000Y-74001430D02*
X134131000Y-73201430D01*
X134131000Y-73201430D02*
X134054809Y-73315715D01*
X134054809Y-73315715D02*
X133978619Y-73391906D01*
X133978619Y-73391906D02*
X133902428Y-73430001D01*
X121844576Y-69203720D02*
X121844576Y-69851339D01*
X121844576Y-69851339D02*
X121882671Y-69927529D01*
X121882671Y-69927529D02*
X121920766Y-69965625D01*
X121920766Y-69965625D02*
X121996957Y-70003720D01*
X121996957Y-70003720D02*
X122149338Y-70003720D01*
X122149338Y-70003720D02*
X122225528Y-69965625D01*
X122225528Y-69965625D02*
X122263623Y-69927529D01*
X122263623Y-69927529D02*
X122301719Y-69851339D01*
X122301719Y-69851339D02*
X122301719Y-69203720D01*
X123025528Y-69470386D02*
X123025528Y-70003720D01*
X122835052Y-69165625D02*
X122644575Y-69737053D01*
X122644575Y-69737053D02*
X123139814Y-69737053D01*
X118770476Y-82222823D02*
X118770476Y-82870442D01*
X118770476Y-82870442D02*
X118808571Y-82946632D01*
X118808571Y-82946632D02*
X118846666Y-82984728D01*
X118846666Y-82984728D02*
X118922857Y-83022823D01*
X118922857Y-83022823D02*
X119075238Y-83022823D01*
X119075238Y-83022823D02*
X119151428Y-82984728D01*
X119151428Y-82984728D02*
X119189523Y-82946632D01*
X119189523Y-82946632D02*
X119227619Y-82870442D01*
X119227619Y-82870442D02*
X119227619Y-82222823D01*
X119532380Y-82222823D02*
X120027618Y-82222823D01*
X120027618Y-82222823D02*
X119760952Y-82527585D01*
X119760952Y-82527585D02*
X119875237Y-82527585D01*
X119875237Y-82527585D02*
X119951428Y-82565680D01*
X119951428Y-82565680D02*
X119989523Y-82603775D01*
X119989523Y-82603775D02*
X120027618Y-82679966D01*
X120027618Y-82679966D02*
X120027618Y-82870442D01*
X120027618Y-82870442D02*
X119989523Y-82946632D01*
X119989523Y-82946632D02*
X119951428Y-82984728D01*
X119951428Y-82984728D02*
X119875237Y-83022823D01*
X119875237Y-83022823D02*
X119646666Y-83022823D01*
X119646666Y-83022823D02*
X119570475Y-82984728D01*
X119570475Y-82984728D02*
X119532380Y-82946632D01*
X124002809Y-83729635D02*
X123926619Y-83691540D01*
X123926619Y-83691540D02*
X123850428Y-83615350D01*
X123850428Y-83615350D02*
X123736142Y-83501064D01*
X123736142Y-83501064D02*
X123659952Y-83462969D01*
X123659952Y-83462969D02*
X123583761Y-83462969D01*
X123621857Y-83653445D02*
X123545666Y-83615350D01*
X123545666Y-83615350D02*
X123469476Y-83539159D01*
X123469476Y-83539159D02*
X123431380Y-83386778D01*
X123431380Y-83386778D02*
X123431380Y-83120111D01*
X123431380Y-83120111D02*
X123469476Y-82967730D01*
X123469476Y-82967730D02*
X123545666Y-82891540D01*
X123545666Y-82891540D02*
X123621857Y-82853445D01*
X123621857Y-82853445D02*
X123774238Y-82853445D01*
X123774238Y-82853445D02*
X123850428Y-82891540D01*
X123850428Y-82891540D02*
X123926619Y-82967730D01*
X123926619Y-82967730D02*
X123964714Y-83120111D01*
X123964714Y-83120111D02*
X123964714Y-83386778D01*
X123964714Y-83386778D02*
X123926619Y-83539159D01*
X123926619Y-83539159D02*
X123850428Y-83615350D01*
X123850428Y-83615350D02*
X123774238Y-83653445D01*
X123774238Y-83653445D02*
X123621857Y-83653445D01*
X124650428Y-83120111D02*
X124650428Y-83653445D01*
X124459952Y-82815350D02*
X124269475Y-83386778D01*
X124269475Y-83386778D02*
X124764714Y-83386778D01*
X131368809Y-70394617D02*
X131292619Y-70356522D01*
X131292619Y-70356522D02*
X131216428Y-70280332D01*
X131216428Y-70280332D02*
X131102142Y-70166046D01*
X131102142Y-70166046D02*
X131025952Y-70127951D01*
X131025952Y-70127951D02*
X130949761Y-70127951D01*
X130987857Y-70318427D02*
X130911666Y-70280332D01*
X130911666Y-70280332D02*
X130835476Y-70204141D01*
X130835476Y-70204141D02*
X130797380Y-70051760D01*
X130797380Y-70051760D02*
X130797380Y-69785093D01*
X130797380Y-69785093D02*
X130835476Y-69632712D01*
X130835476Y-69632712D02*
X130911666Y-69556522D01*
X130911666Y-69556522D02*
X130987857Y-69518427D01*
X130987857Y-69518427D02*
X131140238Y-69518427D01*
X131140238Y-69518427D02*
X131216428Y-69556522D01*
X131216428Y-69556522D02*
X131292619Y-69632712D01*
X131292619Y-69632712D02*
X131330714Y-69785093D01*
X131330714Y-69785093D02*
X131330714Y-70051760D01*
X131330714Y-70051760D02*
X131292619Y-70204141D01*
X131292619Y-70204141D02*
X131216428Y-70280332D01*
X131216428Y-70280332D02*
X131140238Y-70318427D01*
X131140238Y-70318427D02*
X130987857Y-70318427D01*
X132092618Y-70318427D02*
X131635475Y-70318427D01*
X131864047Y-70318427D02*
X131864047Y-69518427D01*
X131864047Y-69518427D02*
X131787856Y-69632712D01*
X131787856Y-69632712D02*
X131711666Y-69708903D01*
X131711666Y-69708903D02*
X131635475Y-69746998D01*
X119246667Y-79797918D02*
X119208571Y-79836014D01*
X119208571Y-79836014D02*
X119094286Y-79874109D01*
X119094286Y-79874109D02*
X119018095Y-79874109D01*
X119018095Y-79874109D02*
X118903809Y-79836014D01*
X118903809Y-79836014D02*
X118827619Y-79759823D01*
X118827619Y-79759823D02*
X118789524Y-79683633D01*
X118789524Y-79683633D02*
X118751428Y-79531252D01*
X118751428Y-79531252D02*
X118751428Y-79416966D01*
X118751428Y-79416966D02*
X118789524Y-79264585D01*
X118789524Y-79264585D02*
X118827619Y-79188394D01*
X118827619Y-79188394D02*
X118903809Y-79112204D01*
X118903809Y-79112204D02*
X119018095Y-79074109D01*
X119018095Y-79074109D02*
X119094286Y-79074109D01*
X119094286Y-79074109D02*
X119208571Y-79112204D01*
X119208571Y-79112204D02*
X119246667Y-79150299D01*
X119513333Y-79074109D02*
X120008571Y-79074109D01*
X120008571Y-79074109D02*
X119741905Y-79378871D01*
X119741905Y-79378871D02*
X119856190Y-79378871D01*
X119856190Y-79378871D02*
X119932381Y-79416966D01*
X119932381Y-79416966D02*
X119970476Y-79455061D01*
X119970476Y-79455061D02*
X120008571Y-79531252D01*
X120008571Y-79531252D02*
X120008571Y-79721728D01*
X120008571Y-79721728D02*
X119970476Y-79797918D01*
X119970476Y-79797918D02*
X119932381Y-79836014D01*
X119932381Y-79836014D02*
X119856190Y-79874109D01*
X119856190Y-79874109D02*
X119627619Y-79874109D01*
X119627619Y-79874109D02*
X119551428Y-79836014D01*
X119551428Y-79836014D02*
X119513333Y-79797918D01*
X125088667Y-75457997D02*
X125050571Y-75496093D01*
X125050571Y-75496093D02*
X124936286Y-75534188D01*
X124936286Y-75534188D02*
X124860095Y-75534188D01*
X124860095Y-75534188D02*
X124745809Y-75496093D01*
X124745809Y-75496093D02*
X124669619Y-75419902D01*
X124669619Y-75419902D02*
X124631524Y-75343712D01*
X124631524Y-75343712D02*
X124593428Y-75191331D01*
X124593428Y-75191331D02*
X124593428Y-75077045D01*
X124593428Y-75077045D02*
X124631524Y-74924664D01*
X124631524Y-74924664D02*
X124669619Y-74848473D01*
X124669619Y-74848473D02*
X124745809Y-74772283D01*
X124745809Y-74772283D02*
X124860095Y-74734188D01*
X124860095Y-74734188D02*
X124936286Y-74734188D01*
X124936286Y-74734188D02*
X125050571Y-74772283D01*
X125050571Y-74772283D02*
X125088667Y-74810378D01*
X125393428Y-74810378D02*
X125431524Y-74772283D01*
X125431524Y-74772283D02*
X125507714Y-74734188D01*
X125507714Y-74734188D02*
X125698190Y-74734188D01*
X125698190Y-74734188D02*
X125774381Y-74772283D01*
X125774381Y-74772283D02*
X125812476Y-74810378D01*
X125812476Y-74810378D02*
X125850571Y-74886569D01*
X125850571Y-74886569D02*
X125850571Y-74962759D01*
X125850571Y-74962759D02*
X125812476Y-75077045D01*
X125812476Y-75077045D02*
X125355333Y-75534188D01*
X125355333Y-75534188D02*
X125850571Y-75534188D01*
X127292225Y-70924525D02*
X127216035Y-70886430D01*
X127216035Y-70886430D02*
X127139844Y-70810240D01*
X127139844Y-70810240D02*
X127025558Y-70695954D01*
X127025558Y-70695954D02*
X126949368Y-70657859D01*
X126949368Y-70657859D02*
X126873177Y-70657859D01*
X126911273Y-70848335D02*
X126835082Y-70810240D01*
X126835082Y-70810240D02*
X126758892Y-70734049D01*
X126758892Y-70734049D02*
X126720796Y-70581668D01*
X126720796Y-70581668D02*
X126720796Y-70315001D01*
X126720796Y-70315001D02*
X126758892Y-70162620D01*
X126758892Y-70162620D02*
X126835082Y-70086430D01*
X126835082Y-70086430D02*
X126911273Y-70048335D01*
X126911273Y-70048335D02*
X127063654Y-70048335D01*
X127063654Y-70048335D02*
X127139844Y-70086430D01*
X127139844Y-70086430D02*
X127216035Y-70162620D01*
X127216035Y-70162620D02*
X127254130Y-70315001D01*
X127254130Y-70315001D02*
X127254130Y-70581668D01*
X127254130Y-70581668D02*
X127216035Y-70734049D01*
X127216035Y-70734049D02*
X127139844Y-70810240D01*
X127139844Y-70810240D02*
X127063654Y-70848335D01*
X127063654Y-70848335D02*
X126911273Y-70848335D01*
X127520796Y-70048335D02*
X128016034Y-70048335D01*
X128016034Y-70048335D02*
X127749368Y-70353097D01*
X127749368Y-70353097D02*
X127863653Y-70353097D01*
X127863653Y-70353097D02*
X127939844Y-70391192D01*
X127939844Y-70391192D02*
X127977939Y-70429287D01*
X127977939Y-70429287D02*
X128016034Y-70505478D01*
X128016034Y-70505478D02*
X128016034Y-70695954D01*
X128016034Y-70695954D02*
X127977939Y-70772144D01*
X127977939Y-70772144D02*
X127939844Y-70810240D01*
X127939844Y-70810240D02*
X127863653Y-70848335D01*
X127863653Y-70848335D02*
X127635082Y-70848335D01*
X127635082Y-70848335D02*
X127558891Y-70810240D01*
X127558891Y-70810240D02*
X127520796Y-70772144D01*
X128963525Y-83361932D02*
X128925430Y-83438122D01*
X128925430Y-83438122D02*
X128849240Y-83514313D01*
X128849240Y-83514313D02*
X128734954Y-83628599D01*
X128734954Y-83628599D02*
X128696859Y-83704789D01*
X128696859Y-83704789D02*
X128696859Y-83780980D01*
X128887335Y-83742884D02*
X128849240Y-83819075D01*
X128849240Y-83819075D02*
X128773049Y-83895265D01*
X128773049Y-83895265D02*
X128620668Y-83933361D01*
X128620668Y-83933361D02*
X128354001Y-83933361D01*
X128354001Y-83933361D02*
X128201620Y-83895265D01*
X128201620Y-83895265D02*
X128125430Y-83819075D01*
X128125430Y-83819075D02*
X128087335Y-83742884D01*
X128087335Y-83742884D02*
X128087335Y-83590503D01*
X128087335Y-83590503D02*
X128125430Y-83514313D01*
X128125430Y-83514313D02*
X128201620Y-83438122D01*
X128201620Y-83438122D02*
X128354001Y-83400027D01*
X128354001Y-83400027D02*
X128620668Y-83400027D01*
X128620668Y-83400027D02*
X128773049Y-83438122D01*
X128773049Y-83438122D02*
X128849240Y-83514313D01*
X128849240Y-83514313D02*
X128887335Y-83590503D01*
X128887335Y-83590503D02*
X128887335Y-83742884D01*
X128163525Y-83095266D02*
X128125430Y-83057170D01*
X128125430Y-83057170D02*
X128087335Y-82980980D01*
X128087335Y-82980980D02*
X128087335Y-82790504D01*
X128087335Y-82790504D02*
X128125430Y-82714313D01*
X128125430Y-82714313D02*
X128163525Y-82676218D01*
X128163525Y-82676218D02*
X128239716Y-82638123D01*
X128239716Y-82638123D02*
X128315906Y-82638123D01*
X128315906Y-82638123D02*
X128430192Y-82676218D01*
X128430192Y-82676218D02*
X128887335Y-83133361D01*
X128887335Y-83133361D02*
X128887335Y-82638123D01*
X134237567Y-84152950D02*
X133970900Y-83771997D01*
X133780424Y-84152950D02*
X133780424Y-83352950D01*
X133780424Y-83352950D02*
X134085186Y-83352950D01*
X134085186Y-83352950D02*
X134161376Y-83391045D01*
X134161376Y-83391045D02*
X134199471Y-83429140D01*
X134199471Y-83429140D02*
X134237567Y-83505331D01*
X134237567Y-83505331D02*
X134237567Y-83619616D01*
X134237567Y-83619616D02*
X134199471Y-83695807D01*
X134199471Y-83695807D02*
X134161376Y-83733902D01*
X134161376Y-83733902D02*
X134085186Y-83771997D01*
X134085186Y-83771997D02*
X133780424Y-83771997D01*
X134504233Y-83352950D02*
X134999471Y-83352950D01*
X134999471Y-83352950D02*
X134732805Y-83657712D01*
X134732805Y-83657712D02*
X134847090Y-83657712D01*
X134847090Y-83657712D02*
X134923281Y-83695807D01*
X134923281Y-83695807D02*
X134961376Y-83733902D01*
X134961376Y-83733902D02*
X134999471Y-83810093D01*
X134999471Y-83810093D02*
X134999471Y-84000569D01*
X134999471Y-84000569D02*
X134961376Y-84076759D01*
X134961376Y-84076759D02*
X134923281Y-84114855D01*
X134923281Y-84114855D02*
X134847090Y-84152950D01*
X134847090Y-84152950D02*
X134618519Y-84152950D01*
X134618519Y-84152950D02*
X134542328Y-84114855D01*
X134542328Y-84114855D02*
X134504233Y-84076759D01*
D14*
%TO.C,J2*%
X167780000Y-85230000D02*
X167780000Y-69430000D01*
X167780000Y-69430000D02*
X159880000Y-69430000D01*
X159880000Y-85230000D02*
X167780000Y-85230000D01*
X159880000Y-69430000D02*
X159880000Y-85230000D01*
D15*
%TO.C,M4*%
X146010000Y-82367000D02*
X145210000Y-82367000D01*
X146010000Y-82367000D02*
X146810000Y-82367000D01*
X146810000Y-82367000D02*
X146810000Y-83297000D01*
X146810000Y-85527000D02*
X145350000Y-85527000D01*
X146810000Y-85527000D02*
X146810000Y-84597000D01*
X144710000Y-82337000D02*
X144470000Y-82007000D01*
X144950000Y-82007000D01*
X144710000Y-82337000D01*
G36*
X144710000Y-82337000D02*
G01*
X144470000Y-82007000D01*
X144950000Y-82007000D01*
X144710000Y-82337000D01*
G37*
%TO.C,R2*%
X130555276Y-76312500D02*
X131064724Y-76312500D01*
X130555276Y-77357500D02*
X131064724Y-77357500D01*
D14*
%TO.C,J1*%
X107810000Y-69430000D02*
X107810000Y-85230000D01*
X107810000Y-85230000D02*
X115710000Y-85230000D01*
X115710000Y-69430000D02*
X107810000Y-69430000D01*
X115710000Y-85230000D02*
X115710000Y-69430000D01*
D15*
%TO.C,M2*%
X142334746Y-71598000D02*
X142334746Y-81818000D01*
X142334746Y-71598000D02*
X158204746Y-71598000D01*
X142334746Y-73683000D02*
X139894746Y-73683000D01*
X142334746Y-74653000D02*
X139894746Y-74653000D01*
X142334746Y-76223000D02*
X139894746Y-76223000D01*
X142334746Y-77193000D02*
X139894746Y-77193000D01*
X142334746Y-78763000D02*
X139894746Y-78763000D01*
X142334746Y-79733000D02*
X139894746Y-79733000D01*
X142334746Y-81818000D02*
X158204746Y-81818000D01*
X158204746Y-71598000D02*
X158204746Y-81818000D01*
%TO.C,R1*%
X134732500Y-76454724D02*
X134732500Y-75945276D01*
X135777500Y-76454724D02*
X135777500Y-75945276D01*
%TO.C,R4*%
X134365276Y-80122500D02*
X134874724Y-80122500D01*
X134365276Y-81167500D02*
X134874724Y-81167500D01*
%TO.C,M1*%
X145462020Y-73258000D02*
X145462020Y-73528000D01*
X145462020Y-80158000D02*
X145462020Y-79888000D01*
X151882020Y-73258000D02*
X145462020Y-73258000D01*
X151882020Y-80158000D02*
X145462020Y-80158000D01*
X143732020Y-73568000D02*
X143392020Y-73098000D01*
X144072020Y-73098000D01*
X143732020Y-73568000D01*
G36*
X143732020Y-73568000D02*
G01*
X143392020Y-73098000D01*
X144072020Y-73098000D01*
X143732020Y-73568000D01*
G37*
%TO.C,U1*%
X121010000Y-75910000D02*
X122830000Y-75910000D01*
X121010000Y-75960000D02*
X121010000Y-75910000D01*
X121010000Y-79030000D02*
X121010000Y-78980000D01*
X122830000Y-75910000D02*
X122830000Y-75960000D01*
X122830000Y-77080000D02*
X122830000Y-77860000D01*
X122830000Y-78980000D02*
X122830000Y-79030000D01*
X122830000Y-79030000D02*
X121010000Y-79030000D01*
X120470000Y-75960000D02*
X120230000Y-75630000D01*
X120710000Y-75630000D01*
X120470000Y-75960000D01*
G36*
X120470000Y-75960000D02*
G01*
X120230000Y-75630000D01*
X120710000Y-75630000D01*
X120470000Y-75960000D01*
G37*
%TO.C,C1*%
X133221000Y-76346267D02*
X133221000Y-76053733D01*
X134241000Y-76346267D02*
X134241000Y-76053733D01*
%TO.C,U4*%
X123085000Y-70540000D02*
X119485000Y-70540000D01*
X121285000Y-74990000D02*
G75*
G02*
X119446522Y-70551522I0J2600000D01*
G01*
X123123478Y-70551522D02*
G75*
G02*
X121285000Y-74990001I-1838478J-1838478D01*
G01*
%TO.C,U3*%
X120525000Y-79720000D02*
X122045000Y-79720000D01*
X120525000Y-80720000D02*
X120525000Y-79720000D01*
X120525000Y-82840000D02*
X120525000Y-81840000D01*
X122045000Y-79720000D02*
X122045000Y-79770000D01*
X122045000Y-80890000D02*
X122045000Y-81670000D01*
X122045000Y-82790000D02*
X122045000Y-82840000D01*
X122045000Y-82840000D02*
X120525000Y-82840000D01*
X122585000Y-81660000D02*
X122345000Y-81330000D01*
X122825000Y-81330000D01*
X122585000Y-81660000D01*
G36*
X122585000Y-81660000D02*
G01*
X122345000Y-81330000D01*
X122825000Y-81330000D01*
X122585000Y-81660000D01*
G37*
%TO.C,Q4*%
X124970000Y-80355000D02*
X126490000Y-80355000D01*
X124970000Y-81355000D02*
X124970000Y-80355000D01*
X124970000Y-83475000D02*
X124970000Y-82475000D01*
X126490000Y-80355000D02*
X126490000Y-80405000D01*
X126490000Y-81525000D02*
X126490000Y-82305000D01*
X126490000Y-83425000D02*
X126490000Y-83475000D01*
X126490000Y-83475000D02*
X124970000Y-83475000D01*
X127030000Y-82295000D02*
X126790000Y-81965000D01*
X127270000Y-81965000D01*
X127030000Y-82295000D01*
G36*
X127030000Y-82295000D02*
G01*
X126790000Y-81965000D01*
X127270000Y-81965000D01*
X127030000Y-82295000D01*
G37*
%TO.C,Q1*%
X128325000Y-71225000D02*
X128325000Y-74825000D01*
X128336522Y-71186522D02*
G75*
G02*
X132775001Y-73025000I1838478J-1838478D01*
G01*
X132775000Y-73025000D02*
G75*
G02*
X128336522Y-74863478I-2600000J0D01*
G01*
%TO.C,C3*%
X117600000Y-77323733D02*
X117600000Y-77616267D01*
X118620000Y-77323733D02*
X118620000Y-77616267D01*
%TO.C,C2*%
X124585000Y-77616267D02*
X124585000Y-77323733D01*
X125605000Y-77616267D02*
X125605000Y-77323733D01*
%TO.C,Q3*%
X125224000Y-71057714D02*
X126744000Y-71057714D01*
X125224000Y-71107714D02*
X125224000Y-71057714D01*
X125224000Y-73007714D02*
X125224000Y-72227714D01*
X125224000Y-74177714D02*
X125224000Y-74127714D01*
X126744000Y-71057714D02*
X126744000Y-72057714D01*
X126744000Y-73177714D02*
X126744000Y-74177714D01*
X126744000Y-74177714D02*
X125224000Y-74177714D01*
X124924000Y-72567714D02*
X124444000Y-72567714D01*
X124684000Y-72237714D01*
X124924000Y-72567714D01*
G36*
X124924000Y-72567714D02*
G01*
X124444000Y-72567714D01*
X124684000Y-72237714D01*
X124924000Y-72567714D01*
G37*
%TO.C,Q2*%
X132660000Y-82445000D02*
X132660000Y-78845000D01*
X128210000Y-80645000D02*
G75*
G02*
X132648478Y-78806522I2600000J0D01*
G01*
X132648478Y-82483478D02*
G75*
G02*
X128209999Y-80645000I-1838478J1838478D01*
G01*
%TO.C,R3*%
X134365276Y-82027500D02*
X134874724Y-82027500D01*
X134365276Y-83072500D02*
X134874724Y-83072500D01*
%TD*%
M02*
