%TF.GenerationSoftware,KiCad,Pcbnew,9.0.6*%
%TF.CreationDate,2025-11-17T11:05:33-05:00*%
%TF.ProjectId,vldo,766c646f-2e6b-4696-9361-645f70636258,0.1*%
%TF.SameCoordinates,Original*%
%TF.FileFunction,Legend,Bot*%
%TF.FilePolarity,Positive*%
%FSLAX46Y46*%
G04 Gerber Fmt 4.6, Leading zero omitted, Abs format (unit mm)*
G04 Created by KiCad (PCBNEW 9.0.6) date 2025-11-17 11:05:33*
%MOMM*%
%LPD*%
G01*
G04 APERTURE LIST*
%ADD10C,0.100000*%
%ADD11C,0.140000*%
%ADD12C,0.150000*%
G04 APERTURE END LIST*
D10*
X117856000Y-73660000D02*
X123825000Y-73660000D01*
X123825000Y-86360000D01*
X117856000Y-86360000D01*
X117856000Y-73660000D01*
G36*
X117856000Y-73660000D02*
G01*
X123825000Y-73660000D01*
X123825000Y-86360000D01*
X117856000Y-86360000D01*
X117856000Y-73660000D01*
G37*
D11*
X156041704Y-80302995D02*
X155775037Y-81102995D01*
X155775037Y-81102995D02*
X155508371Y-80302995D01*
X154860752Y-81102995D02*
X155241704Y-81102995D01*
X155241704Y-81102995D02*
X155241704Y-80302995D01*
X154594085Y-81102995D02*
X154594085Y-80302995D01*
X154594085Y-80302995D02*
X154403609Y-80302995D01*
X154403609Y-80302995D02*
X154289323Y-80341090D01*
X154289323Y-80341090D02*
X154213133Y-80417280D01*
X154213133Y-80417280D02*
X154175038Y-80493471D01*
X154175038Y-80493471D02*
X154136942Y-80645852D01*
X154136942Y-80645852D02*
X154136942Y-80760138D01*
X154136942Y-80760138D02*
X154175038Y-80912519D01*
X154175038Y-80912519D02*
X154213133Y-80988709D01*
X154213133Y-80988709D02*
X154289323Y-81064900D01*
X154289323Y-81064900D02*
X154403609Y-81102995D01*
X154403609Y-81102995D02*
X154594085Y-81102995D01*
X153641704Y-80302995D02*
X153489323Y-80302995D01*
X153489323Y-80302995D02*
X153413133Y-80341090D01*
X153413133Y-80341090D02*
X153336942Y-80417280D01*
X153336942Y-80417280D02*
X153298847Y-80569661D01*
X153298847Y-80569661D02*
X153298847Y-80836328D01*
X153298847Y-80836328D02*
X153336942Y-80988709D01*
X153336942Y-80988709D02*
X153413133Y-81064900D01*
X153413133Y-81064900D02*
X153489323Y-81102995D01*
X153489323Y-81102995D02*
X153641704Y-81102995D01*
X153641704Y-81102995D02*
X153717895Y-81064900D01*
X153717895Y-81064900D02*
X153794085Y-80988709D01*
X153794085Y-80988709D02*
X153832181Y-80836328D01*
X153832181Y-80836328D02*
X153832181Y-80569661D01*
X153832181Y-80569661D02*
X153794085Y-80417280D01*
X153794085Y-80417280D02*
X153717895Y-80341090D01*
X153717895Y-80341090D02*
X153641704Y-80302995D01*
X151813133Y-80569661D02*
X151622657Y-81102995D01*
X151622657Y-81102995D02*
X151432180Y-80569661D01*
X150975037Y-80302995D02*
X150898847Y-80302995D01*
X150898847Y-80302995D02*
X150822656Y-80341090D01*
X150822656Y-80341090D02*
X150784561Y-80379185D01*
X150784561Y-80379185D02*
X150746466Y-80455376D01*
X150746466Y-80455376D02*
X150708371Y-80607757D01*
X150708371Y-80607757D02*
X150708371Y-80798233D01*
X150708371Y-80798233D02*
X150746466Y-80950614D01*
X150746466Y-80950614D02*
X150784561Y-81026804D01*
X150784561Y-81026804D02*
X150822656Y-81064900D01*
X150822656Y-81064900D02*
X150898847Y-81102995D01*
X150898847Y-81102995D02*
X150975037Y-81102995D01*
X150975037Y-81102995D02*
X151051228Y-81064900D01*
X151051228Y-81064900D02*
X151089323Y-81026804D01*
X151089323Y-81026804D02*
X151127418Y-80950614D01*
X151127418Y-80950614D02*
X151165514Y-80798233D01*
X151165514Y-80798233D02*
X151165514Y-80607757D01*
X151165514Y-80607757D02*
X151127418Y-80455376D01*
X151127418Y-80455376D02*
X151089323Y-80379185D01*
X151089323Y-80379185D02*
X151051228Y-80341090D01*
X151051228Y-80341090D02*
X150975037Y-80302995D01*
X150365513Y-81026804D02*
X150327418Y-81064900D01*
X150327418Y-81064900D02*
X150365513Y-81102995D01*
X150365513Y-81102995D02*
X150403609Y-81064900D01*
X150403609Y-81064900D02*
X150365513Y-81026804D01*
X150365513Y-81026804D02*
X150365513Y-81102995D01*
X149565514Y-81102995D02*
X150022657Y-81102995D01*
X149794085Y-81102995D02*
X149794085Y-80302995D01*
X149794085Y-80302995D02*
X149870276Y-80417280D01*
X149870276Y-80417280D02*
X149946466Y-80493471D01*
X149946466Y-80493471D02*
X150022657Y-80531566D01*
X155660752Y-81971902D02*
X155546466Y-82009997D01*
X155546466Y-82009997D02*
X155508371Y-82048093D01*
X155508371Y-82048093D02*
X155470275Y-82124283D01*
X155470275Y-82124283D02*
X155470275Y-82238569D01*
X155470275Y-82238569D02*
X155508371Y-82314759D01*
X155508371Y-82314759D02*
X155546466Y-82352855D01*
X155546466Y-82352855D02*
X155622656Y-82390950D01*
X155622656Y-82390950D02*
X155927418Y-82390950D01*
X155927418Y-82390950D02*
X155927418Y-81590950D01*
X155927418Y-81590950D02*
X155660752Y-81590950D01*
X155660752Y-81590950D02*
X155584561Y-81629045D01*
X155584561Y-81629045D02*
X155546466Y-81667140D01*
X155546466Y-81667140D02*
X155508371Y-81743331D01*
X155508371Y-81743331D02*
X155508371Y-81819521D01*
X155508371Y-81819521D02*
X155546466Y-81895712D01*
X155546466Y-81895712D02*
X155584561Y-81933807D01*
X155584561Y-81933807D02*
X155660752Y-81971902D01*
X155660752Y-81971902D02*
X155927418Y-81971902D01*
X154784561Y-82390950D02*
X154784561Y-81971902D01*
X154784561Y-81971902D02*
X154822656Y-81895712D01*
X154822656Y-81895712D02*
X154898847Y-81857616D01*
X154898847Y-81857616D02*
X155051228Y-81857616D01*
X155051228Y-81857616D02*
X155127418Y-81895712D01*
X154784561Y-82352855D02*
X154860752Y-82390950D01*
X154860752Y-82390950D02*
X155051228Y-82390950D01*
X155051228Y-82390950D02*
X155127418Y-82352855D01*
X155127418Y-82352855D02*
X155165514Y-82276664D01*
X155165514Y-82276664D02*
X155165514Y-82200474D01*
X155165514Y-82200474D02*
X155127418Y-82124283D01*
X155127418Y-82124283D02*
X155051228Y-82086188D01*
X155051228Y-82086188D02*
X154860752Y-82086188D01*
X154860752Y-82086188D02*
X154784561Y-82048093D01*
X154441704Y-82352855D02*
X154365513Y-82390950D01*
X154365513Y-82390950D02*
X154213132Y-82390950D01*
X154213132Y-82390950D02*
X154136942Y-82352855D01*
X154136942Y-82352855D02*
X154098846Y-82276664D01*
X154098846Y-82276664D02*
X154098846Y-82238569D01*
X154098846Y-82238569D02*
X154136942Y-82162378D01*
X154136942Y-82162378D02*
X154213132Y-82124283D01*
X154213132Y-82124283D02*
X154327418Y-82124283D01*
X154327418Y-82124283D02*
X154403608Y-82086188D01*
X154403608Y-82086188D02*
X154441704Y-82009997D01*
X154441704Y-82009997D02*
X154441704Y-81971902D01*
X154441704Y-81971902D02*
X154403608Y-81895712D01*
X154403608Y-81895712D02*
X154327418Y-81857616D01*
X154327418Y-81857616D02*
X154213132Y-81857616D01*
X154213132Y-81857616D02*
X154136942Y-81895712D01*
X153451227Y-82352855D02*
X153527418Y-82390950D01*
X153527418Y-82390950D02*
X153679799Y-82390950D01*
X153679799Y-82390950D02*
X153755989Y-82352855D01*
X153755989Y-82352855D02*
X153794085Y-82276664D01*
X153794085Y-82276664D02*
X153794085Y-81971902D01*
X153794085Y-81971902D02*
X153755989Y-81895712D01*
X153755989Y-81895712D02*
X153679799Y-81857616D01*
X153679799Y-81857616D02*
X153527418Y-81857616D01*
X153527418Y-81857616D02*
X153451227Y-81895712D01*
X153451227Y-81895712D02*
X153413132Y-81971902D01*
X153413132Y-81971902D02*
X153413132Y-82048093D01*
X153413132Y-82048093D02*
X153794085Y-82124283D01*
X152727418Y-82390950D02*
X152727418Y-81590950D01*
X152727418Y-82352855D02*
X152803609Y-82390950D01*
X152803609Y-82390950D02*
X152955990Y-82390950D01*
X152955990Y-82390950D02*
X153032180Y-82352855D01*
X153032180Y-82352855D02*
X153070275Y-82314759D01*
X153070275Y-82314759D02*
X153108371Y-82238569D01*
X153108371Y-82238569D02*
X153108371Y-82009997D01*
X153108371Y-82009997D02*
X153070275Y-81933807D01*
X153070275Y-81933807D02*
X153032180Y-81895712D01*
X153032180Y-81895712D02*
X152955990Y-81857616D01*
X152955990Y-81857616D02*
X152803609Y-81857616D01*
X152803609Y-81857616D02*
X152727418Y-81895712D01*
X151622656Y-82390950D02*
X151698846Y-82352855D01*
X151698846Y-82352855D02*
X151736941Y-82314759D01*
X151736941Y-82314759D02*
X151775037Y-82238569D01*
X151775037Y-82238569D02*
X151775037Y-82009997D01*
X151775037Y-82009997D02*
X151736941Y-81933807D01*
X151736941Y-81933807D02*
X151698846Y-81895712D01*
X151698846Y-81895712D02*
X151622656Y-81857616D01*
X151622656Y-81857616D02*
X151508370Y-81857616D01*
X151508370Y-81857616D02*
X151432179Y-81895712D01*
X151432179Y-81895712D02*
X151394084Y-81933807D01*
X151394084Y-81933807D02*
X151355989Y-82009997D01*
X151355989Y-82009997D02*
X151355989Y-82238569D01*
X151355989Y-82238569D02*
X151394084Y-82314759D01*
X151394084Y-82314759D02*
X151432179Y-82352855D01*
X151432179Y-82352855D02*
X151508370Y-82390950D01*
X151508370Y-82390950D02*
X151622656Y-82390950D01*
X151013131Y-81857616D02*
X151013131Y-82390950D01*
X151013131Y-81933807D02*
X150975036Y-81895712D01*
X150975036Y-81895712D02*
X150898846Y-81857616D01*
X150898846Y-81857616D02*
X150784560Y-81857616D01*
X150784560Y-81857616D02*
X150708369Y-81895712D01*
X150708369Y-81895712D02*
X150670274Y-81971902D01*
X150670274Y-81971902D02*
X150670274Y-82390950D01*
X155317894Y-83678905D02*
X155317894Y-82878905D01*
X154975037Y-83678905D02*
X154975037Y-83259857D01*
X154975037Y-83259857D02*
X155013132Y-83183667D01*
X155013132Y-83183667D02*
X155089323Y-83145571D01*
X155089323Y-83145571D02*
X155203609Y-83145571D01*
X155203609Y-83145571D02*
X155279799Y-83183667D01*
X155279799Y-83183667D02*
X155317894Y-83221762D01*
X154708370Y-83145571D02*
X154403608Y-83145571D01*
X154594084Y-82878905D02*
X154594084Y-83564619D01*
X154594084Y-83564619D02*
X154555989Y-83640810D01*
X154555989Y-83640810D02*
X154479799Y-83678905D01*
X154479799Y-83678905D02*
X154403608Y-83678905D01*
X154251227Y-83145571D02*
X153946465Y-83145571D01*
X154136941Y-82878905D02*
X154136941Y-83564619D01*
X154136941Y-83564619D02*
X154098846Y-83640810D01*
X154098846Y-83640810D02*
X154022656Y-83678905D01*
X154022656Y-83678905D02*
X153946465Y-83678905D01*
X153679798Y-83145571D02*
X153679798Y-83945571D01*
X153679798Y-83183667D02*
X153603608Y-83145571D01*
X153603608Y-83145571D02*
X153451227Y-83145571D01*
X153451227Y-83145571D02*
X153375036Y-83183667D01*
X153375036Y-83183667D02*
X153336941Y-83221762D01*
X153336941Y-83221762D02*
X153298846Y-83297952D01*
X153298846Y-83297952D02*
X153298846Y-83526524D01*
X153298846Y-83526524D02*
X153336941Y-83602714D01*
X153336941Y-83602714D02*
X153375036Y-83640810D01*
X153375036Y-83640810D02*
X153451227Y-83678905D01*
X153451227Y-83678905D02*
X153603608Y-83678905D01*
X153603608Y-83678905D02*
X153679798Y-83640810D01*
X152994084Y-83640810D02*
X152917893Y-83678905D01*
X152917893Y-83678905D02*
X152765512Y-83678905D01*
X152765512Y-83678905D02*
X152689322Y-83640810D01*
X152689322Y-83640810D02*
X152651226Y-83564619D01*
X152651226Y-83564619D02*
X152651226Y-83526524D01*
X152651226Y-83526524D02*
X152689322Y-83450333D01*
X152689322Y-83450333D02*
X152765512Y-83412238D01*
X152765512Y-83412238D02*
X152879798Y-83412238D01*
X152879798Y-83412238D02*
X152955988Y-83374143D01*
X152955988Y-83374143D02*
X152994084Y-83297952D01*
X152994084Y-83297952D02*
X152994084Y-83259857D01*
X152994084Y-83259857D02*
X152955988Y-83183667D01*
X152955988Y-83183667D02*
X152879798Y-83145571D01*
X152879798Y-83145571D02*
X152765512Y-83145571D01*
X152765512Y-83145571D02*
X152689322Y-83183667D01*
X152308369Y-83602714D02*
X152270274Y-83640810D01*
X152270274Y-83640810D02*
X152308369Y-83678905D01*
X152308369Y-83678905D02*
X152346465Y-83640810D01*
X152346465Y-83640810D02*
X152308369Y-83602714D01*
X152308369Y-83602714D02*
X152308369Y-83678905D01*
X152308369Y-83183667D02*
X152270274Y-83221762D01*
X152270274Y-83221762D02*
X152308369Y-83259857D01*
X152308369Y-83259857D02*
X152346465Y-83221762D01*
X152346465Y-83221762D02*
X152308369Y-83183667D01*
X152308369Y-83183667D02*
X152308369Y-83259857D01*
X151355989Y-82840810D02*
X152041703Y-83869381D01*
X150517894Y-82840810D02*
X151203608Y-83869381D01*
X150327418Y-83145571D02*
X150175037Y-83678905D01*
X150175037Y-83678905D02*
X150022656Y-83297952D01*
X150022656Y-83297952D02*
X149870275Y-83678905D01*
X149870275Y-83678905D02*
X149717894Y-83145571D01*
X149489323Y-83145571D02*
X149336942Y-83678905D01*
X149336942Y-83678905D02*
X149184561Y-83297952D01*
X149184561Y-83297952D02*
X149032180Y-83678905D01*
X149032180Y-83678905D02*
X148879799Y-83145571D01*
X148651228Y-83145571D02*
X148498847Y-83678905D01*
X148498847Y-83678905D02*
X148346466Y-83297952D01*
X148346466Y-83297952D02*
X148194085Y-83678905D01*
X148194085Y-83678905D02*
X148041704Y-83145571D01*
X147736942Y-83602714D02*
X147698847Y-83640810D01*
X147698847Y-83640810D02*
X147736942Y-83678905D01*
X147736942Y-83678905D02*
X147775038Y-83640810D01*
X147775038Y-83640810D02*
X147736942Y-83602714D01*
X147736942Y-83602714D02*
X147736942Y-83678905D01*
X147013133Y-83145571D02*
X147013133Y-83793190D01*
X147013133Y-83793190D02*
X147051228Y-83869381D01*
X147051228Y-83869381D02*
X147089324Y-83907476D01*
X147089324Y-83907476D02*
X147165514Y-83945571D01*
X147165514Y-83945571D02*
X147279800Y-83945571D01*
X147279800Y-83945571D02*
X147355990Y-83907476D01*
X147013133Y-83640810D02*
X147089324Y-83678905D01*
X147089324Y-83678905D02*
X147241705Y-83678905D01*
X147241705Y-83678905D02*
X147317895Y-83640810D01*
X147317895Y-83640810D02*
X147355990Y-83602714D01*
X147355990Y-83602714D02*
X147394086Y-83526524D01*
X147394086Y-83526524D02*
X147394086Y-83297952D01*
X147394086Y-83297952D02*
X147355990Y-83221762D01*
X147355990Y-83221762D02*
X147317895Y-83183667D01*
X147317895Y-83183667D02*
X147241705Y-83145571D01*
X147241705Y-83145571D02*
X147089324Y-83145571D01*
X147089324Y-83145571D02*
X147013133Y-83183667D01*
X146289323Y-83145571D02*
X146289323Y-83945571D01*
X146289323Y-83640810D02*
X146365514Y-83678905D01*
X146365514Y-83678905D02*
X146517895Y-83678905D01*
X146517895Y-83678905D02*
X146594085Y-83640810D01*
X146594085Y-83640810D02*
X146632180Y-83602714D01*
X146632180Y-83602714D02*
X146670276Y-83526524D01*
X146670276Y-83526524D02*
X146670276Y-83297952D01*
X146670276Y-83297952D02*
X146632180Y-83221762D01*
X146632180Y-83221762D02*
X146594085Y-83183667D01*
X146594085Y-83183667D02*
X146517895Y-83145571D01*
X146517895Y-83145571D02*
X146365514Y-83145571D01*
X146365514Y-83145571D02*
X146289323Y-83183667D01*
X145908370Y-83678905D02*
X145908370Y-83145571D01*
X145908370Y-83297952D02*
X145870275Y-83221762D01*
X145870275Y-83221762D02*
X145832180Y-83183667D01*
X145832180Y-83183667D02*
X145755989Y-83145571D01*
X145755989Y-83145571D02*
X145679799Y-83145571D01*
X145413132Y-83145571D02*
X145413132Y-83945571D01*
X145413132Y-83183667D02*
X145336942Y-83145571D01*
X145336942Y-83145571D02*
X145184561Y-83145571D01*
X145184561Y-83145571D02*
X145108370Y-83183667D01*
X145108370Y-83183667D02*
X145070275Y-83221762D01*
X145070275Y-83221762D02*
X145032180Y-83297952D01*
X145032180Y-83297952D02*
X145032180Y-83526524D01*
X145032180Y-83526524D02*
X145070275Y-83602714D01*
X145070275Y-83602714D02*
X145108370Y-83640810D01*
X145108370Y-83640810D02*
X145184561Y-83678905D01*
X145184561Y-83678905D02*
X145336942Y-83678905D01*
X145336942Y-83678905D02*
X145413132Y-83640810D01*
X144689322Y-83602714D02*
X144651227Y-83640810D01*
X144651227Y-83640810D02*
X144689322Y-83678905D01*
X144689322Y-83678905D02*
X144727418Y-83640810D01*
X144727418Y-83640810D02*
X144689322Y-83602714D01*
X144689322Y-83602714D02*
X144689322Y-83678905D01*
X143965513Y-83640810D02*
X144041704Y-83678905D01*
X144041704Y-83678905D02*
X144194085Y-83678905D01*
X144194085Y-83678905D02*
X144270275Y-83640810D01*
X144270275Y-83640810D02*
X144308370Y-83602714D01*
X144308370Y-83602714D02*
X144346466Y-83526524D01*
X144346466Y-83526524D02*
X144346466Y-83297952D01*
X144346466Y-83297952D02*
X144308370Y-83221762D01*
X144308370Y-83221762D02*
X144270275Y-83183667D01*
X144270275Y-83183667D02*
X144194085Y-83145571D01*
X144194085Y-83145571D02*
X144041704Y-83145571D01*
X144041704Y-83145571D02*
X143965513Y-83183667D01*
X143508371Y-83678905D02*
X143584561Y-83640810D01*
X143584561Y-83640810D02*
X143622656Y-83602714D01*
X143622656Y-83602714D02*
X143660752Y-83526524D01*
X143660752Y-83526524D02*
X143660752Y-83297952D01*
X143660752Y-83297952D02*
X143622656Y-83221762D01*
X143622656Y-83221762D02*
X143584561Y-83183667D01*
X143584561Y-83183667D02*
X143508371Y-83145571D01*
X143508371Y-83145571D02*
X143394085Y-83145571D01*
X143394085Y-83145571D02*
X143317894Y-83183667D01*
X143317894Y-83183667D02*
X143279799Y-83221762D01*
X143279799Y-83221762D02*
X143241704Y-83297952D01*
X143241704Y-83297952D02*
X143241704Y-83526524D01*
X143241704Y-83526524D02*
X143279799Y-83602714D01*
X143279799Y-83602714D02*
X143317894Y-83640810D01*
X143317894Y-83640810D02*
X143394085Y-83678905D01*
X143394085Y-83678905D02*
X143508371Y-83678905D01*
X142898846Y-83678905D02*
X142898846Y-83145571D01*
X142898846Y-83221762D02*
X142860751Y-83183667D01*
X142860751Y-83183667D02*
X142784561Y-83145571D01*
X142784561Y-83145571D02*
X142670275Y-83145571D01*
X142670275Y-83145571D02*
X142594084Y-83183667D01*
X142594084Y-83183667D02*
X142555989Y-83259857D01*
X142555989Y-83259857D02*
X142555989Y-83678905D01*
X142555989Y-83259857D02*
X142517894Y-83183667D01*
X142517894Y-83183667D02*
X142441703Y-83145571D01*
X142441703Y-83145571D02*
X142327418Y-83145571D01*
X142327418Y-83145571D02*
X142251227Y-83183667D01*
X142251227Y-83183667D02*
X142213132Y-83259857D01*
X142213132Y-83259857D02*
X142213132Y-83678905D01*
X141260751Y-82840810D02*
X141946465Y-83869381D01*
X140879799Y-83678905D02*
X140955989Y-83640810D01*
X140955989Y-83640810D02*
X140994084Y-83564619D01*
X140994084Y-83564619D02*
X140994084Y-82878905D01*
X140575036Y-83678905D02*
X140575036Y-83145571D01*
X140575036Y-82878905D02*
X140613132Y-82917000D01*
X140613132Y-82917000D02*
X140575036Y-82955095D01*
X140575036Y-82955095D02*
X140536941Y-82917000D01*
X140536941Y-82917000D02*
X140575036Y-82878905D01*
X140575036Y-82878905D02*
X140575036Y-82955095D01*
X140194084Y-83678905D02*
X140194084Y-83145571D01*
X140194084Y-83221762D02*
X140155989Y-83183667D01*
X140155989Y-83183667D02*
X140079799Y-83145571D01*
X140079799Y-83145571D02*
X139965513Y-83145571D01*
X139965513Y-83145571D02*
X139889322Y-83183667D01*
X139889322Y-83183667D02*
X139851227Y-83259857D01*
X139851227Y-83259857D02*
X139851227Y-83678905D01*
X139851227Y-83259857D02*
X139813132Y-83183667D01*
X139813132Y-83183667D02*
X139736941Y-83145571D01*
X139736941Y-83145571D02*
X139622656Y-83145571D01*
X139622656Y-83145571D02*
X139546465Y-83183667D01*
X139546465Y-83183667D02*
X139508370Y-83259857D01*
X139508370Y-83259857D02*
X139508370Y-83678905D01*
X139127417Y-83678905D02*
X139127417Y-83145571D01*
X139127417Y-82878905D02*
X139165513Y-82917000D01*
X139165513Y-82917000D02*
X139127417Y-82955095D01*
X139127417Y-82955095D02*
X139089322Y-82917000D01*
X139089322Y-82917000D02*
X139127417Y-82878905D01*
X139127417Y-82878905D02*
X139127417Y-82955095D01*
X138860751Y-83145571D02*
X138555989Y-83145571D01*
X138746465Y-82878905D02*
X138746465Y-83564619D01*
X138746465Y-83564619D02*
X138708370Y-83640810D01*
X138708370Y-83640810D02*
X138632180Y-83678905D01*
X138632180Y-83678905D02*
X138555989Y-83678905D01*
X137984560Y-83640810D02*
X138060751Y-83678905D01*
X138060751Y-83678905D02*
X138213132Y-83678905D01*
X138213132Y-83678905D02*
X138289322Y-83640810D01*
X138289322Y-83640810D02*
X138327418Y-83564619D01*
X138327418Y-83564619D02*
X138327418Y-83259857D01*
X138327418Y-83259857D02*
X138289322Y-83183667D01*
X138289322Y-83183667D02*
X138213132Y-83145571D01*
X138213132Y-83145571D02*
X138060751Y-83145571D01*
X138060751Y-83145571D02*
X137984560Y-83183667D01*
X137984560Y-83183667D02*
X137946465Y-83259857D01*
X137946465Y-83259857D02*
X137946465Y-83336048D01*
X137946465Y-83336048D02*
X138327418Y-83412238D01*
X137603608Y-83678905D02*
X137603608Y-83145571D01*
X137603608Y-83297952D02*
X137565513Y-83221762D01*
X137565513Y-83221762D02*
X137527418Y-83183667D01*
X137527418Y-83183667D02*
X137451227Y-83145571D01*
X137451227Y-83145571D02*
X137375037Y-83145571D01*
X137108370Y-83602714D02*
X137070275Y-83640810D01*
X137070275Y-83640810D02*
X137108370Y-83678905D01*
X137108370Y-83678905D02*
X137146466Y-83640810D01*
X137146466Y-83640810D02*
X137108370Y-83602714D01*
X137108370Y-83602714D02*
X137108370Y-83678905D01*
X136727418Y-83145571D02*
X136727418Y-83831286D01*
X136727418Y-83831286D02*
X136765514Y-83907476D01*
X136765514Y-83907476D02*
X136841704Y-83945571D01*
X136841704Y-83945571D02*
X136879799Y-83945571D01*
X136727418Y-82878905D02*
X136765514Y-82917000D01*
X136765514Y-82917000D02*
X136727418Y-82955095D01*
X136727418Y-82955095D02*
X136689323Y-82917000D01*
X136689323Y-82917000D02*
X136727418Y-82878905D01*
X136727418Y-82878905D02*
X136727418Y-82955095D01*
X136346466Y-83145571D02*
X136346466Y-83945571D01*
X136346466Y-83183667D02*
X136270276Y-83145571D01*
X136270276Y-83145571D02*
X136117895Y-83145571D01*
X136117895Y-83145571D02*
X136041704Y-83183667D01*
X136041704Y-83183667D02*
X136003609Y-83221762D01*
X136003609Y-83221762D02*
X135965514Y-83297952D01*
X135965514Y-83297952D02*
X135965514Y-83526524D01*
X135965514Y-83526524D02*
X136003609Y-83602714D01*
X136003609Y-83602714D02*
X136041704Y-83640810D01*
X136041704Y-83640810D02*
X136117895Y-83678905D01*
X136117895Y-83678905D02*
X136270276Y-83678905D01*
X136270276Y-83678905D02*
X136346466Y-83640810D01*
X135279799Y-83145571D02*
X135279799Y-83793190D01*
X135279799Y-83793190D02*
X135317894Y-83869381D01*
X135317894Y-83869381D02*
X135355990Y-83907476D01*
X135355990Y-83907476D02*
X135432180Y-83945571D01*
X135432180Y-83945571D02*
X135546466Y-83945571D01*
X135546466Y-83945571D02*
X135622656Y-83907476D01*
X135279799Y-83640810D02*
X135355990Y-83678905D01*
X135355990Y-83678905D02*
X135508371Y-83678905D01*
X135508371Y-83678905D02*
X135584561Y-83640810D01*
X135584561Y-83640810D02*
X135622656Y-83602714D01*
X135622656Y-83602714D02*
X135660752Y-83526524D01*
X135660752Y-83526524D02*
X135660752Y-83297952D01*
X135660752Y-83297952D02*
X135622656Y-83221762D01*
X135622656Y-83221762D02*
X135584561Y-83183667D01*
X135584561Y-83183667D02*
X135508371Y-83145571D01*
X135508371Y-83145571D02*
X135355990Y-83145571D01*
X135355990Y-83145571D02*
X135279799Y-83183667D01*
X155317894Y-84966860D02*
X155317894Y-84166860D01*
X154975037Y-84966860D02*
X154975037Y-84547812D01*
X154975037Y-84547812D02*
X155013132Y-84471622D01*
X155013132Y-84471622D02*
X155089323Y-84433526D01*
X155089323Y-84433526D02*
X155203609Y-84433526D01*
X155203609Y-84433526D02*
X155279799Y-84471622D01*
X155279799Y-84471622D02*
X155317894Y-84509717D01*
X154708370Y-84433526D02*
X154403608Y-84433526D01*
X154594084Y-84166860D02*
X154594084Y-84852574D01*
X154594084Y-84852574D02*
X154555989Y-84928765D01*
X154555989Y-84928765D02*
X154479799Y-84966860D01*
X154479799Y-84966860D02*
X154403608Y-84966860D01*
X154251227Y-84433526D02*
X153946465Y-84433526D01*
X154136941Y-84166860D02*
X154136941Y-84852574D01*
X154136941Y-84852574D02*
X154098846Y-84928765D01*
X154098846Y-84928765D02*
X154022656Y-84966860D01*
X154022656Y-84966860D02*
X153946465Y-84966860D01*
X153679798Y-84433526D02*
X153679798Y-85233526D01*
X153679798Y-84471622D02*
X153603608Y-84433526D01*
X153603608Y-84433526D02*
X153451227Y-84433526D01*
X153451227Y-84433526D02*
X153375036Y-84471622D01*
X153375036Y-84471622D02*
X153336941Y-84509717D01*
X153336941Y-84509717D02*
X153298846Y-84585907D01*
X153298846Y-84585907D02*
X153298846Y-84814479D01*
X153298846Y-84814479D02*
X153336941Y-84890669D01*
X153336941Y-84890669D02*
X153375036Y-84928765D01*
X153375036Y-84928765D02*
X153451227Y-84966860D01*
X153451227Y-84966860D02*
X153603608Y-84966860D01*
X153603608Y-84966860D02*
X153679798Y-84928765D01*
X152955988Y-84890669D02*
X152917893Y-84928765D01*
X152917893Y-84928765D02*
X152955988Y-84966860D01*
X152955988Y-84966860D02*
X152994084Y-84928765D01*
X152994084Y-84928765D02*
X152955988Y-84890669D01*
X152955988Y-84890669D02*
X152955988Y-84966860D01*
X152955988Y-84471622D02*
X152917893Y-84509717D01*
X152917893Y-84509717D02*
X152955988Y-84547812D01*
X152955988Y-84547812D02*
X152994084Y-84509717D01*
X152994084Y-84509717D02*
X152955988Y-84471622D01*
X152955988Y-84471622D02*
X152955988Y-84547812D01*
X152003608Y-84128765D02*
X152689322Y-85157336D01*
X151165513Y-84128765D02*
X151851227Y-85157336D01*
X150975037Y-84433526D02*
X150822656Y-84966860D01*
X150822656Y-84966860D02*
X150670275Y-84585907D01*
X150670275Y-84585907D02*
X150517894Y-84966860D01*
X150517894Y-84966860D02*
X150365513Y-84433526D01*
X150136942Y-84433526D02*
X149984561Y-84966860D01*
X149984561Y-84966860D02*
X149832180Y-84585907D01*
X149832180Y-84585907D02*
X149679799Y-84966860D01*
X149679799Y-84966860D02*
X149527418Y-84433526D01*
X149298847Y-84433526D02*
X149146466Y-84966860D01*
X149146466Y-84966860D02*
X148994085Y-84585907D01*
X148994085Y-84585907D02*
X148841704Y-84966860D01*
X148841704Y-84966860D02*
X148689323Y-84433526D01*
X148384561Y-84890669D02*
X148346466Y-84928765D01*
X148346466Y-84928765D02*
X148384561Y-84966860D01*
X148384561Y-84966860D02*
X148422657Y-84928765D01*
X148422657Y-84928765D02*
X148384561Y-84890669D01*
X148384561Y-84890669D02*
X148384561Y-84966860D01*
X148003609Y-84433526D02*
X148003609Y-84966860D01*
X148003609Y-84509717D02*
X147965514Y-84471622D01*
X147965514Y-84471622D02*
X147889324Y-84433526D01*
X147889324Y-84433526D02*
X147775038Y-84433526D01*
X147775038Y-84433526D02*
X147698847Y-84471622D01*
X147698847Y-84471622D02*
X147660752Y-84547812D01*
X147660752Y-84547812D02*
X147660752Y-84966860D01*
X146936942Y-84966860D02*
X146936942Y-84166860D01*
X146936942Y-84928765D02*
X147013133Y-84966860D01*
X147013133Y-84966860D02*
X147165514Y-84966860D01*
X147165514Y-84966860D02*
X147241704Y-84928765D01*
X147241704Y-84928765D02*
X147279799Y-84890669D01*
X147279799Y-84890669D02*
X147317895Y-84814479D01*
X147317895Y-84814479D02*
X147317895Y-84585907D01*
X147317895Y-84585907D02*
X147279799Y-84509717D01*
X147279799Y-84509717D02*
X147241704Y-84471622D01*
X147241704Y-84471622D02*
X147165514Y-84433526D01*
X147165514Y-84433526D02*
X147013133Y-84433526D01*
X147013133Y-84433526D02*
X146936942Y-84471622D01*
X146213132Y-84166860D02*
X146365513Y-84166860D01*
X146365513Y-84166860D02*
X146441704Y-84204955D01*
X146441704Y-84204955D02*
X146479799Y-84243050D01*
X146479799Y-84243050D02*
X146555989Y-84357336D01*
X146555989Y-84357336D02*
X146594085Y-84509717D01*
X146594085Y-84509717D02*
X146594085Y-84814479D01*
X146594085Y-84814479D02*
X146555989Y-84890669D01*
X146555989Y-84890669D02*
X146517894Y-84928765D01*
X146517894Y-84928765D02*
X146441704Y-84966860D01*
X146441704Y-84966860D02*
X146289323Y-84966860D01*
X146289323Y-84966860D02*
X146213132Y-84928765D01*
X146213132Y-84928765D02*
X146175037Y-84890669D01*
X146175037Y-84890669D02*
X146136942Y-84814479D01*
X146136942Y-84814479D02*
X146136942Y-84624003D01*
X146136942Y-84624003D02*
X146175037Y-84547812D01*
X146175037Y-84547812D02*
X146213132Y-84509717D01*
X146213132Y-84509717D02*
X146289323Y-84471622D01*
X146289323Y-84471622D02*
X146441704Y-84471622D01*
X146441704Y-84471622D02*
X146517894Y-84509717D01*
X146517894Y-84509717D02*
X146555989Y-84547812D01*
X146555989Y-84547812D02*
X146594085Y-84624003D01*
X145908370Y-84433526D02*
X145603608Y-84433526D01*
X145794084Y-84166860D02*
X145794084Y-84852574D01*
X145794084Y-84852574D02*
X145755989Y-84928765D01*
X145755989Y-84928765D02*
X145679799Y-84966860D01*
X145679799Y-84966860D02*
X145603608Y-84966860D01*
X145336941Y-84890669D02*
X145298846Y-84928765D01*
X145298846Y-84928765D02*
X145336941Y-84966860D01*
X145336941Y-84966860D02*
X145375037Y-84928765D01*
X145375037Y-84928765D02*
X145336941Y-84890669D01*
X145336941Y-84890669D02*
X145336941Y-84966860D01*
X144613132Y-84928765D02*
X144689323Y-84966860D01*
X144689323Y-84966860D02*
X144841704Y-84966860D01*
X144841704Y-84966860D02*
X144917894Y-84928765D01*
X144917894Y-84928765D02*
X144955989Y-84890669D01*
X144955989Y-84890669D02*
X144994085Y-84814479D01*
X144994085Y-84814479D02*
X144994085Y-84585907D01*
X144994085Y-84585907D02*
X144955989Y-84509717D01*
X144955989Y-84509717D02*
X144917894Y-84471622D01*
X144917894Y-84471622D02*
X144841704Y-84433526D01*
X144841704Y-84433526D02*
X144689323Y-84433526D01*
X144689323Y-84433526D02*
X144613132Y-84471622D01*
X144155990Y-84966860D02*
X144232180Y-84928765D01*
X144232180Y-84928765D02*
X144270275Y-84890669D01*
X144270275Y-84890669D02*
X144308371Y-84814479D01*
X144308371Y-84814479D02*
X144308371Y-84585907D01*
X144308371Y-84585907D02*
X144270275Y-84509717D01*
X144270275Y-84509717D02*
X144232180Y-84471622D01*
X144232180Y-84471622D02*
X144155990Y-84433526D01*
X144155990Y-84433526D02*
X144041704Y-84433526D01*
X144041704Y-84433526D02*
X143965513Y-84471622D01*
X143965513Y-84471622D02*
X143927418Y-84509717D01*
X143927418Y-84509717D02*
X143889323Y-84585907D01*
X143889323Y-84585907D02*
X143889323Y-84814479D01*
X143889323Y-84814479D02*
X143927418Y-84890669D01*
X143927418Y-84890669D02*
X143965513Y-84928765D01*
X143965513Y-84928765D02*
X144041704Y-84966860D01*
X144041704Y-84966860D02*
X144155990Y-84966860D01*
X143546465Y-84966860D02*
X143546465Y-84433526D01*
X143546465Y-84509717D02*
X143508370Y-84471622D01*
X143508370Y-84471622D02*
X143432180Y-84433526D01*
X143432180Y-84433526D02*
X143317894Y-84433526D01*
X143317894Y-84433526D02*
X143241703Y-84471622D01*
X143241703Y-84471622D02*
X143203608Y-84547812D01*
X143203608Y-84547812D02*
X143203608Y-84966860D01*
X143203608Y-84547812D02*
X143165513Y-84471622D01*
X143165513Y-84471622D02*
X143089322Y-84433526D01*
X143089322Y-84433526D02*
X142975037Y-84433526D01*
X142975037Y-84433526D02*
X142898846Y-84471622D01*
X142898846Y-84471622D02*
X142860751Y-84547812D01*
X142860751Y-84547812D02*
X142860751Y-84966860D01*
X141908370Y-84128765D02*
X142594084Y-85157336D01*
X141298846Y-84433526D02*
X141298846Y-85233526D01*
X141298846Y-84928765D02*
X141375037Y-84966860D01*
X141375037Y-84966860D02*
X141527418Y-84966860D01*
X141527418Y-84966860D02*
X141603608Y-84928765D01*
X141603608Y-84928765D02*
X141641703Y-84890669D01*
X141641703Y-84890669D02*
X141679799Y-84814479D01*
X141679799Y-84814479D02*
X141679799Y-84585907D01*
X141679799Y-84585907D02*
X141641703Y-84509717D01*
X141641703Y-84509717D02*
X141603608Y-84471622D01*
X141603608Y-84471622D02*
X141527418Y-84433526D01*
X141527418Y-84433526D02*
X141375037Y-84433526D01*
X141375037Y-84433526D02*
X141298846Y-84471622D01*
X140917893Y-84966860D02*
X140917893Y-84433526D01*
X140917893Y-84585907D02*
X140879798Y-84509717D01*
X140879798Y-84509717D02*
X140841703Y-84471622D01*
X140841703Y-84471622D02*
X140765512Y-84433526D01*
X140765512Y-84433526D02*
X140689322Y-84433526D01*
X140422655Y-84433526D02*
X140422655Y-85233526D01*
X140422655Y-84471622D02*
X140346465Y-84433526D01*
X140346465Y-84433526D02*
X140194084Y-84433526D01*
X140194084Y-84433526D02*
X140117893Y-84471622D01*
X140117893Y-84471622D02*
X140079798Y-84509717D01*
X140079798Y-84509717D02*
X140041703Y-84585907D01*
X140041703Y-84585907D02*
X140041703Y-84814479D01*
X140041703Y-84814479D02*
X140079798Y-84890669D01*
X140079798Y-84890669D02*
X140117893Y-84928765D01*
X140117893Y-84928765D02*
X140194084Y-84966860D01*
X140194084Y-84966860D02*
X140346465Y-84966860D01*
X140346465Y-84966860D02*
X140422655Y-84928765D01*
X139127417Y-84128765D02*
X139813131Y-85157336D01*
X138975036Y-84166860D02*
X138708369Y-84966860D01*
X138708369Y-84966860D02*
X138441703Y-84166860D01*
X137794084Y-84966860D02*
X138175036Y-84966860D01*
X138175036Y-84966860D02*
X138175036Y-84166860D01*
X137527417Y-84966860D02*
X137527417Y-84166860D01*
X137527417Y-84166860D02*
X137336941Y-84166860D01*
X137336941Y-84166860D02*
X137222655Y-84204955D01*
X137222655Y-84204955D02*
X137146465Y-84281145D01*
X137146465Y-84281145D02*
X137108370Y-84357336D01*
X137108370Y-84357336D02*
X137070274Y-84509717D01*
X137070274Y-84509717D02*
X137070274Y-84624003D01*
X137070274Y-84624003D02*
X137108370Y-84776384D01*
X137108370Y-84776384D02*
X137146465Y-84852574D01*
X137146465Y-84852574D02*
X137222655Y-84928765D01*
X137222655Y-84928765D02*
X137336941Y-84966860D01*
X137336941Y-84966860D02*
X137527417Y-84966860D01*
X136575036Y-84166860D02*
X136422655Y-84166860D01*
X136422655Y-84166860D02*
X136346465Y-84204955D01*
X136346465Y-84204955D02*
X136270274Y-84281145D01*
X136270274Y-84281145D02*
X136232179Y-84433526D01*
X136232179Y-84433526D02*
X136232179Y-84700193D01*
X136232179Y-84700193D02*
X136270274Y-84852574D01*
X136270274Y-84852574D02*
X136346465Y-84928765D01*
X136346465Y-84928765D02*
X136422655Y-84966860D01*
X136422655Y-84966860D02*
X136575036Y-84966860D01*
X136575036Y-84966860D02*
X136651227Y-84928765D01*
X136651227Y-84928765D02*
X136727417Y-84852574D01*
X136727417Y-84852574D02*
X136765513Y-84700193D01*
X136765513Y-84700193D02*
X136765513Y-84433526D01*
X136765513Y-84433526D02*
X136727417Y-84281145D01*
X136727417Y-84281145D02*
X136651227Y-84204955D01*
X136651227Y-84204955D02*
X136575036Y-84166860D01*
X135889322Y-84890669D02*
X135851227Y-84928765D01*
X135851227Y-84928765D02*
X135889322Y-84966860D01*
X135889322Y-84966860D02*
X135927418Y-84928765D01*
X135927418Y-84928765D02*
X135889322Y-84890669D01*
X135889322Y-84890669D02*
X135889322Y-84966860D01*
X135508370Y-84966860D02*
X135508370Y-84166860D01*
X135165513Y-84966860D02*
X135165513Y-84547812D01*
X135165513Y-84547812D02*
X135203608Y-84471622D01*
X135203608Y-84471622D02*
X135279799Y-84433526D01*
X135279799Y-84433526D02*
X135394085Y-84433526D01*
X135394085Y-84433526D02*
X135470275Y-84471622D01*
X135470275Y-84471622D02*
X135508370Y-84509717D01*
X134898846Y-84433526D02*
X134594084Y-84433526D01*
X134784560Y-84166860D02*
X134784560Y-84852574D01*
X134784560Y-84852574D02*
X134746465Y-84928765D01*
X134746465Y-84928765D02*
X134670275Y-84966860D01*
X134670275Y-84966860D02*
X134594084Y-84966860D01*
X134327417Y-84966860D02*
X134327417Y-84433526D01*
X134327417Y-84509717D02*
X134289322Y-84471622D01*
X134289322Y-84471622D02*
X134213132Y-84433526D01*
X134213132Y-84433526D02*
X134098846Y-84433526D01*
X134098846Y-84433526D02*
X134022655Y-84471622D01*
X134022655Y-84471622D02*
X133984560Y-84547812D01*
X133984560Y-84547812D02*
X133984560Y-84966860D01*
X133984560Y-84547812D02*
X133946465Y-84471622D01*
X133946465Y-84471622D02*
X133870274Y-84433526D01*
X133870274Y-84433526D02*
X133755989Y-84433526D01*
X133755989Y-84433526D02*
X133679798Y-84471622D01*
X133679798Y-84471622D02*
X133641703Y-84547812D01*
X133641703Y-84547812D02*
X133641703Y-84966860D01*
X155965514Y-86026243D02*
X155584561Y-86026243D01*
X156041704Y-86254815D02*
X155775037Y-85454815D01*
X155775037Y-85454815D02*
X155508371Y-86254815D01*
X155241704Y-86254815D02*
X155241704Y-85721481D01*
X155241704Y-85873862D02*
X155203609Y-85797672D01*
X155203609Y-85797672D02*
X155165514Y-85759577D01*
X155165514Y-85759577D02*
X155089323Y-85721481D01*
X155089323Y-85721481D02*
X155013133Y-85721481D01*
X154860752Y-85721481D02*
X154555990Y-85721481D01*
X154746466Y-85454815D02*
X154746466Y-86140529D01*
X154746466Y-86140529D02*
X154708371Y-86216720D01*
X154708371Y-86216720D02*
X154632181Y-86254815D01*
X154632181Y-86254815D02*
X154555990Y-86254815D01*
X154365514Y-85721481D02*
X154213133Y-86254815D01*
X154213133Y-86254815D02*
X154060752Y-85873862D01*
X154060752Y-85873862D02*
X153908371Y-86254815D01*
X153908371Y-86254815D02*
X153755990Y-85721481D01*
X153336943Y-86254815D02*
X153413133Y-86216720D01*
X153413133Y-86216720D02*
X153451228Y-86178624D01*
X153451228Y-86178624D02*
X153489324Y-86102434D01*
X153489324Y-86102434D02*
X153489324Y-85873862D01*
X153489324Y-85873862D02*
X153451228Y-85797672D01*
X153451228Y-85797672D02*
X153413133Y-85759577D01*
X153413133Y-85759577D02*
X153336943Y-85721481D01*
X153336943Y-85721481D02*
X153222657Y-85721481D01*
X153222657Y-85721481D02*
X153146466Y-85759577D01*
X153146466Y-85759577D02*
X153108371Y-85797672D01*
X153108371Y-85797672D02*
X153070276Y-85873862D01*
X153070276Y-85873862D02*
X153070276Y-86102434D01*
X153070276Y-86102434D02*
X153108371Y-86178624D01*
X153108371Y-86178624D02*
X153146466Y-86216720D01*
X153146466Y-86216720D02*
X153222657Y-86254815D01*
X153222657Y-86254815D02*
X153336943Y-86254815D01*
X152727418Y-86254815D02*
X152727418Y-85721481D01*
X152727418Y-85873862D02*
X152689323Y-85797672D01*
X152689323Y-85797672D02*
X152651228Y-85759577D01*
X152651228Y-85759577D02*
X152575037Y-85721481D01*
X152575037Y-85721481D02*
X152498847Y-85721481D01*
X152232180Y-86254815D02*
X152232180Y-85454815D01*
X152155990Y-85950053D02*
X151927418Y-86254815D01*
X151927418Y-85721481D02*
X152232180Y-86026243D01*
X150746466Y-86559577D02*
X150784561Y-86521481D01*
X150784561Y-86521481D02*
X150860752Y-86407196D01*
X150860752Y-86407196D02*
X150898847Y-86331005D01*
X150898847Y-86331005D02*
X150936942Y-86216720D01*
X150936942Y-86216720D02*
X150975037Y-86026243D01*
X150975037Y-86026243D02*
X150975037Y-85873862D01*
X150975037Y-85873862D02*
X150936942Y-85683386D01*
X150936942Y-85683386D02*
X150898847Y-85569100D01*
X150898847Y-85569100D02*
X150860752Y-85492910D01*
X150860752Y-85492910D02*
X150784561Y-85378624D01*
X150784561Y-85378624D02*
X150746466Y-85340529D01*
X149984561Y-86178624D02*
X150022657Y-86216720D01*
X150022657Y-86216720D02*
X150136942Y-86254815D01*
X150136942Y-86254815D02*
X150213133Y-86254815D01*
X150213133Y-86254815D02*
X150327419Y-86216720D01*
X150327419Y-86216720D02*
X150403609Y-86140529D01*
X150403609Y-86140529D02*
X150441704Y-86064339D01*
X150441704Y-86064339D02*
X150479800Y-85911958D01*
X150479800Y-85911958D02*
X150479800Y-85797672D01*
X150479800Y-85797672D02*
X150441704Y-85645291D01*
X150441704Y-85645291D02*
X150403609Y-85569100D01*
X150403609Y-85569100D02*
X150327419Y-85492910D01*
X150327419Y-85492910D02*
X150213133Y-85454815D01*
X150213133Y-85454815D02*
X150136942Y-85454815D01*
X150136942Y-85454815D02*
X150022657Y-85492910D01*
X150022657Y-85492910D02*
X149984561Y-85531005D01*
X149717895Y-86559577D02*
X149679800Y-86521481D01*
X149679800Y-86521481D02*
X149603609Y-86407196D01*
X149603609Y-86407196D02*
X149565514Y-86331005D01*
X149565514Y-86331005D02*
X149527419Y-86216720D01*
X149527419Y-86216720D02*
X149489323Y-86026243D01*
X149489323Y-86026243D02*
X149489323Y-85873862D01*
X149489323Y-85873862D02*
X149527419Y-85683386D01*
X149527419Y-85683386D02*
X149565514Y-85569100D01*
X149565514Y-85569100D02*
X149603609Y-85492910D01*
X149603609Y-85492910D02*
X149679800Y-85378624D01*
X149679800Y-85378624D02*
X149717895Y-85340529D01*
X149146467Y-85531005D02*
X149108371Y-85492910D01*
X149108371Y-85492910D02*
X149032181Y-85454815D01*
X149032181Y-85454815D02*
X148841705Y-85454815D01*
X148841705Y-85454815D02*
X148765514Y-85492910D01*
X148765514Y-85492910D02*
X148727419Y-85531005D01*
X148727419Y-85531005D02*
X148689324Y-85607196D01*
X148689324Y-85607196D02*
X148689324Y-85683386D01*
X148689324Y-85683386D02*
X148727419Y-85797672D01*
X148727419Y-85797672D02*
X149184562Y-86254815D01*
X149184562Y-86254815D02*
X148689324Y-86254815D01*
X148194085Y-85454815D02*
X148117895Y-85454815D01*
X148117895Y-85454815D02*
X148041704Y-85492910D01*
X148041704Y-85492910D02*
X148003609Y-85531005D01*
X148003609Y-85531005D02*
X147965514Y-85607196D01*
X147965514Y-85607196D02*
X147927419Y-85759577D01*
X147927419Y-85759577D02*
X147927419Y-85950053D01*
X147927419Y-85950053D02*
X147965514Y-86102434D01*
X147965514Y-86102434D02*
X148003609Y-86178624D01*
X148003609Y-86178624D02*
X148041704Y-86216720D01*
X148041704Y-86216720D02*
X148117895Y-86254815D01*
X148117895Y-86254815D02*
X148194085Y-86254815D01*
X148194085Y-86254815D02*
X148270276Y-86216720D01*
X148270276Y-86216720D02*
X148308371Y-86178624D01*
X148308371Y-86178624D02*
X148346466Y-86102434D01*
X148346466Y-86102434D02*
X148384562Y-85950053D01*
X148384562Y-85950053D02*
X148384562Y-85759577D01*
X148384562Y-85759577D02*
X148346466Y-85607196D01*
X148346466Y-85607196D02*
X148308371Y-85531005D01*
X148308371Y-85531005D02*
X148270276Y-85492910D01*
X148270276Y-85492910D02*
X148194085Y-85454815D01*
X147622657Y-85531005D02*
X147584561Y-85492910D01*
X147584561Y-85492910D02*
X147508371Y-85454815D01*
X147508371Y-85454815D02*
X147317895Y-85454815D01*
X147317895Y-85454815D02*
X147241704Y-85492910D01*
X147241704Y-85492910D02*
X147203609Y-85531005D01*
X147203609Y-85531005D02*
X147165514Y-85607196D01*
X147165514Y-85607196D02*
X147165514Y-85683386D01*
X147165514Y-85683386D02*
X147203609Y-85797672D01*
X147203609Y-85797672D02*
X147660752Y-86254815D01*
X147660752Y-86254815D02*
X147165514Y-86254815D01*
X146441704Y-85454815D02*
X146822656Y-85454815D01*
X146822656Y-85454815D02*
X146860752Y-85835767D01*
X146860752Y-85835767D02*
X146822656Y-85797672D01*
X146822656Y-85797672D02*
X146746466Y-85759577D01*
X146746466Y-85759577D02*
X146555990Y-85759577D01*
X146555990Y-85759577D02*
X146479799Y-85797672D01*
X146479799Y-85797672D02*
X146441704Y-85835767D01*
X146441704Y-85835767D02*
X146403609Y-85911958D01*
X146403609Y-85911958D02*
X146403609Y-86102434D01*
X146403609Y-86102434D02*
X146441704Y-86178624D01*
X146441704Y-86178624D02*
X146479799Y-86216720D01*
X146479799Y-86216720D02*
X146555990Y-86254815D01*
X146555990Y-86254815D02*
X146746466Y-86254815D01*
X146746466Y-86254815D02*
X146822656Y-86216720D01*
X146822656Y-86216720D02*
X146860752Y-86178624D01*
X146022656Y-86216720D02*
X146022656Y-86254815D01*
X146022656Y-86254815D02*
X146060751Y-86331005D01*
X146060751Y-86331005D02*
X146098847Y-86369100D01*
X145108371Y-86026243D02*
X144727418Y-86026243D01*
X145184561Y-86254815D02*
X144917894Y-85454815D01*
X144917894Y-85454815D02*
X144651228Y-86254815D01*
X143927418Y-86178624D02*
X143965514Y-86216720D01*
X143965514Y-86216720D02*
X144079799Y-86254815D01*
X144079799Y-86254815D02*
X144155990Y-86254815D01*
X144155990Y-86254815D02*
X144270276Y-86216720D01*
X144270276Y-86216720D02*
X144346466Y-86140529D01*
X144346466Y-86140529D02*
X144384561Y-86064339D01*
X144384561Y-86064339D02*
X144422657Y-85911958D01*
X144422657Y-85911958D02*
X144422657Y-85797672D01*
X144422657Y-85797672D02*
X144384561Y-85645291D01*
X144384561Y-85645291D02*
X144346466Y-85569100D01*
X144346466Y-85569100D02*
X144270276Y-85492910D01*
X144270276Y-85492910D02*
X144155990Y-85454815D01*
X144155990Y-85454815D02*
X144079799Y-85454815D01*
X144079799Y-85454815D02*
X143965514Y-85492910D01*
X143965514Y-85492910D02*
X143927418Y-85531005D01*
X143470276Y-85797672D02*
X143546466Y-85759577D01*
X143546466Y-85759577D02*
X143584561Y-85721481D01*
X143584561Y-85721481D02*
X143622657Y-85645291D01*
X143622657Y-85645291D02*
X143622657Y-85607196D01*
X143622657Y-85607196D02*
X143584561Y-85531005D01*
X143584561Y-85531005D02*
X143546466Y-85492910D01*
X143546466Y-85492910D02*
X143470276Y-85454815D01*
X143470276Y-85454815D02*
X143317895Y-85454815D01*
X143317895Y-85454815D02*
X143241704Y-85492910D01*
X143241704Y-85492910D02*
X143203609Y-85531005D01*
X143203609Y-85531005D02*
X143165514Y-85607196D01*
X143165514Y-85607196D02*
X143165514Y-85645291D01*
X143165514Y-85645291D02*
X143203609Y-85721481D01*
X143203609Y-85721481D02*
X143241704Y-85759577D01*
X143241704Y-85759577D02*
X143317895Y-85797672D01*
X143317895Y-85797672D02*
X143470276Y-85797672D01*
X143470276Y-85797672D02*
X143546466Y-85835767D01*
X143546466Y-85835767D02*
X143584561Y-85873862D01*
X143584561Y-85873862D02*
X143622657Y-85950053D01*
X143622657Y-85950053D02*
X143622657Y-86102434D01*
X143622657Y-86102434D02*
X143584561Y-86178624D01*
X143584561Y-86178624D02*
X143546466Y-86216720D01*
X143546466Y-86216720D02*
X143470276Y-86254815D01*
X143470276Y-86254815D02*
X143317895Y-86254815D01*
X143317895Y-86254815D02*
X143241704Y-86216720D01*
X143241704Y-86216720D02*
X143203609Y-86178624D01*
X143203609Y-86178624D02*
X143165514Y-86102434D01*
X143165514Y-86102434D02*
X143165514Y-85950053D01*
X143165514Y-85950053D02*
X143203609Y-85873862D01*
X143203609Y-85873862D02*
X143241704Y-85835767D01*
X143241704Y-85835767D02*
X143317895Y-85797672D01*
X142822656Y-85835767D02*
X142555990Y-85835767D01*
X142441704Y-86254815D02*
X142822656Y-86254815D01*
X142822656Y-86254815D02*
X142822656Y-85454815D01*
X142822656Y-85454815D02*
X142441704Y-85454815D01*
X142136942Y-86216720D02*
X142022656Y-86254815D01*
X142022656Y-86254815D02*
X141832180Y-86254815D01*
X141832180Y-86254815D02*
X141755989Y-86216720D01*
X141755989Y-86216720D02*
X141717894Y-86178624D01*
X141717894Y-86178624D02*
X141679799Y-86102434D01*
X141679799Y-86102434D02*
X141679799Y-86026243D01*
X141679799Y-86026243D02*
X141717894Y-85950053D01*
X141717894Y-85950053D02*
X141755989Y-85911958D01*
X141755989Y-85911958D02*
X141832180Y-85873862D01*
X141832180Y-85873862D02*
X141984561Y-85835767D01*
X141984561Y-85835767D02*
X142060751Y-85797672D01*
X142060751Y-85797672D02*
X142098846Y-85759577D01*
X142098846Y-85759577D02*
X142136942Y-85683386D01*
X142136942Y-85683386D02*
X142136942Y-85607196D01*
X142136942Y-85607196D02*
X142098846Y-85531005D01*
X142098846Y-85531005D02*
X142060751Y-85492910D01*
X142060751Y-85492910D02*
X141984561Y-85454815D01*
X141984561Y-85454815D02*
X141794084Y-85454815D01*
X141794084Y-85454815D02*
X141679799Y-85492910D01*
D12*
X117160561Y-76482411D02*
X117208180Y-76577649D01*
X117208180Y-76577649D02*
X117208180Y-76720506D01*
X117208180Y-76720506D02*
X117160561Y-76863363D01*
X117160561Y-76863363D02*
X117065323Y-76958601D01*
X117065323Y-76958601D02*
X116970085Y-77006220D01*
X116970085Y-77006220D02*
X116779609Y-77053839D01*
X116779609Y-77053839D02*
X116636752Y-77053839D01*
X116636752Y-77053839D02*
X116446276Y-77006220D01*
X116446276Y-77006220D02*
X116351038Y-76958601D01*
X116351038Y-76958601D02*
X116255800Y-76863363D01*
X116255800Y-76863363D02*
X116208180Y-76720506D01*
X116208180Y-76720506D02*
X116208180Y-76625268D01*
X116208180Y-76625268D02*
X116255800Y-76482411D01*
X116255800Y-76482411D02*
X116303419Y-76434792D01*
X116303419Y-76434792D02*
X116636752Y-76434792D01*
X116636752Y-76434792D02*
X116636752Y-76625268D01*
X116208180Y-76006220D02*
X117208180Y-76006220D01*
X117208180Y-76006220D02*
X116208180Y-75434792D01*
X116208180Y-75434792D02*
X117208180Y-75434792D01*
X116208180Y-74958601D02*
X117208180Y-74958601D01*
X117208180Y-74958601D02*
X117208180Y-74720506D01*
X117208180Y-74720506D02*
X117160561Y-74577649D01*
X117160561Y-74577649D02*
X117065323Y-74482411D01*
X117065323Y-74482411D02*
X116970085Y-74434792D01*
X116970085Y-74434792D02*
X116779609Y-74387173D01*
X116779609Y-74387173D02*
X116636752Y-74387173D01*
X116636752Y-74387173D02*
X116446276Y-74434792D01*
X116446276Y-74434792D02*
X116351038Y-74482411D01*
X116351038Y-74482411D02*
X116255800Y-74577649D01*
X116255800Y-74577649D02*
X116208180Y-74720506D01*
X116208180Y-74720506D02*
X116208180Y-74958601D01*
X117255800Y-73244316D02*
X115970085Y-74101458D01*
X116731990Y-72577649D02*
X116684371Y-72434792D01*
X116684371Y-72434792D02*
X116636752Y-72387173D01*
X116636752Y-72387173D02*
X116541514Y-72339554D01*
X116541514Y-72339554D02*
X116398657Y-72339554D01*
X116398657Y-72339554D02*
X116303419Y-72387173D01*
X116303419Y-72387173D02*
X116255800Y-72434792D01*
X116255800Y-72434792D02*
X116208180Y-72530030D01*
X116208180Y-72530030D02*
X116208180Y-72910982D01*
X116208180Y-72910982D02*
X117208180Y-72910982D01*
X117208180Y-72910982D02*
X117208180Y-72577649D01*
X117208180Y-72577649D02*
X117160561Y-72482411D01*
X117160561Y-72482411D02*
X117112942Y-72434792D01*
X117112942Y-72434792D02*
X117017704Y-72387173D01*
X117017704Y-72387173D02*
X116922466Y-72387173D01*
X116922466Y-72387173D02*
X116827228Y-72434792D01*
X116827228Y-72434792D02*
X116779609Y-72482411D01*
X116779609Y-72482411D02*
X116731990Y-72577649D01*
X116731990Y-72577649D02*
X116731990Y-72910982D01*
X116208180Y-71434792D02*
X116208180Y-71910982D01*
X116208180Y-71910982D02*
X117208180Y-71910982D01*
X116208180Y-71101458D02*
X117208180Y-71101458D01*
X116208180Y-70530030D02*
X116779609Y-70958601D01*
X117208180Y-70530030D02*
X116636752Y-71101458D01*
X159499180Y-85277077D02*
X158499180Y-84943744D01*
X158499180Y-84943744D02*
X159499180Y-84610411D01*
X158499180Y-84134220D02*
X158546800Y-84229458D01*
X158546800Y-84229458D02*
X158594419Y-84277077D01*
X158594419Y-84277077D02*
X158689657Y-84324696D01*
X158689657Y-84324696D02*
X158975371Y-84324696D01*
X158975371Y-84324696D02*
X159070609Y-84277077D01*
X159070609Y-84277077D02*
X159118228Y-84229458D01*
X159118228Y-84229458D02*
X159165847Y-84134220D01*
X159165847Y-84134220D02*
X159165847Y-83991363D01*
X159165847Y-83991363D02*
X159118228Y-83896125D01*
X159118228Y-83896125D02*
X159070609Y-83848506D01*
X159070609Y-83848506D02*
X158975371Y-83800887D01*
X158975371Y-83800887D02*
X158689657Y-83800887D01*
X158689657Y-83800887D02*
X158594419Y-83848506D01*
X158594419Y-83848506D02*
X158546800Y-83896125D01*
X158546800Y-83896125D02*
X158499180Y-83991363D01*
X158499180Y-83991363D02*
X158499180Y-84134220D01*
X159165847Y-82943744D02*
X158499180Y-82943744D01*
X159165847Y-83372315D02*
X158642038Y-83372315D01*
X158642038Y-83372315D02*
X158546800Y-83324696D01*
X158546800Y-83324696D02*
X158499180Y-83229458D01*
X158499180Y-83229458D02*
X158499180Y-83086601D01*
X158499180Y-83086601D02*
X158546800Y-82991363D01*
X158546800Y-82991363D02*
X158594419Y-82943744D01*
X159165847Y-82610410D02*
X159165847Y-82229458D01*
X159499180Y-82467553D02*
X158642038Y-82467553D01*
X158642038Y-82467553D02*
X158546800Y-82419934D01*
X158546800Y-82419934D02*
X158499180Y-82324696D01*
X158499180Y-82324696D02*
X158499180Y-82229458D01*
X159546800Y-81181839D02*
X158261085Y-82038981D01*
X158499180Y-80277077D02*
X158975371Y-80610410D01*
X158499180Y-80848505D02*
X159499180Y-80848505D01*
X159499180Y-80848505D02*
X159499180Y-80467553D01*
X159499180Y-80467553D02*
X159451561Y-80372315D01*
X159451561Y-80372315D02*
X159403942Y-80324696D01*
X159403942Y-80324696D02*
X159308704Y-80277077D01*
X159308704Y-80277077D02*
X159165847Y-80277077D01*
X159165847Y-80277077D02*
X159070609Y-80324696D01*
X159070609Y-80324696D02*
X159022990Y-80372315D01*
X159022990Y-80372315D02*
X158975371Y-80467553D01*
X158975371Y-80467553D02*
X158975371Y-80848505D01*
X159022990Y-79848505D02*
X159022990Y-79515172D01*
X158499180Y-79372315D02*
X158499180Y-79848505D01*
X158499180Y-79848505D02*
X159499180Y-79848505D01*
X159499180Y-79848505D02*
X159499180Y-79372315D01*
X158499180Y-78943743D02*
X159499180Y-78943743D01*
X159499180Y-78943743D02*
X159499180Y-78705648D01*
X159499180Y-78705648D02*
X159451561Y-78562791D01*
X159451561Y-78562791D02*
X159356323Y-78467553D01*
X159356323Y-78467553D02*
X159261085Y-78419934D01*
X159261085Y-78419934D02*
X159070609Y-78372315D01*
X159070609Y-78372315D02*
X158927752Y-78372315D01*
X158927752Y-78372315D02*
X158737276Y-78419934D01*
X158737276Y-78419934D02*
X158642038Y-78467553D01*
X158642038Y-78467553D02*
X158546800Y-78562791D01*
X158546800Y-78562791D02*
X158499180Y-78705648D01*
X158499180Y-78705648D02*
X158499180Y-78943743D01*
D11*
G36*
X124165764Y-70264492D02*
G01*
X124877000Y-70019663D01*
X124877000Y-69833178D01*
X124165764Y-69588349D01*
X124165764Y-69773894D01*
X124647729Y-69928793D01*
X124165764Y-70083734D01*
X124165764Y-70264492D01*
G37*
G36*
X124877000Y-70488762D02*
G01*
X124877000Y-70321382D01*
X124132938Y-70321382D01*
X124132938Y-70488762D01*
X124877000Y-70488762D01*
G37*
G36*
X124677484Y-70582376D02*
G01*
X124732026Y-70593069D01*
X124778127Y-70609801D01*
X124817075Y-70632120D01*
X124850984Y-70661856D01*
X124874408Y-70695392D01*
X124888529Y-70733492D01*
X124893413Y-70777488D01*
X124891982Y-70803746D01*
X124888113Y-70824333D01*
X124872683Y-70864041D01*
X124849730Y-70900629D01*
X124821050Y-70937687D01*
X124877000Y-70937687D01*
X124877000Y-71105066D01*
X124132938Y-71105066D01*
X124132938Y-70937687D01*
X124360756Y-70937687D01*
X124343942Y-70902600D01*
X124333272Y-70874812D01*
X124332376Y-70870752D01*
X124450258Y-70870752D01*
X124454362Y-70905159D01*
X124464705Y-70937687D01*
X124729880Y-70937687D01*
X124743223Y-70918113D01*
X124753474Y-70896568D01*
X124759996Y-70873959D01*
X124762108Y-70852073D01*
X124757744Y-70817906D01*
X124745776Y-70792596D01*
X124726503Y-70773897D01*
X124701374Y-70761657D01*
X124664227Y-70753077D01*
X124611013Y-70749748D01*
X124561069Y-70753606D01*
X124522393Y-70764086D01*
X124492616Y-70780095D01*
X124474314Y-70796885D01*
X124461265Y-70817073D01*
X124453141Y-70841341D01*
X124450258Y-70870752D01*
X124332376Y-70870752D01*
X124326873Y-70845816D01*
X124324424Y-70805698D01*
X124329532Y-70760508D01*
X124344855Y-70717691D01*
X124368962Y-70679144D01*
X124400292Y-70646952D01*
X124441558Y-70618655D01*
X124490565Y-70596730D01*
X124525589Y-70586980D01*
X124566122Y-70580765D01*
X124612979Y-70578564D01*
X124677484Y-70582376D01*
G37*
G36*
X124662587Y-71197068D02*
G01*
X124709218Y-71206376D01*
X124750038Y-71221191D01*
X124785865Y-71241279D01*
X124817331Y-71266718D01*
X124843922Y-71297127D01*
X124864862Y-71332013D01*
X124880293Y-71372031D01*
X124889998Y-71418058D01*
X124893413Y-71471156D01*
X124889983Y-71524680D01*
X124880251Y-71570932D01*
X124864803Y-71611005D01*
X124843873Y-71645809D01*
X124817331Y-71676020D01*
X124777368Y-71706757D01*
X124730340Y-71729261D01*
X124674871Y-71743442D01*
X124609175Y-71748469D01*
X124555517Y-71745204D01*
X124508723Y-71735910D01*
X124467810Y-71721128D01*
X124431951Y-71701102D01*
X124400506Y-71675764D01*
X124373939Y-71645462D01*
X124353004Y-71610625D01*
X124337565Y-71570588D01*
X124327847Y-71524457D01*
X124324424Y-71471156D01*
X124444787Y-71471156D01*
X124446836Y-71494176D01*
X124452652Y-71513684D01*
X124463152Y-71530957D01*
X124480435Y-71547152D01*
X124501497Y-71559072D01*
X124530999Y-71568908D01*
X124564601Y-71574635D01*
X124610115Y-71576815D01*
X124658174Y-71574626D01*
X124689702Y-71569164D01*
X124716853Y-71559488D01*
X124738856Y-71546682D01*
X124753716Y-71532278D01*
X124764501Y-71513428D01*
X124770971Y-71492545D01*
X124773050Y-71472566D01*
X124770854Y-71448935D01*
X124764501Y-71428071D01*
X124753535Y-71409783D01*
X124737403Y-71394604D01*
X124717416Y-71383367D01*
X124689232Y-71373575D01*
X124656689Y-71367731D01*
X124610115Y-71365453D01*
X124563292Y-71367824D01*
X124528862Y-71374045D01*
X124498816Y-71384641D01*
X124478041Y-71396997D01*
X124461296Y-71413535D01*
X124451669Y-71430465D01*
X124446570Y-71449378D01*
X124444787Y-71471156D01*
X124324424Y-71471156D01*
X124327822Y-71418031D01*
X124337475Y-71371990D01*
X124352818Y-71331973D01*
X124373627Y-71297101D01*
X124400036Y-71266718D01*
X124431274Y-71241350D01*
X124467049Y-71221275D01*
X124508024Y-71206435D01*
X124555060Y-71197088D01*
X124609175Y-71193800D01*
X124662587Y-71197068D01*
G37*
G36*
X124504969Y-72754328D02*
G01*
X124504969Y-72167132D01*
X124381870Y-72167132D01*
X124381870Y-72754328D01*
X124504969Y-72754328D01*
G37*
G36*
X124742959Y-72754328D02*
G01*
X124742959Y-72167132D01*
X124619861Y-72167132D01*
X124619861Y-72754328D01*
X124742959Y-72754328D01*
G37*
G36*
X124165764Y-73816565D02*
G01*
X124877000Y-73571736D01*
X124877000Y-73385250D01*
X124165764Y-73140421D01*
X124165764Y-73325966D01*
X124647729Y-73480865D01*
X124165764Y-73635807D01*
X124165764Y-73816565D01*
G37*
G36*
X124662587Y-73837528D02*
G01*
X124709218Y-73846836D01*
X124750038Y-73861651D01*
X124785865Y-73881740D01*
X124817331Y-73907179D01*
X124843922Y-73937588D01*
X124864862Y-73972473D01*
X124880293Y-74012491D01*
X124889998Y-74058519D01*
X124893413Y-74111616D01*
X124889983Y-74165140D01*
X124880251Y-74211392D01*
X124864803Y-74251466D01*
X124843873Y-74286270D01*
X124817331Y-74316481D01*
X124777368Y-74347217D01*
X124730340Y-74369722D01*
X124674871Y-74383902D01*
X124609175Y-74388930D01*
X124555517Y-74385664D01*
X124508723Y-74376370D01*
X124467810Y-74361588D01*
X124431951Y-74341562D01*
X124400506Y-74316225D01*
X124373939Y-74285923D01*
X124353004Y-74251086D01*
X124337565Y-74211049D01*
X124327847Y-74164918D01*
X124324424Y-74111616D01*
X124444787Y-74111616D01*
X124446836Y-74134637D01*
X124452652Y-74154145D01*
X124463152Y-74171418D01*
X124480435Y-74187612D01*
X124501497Y-74199532D01*
X124530999Y-74209368D01*
X124564601Y-74215096D01*
X124610115Y-74217276D01*
X124658174Y-74215086D01*
X124689702Y-74209625D01*
X124716853Y-74199948D01*
X124738856Y-74187142D01*
X124753716Y-74172738D01*
X124764501Y-74153889D01*
X124770971Y-74133006D01*
X124773050Y-74113027D01*
X124770854Y-74089395D01*
X124764501Y-74068532D01*
X124753535Y-74050244D01*
X124737403Y-74035064D01*
X124717416Y-74023827D01*
X124689232Y-74014035D01*
X124656689Y-74008192D01*
X124610115Y-74005914D01*
X124563292Y-74008284D01*
X124528862Y-74014505D01*
X124498816Y-74025102D01*
X124478041Y-74037458D01*
X124461296Y-74053996D01*
X124451669Y-74070925D01*
X124446570Y-74089838D01*
X124444787Y-74111616D01*
X124324424Y-74111616D01*
X124327822Y-74058492D01*
X124337475Y-74012451D01*
X124352818Y-73972433D01*
X124373627Y-73937562D01*
X124400036Y-73907179D01*
X124431274Y-73881811D01*
X124467049Y-73861736D01*
X124508024Y-73846895D01*
X124555060Y-73837549D01*
X124609175Y-73834260D01*
X124662587Y-73837528D01*
G37*
G36*
X124877000Y-74976767D02*
G01*
X124877000Y-74809387D01*
X124819212Y-74809387D01*
X124852405Y-74765949D01*
X124874520Y-74729502D01*
X124884746Y-74704613D01*
X124891158Y-74676007D01*
X124893413Y-74642991D01*
X124889968Y-74603668D01*
X124880214Y-74570519D01*
X124864583Y-74542372D01*
X124842891Y-74518397D01*
X124816704Y-74500058D01*
X124783700Y-74486108D01*
X124742367Y-74477004D01*
X124690856Y-74473688D01*
X124340838Y-74473688D01*
X124340838Y-74642008D01*
X124607423Y-74642008D01*
X124675426Y-74644145D01*
X124700501Y-74648000D01*
X124719921Y-74654446D01*
X124734664Y-74664209D01*
X124745310Y-74678125D01*
X124751486Y-74695980D01*
X124753901Y-74722834D01*
X124751958Y-74741122D01*
X124745310Y-74764679D01*
X124735110Y-74787962D01*
X124721844Y-74809387D01*
X124340838Y-74809387D01*
X124340838Y-74976767D01*
X124877000Y-74976767D01*
G37*
G36*
X124887942Y-75310757D02*
G01*
X124884733Y-75258405D01*
X124876041Y-75217537D01*
X124862942Y-75185941D01*
X124846011Y-75161799D01*
X124823664Y-75142672D01*
X124794519Y-75128173D01*
X124756918Y-75118663D01*
X124708722Y-75115167D01*
X124458465Y-75115167D01*
X124458465Y-75051096D01*
X124340838Y-75051096D01*
X124340838Y-75115167D01*
X124187648Y-75115167D01*
X124187648Y-75282547D01*
X124340838Y-75282547D01*
X124340838Y-75443686D01*
X124458465Y-75443686D01*
X124458465Y-75282547D01*
X124647686Y-75282547D01*
X124696626Y-75283017D01*
X124716798Y-75285233D01*
X124734197Y-75290668D01*
X124748957Y-75299813D01*
X124760569Y-75314347D01*
X124767538Y-75333551D01*
X124770314Y-75363843D01*
X124764544Y-75398978D01*
X124753901Y-75429325D01*
X124753901Y-75443686D01*
X124872554Y-75443686D01*
X124883838Y-75385813D01*
X124887942Y-75310757D01*
G37*
G36*
X124466672Y-76276267D02*
G01*
X124540060Y-76227028D01*
X124436709Y-76077857D01*
X124603448Y-76083114D01*
X124603448Y-75987456D01*
X124441496Y-75990320D01*
X124540531Y-75844483D01*
X124466201Y-75795713D01*
X124368193Y-75960229D01*
X124269800Y-75796654D01*
X124195855Y-75844483D01*
X124295360Y-75990320D01*
X124132938Y-75987456D01*
X124132938Y-76082644D01*
X124295360Y-76079737D01*
X124196325Y-76227028D01*
X124270270Y-76276267D01*
X124367723Y-76110854D01*
X124466672Y-76276267D01*
G37*
G36*
X125073957Y-77051189D02*
G01*
X125073957Y-76875731D01*
X125024724Y-76836834D01*
X124974495Y-76802086D01*
X124921697Y-76771508D01*
X124864519Y-76745195D01*
X124807625Y-76725468D01*
X124742617Y-76710018D01*
X124674821Y-76700574D01*
X124603448Y-76697366D01*
X124526506Y-76700809D01*
X124460474Y-76710488D01*
X124398129Y-76725929D01*
X124343317Y-76744725D01*
X124286983Y-76770297D01*
X124234067Y-76800889D01*
X124183430Y-76835964D01*
X124132938Y-76875731D01*
X124132938Y-77051189D01*
X124146787Y-77051189D01*
X124183644Y-77013729D01*
X124225946Y-76977330D01*
X124272857Y-76944133D01*
X124329468Y-76912062D01*
X124388544Y-76886406D01*
X124455687Y-76865430D01*
X124526466Y-76852099D01*
X124603448Y-76847521D01*
X124683031Y-76852076D01*
X124751678Y-76864960D01*
X124816622Y-76885579D01*
X124877427Y-76912062D01*
X124931762Y-76942901D01*
X124979966Y-76976817D01*
X125023780Y-77014116D01*
X125060108Y-77051189D01*
X125073957Y-77051189D01*
G37*
G36*
X124877000Y-77340812D02*
G01*
X124617125Y-77340812D01*
X124617125Y-77404883D01*
X124877000Y-77603336D01*
X124877000Y-77821366D01*
X124575408Y-77581794D01*
X124552594Y-77620741D01*
X124525618Y-77653344D01*
X124494326Y-77680273D01*
X124458584Y-77700058D01*
X124414942Y-77712614D01*
X124361482Y-77717117D01*
X124323440Y-77714360D01*
X124292019Y-77706671D01*
X124266038Y-77694634D01*
X124231894Y-77668341D01*
X124204062Y-77633897D01*
X124184639Y-77595004D01*
X124173202Y-77552601D01*
X124167766Y-77506727D01*
X124165764Y-77449335D01*
X124165764Y-77400566D01*
X124297069Y-77400566D01*
X124298950Y-77451729D01*
X124302194Y-77471631D01*
X124307883Y-77489043D01*
X124320788Y-77509929D01*
X124337333Y-77523194D01*
X124357656Y-77530792D01*
X124382725Y-77533495D01*
X124410775Y-77531184D01*
X124430768Y-77525118D01*
X124447673Y-77514651D01*
X124462269Y-77499558D01*
X124474204Y-77479762D01*
X124481375Y-77455319D01*
X124484607Y-77427863D01*
X124485820Y-77391975D01*
X124485820Y-77340812D01*
X124297069Y-77340812D01*
X124297069Y-77400566D01*
X124165764Y-77400566D01*
X124165764Y-77162918D01*
X124877000Y-77162918D01*
X124877000Y-77340812D01*
G37*
G36*
X124712868Y-78135224D02*
G01*
X124879735Y-78135224D01*
X124879735Y-78307861D01*
X124712868Y-78307861D01*
X124712868Y-78403989D01*
X124581563Y-78403989D01*
X124581563Y-78307861D01*
X124165764Y-78307861D01*
X124165764Y-78135224D01*
X124340667Y-78135224D01*
X124581563Y-78135224D01*
X124581563Y-77954979D01*
X124340667Y-78135224D01*
X124165764Y-78135224D01*
X124165764Y-78129497D01*
X124576819Y-77822007D01*
X124712868Y-77822007D01*
X124712868Y-78135224D01*
G37*
G36*
X124132938Y-79187972D02*
G01*
X125032924Y-78904418D01*
X125032924Y-78767172D01*
X124132938Y-79049315D01*
X124132938Y-79187972D01*
G37*
G36*
X125073957Y-79969305D02*
G01*
X125073957Y-79793847D01*
X125024724Y-79754950D01*
X124974495Y-79720201D01*
X124921697Y-79689624D01*
X124864519Y-79663311D01*
X124807625Y-79643584D01*
X124742617Y-79628134D01*
X124674821Y-79618689D01*
X124603448Y-79615482D01*
X124526506Y-79618925D01*
X124460474Y-79628604D01*
X124398129Y-79644045D01*
X124343317Y-79662841D01*
X124286983Y-79688413D01*
X124234067Y-79719005D01*
X124183430Y-79754080D01*
X124132938Y-79793847D01*
X124132938Y-79969305D01*
X124146787Y-79969305D01*
X124183644Y-79931844D01*
X124225946Y-79895446D01*
X124272857Y-79862249D01*
X124329468Y-79830178D01*
X124388544Y-79804522D01*
X124455687Y-79783546D01*
X124526466Y-79770214D01*
X124603448Y-79765637D01*
X124683031Y-79770192D01*
X124751678Y-79783076D01*
X124816622Y-79803695D01*
X124877427Y-79830178D01*
X124931762Y-79861016D01*
X124979966Y-79894933D01*
X125023780Y-79932232D01*
X125060108Y-79969305D01*
X125073957Y-79969305D01*
G37*
G36*
X124877000Y-80258928D02*
G01*
X124617125Y-80258928D01*
X124617125Y-80322999D01*
X124877000Y-80521452D01*
X124877000Y-80739482D01*
X124575408Y-80499910D01*
X124552594Y-80538857D01*
X124525618Y-80571460D01*
X124494326Y-80598389D01*
X124458584Y-80618174D01*
X124414942Y-80630730D01*
X124361482Y-80635233D01*
X124323440Y-80632476D01*
X124292019Y-80624787D01*
X124266038Y-80612750D01*
X124231894Y-80586457D01*
X124204062Y-80552013D01*
X124184639Y-80513120D01*
X124173202Y-80470717D01*
X124167766Y-80424843D01*
X124165764Y-80367451D01*
X124165764Y-80318682D01*
X124297069Y-80318682D01*
X124298950Y-80369845D01*
X124302194Y-80389747D01*
X124307883Y-80407159D01*
X124320788Y-80428045D01*
X124337333Y-80441310D01*
X124357656Y-80448908D01*
X124382725Y-80451611D01*
X124410775Y-80449299D01*
X124430768Y-80443233D01*
X124447673Y-80432766D01*
X124462269Y-80417673D01*
X124474204Y-80397878D01*
X124481375Y-80373435D01*
X124484607Y-80345978D01*
X124485820Y-80310091D01*
X124485820Y-80258928D01*
X124297069Y-80258928D01*
X124297069Y-80318682D01*
X124165764Y-80318682D01*
X124165764Y-80081034D01*
X124877000Y-80081034D01*
X124877000Y-80258928D01*
G37*
G36*
X124663116Y-81296288D02*
G01*
X124713494Y-81291330D01*
X124758218Y-81276926D01*
X124785432Y-81262035D01*
X124809707Y-81243228D01*
X124831308Y-81220249D01*
X124857588Y-81179719D01*
X124877384Y-81131516D01*
X124889066Y-81077611D01*
X124893413Y-81007434D01*
X124889651Y-80927267D01*
X124879521Y-80864717D01*
X124863984Y-80808227D01*
X124848405Y-80767863D01*
X124693720Y-80767863D01*
X124693720Y-80785088D01*
X124717046Y-80826627D01*
X124737958Y-80877113D01*
X124752268Y-80929222D01*
X124756637Y-80973497D01*
X124752063Y-81029661D01*
X124744507Y-81058160D01*
X124731974Y-81080610D01*
X124718449Y-81095245D01*
X124702183Y-81106640D01*
X124682391Y-81113695D01*
X124652088Y-81116471D01*
X124622668Y-81112654D01*
X124602977Y-81102579D01*
X124588301Y-81086668D01*
X124578058Y-81065778D01*
X124571803Y-81041528D01*
X124568869Y-81010768D01*
X124567886Y-80954348D01*
X124567886Y-80923745D01*
X124444787Y-80923745D01*
X124444787Y-80951955D01*
X124441881Y-81011709D01*
X124437330Y-81037748D01*
X124430298Y-81058127D01*
X124419209Y-81075317D01*
X124404738Y-81088004D01*
X124386450Y-81095827D01*
X124360328Y-81098775D01*
X124340022Y-81096103D01*
X124324852Y-81088731D01*
X124312571Y-81077461D01*
X124303352Y-81063855D01*
X124296253Y-81045695D01*
X124291769Y-81023719D01*
X124288863Y-80984482D01*
X124290399Y-80958151D01*
X124295103Y-80930925D01*
X124310832Y-80877839D01*
X124330665Y-80835738D01*
X124349044Y-80803254D01*
X124349044Y-80788422D01*
X124196924Y-80788422D01*
X124182407Y-80828656D01*
X124166662Y-80887627D01*
X124155744Y-80950579D01*
X124152087Y-81015085D01*
X124155054Y-81076501D01*
X124163114Y-81125318D01*
X124177026Y-81169558D01*
X124195128Y-81204905D01*
X124220978Y-81237022D01*
X124252318Y-81259444D01*
X124288682Y-81272949D01*
X124330494Y-81277610D01*
X124369783Y-81273602D01*
X124404950Y-81261901D01*
X124436923Y-81242433D01*
X124463809Y-81216521D01*
X124483355Y-81185974D01*
X124495993Y-81149938D01*
X124502575Y-81149938D01*
X124515483Y-81199434D01*
X124527090Y-81222758D01*
X124545104Y-81246536D01*
X124566030Y-81265919D01*
X124593147Y-81282183D01*
X124624346Y-81292562D01*
X124663116Y-81296288D01*
G37*
G36*
X124625332Y-82337538D02*
G01*
X124625332Y-82092709D01*
X124868793Y-82092709D01*
X124868793Y-81966448D01*
X124625332Y-81966448D01*
X124625332Y-81721619D01*
X124502233Y-81721619D01*
X124502233Y-81966448D01*
X124258772Y-81966448D01*
X124258772Y-82092709D01*
X124502233Y-82092709D01*
X124502233Y-82337538D01*
X124625332Y-82337538D01*
G37*
G36*
X124877000Y-82968460D02*
G01*
X124617125Y-82968460D01*
X124617125Y-83032531D01*
X124877000Y-83230985D01*
X124877000Y-83449014D01*
X124575408Y-83209442D01*
X124552594Y-83248390D01*
X124525618Y-83280992D01*
X124494326Y-83307921D01*
X124458584Y-83327707D01*
X124414942Y-83340262D01*
X124361482Y-83344765D01*
X124323440Y-83342008D01*
X124292019Y-83334319D01*
X124266038Y-83322283D01*
X124231894Y-83295990D01*
X124204062Y-83261546D01*
X124184639Y-83222652D01*
X124173202Y-83180249D01*
X124167766Y-83134375D01*
X124165764Y-83076983D01*
X124165764Y-83028214D01*
X124297069Y-83028214D01*
X124298950Y-83079377D01*
X124302194Y-83099279D01*
X124307883Y-83116691D01*
X124320788Y-83137578D01*
X124337333Y-83150842D01*
X124357656Y-83158440D01*
X124382725Y-83161143D01*
X124410775Y-83158832D01*
X124430768Y-83152766D01*
X124447673Y-83142299D01*
X124462269Y-83127206D01*
X124474204Y-83107410D01*
X124481375Y-83082967D01*
X124484607Y-83055511D01*
X124485820Y-83019623D01*
X124485820Y-82968460D01*
X124297069Y-82968460D01*
X124297069Y-83028214D01*
X124165764Y-83028214D01*
X124165764Y-82790566D01*
X124877000Y-82790566D01*
X124877000Y-82968460D01*
G37*
G36*
X124712868Y-83762872D02*
G01*
X124879735Y-83762872D01*
X124879735Y-83935509D01*
X124712868Y-83935509D01*
X124712868Y-84031637D01*
X124581563Y-84031637D01*
X124581563Y-83935509D01*
X124165764Y-83935509D01*
X124165764Y-83762872D01*
X124340667Y-83762872D01*
X124581563Y-83762872D01*
X124581563Y-83582627D01*
X124340667Y-83762872D01*
X124165764Y-83762872D01*
X124165764Y-83757145D01*
X124576819Y-83449655D01*
X124712868Y-83449655D01*
X124712868Y-83762872D01*
G37*
G36*
X124603448Y-84443504D02*
G01*
X124674787Y-84440283D01*
X124742361Y-84430809D01*
X124807209Y-84415420D01*
X124864519Y-84395675D01*
X124921697Y-84369363D01*
X124974495Y-84338785D01*
X125024724Y-84304036D01*
X125073957Y-84265139D01*
X125073957Y-84089639D01*
X125060108Y-84089639D01*
X125023837Y-84126767D01*
X124980223Y-84164224D01*
X124932080Y-84198237D01*
X124877427Y-84228808D01*
X124816621Y-84255281D01*
X124751678Y-84275868D01*
X124683029Y-84288783D01*
X124603448Y-84293349D01*
X124526468Y-84288761D01*
X124455687Y-84275398D01*
X124388545Y-84254454D01*
X124329468Y-84228808D01*
X124272861Y-84196728D01*
X124225946Y-84163498D01*
X124183644Y-84127099D01*
X124146787Y-84089639D01*
X124132938Y-84089639D01*
X124132938Y-84265139D01*
X124183432Y-84304897D01*
X124234067Y-84339939D01*
X124286985Y-84370564D01*
X124343317Y-84396145D01*
X124398131Y-84414932D01*
X124460474Y-84430339D01*
X124526508Y-84440050D01*
X124603448Y-84443504D01*
G37*
G36*
X124603448Y-84888026D02*
G01*
X124674787Y-84884805D01*
X124742361Y-84875331D01*
X124807209Y-84859942D01*
X124864519Y-84840197D01*
X124921697Y-84813885D01*
X124974495Y-84783307D01*
X125024724Y-84748558D01*
X125073957Y-84709661D01*
X125073957Y-84534161D01*
X125060108Y-84534161D01*
X125023837Y-84571289D01*
X124980223Y-84608746D01*
X124932080Y-84642759D01*
X124877427Y-84673330D01*
X124816621Y-84699803D01*
X124751678Y-84720390D01*
X124683029Y-84733305D01*
X124603448Y-84737871D01*
X124526468Y-84733283D01*
X124455687Y-84719920D01*
X124388545Y-84698976D01*
X124329468Y-84673330D01*
X124272861Y-84641250D01*
X124225946Y-84608020D01*
X124183644Y-84571621D01*
X124146787Y-84534161D01*
X124132938Y-84534161D01*
X124132938Y-84709661D01*
X124183432Y-84749419D01*
X124234067Y-84784461D01*
X124286985Y-84815086D01*
X124343317Y-84840667D01*
X124398131Y-84859454D01*
X124460474Y-84874861D01*
X124526508Y-84884572D01*
X124603448Y-84888026D01*
G37*
G36*
X125341764Y-70264492D02*
G01*
X126053000Y-70019663D01*
X126053000Y-69833178D01*
X125341764Y-69588349D01*
X125341764Y-69773894D01*
X125823729Y-69928793D01*
X125341764Y-70083734D01*
X125341764Y-70264492D01*
G37*
G36*
X125838587Y-70285456D02*
G01*
X125885218Y-70294764D01*
X125926038Y-70309579D01*
X125961865Y-70329667D01*
X125993331Y-70355106D01*
X126019922Y-70385515D01*
X126040862Y-70420401D01*
X126056293Y-70460419D01*
X126065998Y-70506446D01*
X126069413Y-70559544D01*
X126065983Y-70613068D01*
X126056251Y-70659320D01*
X126040803Y-70699393D01*
X126019873Y-70734197D01*
X125993331Y-70764408D01*
X125953368Y-70795145D01*
X125906340Y-70817649D01*
X125850871Y-70831830D01*
X125785175Y-70836857D01*
X125731517Y-70833592D01*
X125684723Y-70824298D01*
X125643810Y-70809516D01*
X125607951Y-70789490D01*
X125576506Y-70764152D01*
X125549939Y-70733850D01*
X125529004Y-70699013D01*
X125513565Y-70658976D01*
X125503847Y-70612845D01*
X125500424Y-70559544D01*
X125620787Y-70559544D01*
X125622836Y-70582564D01*
X125628652Y-70602072D01*
X125639152Y-70619345D01*
X125656435Y-70635540D01*
X125677497Y-70647460D01*
X125706999Y-70657296D01*
X125740601Y-70663023D01*
X125786115Y-70665203D01*
X125834174Y-70663014D01*
X125865702Y-70657552D01*
X125892853Y-70647876D01*
X125914856Y-70635070D01*
X125929716Y-70620666D01*
X125940501Y-70601816D01*
X125946971Y-70580933D01*
X125949050Y-70560954D01*
X125946854Y-70537323D01*
X125940501Y-70516459D01*
X125929535Y-70498171D01*
X125913403Y-70482992D01*
X125893416Y-70471755D01*
X125865232Y-70461963D01*
X125832689Y-70456119D01*
X125786115Y-70453841D01*
X125739292Y-70456212D01*
X125704862Y-70462433D01*
X125674816Y-70473029D01*
X125654041Y-70485385D01*
X125637296Y-70501923D01*
X125627669Y-70518853D01*
X125622570Y-70537766D01*
X125620787Y-70559544D01*
X125500424Y-70559544D01*
X125503822Y-70506419D01*
X125513475Y-70460378D01*
X125528818Y-70420361D01*
X125549627Y-70385489D01*
X125576036Y-70355106D01*
X125607274Y-70329738D01*
X125643049Y-70309663D01*
X125684024Y-70294823D01*
X125731060Y-70285476D01*
X125785175Y-70282188D01*
X125838587Y-70285456D01*
G37*
G36*
X126053000Y-71424695D02*
G01*
X126053000Y-71257315D01*
X125995212Y-71257315D01*
X126028405Y-71213876D01*
X126050520Y-71177429D01*
X126060746Y-71152541D01*
X126067158Y-71123935D01*
X126069413Y-71090918D01*
X126065968Y-71051596D01*
X126056214Y-71018446D01*
X126040583Y-70990299D01*
X126018891Y-70966324D01*
X125992704Y-70947986D01*
X125959700Y-70934036D01*
X125918367Y-70924931D01*
X125866856Y-70921615D01*
X125516838Y-70921615D01*
X125516838Y-71089935D01*
X125783423Y-71089935D01*
X125851426Y-71092072D01*
X125876501Y-71095927D01*
X125895921Y-71102373D01*
X125910664Y-71112136D01*
X125921310Y-71126053D01*
X125927486Y-71143907D01*
X125929901Y-71170761D01*
X125927958Y-71189050D01*
X125921310Y-71212606D01*
X125911110Y-71235889D01*
X125897844Y-71257315D01*
X125516838Y-71257315D01*
X125516838Y-71424695D01*
X126053000Y-71424695D01*
G37*
G36*
X126063942Y-71758684D02*
G01*
X126060733Y-71706333D01*
X126052041Y-71665464D01*
X126038942Y-71633868D01*
X126022011Y-71609727D01*
X125999664Y-71590599D01*
X125970519Y-71576100D01*
X125932918Y-71566591D01*
X125884722Y-71563095D01*
X125634465Y-71563095D01*
X125634465Y-71499024D01*
X125516838Y-71499024D01*
X125516838Y-71563095D01*
X125363648Y-71563095D01*
X125363648Y-71730474D01*
X125516838Y-71730474D01*
X125516838Y-71891614D01*
X125634465Y-71891614D01*
X125634465Y-71730474D01*
X125823686Y-71730474D01*
X125872626Y-71730945D01*
X125892798Y-71733160D01*
X125910197Y-71738595D01*
X125924957Y-71747740D01*
X125936569Y-71762275D01*
X125943538Y-71781479D01*
X125946314Y-71811771D01*
X125940544Y-71846905D01*
X125929901Y-71877252D01*
X125929901Y-71891614D01*
X126048554Y-71891614D01*
X126059838Y-71833740D01*
X126063942Y-71758684D01*
G37*
G36*
X125680969Y-72876743D02*
G01*
X125680969Y-72289546D01*
X125557870Y-72289546D01*
X125557870Y-72876743D01*
X125680969Y-72876743D01*
G37*
G36*
X125918959Y-72876743D02*
G01*
X125918959Y-72289546D01*
X125795861Y-72289546D01*
X125795861Y-72876743D01*
X125918959Y-72876743D01*
G37*
G36*
X125341764Y-73938979D02*
G01*
X126053000Y-73694150D01*
X126053000Y-73507665D01*
X125341764Y-73262836D01*
X125341764Y-73448381D01*
X125823729Y-73603280D01*
X125341764Y-73758221D01*
X125341764Y-73938979D01*
G37*
G36*
X126053000Y-74163249D02*
G01*
X126053000Y-73995870D01*
X125308938Y-73995870D01*
X125308938Y-74163249D01*
X126053000Y-74163249D01*
G37*
G36*
X125853484Y-74256863D02*
G01*
X125908026Y-74267556D01*
X125954127Y-74284288D01*
X125993075Y-74306607D01*
X126026984Y-74336343D01*
X126050408Y-74369880D01*
X126064529Y-74407979D01*
X126069413Y-74451975D01*
X126067982Y-74478233D01*
X126064113Y-74498821D01*
X126048683Y-74538528D01*
X126025730Y-74575116D01*
X125997050Y-74612174D01*
X126053000Y-74612174D01*
X126053000Y-74779553D01*
X125308938Y-74779553D01*
X125308938Y-74612174D01*
X125536756Y-74612174D01*
X125519942Y-74577087D01*
X125509272Y-74549299D01*
X125508376Y-74545239D01*
X125626258Y-74545239D01*
X125630362Y-74579647D01*
X125640705Y-74612174D01*
X125905880Y-74612174D01*
X125919223Y-74592600D01*
X125929474Y-74571055D01*
X125935996Y-74548446D01*
X125938108Y-74526560D01*
X125933744Y-74492393D01*
X125921776Y-74467083D01*
X125902503Y-74448384D01*
X125877374Y-74436144D01*
X125840227Y-74427564D01*
X125787013Y-74424235D01*
X125737069Y-74428093D01*
X125698393Y-74438573D01*
X125668616Y-74454582D01*
X125650314Y-74471372D01*
X125637265Y-74491560D01*
X125629141Y-74515828D01*
X125626258Y-74545239D01*
X125508376Y-74545239D01*
X125502873Y-74520303D01*
X125500424Y-74480185D01*
X125505532Y-74434995D01*
X125520855Y-74392178D01*
X125544962Y-74353631D01*
X125576292Y-74321439D01*
X125617558Y-74293142D01*
X125666565Y-74271217D01*
X125701589Y-74261467D01*
X125742122Y-74255252D01*
X125788979Y-74253051D01*
X125853484Y-74256863D01*
G37*
G36*
X125838587Y-74871555D02*
G01*
X125885218Y-74880863D01*
X125926038Y-74895678D01*
X125961865Y-74915766D01*
X125993331Y-74941205D01*
X126019922Y-74971614D01*
X126040862Y-75006500D01*
X126056293Y-75046518D01*
X126065998Y-75092545D01*
X126069413Y-75145643D01*
X126065983Y-75199167D01*
X126056251Y-75245419D01*
X126040803Y-75285493D01*
X126019873Y-75320296D01*
X125993331Y-75350508D01*
X125953368Y-75381244D01*
X125906340Y-75403749D01*
X125850871Y-75417929D01*
X125785175Y-75422956D01*
X125731517Y-75419691D01*
X125684723Y-75410397D01*
X125643810Y-75395615D01*
X125607951Y-75375589D01*
X125576506Y-75350251D01*
X125549939Y-75319949D01*
X125529004Y-75285113D01*
X125513565Y-75245075D01*
X125503847Y-75198944D01*
X125500424Y-75145643D01*
X125620787Y-75145643D01*
X125622836Y-75168664D01*
X125628652Y-75188172D01*
X125639152Y-75205444D01*
X125656435Y-75221639D01*
X125677497Y-75233559D01*
X125706999Y-75243395D01*
X125740601Y-75249122D01*
X125786115Y-75251302D01*
X125834174Y-75249113D01*
X125865702Y-75243651D01*
X125892853Y-75233975D01*
X125914856Y-75221169D01*
X125929716Y-75206765D01*
X125940501Y-75187915D01*
X125946971Y-75167032D01*
X125949050Y-75147053D01*
X125946854Y-75123422D01*
X125940501Y-75102558D01*
X125929535Y-75084271D01*
X125913403Y-75069091D01*
X125893416Y-75057854D01*
X125865232Y-75048062D01*
X125832689Y-75042218D01*
X125786115Y-75039941D01*
X125739292Y-75042311D01*
X125704862Y-75048532D01*
X125674816Y-75059128D01*
X125654041Y-75071484D01*
X125637296Y-75088022D01*
X125627669Y-75104952D01*
X125622570Y-75123865D01*
X125620787Y-75145643D01*
X125500424Y-75145643D01*
X125503822Y-75092518D01*
X125513475Y-75046477D01*
X125528818Y-75006460D01*
X125549627Y-74971589D01*
X125576036Y-74941205D01*
X125607274Y-74915837D01*
X125643049Y-74895762D01*
X125684024Y-74880922D01*
X125731060Y-74871575D01*
X125785175Y-74868287D01*
X125838587Y-74871555D01*
G37*
G36*
X125308938Y-76211726D02*
G01*
X126208924Y-75928172D01*
X126208924Y-75790926D01*
X125308938Y-76073069D01*
X125308938Y-76211726D01*
G37*
G36*
X126249957Y-76993059D02*
G01*
X126249957Y-76817601D01*
X126200724Y-76778704D01*
X126150495Y-76743956D01*
X126097697Y-76713378D01*
X126040519Y-76687065D01*
X125983625Y-76667338D01*
X125918617Y-76651888D01*
X125850821Y-76642444D01*
X125779448Y-76639237D01*
X125702506Y-76642680D01*
X125636474Y-76652359D01*
X125574129Y-76667799D01*
X125519317Y-76686595D01*
X125462983Y-76712167D01*
X125410067Y-76742759D01*
X125359430Y-76777834D01*
X125308938Y-76817601D01*
X125308938Y-76993059D01*
X125322787Y-76993059D01*
X125359644Y-76955599D01*
X125401946Y-76919200D01*
X125448857Y-76886003D01*
X125505468Y-76853932D01*
X125564544Y-76828276D01*
X125631687Y-76807300D01*
X125702466Y-76793969D01*
X125779448Y-76789391D01*
X125859031Y-76793946D01*
X125927678Y-76806830D01*
X125992622Y-76827449D01*
X126053427Y-76853932D01*
X126107762Y-76884771D01*
X126155966Y-76918687D01*
X126199780Y-76955987D01*
X126236108Y-76993059D01*
X126249957Y-76993059D01*
G37*
G36*
X126053000Y-77282682D02*
G01*
X125793125Y-77282682D01*
X125793125Y-77346753D01*
X126053000Y-77545207D01*
X126053000Y-77763236D01*
X125751408Y-77523664D01*
X125728594Y-77562611D01*
X125701618Y-77595214D01*
X125670326Y-77622143D01*
X125634584Y-77641929D01*
X125590942Y-77654484D01*
X125537482Y-77658987D01*
X125499440Y-77656230D01*
X125468019Y-77648541D01*
X125442038Y-77636505D01*
X125407894Y-77610212D01*
X125380062Y-77575767D01*
X125360639Y-77536874D01*
X125349202Y-77494471D01*
X125343766Y-77448597D01*
X125341764Y-77391205D01*
X125341764Y-77342436D01*
X125473069Y-77342436D01*
X125474950Y-77393599D01*
X125478194Y-77413501D01*
X125483883Y-77430913D01*
X125496788Y-77451799D01*
X125513333Y-77465064D01*
X125533656Y-77472662D01*
X125558725Y-77475365D01*
X125586775Y-77473054D01*
X125606768Y-77466988D01*
X125623673Y-77456521D01*
X125638269Y-77441428D01*
X125650204Y-77421632D01*
X125657375Y-77397189D01*
X125660607Y-77369733D01*
X125661820Y-77333845D01*
X125661820Y-77282682D01*
X125473069Y-77282682D01*
X125473069Y-77342436D01*
X125341764Y-77342436D01*
X125341764Y-77104788D01*
X126053000Y-77104788D01*
X126053000Y-77282682D01*
G37*
G36*
X125888868Y-78077094D02*
G01*
X126055735Y-78077094D01*
X126055735Y-78249731D01*
X125888868Y-78249731D01*
X125888868Y-78345859D01*
X125757563Y-78345859D01*
X125757563Y-78249731D01*
X125341764Y-78249731D01*
X125341764Y-78077094D01*
X125516667Y-78077094D01*
X125757563Y-78077094D01*
X125757563Y-77896849D01*
X125516667Y-78077094D01*
X125341764Y-78077094D01*
X125341764Y-78071367D01*
X125752819Y-77763877D01*
X125888868Y-77763877D01*
X125888868Y-78077094D01*
G37*
G36*
X125308938Y-79129842D02*
G01*
X126208924Y-78846288D01*
X126208924Y-78709042D01*
X125308938Y-78991185D01*
X125308938Y-79129842D01*
G37*
G36*
X126249957Y-79911175D02*
G01*
X126249957Y-79735717D01*
X126200724Y-79696820D01*
X126150495Y-79662072D01*
X126097697Y-79631494D01*
X126040519Y-79605181D01*
X125983625Y-79585454D01*
X125918617Y-79570004D01*
X125850821Y-79560560D01*
X125779448Y-79557352D01*
X125702506Y-79560795D01*
X125636474Y-79570474D01*
X125574129Y-79585915D01*
X125519317Y-79604711D01*
X125462983Y-79630283D01*
X125410067Y-79660875D01*
X125359430Y-79695950D01*
X125308938Y-79735717D01*
X125308938Y-79911175D01*
X125322787Y-79911175D01*
X125359644Y-79873715D01*
X125401946Y-79837316D01*
X125448857Y-79804119D01*
X125505468Y-79772048D01*
X125564544Y-79746392D01*
X125631687Y-79725416D01*
X125702466Y-79712085D01*
X125779448Y-79707507D01*
X125859031Y-79712062D01*
X125927678Y-79724946D01*
X125992622Y-79745565D01*
X126053427Y-79772048D01*
X126107762Y-79802887D01*
X126155966Y-79836803D01*
X126199780Y-79874102D01*
X126236108Y-79911175D01*
X126249957Y-79911175D01*
G37*
G36*
X126053000Y-80200798D02*
G01*
X125793125Y-80200798D01*
X125793125Y-80264869D01*
X126053000Y-80463322D01*
X126053000Y-80681352D01*
X125751408Y-80441780D01*
X125728594Y-80480727D01*
X125701618Y-80513330D01*
X125670326Y-80540259D01*
X125634584Y-80560044D01*
X125590942Y-80572600D01*
X125537482Y-80577103D01*
X125499440Y-80574346D01*
X125468019Y-80566657D01*
X125442038Y-80554620D01*
X125407894Y-80528327D01*
X125380062Y-80493883D01*
X125360639Y-80454990D01*
X125349202Y-80412587D01*
X125343766Y-80366713D01*
X125341764Y-80309321D01*
X125341764Y-80260552D01*
X125473069Y-80260552D01*
X125474950Y-80311715D01*
X125478194Y-80331617D01*
X125483883Y-80349029D01*
X125496788Y-80369915D01*
X125513333Y-80383180D01*
X125533656Y-80390778D01*
X125558725Y-80393481D01*
X125586775Y-80391170D01*
X125606768Y-80385104D01*
X125623673Y-80374637D01*
X125638269Y-80359544D01*
X125650204Y-80339748D01*
X125657375Y-80315305D01*
X125660607Y-80287849D01*
X125661820Y-80251961D01*
X125661820Y-80200798D01*
X125473069Y-80200798D01*
X125473069Y-80260552D01*
X125341764Y-80260552D01*
X125341764Y-80022904D01*
X126053000Y-80022904D01*
X126053000Y-80200798D01*
G37*
G36*
X125839116Y-81238158D02*
G01*
X125889494Y-81233201D01*
X125934218Y-81218796D01*
X125961432Y-81203905D01*
X125985707Y-81185098D01*
X126007308Y-81162120D01*
X126033588Y-81121589D01*
X126053384Y-81073386D01*
X126065066Y-81019481D01*
X126069413Y-80949305D01*
X126065651Y-80869138D01*
X126055521Y-80806587D01*
X126039984Y-80750097D01*
X126024405Y-80709733D01*
X125869720Y-80709733D01*
X125869720Y-80726958D01*
X125893046Y-80768497D01*
X125913958Y-80818983D01*
X125928268Y-80871092D01*
X125932637Y-80915367D01*
X125928063Y-80971531D01*
X125920507Y-81000030D01*
X125907974Y-81022480D01*
X125894449Y-81037116D01*
X125878183Y-81048510D01*
X125858391Y-81055565D01*
X125828088Y-81058341D01*
X125798668Y-81054524D01*
X125778977Y-81044449D01*
X125764301Y-81028538D01*
X125754058Y-81007648D01*
X125747803Y-80983398D01*
X125744869Y-80952639D01*
X125743886Y-80896218D01*
X125743886Y-80865615D01*
X125620787Y-80865615D01*
X125620787Y-80893825D01*
X125617881Y-80953579D01*
X125613330Y-80979618D01*
X125606298Y-80999997D01*
X125595209Y-81017187D01*
X125580738Y-81029874D01*
X125562450Y-81037698D01*
X125536328Y-81040645D01*
X125516022Y-81037973D01*
X125500852Y-81030601D01*
X125488571Y-81019332D01*
X125479352Y-81005725D01*
X125472253Y-80987565D01*
X125467769Y-80965590D01*
X125464863Y-80926352D01*
X125466399Y-80900022D01*
X125471103Y-80872796D01*
X125486832Y-80819709D01*
X125506665Y-80777608D01*
X125525044Y-80745124D01*
X125525044Y-80730292D01*
X125372924Y-80730292D01*
X125358407Y-80770527D01*
X125342662Y-80829497D01*
X125331744Y-80892449D01*
X125328087Y-80956956D01*
X125331054Y-81018372D01*
X125339114Y-81067188D01*
X125353026Y-81111428D01*
X125371128Y-81146775D01*
X125396978Y-81178892D01*
X125428318Y-81201314D01*
X125464682Y-81214819D01*
X125506494Y-81219480D01*
X125545783Y-81215472D01*
X125580950Y-81203771D01*
X125612923Y-81184303D01*
X125639809Y-81158391D01*
X125659355Y-81127844D01*
X125671993Y-81091808D01*
X125678575Y-81091808D01*
X125691483Y-81141304D01*
X125703090Y-81164628D01*
X125721104Y-81188406D01*
X125742030Y-81207790D01*
X125769147Y-81224053D01*
X125800346Y-81234433D01*
X125839116Y-81238158D01*
G37*
G36*
X125801332Y-82279408D02*
G01*
X125801332Y-82034579D01*
X126044793Y-82034579D01*
X126044793Y-81908318D01*
X125801332Y-81908318D01*
X125801332Y-81663489D01*
X125678233Y-81663489D01*
X125678233Y-81908318D01*
X125434772Y-81908318D01*
X125434772Y-82034579D01*
X125678233Y-82034579D01*
X125678233Y-82279408D01*
X125801332Y-82279408D01*
G37*
G36*
X126053000Y-82910330D02*
G01*
X125793125Y-82910330D01*
X125793125Y-82974401D01*
X126053000Y-83172855D01*
X126053000Y-83390884D01*
X125751408Y-83151313D01*
X125728594Y-83190260D01*
X125701618Y-83222862D01*
X125670326Y-83249791D01*
X125634584Y-83269577D01*
X125590942Y-83282132D01*
X125537482Y-83286635D01*
X125499440Y-83283878D01*
X125468019Y-83276190D01*
X125442038Y-83264153D01*
X125407894Y-83237860D01*
X125380062Y-83203416D01*
X125360639Y-83164522D01*
X125349202Y-83122120D01*
X125343766Y-83076245D01*
X125341764Y-83018854D01*
X125341764Y-82970084D01*
X125473069Y-82970084D01*
X125474950Y-83021247D01*
X125478194Y-83041149D01*
X125483883Y-83058561D01*
X125496788Y-83079448D01*
X125513333Y-83092713D01*
X125533656Y-83100310D01*
X125558725Y-83103014D01*
X125586775Y-83100702D01*
X125606768Y-83094636D01*
X125623673Y-83084169D01*
X125638269Y-83069076D01*
X125650204Y-83049280D01*
X125657375Y-83024838D01*
X125660607Y-82997381D01*
X125661820Y-82961493D01*
X125661820Y-82910330D01*
X125473069Y-82910330D01*
X125473069Y-82970084D01*
X125341764Y-82970084D01*
X125341764Y-82732436D01*
X126053000Y-82732436D01*
X126053000Y-82910330D01*
G37*
G36*
X125888868Y-83704743D02*
G01*
X126055735Y-83704743D01*
X126055735Y-83877379D01*
X125888868Y-83877379D01*
X125888868Y-83973507D01*
X125757563Y-83973507D01*
X125757563Y-83877379D01*
X125341764Y-83877379D01*
X125341764Y-83704743D01*
X125516667Y-83704743D01*
X125757563Y-83704743D01*
X125757563Y-83524497D01*
X125516667Y-83704743D01*
X125341764Y-83704743D01*
X125341764Y-83699015D01*
X125752819Y-83391525D01*
X125888868Y-83391525D01*
X125888868Y-83704743D01*
G37*
G36*
X125779448Y-84385374D02*
G01*
X125850787Y-84382153D01*
X125918361Y-84372680D01*
X125983209Y-84357290D01*
X126040519Y-84337545D01*
X126097697Y-84311233D01*
X126150495Y-84280655D01*
X126200724Y-84245906D01*
X126249957Y-84207010D01*
X126249957Y-84031509D01*
X126236108Y-84031509D01*
X126199837Y-84068638D01*
X126156223Y-84106095D01*
X126108080Y-84140107D01*
X126053427Y-84170678D01*
X125992621Y-84197151D01*
X125927678Y-84217738D01*
X125859029Y-84230653D01*
X125779448Y-84235220D01*
X125702468Y-84230631D01*
X125631687Y-84217268D01*
X125564545Y-84196325D01*
X125505468Y-84170678D01*
X125448861Y-84138598D01*
X125401946Y-84105368D01*
X125359644Y-84068969D01*
X125322787Y-84031509D01*
X125308938Y-84031509D01*
X125308938Y-84207010D01*
X125359432Y-84246768D01*
X125410067Y-84281809D01*
X125462985Y-84312434D01*
X125519317Y-84338015D01*
X125574131Y-84356802D01*
X125636474Y-84372209D01*
X125702508Y-84381920D01*
X125779448Y-84385374D01*
G37*
G36*
X125779448Y-84829896D02*
G01*
X125850787Y-84826675D01*
X125918361Y-84817202D01*
X125983209Y-84801812D01*
X126040519Y-84782067D01*
X126097697Y-84755755D01*
X126150495Y-84725177D01*
X126200724Y-84690428D01*
X126249957Y-84651532D01*
X126249957Y-84476031D01*
X126236108Y-84476031D01*
X126199837Y-84513160D01*
X126156223Y-84550617D01*
X126108080Y-84584629D01*
X126053427Y-84615200D01*
X125992621Y-84641673D01*
X125927678Y-84662260D01*
X125859029Y-84675175D01*
X125779448Y-84679742D01*
X125702468Y-84675153D01*
X125631687Y-84661790D01*
X125564545Y-84640847D01*
X125505468Y-84615200D01*
X125448861Y-84583120D01*
X125401946Y-84549890D01*
X125359644Y-84513491D01*
X125322787Y-84476031D01*
X125308938Y-84476031D01*
X125308938Y-84651532D01*
X125359432Y-84691290D01*
X125410067Y-84726331D01*
X125462985Y-84756956D01*
X125519317Y-84782537D01*
X125574131Y-84801324D01*
X125636474Y-84816731D01*
X125702508Y-84826442D01*
X125779448Y-84829896D01*
G37*
G36*
X127229000Y-70159773D02*
G01*
X127229000Y-69689264D01*
X127105901Y-69689264D01*
X127105901Y-69839375D01*
X126728399Y-69839375D01*
X126728399Y-69689264D01*
X126613508Y-69689264D01*
X126609276Y-69754745D01*
X126603343Y-69785456D01*
X126595598Y-69806891D01*
X126582120Y-69827477D01*
X126565166Y-69842453D01*
X126544397Y-69852256D01*
X126517764Y-69857071D01*
X126517764Y-70012995D01*
X127105901Y-70012995D01*
X127105901Y-70159773D01*
X127229000Y-70159773D01*
G37*
G36*
X127229000Y-70783472D02*
G01*
X127229000Y-70312962D01*
X127105901Y-70312962D01*
X127105901Y-70463074D01*
X126728399Y-70463074D01*
X126728399Y-70312962D01*
X126613508Y-70312962D01*
X126609276Y-70378444D01*
X126603343Y-70409154D01*
X126595598Y-70430590D01*
X126582120Y-70451175D01*
X126565166Y-70466151D01*
X126544397Y-70475955D01*
X126517764Y-70480769D01*
X126517764Y-70636694D01*
X127105901Y-70636694D01*
X127105901Y-70783472D01*
X127229000Y-70783472D01*
G37*
G36*
X127229000Y-71081045D02*
G01*
X127229000Y-70911785D01*
X127040249Y-70911785D01*
X127040249Y-71081045D01*
X127229000Y-71081045D01*
G37*
G36*
X127079219Y-71183306D02*
G01*
X127118296Y-71195467D01*
X127153629Y-71215975D01*
X127184462Y-71245689D01*
X127208952Y-71283683D01*
X127229000Y-71334166D01*
X127241051Y-71390671D01*
X127245413Y-71459914D01*
X127241145Y-71525180D01*
X127229213Y-71579722D01*
X127209469Y-71629016D01*
X127184462Y-71668412D01*
X127152985Y-71700581D01*
X127116629Y-71723636D01*
X127075985Y-71737749D01*
X127031615Y-71742528D01*
X126989532Y-71738626D01*
X126952825Y-71727398D01*
X126920441Y-71709060D01*
X126892734Y-71684011D01*
X126867703Y-71649881D01*
X126845471Y-71604811D01*
X126842607Y-71604811D01*
X126821649Y-71643533D01*
X126798860Y-71673086D01*
X126774305Y-71694955D01*
X126745985Y-71711329D01*
X126715799Y-71721066D01*
X126683092Y-71724362D01*
X126645761Y-71720021D01*
X126611456Y-71707137D01*
X126581052Y-71686310D01*
X126555036Y-71657427D01*
X126535024Y-71622876D01*
X126518149Y-71576815D01*
X126507844Y-71525517D01*
X126504115Y-71462308D01*
X126624450Y-71462308D01*
X126627090Y-71488913D01*
X126634438Y-71510200D01*
X126646120Y-71527319D01*
X126661947Y-71540475D01*
X126680921Y-71548453D01*
X126703993Y-71551255D01*
X126732045Y-71548997D01*
X126755712Y-71542621D01*
X126778025Y-71531931D01*
X126802600Y-71515394D01*
X126784050Y-71466368D01*
X126770244Y-71434568D01*
X126753978Y-71406781D01*
X126749222Y-71401571D01*
X126908773Y-71401571D01*
X126927366Y-71447690D01*
X126944035Y-71487654D01*
X126968471Y-71531248D01*
X126986137Y-71551255D01*
X127007599Y-71561994D01*
X127039949Y-71566087D01*
X127063756Y-71563526D01*
X127080341Y-71556769D01*
X127094175Y-71546060D01*
X127106286Y-71532149D01*
X127114562Y-71517422D01*
X127120476Y-71500306D01*
X127125050Y-71468506D01*
X127121511Y-71435254D01*
X127111519Y-71407943D01*
X127095344Y-71385286D01*
X127073712Y-71368015D01*
X127047608Y-71357464D01*
X127015714Y-71353742D01*
X126983790Y-71357439D01*
X126955063Y-71368317D01*
X126929220Y-71384290D01*
X126908773Y-71401571D01*
X126749222Y-71401571D01*
X126738102Y-71389389D01*
X126718589Y-71378678D01*
X126692111Y-71374814D01*
X126674174Y-71377460D01*
X126658344Y-71385312D01*
X126643983Y-71398964D01*
X126633442Y-71416048D01*
X126626816Y-71436845D01*
X126624450Y-71462308D01*
X126504115Y-71462308D01*
X126504087Y-71461838D01*
X126508126Y-71401478D01*
X126519560Y-71349681D01*
X126538210Y-71302855D01*
X126560763Y-71267188D01*
X126590161Y-71236654D01*
X126622142Y-71215556D01*
X126657536Y-71202656D01*
X126695488Y-71198330D01*
X126730351Y-71201162D01*
X126762383Y-71209458D01*
X126792128Y-71223164D01*
X126818183Y-71242609D01*
X126842780Y-71271105D01*
X126865945Y-71310700D01*
X126868766Y-71310700D01*
X126889394Y-71269575D01*
X126911974Y-71237441D01*
X126936384Y-71212905D01*
X126965003Y-71194500D01*
X126998397Y-71183189D01*
X127037812Y-71179224D01*
X127079219Y-71183306D01*
G37*
G36*
X126517764Y-72441282D02*
G01*
X127229000Y-72196453D01*
X127229000Y-72009968D01*
X126517764Y-71765139D01*
X126517764Y-71950684D01*
X126999729Y-72105583D01*
X126517764Y-72260524D01*
X126517764Y-72441282D01*
G37*
G36*
X126856969Y-73414956D02*
G01*
X126856969Y-72827760D01*
X126733870Y-72827760D01*
X126733870Y-73414956D01*
X126856969Y-73414956D01*
G37*
G36*
X127094959Y-73414956D02*
G01*
X127094959Y-72827760D01*
X126971861Y-72827760D01*
X126971861Y-73414956D01*
X127094959Y-73414956D01*
G37*
G36*
X126989727Y-74387775D02*
G01*
X127043663Y-74382955D01*
X127092480Y-74368883D01*
X127122628Y-74354167D01*
X127149771Y-74335346D01*
X127174204Y-74312207D01*
X127204053Y-74271840D01*
X127226777Y-74223516D01*
X127236675Y-74188765D01*
X127243100Y-74147004D01*
X127245413Y-74097041D01*
X127241468Y-74020500D01*
X127231692Y-73960521D01*
X127216987Y-73906126D01*
X127202114Y-73866103D01*
X127045720Y-73866103D01*
X127045720Y-73882345D01*
X127063714Y-73912479D01*
X127084658Y-73956461D01*
X127101926Y-74007880D01*
X127106884Y-74034797D01*
X127108637Y-74065967D01*
X127106979Y-74094137D01*
X127101712Y-74125721D01*
X127091671Y-74155341D01*
X127076708Y-74177397D01*
X127061473Y-74190256D01*
X127044737Y-74199879D01*
X127025409Y-74205739D01*
X126997549Y-74208001D01*
X126973996Y-74205305D01*
X126954892Y-74197700D01*
X126938661Y-74185768D01*
X126925998Y-74170686D01*
X126912940Y-74144433D01*
X126905268Y-74111873D01*
X126900737Y-74052589D01*
X126902270Y-74013731D01*
X126906807Y-73976336D01*
X126919886Y-73912009D01*
X126919886Y-73896707D01*
X126517764Y-73896707D01*
X126517764Y-74368157D01*
X126649069Y-74368157D01*
X126649069Y-74065497D01*
X126771826Y-74065497D01*
X126770159Y-74099691D01*
X126769432Y-74130508D01*
X126772096Y-74180561D01*
X126779733Y-74225183D01*
X126793029Y-74266744D01*
X126811491Y-74302205D01*
X126830971Y-74327225D01*
X126854332Y-74348166D01*
X126881973Y-74365293D01*
X126912240Y-74377379D01*
X126947823Y-74385051D01*
X126989727Y-74387775D01*
G37*
G36*
X126517764Y-75100891D02*
G01*
X127229000Y-74856062D01*
X127229000Y-74669577D01*
X126517764Y-74424748D01*
X126517764Y-74610293D01*
X126999729Y-74765192D01*
X126517764Y-74920133D01*
X126517764Y-75100891D01*
G37*
G36*
X126484938Y-75857476D02*
G01*
X127384924Y-75573923D01*
X127384924Y-75436676D01*
X126484938Y-75718820D01*
X126484938Y-75857476D01*
G37*
G36*
X127425957Y-76638809D02*
G01*
X127425957Y-76463351D01*
X127376724Y-76424455D01*
X127326495Y-76389706D01*
X127273697Y-76359128D01*
X127216519Y-76332816D01*
X127159625Y-76313088D01*
X127094617Y-76297639D01*
X127026821Y-76288194D01*
X126955448Y-76284987D01*
X126878506Y-76288430D01*
X126812474Y-76298109D01*
X126750129Y-76313549D01*
X126695317Y-76332345D01*
X126638983Y-76357917D01*
X126586067Y-76388509D01*
X126535430Y-76423584D01*
X126484938Y-76463351D01*
X126484938Y-76638809D01*
X126498787Y-76638809D01*
X126535644Y-76601349D01*
X126577946Y-76564950D01*
X126624857Y-76531754D01*
X126681468Y-76499682D01*
X126740544Y-76474026D01*
X126807687Y-76453050D01*
X126878466Y-76439719D01*
X126955448Y-76435141D01*
X127035031Y-76439697D01*
X127103678Y-76452580D01*
X127168622Y-76473199D01*
X127229427Y-76499682D01*
X127283762Y-76530521D01*
X127331966Y-76564437D01*
X127375780Y-76601737D01*
X127412108Y-76638809D01*
X127425957Y-76638809D01*
G37*
G36*
X127229000Y-77558756D02*
G01*
X127229000Y-77035631D01*
X127115433Y-77035631D01*
X127015714Y-77154925D01*
X126968818Y-77205757D01*
X126926554Y-77247933D01*
X126871856Y-77295164D01*
X126829742Y-77323501D01*
X126801219Y-77336677D01*
X126772739Y-77344378D01*
X126743915Y-77346924D01*
X126711987Y-77343318D01*
X126687057Y-77333308D01*
X126667491Y-77317261D01*
X126653233Y-77296018D01*
X126644156Y-77268990D01*
X126640863Y-77234554D01*
X126642554Y-77207797D01*
X126647488Y-77183135D01*
X126664499Y-77134152D01*
X126686768Y-77092521D01*
X126703780Y-77066704D01*
X126703780Y-77052856D01*
X126548496Y-77052856D01*
X126535251Y-77087504D01*
X126519132Y-77147060D01*
X126507751Y-77210733D01*
X126504087Y-77270415D01*
X126508244Y-77334576D01*
X126519712Y-77386593D01*
X126537380Y-77428619D01*
X126560721Y-77462414D01*
X126591164Y-77490427D01*
X126627059Y-77510615D01*
X126669496Y-77523223D01*
X126720022Y-77527682D01*
X126761598Y-77524444D01*
X126802811Y-77514662D01*
X126844103Y-77498019D01*
X126882828Y-77475726D01*
X126926029Y-77443541D01*
X126974382Y-77399540D01*
X127015459Y-77356308D01*
X127050421Y-77315850D01*
X127097695Y-77257037D01*
X127097695Y-77558756D01*
X127229000Y-77558756D01*
G37*
G36*
X127229000Y-78182454D02*
G01*
X127229000Y-77659329D01*
X127115433Y-77659329D01*
X127015714Y-77778623D01*
X126968818Y-77829456D01*
X126926554Y-77871631D01*
X126871856Y-77918863D01*
X126829742Y-77947200D01*
X126801219Y-77960376D01*
X126772739Y-77968077D01*
X126743915Y-77970623D01*
X126711987Y-77967016D01*
X126687057Y-77957007D01*
X126667491Y-77940959D01*
X126653233Y-77919716D01*
X126644156Y-77892689D01*
X126640863Y-77858253D01*
X126642554Y-77831495D01*
X126647488Y-77806833D01*
X126664499Y-77757851D01*
X126686768Y-77716219D01*
X126703780Y-77690403D01*
X126703780Y-77676554D01*
X126548496Y-77676554D01*
X126535251Y-77711202D01*
X126519132Y-77770759D01*
X126507751Y-77834431D01*
X126504087Y-77894114D01*
X126508244Y-77958275D01*
X126519712Y-78010291D01*
X126537380Y-78052317D01*
X126560721Y-78086113D01*
X126591164Y-78114125D01*
X126627059Y-78134314D01*
X126669496Y-78146922D01*
X126720022Y-78151381D01*
X126761598Y-78148142D01*
X126802811Y-78138361D01*
X126844103Y-78121717D01*
X126882828Y-78099424D01*
X126926029Y-78067239D01*
X126974382Y-78023239D01*
X127015459Y-77980006D01*
X127050421Y-77939549D01*
X127097695Y-77880735D01*
X127097695Y-78182454D01*
X127229000Y-78182454D01*
G37*
G36*
X127229000Y-78812393D02*
G01*
X127229000Y-78613470D01*
X126995540Y-78468103D01*
X127030375Y-78442286D01*
X127229000Y-78442286D01*
X127229000Y-78274907D01*
X126484938Y-78274907D01*
X126484938Y-78442286D01*
X126902447Y-78442286D01*
X126692838Y-78601032D01*
X126692838Y-78798502D01*
X126923904Y-78610606D01*
X127229000Y-78812393D01*
G37*
G36*
X126484938Y-79564790D02*
G01*
X127384924Y-79281236D01*
X127384924Y-79143990D01*
X126484938Y-79426133D01*
X126484938Y-79564790D01*
G37*
G36*
X127425957Y-80346122D02*
G01*
X127425957Y-80170665D01*
X127376724Y-80131768D01*
X127326495Y-80097019D01*
X127273697Y-80066441D01*
X127216519Y-80040129D01*
X127159625Y-80020402D01*
X127094617Y-80004952D01*
X127026821Y-79995507D01*
X126955448Y-79992300D01*
X126878506Y-79995743D01*
X126812474Y-80005422D01*
X126750129Y-80020862D01*
X126695317Y-80039659D01*
X126638983Y-80065231D01*
X126586067Y-80095822D01*
X126535430Y-80130898D01*
X126484938Y-80170665D01*
X126484938Y-80346122D01*
X126498787Y-80346122D01*
X126535644Y-80308662D01*
X126577946Y-80272263D01*
X126624857Y-80239067D01*
X126681468Y-80206996D01*
X126740544Y-80181340D01*
X126807687Y-80160364D01*
X126878466Y-80147032D01*
X126955448Y-80142454D01*
X127035031Y-80147010D01*
X127103678Y-80159893D01*
X127168622Y-80180513D01*
X127229427Y-80206996D01*
X127283762Y-80237834D01*
X127331966Y-80271751D01*
X127375780Y-80309050D01*
X127412108Y-80346122D01*
X127425957Y-80346122D01*
G37*
G36*
X127015116Y-80961871D02*
G01*
X127065494Y-80956913D01*
X127110218Y-80942509D01*
X127137432Y-80927617D01*
X127161707Y-80908810D01*
X127183308Y-80885832D01*
X127209588Y-80845301D01*
X127229384Y-80797099D01*
X127241066Y-80743194D01*
X127245413Y-80673017D01*
X127241651Y-80592850D01*
X127231521Y-80530300D01*
X127215984Y-80473809D01*
X127200405Y-80433445D01*
X127045720Y-80433445D01*
X127045720Y-80450671D01*
X127069046Y-80492210D01*
X127089958Y-80542695D01*
X127104268Y-80594804D01*
X127108637Y-80639080D01*
X127104063Y-80695243D01*
X127096507Y-80723743D01*
X127083974Y-80746192D01*
X127070449Y-80760828D01*
X127054183Y-80772222D01*
X127034391Y-80779277D01*
X127004088Y-80782053D01*
X126974668Y-80778237D01*
X126954977Y-80768162D01*
X126940301Y-80752250D01*
X126930058Y-80731361D01*
X126923803Y-80707111D01*
X126920869Y-80676351D01*
X126919886Y-80619931D01*
X126919886Y-80589327D01*
X126796787Y-80589327D01*
X126796787Y-80617537D01*
X126793881Y-80677291D01*
X126789330Y-80703331D01*
X126782298Y-80723710D01*
X126771209Y-80740900D01*
X126756738Y-80753587D01*
X126738450Y-80761410D01*
X126712328Y-80764358D01*
X126692022Y-80761685D01*
X126676852Y-80754313D01*
X126664571Y-80743044D01*
X126655352Y-80729437D01*
X126648253Y-80711277D01*
X126643769Y-80689302D01*
X126640863Y-80650064D01*
X126642399Y-80623734D01*
X126647103Y-80596508D01*
X126662832Y-80543422D01*
X126682665Y-80501321D01*
X126701044Y-80468836D01*
X126701044Y-80454005D01*
X126548924Y-80454005D01*
X126534407Y-80494239D01*
X126518662Y-80553210D01*
X126507744Y-80616162D01*
X126504087Y-80680668D01*
X126507054Y-80742084D01*
X126515114Y-80790901D01*
X126529026Y-80835140D01*
X126547128Y-80870487D01*
X126572978Y-80902605D01*
X126604318Y-80925027D01*
X126640682Y-80938531D01*
X126682494Y-80943192D01*
X126721783Y-80939184D01*
X126756950Y-80927484D01*
X126788923Y-80908015D01*
X126815809Y-80882104D01*
X126835355Y-80851556D01*
X126847993Y-80815521D01*
X126854575Y-80815521D01*
X126867483Y-80865016D01*
X126879090Y-80888341D01*
X126897104Y-80912119D01*
X126918030Y-80931502D01*
X126945147Y-80947766D01*
X126976346Y-80958145D01*
X127015116Y-80961871D01*
G37*
G36*
X126963606Y-81049194D02*
G01*
X127035205Y-81060050D01*
X127080044Y-81072409D01*
X127118255Y-81088271D01*
X127150695Y-81107366D01*
X127179742Y-81131592D01*
X127203291Y-81159818D01*
X127221733Y-81192467D01*
X127234414Y-81228007D01*
X127242522Y-81270034D01*
X127245413Y-81319711D01*
X127242515Y-81369682D01*
X127234401Y-81411825D01*
X127221733Y-81447340D01*
X127203334Y-81480057D01*
X127180093Y-81508129D01*
X127151678Y-81532013D01*
X127119497Y-81551059D01*
X127081228Y-81566931D01*
X127035932Y-81579329D01*
X126963638Y-81590190D01*
X126874280Y-81594161D01*
X126787471Y-81590283D01*
X126715961Y-81579586D01*
X126670986Y-81567365D01*
X126632694Y-81551572D01*
X126600215Y-81532483D01*
X126570794Y-81508276D01*
X126546941Y-81480263D01*
X126528236Y-81448067D01*
X126515370Y-81412985D01*
X126507070Y-81370662D01*
X126504087Y-81319711D01*
X126635392Y-81319711D01*
X126638730Y-81343668D01*
X126648320Y-81363293D01*
X126664489Y-81379665D01*
X126688777Y-81393100D01*
X126725758Y-81403766D01*
X126784933Y-81411690D01*
X126874280Y-81414856D01*
X126962924Y-81411673D01*
X127022223Y-81403675D01*
X127059782Y-81392844D01*
X127084609Y-81379261D01*
X127101050Y-81362861D01*
X127110746Y-81343359D01*
X127114108Y-81319711D01*
X127110745Y-81296040D01*
X127101048Y-81276517D01*
X127084606Y-81260096D01*
X127059782Y-81246493D01*
X127022244Y-81235671D01*
X126963210Y-81227694D01*
X126875220Y-81224524D01*
X126785224Y-81227727D01*
X126725786Y-81235733D01*
X126688777Y-81246493D01*
X126664451Y-81260044D01*
X126648283Y-81276436D01*
X126638715Y-81295975D01*
X126635392Y-81319711D01*
X126504087Y-81319711D01*
X126506884Y-81271651D01*
X126514799Y-81230196D01*
X126527296Y-81194390D01*
X126545451Y-81161430D01*
X126568827Y-81132895D01*
X126597821Y-81108349D01*
X126631254Y-81088279D01*
X126669463Y-81072036D01*
X126713098Y-81059794D01*
X126783524Y-81049182D01*
X126874750Y-81045219D01*
X126963606Y-81049194D01*
G37*
G36*
X127229000Y-82233161D02*
G01*
X127229000Y-82034237D01*
X126995540Y-81888870D01*
X127030375Y-81863054D01*
X127229000Y-81863054D01*
X127229000Y-81695674D01*
X126484938Y-81695674D01*
X126484938Y-81863054D01*
X126902447Y-81863054D01*
X126692838Y-82021799D01*
X126692838Y-82219270D01*
X126923904Y-82031374D01*
X127229000Y-82233161D01*
G37*
G36*
X126977332Y-83217008D02*
G01*
X126977332Y-82972179D01*
X127220793Y-82972179D01*
X127220793Y-82845918D01*
X126977332Y-82845918D01*
X126977332Y-82601088D01*
X126854233Y-82601088D01*
X126854233Y-82845918D01*
X126610772Y-82845918D01*
X126610772Y-82972179D01*
X126854233Y-82972179D01*
X126854233Y-83217008D01*
X126977332Y-83217008D01*
G37*
G36*
X127229000Y-84191708D02*
G01*
X127229000Y-83668582D01*
X127115433Y-83668582D01*
X127015714Y-83787877D01*
X126968818Y-83838709D01*
X126926554Y-83880884D01*
X126871856Y-83928116D01*
X126829742Y-83956453D01*
X126801219Y-83969629D01*
X126772739Y-83977330D01*
X126743915Y-83979876D01*
X126711987Y-83976270D01*
X126687057Y-83966260D01*
X126667491Y-83950213D01*
X126653233Y-83928970D01*
X126644156Y-83901942D01*
X126640863Y-83867506D01*
X126642554Y-83840749D01*
X126647488Y-83816087D01*
X126664499Y-83767104D01*
X126686768Y-83725473D01*
X126703780Y-83699656D01*
X126703780Y-83685808D01*
X126548496Y-83685808D01*
X126535251Y-83720455D01*
X126519132Y-83780012D01*
X126507751Y-83843685D01*
X126504087Y-83903367D01*
X126508244Y-83967528D01*
X126519712Y-84019544D01*
X126537380Y-84061571D01*
X126560721Y-84095366D01*
X126591164Y-84123379D01*
X126627059Y-84143567D01*
X126669496Y-84156175D01*
X126720022Y-84160634D01*
X126761598Y-84157395D01*
X126802811Y-84147614D01*
X126844103Y-84130971D01*
X126882828Y-84108677D01*
X126926029Y-84076493D01*
X126974382Y-84032492D01*
X127015459Y-83989259D01*
X127050421Y-83948802D01*
X127097695Y-83889989D01*
X127097695Y-84191708D01*
X127229000Y-84191708D01*
G37*
G36*
X127229000Y-84815406D02*
G01*
X127229000Y-84292281D01*
X127115433Y-84292281D01*
X127015714Y-84411575D01*
X126968818Y-84462408D01*
X126926554Y-84504583D01*
X126871856Y-84551815D01*
X126829742Y-84580152D01*
X126801219Y-84593328D01*
X126772739Y-84601029D01*
X126743915Y-84603575D01*
X126711987Y-84599968D01*
X126687057Y-84589958D01*
X126667491Y-84573911D01*
X126653233Y-84552668D01*
X126644156Y-84525641D01*
X126640863Y-84491204D01*
X126642554Y-84464447D01*
X126647488Y-84439785D01*
X126664499Y-84390802D01*
X126686768Y-84349171D01*
X126703780Y-84323355D01*
X126703780Y-84309506D01*
X126548496Y-84309506D01*
X126535251Y-84344154D01*
X126519132Y-84403711D01*
X126507751Y-84467383D01*
X126504087Y-84527065D01*
X126508244Y-84591227D01*
X126519712Y-84643243D01*
X126537380Y-84685269D01*
X126560721Y-84719065D01*
X126591164Y-84747077D01*
X126627059Y-84767266D01*
X126669496Y-84779873D01*
X126720022Y-84784333D01*
X126761598Y-84781094D01*
X126802811Y-84771313D01*
X126844103Y-84754669D01*
X126882828Y-84732376D01*
X126926029Y-84700191D01*
X126974382Y-84656191D01*
X127015459Y-84612958D01*
X127050421Y-84572501D01*
X127097695Y-84513687D01*
X127097695Y-84815406D01*
X127229000Y-84815406D01*
G37*
G36*
X127229000Y-85445345D02*
G01*
X127229000Y-85246422D01*
X126995540Y-85101054D01*
X127030375Y-85075238D01*
X127229000Y-85075238D01*
X127229000Y-84907858D01*
X126484938Y-84907858D01*
X126484938Y-85075238D01*
X126902447Y-85075238D01*
X126692838Y-85233984D01*
X126692838Y-85431454D01*
X126923904Y-85243558D01*
X127229000Y-85445345D01*
G37*
G36*
X126955448Y-85825625D02*
G01*
X127026787Y-85822404D01*
X127094361Y-85812931D01*
X127159209Y-85797542D01*
X127216519Y-85777796D01*
X127273697Y-85751484D01*
X127326495Y-85720906D01*
X127376724Y-85686157D01*
X127425957Y-85647261D01*
X127425957Y-85471760D01*
X127412108Y-85471760D01*
X127375837Y-85508889D01*
X127332223Y-85546346D01*
X127284080Y-85580358D01*
X127229427Y-85610930D01*
X127168621Y-85637403D01*
X127103678Y-85657989D01*
X127035029Y-85670905D01*
X126955448Y-85675471D01*
X126878468Y-85670882D01*
X126807687Y-85657519D01*
X126740545Y-85636576D01*
X126681468Y-85610930D01*
X126624861Y-85578850D01*
X126577946Y-85545619D01*
X126535644Y-85509220D01*
X126498787Y-85471760D01*
X126484938Y-85471760D01*
X126484938Y-85647261D01*
X126535432Y-85687019D01*
X126586067Y-85722060D01*
X126638985Y-85752685D01*
X126695317Y-85778267D01*
X126750131Y-85797053D01*
X126812474Y-85812461D01*
X126878508Y-85822171D01*
X126955448Y-85825625D01*
G37*
G36*
X126955448Y-86270147D02*
G01*
X127026787Y-86266926D01*
X127094361Y-86257453D01*
X127159209Y-86242063D01*
X127216519Y-86222318D01*
X127273697Y-86196006D01*
X127326495Y-86165428D01*
X127376724Y-86130679D01*
X127425957Y-86091783D01*
X127425957Y-85916282D01*
X127412108Y-85916282D01*
X127375837Y-85953411D01*
X127332223Y-85990868D01*
X127284080Y-86024880D01*
X127229427Y-86055452D01*
X127168621Y-86081925D01*
X127103678Y-86102511D01*
X127035029Y-86115427D01*
X126955448Y-86119993D01*
X126878468Y-86115404D01*
X126807687Y-86102041D01*
X126740545Y-86081098D01*
X126681468Y-86055452D01*
X126624861Y-86023371D01*
X126577946Y-85990141D01*
X126535644Y-85953742D01*
X126498787Y-85916282D01*
X126484938Y-85916282D01*
X126484938Y-86091783D01*
X126535432Y-86131541D01*
X126586067Y-86166582D01*
X126638985Y-86197207D01*
X126695317Y-86222789D01*
X126750131Y-86241575D01*
X126812474Y-86256983D01*
X126878508Y-86266693D01*
X126955448Y-86270147D01*
G37*
G36*
X128255219Y-69630215D02*
G01*
X128294296Y-69642375D01*
X128329629Y-69662884D01*
X128360462Y-69692598D01*
X128384952Y-69730591D01*
X128405000Y-69781075D01*
X128417051Y-69837580D01*
X128421413Y-69906823D01*
X128417145Y-69972089D01*
X128405213Y-70026630D01*
X128385469Y-70075925D01*
X128360462Y-70115321D01*
X128328985Y-70147489D01*
X128292629Y-70170544D01*
X128251985Y-70184658D01*
X128207615Y-70189436D01*
X128165532Y-70185535D01*
X128128825Y-70174306D01*
X128096441Y-70155969D01*
X128068734Y-70130919D01*
X128043703Y-70096790D01*
X128021471Y-70051720D01*
X128018607Y-70051720D01*
X127997649Y-70090441D01*
X127974860Y-70119995D01*
X127950305Y-70141864D01*
X127921985Y-70158237D01*
X127891799Y-70167975D01*
X127859092Y-70171271D01*
X127821761Y-70166929D01*
X127787456Y-70154046D01*
X127757052Y-70133218D01*
X127731036Y-70104336D01*
X127711024Y-70069785D01*
X127694149Y-70023724D01*
X127683844Y-69972425D01*
X127680115Y-69909217D01*
X127800450Y-69909217D01*
X127803090Y-69935821D01*
X127810438Y-69957109D01*
X127822120Y-69974228D01*
X127837947Y-69987383D01*
X127856921Y-69995362D01*
X127879993Y-69998164D01*
X127908045Y-69995906D01*
X127931712Y-69989530D01*
X127954025Y-69978840D01*
X127978600Y-69962303D01*
X127960050Y-69913277D01*
X127946244Y-69881477D01*
X127929978Y-69853689D01*
X127925222Y-69848479D01*
X128084773Y-69848479D01*
X128103366Y-69894599D01*
X128120035Y-69934563D01*
X128144471Y-69978157D01*
X128162137Y-69998164D01*
X128183599Y-70008903D01*
X128215949Y-70012995D01*
X128239756Y-70010435D01*
X128256341Y-70003677D01*
X128270175Y-69992968D01*
X128282286Y-69979058D01*
X128290562Y-69964330D01*
X128296476Y-69947215D01*
X128301050Y-69915414D01*
X128297511Y-69882162D01*
X128287519Y-69854852D01*
X128271344Y-69832195D01*
X128249712Y-69814924D01*
X128223608Y-69804373D01*
X128191714Y-69800651D01*
X128159790Y-69804347D01*
X128131063Y-69815226D01*
X128105220Y-69831198D01*
X128084773Y-69848479D01*
X127925222Y-69848479D01*
X127914102Y-69836298D01*
X127894589Y-69825587D01*
X127868111Y-69821723D01*
X127850174Y-69824368D01*
X127834344Y-69832220D01*
X127819983Y-69845872D01*
X127809442Y-69862956D01*
X127802816Y-69883754D01*
X127800450Y-69909217D01*
X127680115Y-69909217D01*
X127680087Y-69908746D01*
X127684126Y-69848387D01*
X127695560Y-69796590D01*
X127714210Y-69749764D01*
X127736763Y-69714097D01*
X127766161Y-69683562D01*
X127798142Y-69662464D01*
X127833536Y-69649564D01*
X127871488Y-69645239D01*
X127906351Y-69648071D01*
X127938383Y-69656367D01*
X127968128Y-69670072D01*
X127994183Y-69689518D01*
X128018780Y-69718014D01*
X128041945Y-69757609D01*
X128044766Y-69757609D01*
X128065394Y-69716483D01*
X128087974Y-69684349D01*
X128112384Y-69659814D01*
X128141003Y-69641408D01*
X128174397Y-69630098D01*
X128213812Y-69626133D01*
X128255219Y-69630215D01*
G37*
G36*
X128405000Y-70457346D02*
G01*
X128405000Y-70288086D01*
X128216249Y-70288086D01*
X128216249Y-70457346D01*
X128405000Y-70457346D01*
G37*
G36*
X128255219Y-70559608D02*
G01*
X128294296Y-70571768D01*
X128329629Y-70592277D01*
X128360462Y-70621990D01*
X128384952Y-70659984D01*
X128405000Y-70710467D01*
X128417051Y-70766973D01*
X128421413Y-70836216D01*
X128417145Y-70901481D01*
X128405213Y-70956023D01*
X128385469Y-71005318D01*
X128360462Y-71044714D01*
X128328985Y-71076882D01*
X128292629Y-71099937D01*
X128251985Y-71114051D01*
X128207615Y-71118829D01*
X128165532Y-71114927D01*
X128128825Y-71103699D01*
X128096441Y-71085362D01*
X128068734Y-71060312D01*
X128043703Y-71026183D01*
X128021471Y-70981113D01*
X128018607Y-70981113D01*
X127997649Y-71019834D01*
X127974860Y-71049388D01*
X127950305Y-71071257D01*
X127921985Y-71087630D01*
X127891799Y-71097368D01*
X127859092Y-71100664D01*
X127821761Y-71096322D01*
X127787456Y-71083438D01*
X127757052Y-71062611D01*
X127731036Y-71033729D01*
X127711024Y-70999178D01*
X127694149Y-70953117D01*
X127683844Y-70901818D01*
X127680115Y-70838609D01*
X127800450Y-70838609D01*
X127803090Y-70865214D01*
X127810438Y-70886502D01*
X127822120Y-70903621D01*
X127837947Y-70916776D01*
X127856921Y-70924754D01*
X127879993Y-70927557D01*
X127908045Y-70925298D01*
X127931712Y-70918923D01*
X127954025Y-70908233D01*
X127978600Y-70891696D01*
X127960050Y-70842670D01*
X127946244Y-70810870D01*
X127929978Y-70783082D01*
X127925222Y-70777872D01*
X128084773Y-70777872D01*
X128103366Y-70823991D01*
X128120035Y-70863956D01*
X128144471Y-70907549D01*
X128162137Y-70927557D01*
X128183599Y-70938296D01*
X128215949Y-70942388D01*
X128239756Y-70939828D01*
X128256341Y-70933070D01*
X128270175Y-70922361D01*
X128282286Y-70908451D01*
X128290562Y-70893723D01*
X128296476Y-70876607D01*
X128301050Y-70844807D01*
X128297511Y-70811555D01*
X128287519Y-70784245D01*
X128271344Y-70761587D01*
X128249712Y-70744317D01*
X128223608Y-70733766D01*
X128191714Y-70730043D01*
X128159790Y-70733740D01*
X128131063Y-70744619D01*
X128105220Y-70760591D01*
X128084773Y-70777872D01*
X127925222Y-70777872D01*
X127914102Y-70765691D01*
X127894589Y-70754980D01*
X127868111Y-70751116D01*
X127850174Y-70753761D01*
X127834344Y-70761613D01*
X127819983Y-70775265D01*
X127809442Y-70792349D01*
X127802816Y-70813147D01*
X127800450Y-70838609D01*
X127680115Y-70838609D01*
X127680087Y-70838139D01*
X127684126Y-70777780D01*
X127695560Y-70725983D01*
X127714210Y-70679157D01*
X127736763Y-70643490D01*
X127766161Y-70612955D01*
X127798142Y-70591857D01*
X127833536Y-70578957D01*
X127871488Y-70574632D01*
X127906351Y-70577464D01*
X127938383Y-70585760D01*
X127968128Y-70599465D01*
X127994183Y-70618911D01*
X128018780Y-70647407D01*
X128041945Y-70687002D01*
X128044766Y-70687002D01*
X128065394Y-70645876D01*
X128087974Y-70613742D01*
X128112384Y-70589207D01*
X128141003Y-70570801D01*
X128174397Y-70559491D01*
X128213812Y-70555526D01*
X128255219Y-70559608D01*
G37*
G36*
X128165727Y-71728166D02*
G01*
X128219663Y-71723345D01*
X128268480Y-71709274D01*
X128298628Y-71694558D01*
X128325771Y-71675737D01*
X128350204Y-71652598D01*
X128380053Y-71612231D01*
X128402777Y-71563907D01*
X128412675Y-71529156D01*
X128419100Y-71487395D01*
X128421413Y-71437432D01*
X128417468Y-71360891D01*
X128407692Y-71300912D01*
X128392987Y-71246516D01*
X128378114Y-71206494D01*
X128221720Y-71206494D01*
X128221720Y-71222736D01*
X128239714Y-71252870D01*
X128260658Y-71296852D01*
X128277926Y-71348271D01*
X128282884Y-71375187D01*
X128284637Y-71406358D01*
X128282979Y-71434528D01*
X128277712Y-71466112D01*
X128267671Y-71495732D01*
X128252708Y-71517788D01*
X128237473Y-71530647D01*
X128220737Y-71540270D01*
X128201409Y-71546130D01*
X128173549Y-71548391D01*
X128149996Y-71545695D01*
X128130892Y-71538090D01*
X128114661Y-71526159D01*
X128101998Y-71511077D01*
X128088940Y-71484824D01*
X128081268Y-71452263D01*
X128076737Y-71392980D01*
X128078270Y-71354122D01*
X128082807Y-71316727D01*
X128095886Y-71252400D01*
X128095886Y-71237098D01*
X127693764Y-71237098D01*
X127693764Y-71708547D01*
X127825069Y-71708547D01*
X127825069Y-71405888D01*
X127947826Y-71405888D01*
X127946159Y-71440082D01*
X127945432Y-71470899D01*
X127948096Y-71520952D01*
X127955733Y-71565574D01*
X127969029Y-71607134D01*
X127987491Y-71642596D01*
X128006971Y-71667616D01*
X128030332Y-71688557D01*
X128057973Y-71705684D01*
X128088240Y-71717770D01*
X128123823Y-71725442D01*
X128165727Y-71728166D01*
G37*
G36*
X127693764Y-72441282D02*
G01*
X128405000Y-72196453D01*
X128405000Y-72009968D01*
X127693764Y-71765139D01*
X127693764Y-71950684D01*
X128175729Y-72105583D01*
X127693764Y-72260524D01*
X127693764Y-72441282D01*
G37*
G36*
X128032969Y-73414956D02*
G01*
X128032969Y-72827760D01*
X127909870Y-72827760D01*
X127909870Y-73414956D01*
X128032969Y-73414956D01*
G37*
G36*
X128270959Y-73414956D02*
G01*
X128270959Y-72827760D01*
X128147861Y-72827760D01*
X128147861Y-73414956D01*
X128270959Y-73414956D01*
G37*
G36*
X128165727Y-74387775D02*
G01*
X128219663Y-74382955D01*
X128268480Y-74368883D01*
X128298628Y-74354167D01*
X128325771Y-74335346D01*
X128350204Y-74312207D01*
X128380053Y-74271840D01*
X128402777Y-74223516D01*
X128412675Y-74188765D01*
X128419100Y-74147004D01*
X128421413Y-74097041D01*
X128417468Y-74020500D01*
X128407692Y-73960521D01*
X128392987Y-73906126D01*
X128378114Y-73866103D01*
X128221720Y-73866103D01*
X128221720Y-73882345D01*
X128239714Y-73912479D01*
X128260658Y-73956461D01*
X128277926Y-74007880D01*
X128282884Y-74034797D01*
X128284637Y-74065967D01*
X128282979Y-74094137D01*
X128277712Y-74125721D01*
X128267671Y-74155341D01*
X128252708Y-74177397D01*
X128237473Y-74190256D01*
X128220737Y-74199879D01*
X128201409Y-74205739D01*
X128173549Y-74208001D01*
X128149996Y-74205305D01*
X128130892Y-74197700D01*
X128114661Y-74185768D01*
X128101998Y-74170686D01*
X128088940Y-74144433D01*
X128081268Y-74111873D01*
X128076737Y-74052589D01*
X128078270Y-74013731D01*
X128082807Y-73976336D01*
X128095886Y-73912009D01*
X128095886Y-73896707D01*
X127693764Y-73896707D01*
X127693764Y-74368157D01*
X127825069Y-74368157D01*
X127825069Y-74065497D01*
X127947826Y-74065497D01*
X127946159Y-74099691D01*
X127945432Y-74130508D01*
X127948096Y-74180561D01*
X127955733Y-74225183D01*
X127969029Y-74266744D01*
X127987491Y-74302205D01*
X128006971Y-74327225D01*
X128030332Y-74348166D01*
X128057973Y-74365293D01*
X128088240Y-74377379D01*
X128123823Y-74385051D01*
X128165727Y-74387775D01*
G37*
G36*
X127693764Y-75100891D02*
G01*
X128405000Y-74856062D01*
X128405000Y-74669577D01*
X127693764Y-74424748D01*
X127693764Y-74610293D01*
X128175729Y-74765192D01*
X127693764Y-74920133D01*
X127693764Y-75100891D01*
G37*
G36*
X127660938Y-75857476D02*
G01*
X128560924Y-75573923D01*
X128560924Y-75436676D01*
X127660938Y-75718820D01*
X127660938Y-75857476D01*
G37*
G36*
X128601957Y-76638809D02*
G01*
X128601957Y-76463351D01*
X128552724Y-76424455D01*
X128502495Y-76389706D01*
X128449697Y-76359128D01*
X128392519Y-76332816D01*
X128335625Y-76313088D01*
X128270617Y-76297639D01*
X128202821Y-76288194D01*
X128131448Y-76284987D01*
X128054506Y-76288430D01*
X127988474Y-76298109D01*
X127926129Y-76313549D01*
X127871317Y-76332345D01*
X127814983Y-76357917D01*
X127762067Y-76388509D01*
X127711430Y-76423584D01*
X127660938Y-76463351D01*
X127660938Y-76638809D01*
X127674787Y-76638809D01*
X127711644Y-76601349D01*
X127753946Y-76564950D01*
X127800857Y-76531754D01*
X127857468Y-76499682D01*
X127916544Y-76474026D01*
X127983687Y-76453050D01*
X128054466Y-76439719D01*
X128131448Y-76435141D01*
X128211031Y-76439697D01*
X128279678Y-76452580D01*
X128344622Y-76473199D01*
X128405427Y-76499682D01*
X128459762Y-76530521D01*
X128507966Y-76564437D01*
X128551780Y-76601737D01*
X128588108Y-76638809D01*
X128601957Y-76638809D01*
G37*
G36*
X128191116Y-77254558D02*
G01*
X128241494Y-77249600D01*
X128286218Y-77235195D01*
X128313432Y-77220304D01*
X128337707Y-77201497D01*
X128359308Y-77178519D01*
X128385588Y-77137988D01*
X128405384Y-77089785D01*
X128417066Y-77035880D01*
X128421413Y-76965704D01*
X128417651Y-76885537D01*
X128407521Y-76822987D01*
X128391984Y-76766496D01*
X128376405Y-76726132D01*
X128221720Y-76726132D01*
X128221720Y-76743357D01*
X128245046Y-76784896D01*
X128265958Y-76835382D01*
X128280268Y-76887491D01*
X128284637Y-76931766D01*
X128280063Y-76987930D01*
X128272507Y-77016429D01*
X128259974Y-77038879D01*
X128246449Y-77053515D01*
X128230183Y-77064909D01*
X128210391Y-77071964D01*
X128180088Y-77074740D01*
X128150668Y-77070923D01*
X128130977Y-77060849D01*
X128116301Y-77044937D01*
X128106058Y-77024047D01*
X128099803Y-76999797D01*
X128096869Y-76969038D01*
X128095886Y-76912618D01*
X128095886Y-76882014D01*
X127972787Y-76882014D01*
X127972787Y-76910224D01*
X127969881Y-76969978D01*
X127965330Y-76996017D01*
X127958298Y-77016396D01*
X127947209Y-77033586D01*
X127932738Y-77046273D01*
X127914450Y-77054097D01*
X127888328Y-77057045D01*
X127868022Y-77054372D01*
X127852852Y-77047000D01*
X127840571Y-77035731D01*
X127831352Y-77022124D01*
X127824253Y-77003964D01*
X127819769Y-76981989D01*
X127816863Y-76942751D01*
X127818399Y-76916421D01*
X127823103Y-76889195D01*
X127838832Y-76836109D01*
X127858665Y-76794007D01*
X127877044Y-76761523D01*
X127877044Y-76746691D01*
X127724924Y-76746691D01*
X127710407Y-76786926D01*
X127694662Y-76845897D01*
X127683744Y-76908849D01*
X127680087Y-76973355D01*
X127683054Y-77034771D01*
X127691114Y-77083588D01*
X127705026Y-77127827D01*
X127723128Y-77163174D01*
X127748978Y-77195292D01*
X127780318Y-77217714D01*
X127816682Y-77231218D01*
X127858494Y-77235879D01*
X127897783Y-77231871D01*
X127932950Y-77220170D01*
X127964923Y-77200702D01*
X127991809Y-77174790D01*
X128011355Y-77144243D01*
X128023993Y-77108207D01*
X128030575Y-77108207D01*
X128043483Y-77157703D01*
X128055090Y-77181027D01*
X128073104Y-77204805D01*
X128094030Y-77224189D01*
X128121147Y-77240453D01*
X128152346Y-77250832D01*
X128191116Y-77254558D01*
G37*
G36*
X127986178Y-77335827D02*
G01*
X128024662Y-77343264D01*
X128055580Y-77354618D01*
X128084250Y-77370914D01*
X128108760Y-77390325D01*
X128129524Y-77412961D01*
X128147403Y-77442136D01*
X128159957Y-77474425D01*
X128167270Y-77508719D01*
X128169745Y-77544950D01*
X128166303Y-77591461D01*
X128157093Y-77626460D01*
X128142190Y-77659439D01*
X128120463Y-77697498D01*
X128165218Y-77688706D01*
X128199109Y-77675486D01*
X128228219Y-77656968D01*
X128251511Y-77634838D01*
X128268674Y-77609461D01*
X128280833Y-77578888D01*
X128287770Y-77545929D01*
X128290108Y-77511483D01*
X128287934Y-77470365D01*
X128282500Y-77443351D01*
X128268224Y-77405310D01*
X128268224Y-77391462D01*
X128409359Y-77391462D01*
X128417053Y-77439761D01*
X128421413Y-77509559D01*
X128417796Y-77575148D01*
X128407689Y-77630331D01*
X128391963Y-77676683D01*
X128369288Y-77719940D01*
X128341186Y-77757776D01*
X128307418Y-77790719D01*
X128269649Y-77817356D01*
X128226622Y-77839225D01*
X128177652Y-77856244D01*
X128126801Y-77867701D01*
X128071414Y-77874816D01*
X128010999Y-77877273D01*
X127950406Y-77874707D01*
X127899104Y-77867541D01*
X127855844Y-77856457D01*
X127814574Y-77839917D01*
X127779894Y-77819565D01*
X127750954Y-77795507D01*
X127729132Y-77771113D01*
X127711383Y-77743664D01*
X127697568Y-77712800D01*
X127684671Y-77662362D01*
X127680087Y-77602311D01*
X127680167Y-77601370D01*
X127800450Y-77601370D01*
X127802167Y-77619019D01*
X127807203Y-77635051D01*
X127815919Y-77649554D01*
X127829429Y-77663048D01*
X127853503Y-77678137D01*
X127888585Y-77690531D01*
X127929049Y-77697637D01*
X127984841Y-77700362D01*
X128014547Y-77699635D01*
X128029763Y-77698909D01*
X128041090Y-77664715D01*
X128046646Y-77623383D01*
X128045266Y-77600075D01*
X128041346Y-77579828D01*
X128034102Y-77561302D01*
X128023010Y-77544950D01*
X128007610Y-77531513D01*
X127987021Y-77520801D01*
X127962871Y-77514383D01*
X127929831Y-77511953D01*
X127898324Y-77514172D01*
X127870462Y-77520544D01*
X127845554Y-77530713D01*
X127829429Y-77541616D01*
X127815486Y-77556233D01*
X127806989Y-77570510D01*
X127802068Y-77585848D01*
X127800450Y-77601370D01*
X127680167Y-77601370D01*
X127685156Y-77542566D01*
X127699706Y-77490411D01*
X127723376Y-77443644D01*
X127753818Y-77405781D01*
X127791652Y-77374993D01*
X127835883Y-77352010D01*
X127884563Y-77337945D01*
X127938551Y-77333118D01*
X127986178Y-77335827D01*
G37*
G36*
X128405000Y-78525848D02*
G01*
X128405000Y-78326924D01*
X128171540Y-78181557D01*
X128206375Y-78155740D01*
X128405000Y-78155740D01*
X128405000Y-77988361D01*
X127660938Y-77988361D01*
X127660938Y-78155740D01*
X128078447Y-78155740D01*
X127868838Y-78314486D01*
X127868838Y-78511956D01*
X128099904Y-78324060D01*
X128405000Y-78525848D01*
G37*
G36*
X127660938Y-79278244D02*
G01*
X128560924Y-78994690D01*
X128560924Y-78857444D01*
X127660938Y-79139587D01*
X127660938Y-79278244D01*
G37*
G36*
X128601957Y-80059577D02*
G01*
X128601957Y-79884119D01*
X128552724Y-79845222D01*
X128502495Y-79810474D01*
X128449697Y-79779896D01*
X128392519Y-79753583D01*
X128335625Y-79733856D01*
X128270617Y-79718406D01*
X128202821Y-79708962D01*
X128131448Y-79705754D01*
X128054506Y-79709197D01*
X127988474Y-79718876D01*
X127926129Y-79734317D01*
X127871317Y-79753113D01*
X127814983Y-79778685D01*
X127762067Y-79809277D01*
X127711430Y-79844352D01*
X127660938Y-79884119D01*
X127660938Y-80059577D01*
X127674787Y-80059577D01*
X127711644Y-80022117D01*
X127753946Y-79985718D01*
X127800857Y-79952521D01*
X127857468Y-79920450D01*
X127916544Y-79894794D01*
X127983687Y-79873818D01*
X128054466Y-79860487D01*
X128131448Y-79855909D01*
X128211031Y-79860464D01*
X128279678Y-79873348D01*
X128344622Y-79893967D01*
X128405427Y-79920450D01*
X128459762Y-79951289D01*
X128507966Y-79985205D01*
X128551780Y-80022504D01*
X128588108Y-80059577D01*
X128601957Y-80059577D01*
G37*
G36*
X128191116Y-80675325D02*
G01*
X128241494Y-80670367D01*
X128286218Y-80655963D01*
X128313432Y-80641072D01*
X128337707Y-80622265D01*
X128359308Y-80599286D01*
X128385588Y-80558756D01*
X128405384Y-80510553D01*
X128417066Y-80456648D01*
X128421413Y-80386471D01*
X128417651Y-80306304D01*
X128407521Y-80243754D01*
X128391984Y-80187264D01*
X128376405Y-80146900D01*
X128221720Y-80146900D01*
X128221720Y-80164125D01*
X128245046Y-80205664D01*
X128265958Y-80256150D01*
X128280268Y-80308259D01*
X128284637Y-80352534D01*
X128280063Y-80408698D01*
X128272507Y-80437197D01*
X128259974Y-80459647D01*
X128246449Y-80474282D01*
X128230183Y-80485677D01*
X128210391Y-80492732D01*
X128180088Y-80495508D01*
X128150668Y-80491691D01*
X128130977Y-80481616D01*
X128116301Y-80465705D01*
X128106058Y-80444815D01*
X128099803Y-80420565D01*
X128096869Y-80389805D01*
X128095886Y-80333385D01*
X128095886Y-80302782D01*
X127972787Y-80302782D01*
X127972787Y-80330992D01*
X127969881Y-80390746D01*
X127965330Y-80416785D01*
X127958298Y-80437164D01*
X127947209Y-80454354D01*
X127932738Y-80467041D01*
X127914450Y-80474864D01*
X127888328Y-80477812D01*
X127868022Y-80475140D01*
X127852852Y-80467768D01*
X127840571Y-80456498D01*
X127831352Y-80442892D01*
X127824253Y-80424732D01*
X127819769Y-80402756D01*
X127816863Y-80363519D01*
X127818399Y-80337188D01*
X127823103Y-80309962D01*
X127838832Y-80256876D01*
X127858665Y-80214775D01*
X127877044Y-80182290D01*
X127877044Y-80167459D01*
X127724924Y-80167459D01*
X127710407Y-80207693D01*
X127694662Y-80266664D01*
X127683744Y-80329616D01*
X127680087Y-80394122D01*
X127683054Y-80455538D01*
X127691114Y-80504355D01*
X127705026Y-80548595D01*
X127723128Y-80583942D01*
X127748978Y-80616059D01*
X127780318Y-80638481D01*
X127816682Y-80651986D01*
X127858494Y-80656647D01*
X127897783Y-80652639D01*
X127932950Y-80640938D01*
X127964923Y-80621470D01*
X127991809Y-80595558D01*
X128011355Y-80565011D01*
X128023993Y-80528975D01*
X128030575Y-80528975D01*
X128043483Y-80578471D01*
X128055090Y-80601795D01*
X128073104Y-80625573D01*
X128094030Y-80644956D01*
X128121147Y-80661220D01*
X128152346Y-80671599D01*
X128191116Y-80675325D01*
G37*
G36*
X128139606Y-80762649D02*
G01*
X128211205Y-80773505D01*
X128256044Y-80785863D01*
X128294255Y-80801726D01*
X128326695Y-80820821D01*
X128355742Y-80845046D01*
X128379291Y-80873272D01*
X128397733Y-80905921D01*
X128410414Y-80941462D01*
X128418522Y-80983488D01*
X128421413Y-81033165D01*
X128418515Y-81083137D01*
X128410401Y-81125279D01*
X128397733Y-81160795D01*
X128379334Y-81193511D01*
X128356093Y-81221583D01*
X128327678Y-81245467D01*
X128295497Y-81264514D01*
X128257228Y-81280385D01*
X128211932Y-81292783D01*
X128139638Y-81303645D01*
X128050280Y-81307615D01*
X127963471Y-81303737D01*
X127891961Y-81293040D01*
X127846986Y-81280820D01*
X127808694Y-81265026D01*
X127776215Y-81245938D01*
X127746794Y-81221730D01*
X127722941Y-81193718D01*
X127704236Y-81161521D01*
X127691370Y-81126439D01*
X127683070Y-81084117D01*
X127680087Y-81033165D01*
X127811392Y-81033165D01*
X127814730Y-81057122D01*
X127824320Y-81076748D01*
X127840489Y-81093119D01*
X127864777Y-81106554D01*
X127901758Y-81117220D01*
X127960933Y-81125144D01*
X128050280Y-81128310D01*
X128138924Y-81125128D01*
X128198223Y-81117129D01*
X128235782Y-81106298D01*
X128260609Y-81092715D01*
X128277050Y-81076315D01*
X128286746Y-81056813D01*
X128290108Y-81033165D01*
X128286745Y-81009494D01*
X128277048Y-80989971D01*
X128260606Y-80973550D01*
X128235782Y-80959948D01*
X128198244Y-80949126D01*
X128139210Y-80941148D01*
X128051220Y-80937978D01*
X127961224Y-80941181D01*
X127901786Y-80949187D01*
X127864777Y-80959948D01*
X127840451Y-80973498D01*
X127824283Y-80989890D01*
X127814715Y-81009430D01*
X127811392Y-81033165D01*
X127680087Y-81033165D01*
X127682884Y-80985106D01*
X127690799Y-80943650D01*
X127703296Y-80907844D01*
X127721451Y-80874884D01*
X127744827Y-80846349D01*
X127773821Y-80821804D01*
X127807254Y-80801733D01*
X127845463Y-80785490D01*
X127889098Y-80773248D01*
X127959524Y-80762636D01*
X128050750Y-80758673D01*
X128139606Y-80762649D01*
G37*
G36*
X128405000Y-81946615D02*
G01*
X128405000Y-81747692D01*
X128171540Y-81602325D01*
X128206375Y-81576508D01*
X128405000Y-81576508D01*
X128405000Y-81409128D01*
X127660938Y-81409128D01*
X127660938Y-81576508D01*
X128078447Y-81576508D01*
X127868838Y-81735254D01*
X127868838Y-81932724D01*
X128099904Y-81744828D01*
X128405000Y-81946615D01*
G37*
G36*
X128153332Y-82930462D02*
G01*
X128153332Y-82685633D01*
X128396793Y-82685633D01*
X128396793Y-82559372D01*
X128153332Y-82559372D01*
X128153332Y-82314543D01*
X128030233Y-82314543D01*
X128030233Y-82559372D01*
X127786772Y-82559372D01*
X127786772Y-82685633D01*
X128030233Y-82685633D01*
X128030233Y-82930462D01*
X128153332Y-82930462D01*
G37*
G36*
X128191116Y-83887509D02*
G01*
X128241494Y-83882552D01*
X128286218Y-83868147D01*
X128313432Y-83853256D01*
X128337707Y-83834449D01*
X128359308Y-83811471D01*
X128385588Y-83770940D01*
X128405384Y-83722737D01*
X128417066Y-83668832D01*
X128421413Y-83598656D01*
X128417651Y-83518489D01*
X128407521Y-83455938D01*
X128391984Y-83399448D01*
X128376405Y-83359084D01*
X128221720Y-83359084D01*
X128221720Y-83376309D01*
X128245046Y-83417848D01*
X128265958Y-83468334D01*
X128280268Y-83520443D01*
X128284637Y-83564718D01*
X128280063Y-83620882D01*
X128272507Y-83649381D01*
X128259974Y-83671831D01*
X128246449Y-83686467D01*
X128230183Y-83697861D01*
X128210391Y-83704916D01*
X128180088Y-83707692D01*
X128150668Y-83703875D01*
X128130977Y-83693800D01*
X128116301Y-83677889D01*
X128106058Y-83656999D01*
X128099803Y-83632749D01*
X128096869Y-83601990D01*
X128095886Y-83545569D01*
X128095886Y-83514966D01*
X127972787Y-83514966D01*
X127972787Y-83543176D01*
X127969881Y-83602930D01*
X127965330Y-83628969D01*
X127958298Y-83649348D01*
X127947209Y-83666538D01*
X127932738Y-83679225D01*
X127914450Y-83687049D01*
X127888328Y-83689996D01*
X127868022Y-83687324D01*
X127852852Y-83679952D01*
X127840571Y-83668683D01*
X127831352Y-83655076D01*
X127824253Y-83636916D01*
X127819769Y-83614941D01*
X127816863Y-83575703D01*
X127818399Y-83549373D01*
X127823103Y-83522147D01*
X127838832Y-83469060D01*
X127858665Y-83426959D01*
X127877044Y-83394475D01*
X127877044Y-83379643D01*
X127724924Y-83379643D01*
X127710407Y-83419878D01*
X127694662Y-83478848D01*
X127683744Y-83541800D01*
X127680087Y-83606307D01*
X127683054Y-83667723D01*
X127691114Y-83716539D01*
X127705026Y-83760779D01*
X127723128Y-83796126D01*
X127748978Y-83828243D01*
X127780318Y-83850665D01*
X127816682Y-83864170D01*
X127858494Y-83868831D01*
X127897783Y-83864823D01*
X127932950Y-83853122D01*
X127964923Y-83833654D01*
X127991809Y-83807742D01*
X128011355Y-83777195D01*
X128023993Y-83741159D01*
X128030575Y-83741159D01*
X128043483Y-83790655D01*
X128055090Y-83813979D01*
X128073104Y-83837757D01*
X128094030Y-83857141D01*
X128121147Y-83873404D01*
X128152346Y-83883784D01*
X128191116Y-83887509D01*
G37*
G36*
X127986178Y-83968779D02*
G01*
X128024662Y-83976216D01*
X128055580Y-83987570D01*
X128084250Y-84003866D01*
X128108760Y-84023277D01*
X128129524Y-84045913D01*
X128147403Y-84075088D01*
X128159957Y-84107377D01*
X128167270Y-84141671D01*
X128169745Y-84177902D01*
X128166303Y-84224413D01*
X128157093Y-84259412D01*
X128142190Y-84292391D01*
X128120463Y-84330450D01*
X128165218Y-84321658D01*
X128199109Y-84308438D01*
X128228219Y-84289920D01*
X128251511Y-84267789D01*
X128268674Y-84242413D01*
X128280833Y-84211840D01*
X128287770Y-84178880D01*
X128290108Y-84144435D01*
X128287934Y-84103317D01*
X128282500Y-84076303D01*
X128268224Y-84038262D01*
X128268224Y-84024414D01*
X128409359Y-84024414D01*
X128417053Y-84072713D01*
X128421413Y-84142511D01*
X128417796Y-84208100D01*
X128407689Y-84263283D01*
X128391963Y-84309634D01*
X128369288Y-84352892D01*
X128341186Y-84390727D01*
X128307418Y-84423671D01*
X128269649Y-84450308D01*
X128226622Y-84472177D01*
X128177652Y-84489196D01*
X128126801Y-84500653D01*
X128071414Y-84507768D01*
X128010999Y-84510225D01*
X127950406Y-84507659D01*
X127899104Y-84500493D01*
X127855844Y-84489409D01*
X127814574Y-84472869D01*
X127779894Y-84452517D01*
X127750954Y-84428459D01*
X127729132Y-84404064D01*
X127711383Y-84376616D01*
X127697568Y-84345752D01*
X127684671Y-84295314D01*
X127680087Y-84235262D01*
X127680167Y-84234322D01*
X127800450Y-84234322D01*
X127802167Y-84251971D01*
X127807203Y-84268003D01*
X127815919Y-84282506D01*
X127829429Y-84296000D01*
X127853503Y-84311089D01*
X127888585Y-84323483D01*
X127929049Y-84330589D01*
X127984841Y-84333314D01*
X128014547Y-84332587D01*
X128029763Y-84331860D01*
X128041090Y-84297666D01*
X128046646Y-84256334D01*
X128045266Y-84233026D01*
X128041346Y-84212780D01*
X128034102Y-84194254D01*
X128023010Y-84177902D01*
X128007610Y-84164464D01*
X127987021Y-84153752D01*
X127962871Y-84147335D01*
X127929831Y-84144905D01*
X127898324Y-84147124D01*
X127870462Y-84153496D01*
X127845554Y-84163665D01*
X127829429Y-84174568D01*
X127815486Y-84189184D01*
X127806989Y-84203462D01*
X127802068Y-84218799D01*
X127800450Y-84234322D01*
X127680167Y-84234322D01*
X127685156Y-84175518D01*
X127699706Y-84123363D01*
X127723376Y-84076596D01*
X127753818Y-84038732D01*
X127791652Y-84007944D01*
X127835883Y-83984962D01*
X127884563Y-83970897D01*
X127938551Y-83966070D01*
X127986178Y-83968779D01*
G37*
G36*
X128405000Y-85158800D02*
G01*
X128405000Y-84959876D01*
X128171540Y-84814509D01*
X128206375Y-84788692D01*
X128405000Y-84788692D01*
X128405000Y-84621313D01*
X127660938Y-84621313D01*
X127660938Y-84788692D01*
X128078447Y-84788692D01*
X127868838Y-84947438D01*
X127868838Y-85144908D01*
X128099904Y-84957012D01*
X128405000Y-85158800D01*
G37*
G36*
X128131448Y-85539080D02*
G01*
X128202787Y-85535859D01*
X128270361Y-85526385D01*
X128335209Y-85510996D01*
X128392519Y-85491251D01*
X128449697Y-85464938D01*
X128502495Y-85434360D01*
X128552724Y-85399612D01*
X128601957Y-85360715D01*
X128601957Y-85185214D01*
X128588108Y-85185214D01*
X128551837Y-85222343D01*
X128508223Y-85259800D01*
X128460080Y-85293813D01*
X128405427Y-85324384D01*
X128344621Y-85350857D01*
X128279678Y-85371443D01*
X128211029Y-85384359D01*
X128131448Y-85388925D01*
X128054468Y-85384337D01*
X127983687Y-85370973D01*
X127916545Y-85350030D01*
X127857468Y-85324384D01*
X127800861Y-85292304D01*
X127753946Y-85259073D01*
X127711644Y-85222675D01*
X127674787Y-85185214D01*
X127660938Y-85185214D01*
X127660938Y-85360715D01*
X127711432Y-85400473D01*
X127762067Y-85435515D01*
X127814985Y-85466139D01*
X127871317Y-85491721D01*
X127926131Y-85510507D01*
X127988474Y-85525915D01*
X128054508Y-85535626D01*
X128131448Y-85539080D01*
G37*
G36*
X128131448Y-85983602D02*
G01*
X128202787Y-85980381D01*
X128270361Y-85970907D01*
X128335209Y-85955518D01*
X128392519Y-85935773D01*
X128449697Y-85909460D01*
X128502495Y-85878882D01*
X128552724Y-85844134D01*
X128601957Y-85805237D01*
X128601957Y-85629736D01*
X128588108Y-85629736D01*
X128551837Y-85666865D01*
X128508223Y-85704322D01*
X128460080Y-85738335D01*
X128405427Y-85768906D01*
X128344621Y-85795379D01*
X128279678Y-85815965D01*
X128211029Y-85828881D01*
X128131448Y-85833447D01*
X128054468Y-85828859D01*
X127983687Y-85815495D01*
X127916545Y-85794552D01*
X127857468Y-85768906D01*
X127800861Y-85736826D01*
X127753946Y-85703595D01*
X127711644Y-85667197D01*
X127674787Y-85629736D01*
X127660938Y-85629736D01*
X127660938Y-85805237D01*
X127711432Y-85844995D01*
X127762067Y-85880036D01*
X127814985Y-85910661D01*
X127871317Y-85936243D01*
X127926131Y-85955029D01*
X127988474Y-85970437D01*
X128054508Y-85980148D01*
X128131448Y-85983602D01*
G37*
D12*
X159451561Y-76482411D02*
X159499180Y-76577649D01*
X159499180Y-76577649D02*
X159499180Y-76720506D01*
X159499180Y-76720506D02*
X159451561Y-76863363D01*
X159451561Y-76863363D02*
X159356323Y-76958601D01*
X159356323Y-76958601D02*
X159261085Y-77006220D01*
X159261085Y-77006220D02*
X159070609Y-77053839D01*
X159070609Y-77053839D02*
X158927752Y-77053839D01*
X158927752Y-77053839D02*
X158737276Y-77006220D01*
X158737276Y-77006220D02*
X158642038Y-76958601D01*
X158642038Y-76958601D02*
X158546800Y-76863363D01*
X158546800Y-76863363D02*
X158499180Y-76720506D01*
X158499180Y-76720506D02*
X158499180Y-76625268D01*
X158499180Y-76625268D02*
X158546800Y-76482411D01*
X158546800Y-76482411D02*
X158594419Y-76434792D01*
X158594419Y-76434792D02*
X158927752Y-76434792D01*
X158927752Y-76434792D02*
X158927752Y-76625268D01*
X158499180Y-76006220D02*
X159499180Y-76006220D01*
X159499180Y-76006220D02*
X158499180Y-75434792D01*
X158499180Y-75434792D02*
X159499180Y-75434792D01*
X158499180Y-74958601D02*
X159499180Y-74958601D01*
X159499180Y-74958601D02*
X159499180Y-74720506D01*
X159499180Y-74720506D02*
X159451561Y-74577649D01*
X159451561Y-74577649D02*
X159356323Y-74482411D01*
X159356323Y-74482411D02*
X159261085Y-74434792D01*
X159261085Y-74434792D02*
X159070609Y-74387173D01*
X159070609Y-74387173D02*
X158927752Y-74387173D01*
X158927752Y-74387173D02*
X158737276Y-74434792D01*
X158737276Y-74434792D02*
X158642038Y-74482411D01*
X158642038Y-74482411D02*
X158546800Y-74577649D01*
X158546800Y-74577649D02*
X158499180Y-74720506D01*
X158499180Y-74720506D02*
X158499180Y-74958601D01*
X159546800Y-73244316D02*
X158261085Y-74101458D01*
X159022990Y-72577649D02*
X158975371Y-72434792D01*
X158975371Y-72434792D02*
X158927752Y-72387173D01*
X158927752Y-72387173D02*
X158832514Y-72339554D01*
X158832514Y-72339554D02*
X158689657Y-72339554D01*
X158689657Y-72339554D02*
X158594419Y-72387173D01*
X158594419Y-72387173D02*
X158546800Y-72434792D01*
X158546800Y-72434792D02*
X158499180Y-72530030D01*
X158499180Y-72530030D02*
X158499180Y-72910982D01*
X158499180Y-72910982D02*
X159499180Y-72910982D01*
X159499180Y-72910982D02*
X159499180Y-72577649D01*
X159499180Y-72577649D02*
X159451561Y-72482411D01*
X159451561Y-72482411D02*
X159403942Y-72434792D01*
X159403942Y-72434792D02*
X159308704Y-72387173D01*
X159308704Y-72387173D02*
X159213466Y-72387173D01*
X159213466Y-72387173D02*
X159118228Y-72434792D01*
X159118228Y-72434792D02*
X159070609Y-72482411D01*
X159070609Y-72482411D02*
X159022990Y-72577649D01*
X159022990Y-72577649D02*
X159022990Y-72910982D01*
X158499180Y-71434792D02*
X158499180Y-71910982D01*
X158499180Y-71910982D02*
X159499180Y-71910982D01*
X158499180Y-71101458D02*
X159499180Y-71101458D01*
X158499180Y-70530030D02*
X159070609Y-70958601D01*
X159499180Y-70530030D02*
X158927752Y-71101458D01*
X117208180Y-84534344D02*
X116208180Y-84201011D01*
X116208180Y-84201011D02*
X117208180Y-83867678D01*
X116208180Y-83534344D02*
X116874847Y-83534344D01*
X117208180Y-83534344D02*
X117160561Y-83581963D01*
X117160561Y-83581963D02*
X117112942Y-83534344D01*
X117112942Y-83534344D02*
X117160561Y-83486725D01*
X117160561Y-83486725D02*
X117208180Y-83534344D01*
X117208180Y-83534344D02*
X117112942Y-83534344D01*
X116874847Y-83058154D02*
X116208180Y-83058154D01*
X116779609Y-83058154D02*
X116827228Y-83010535D01*
X116827228Y-83010535D02*
X116874847Y-82915297D01*
X116874847Y-82915297D02*
X116874847Y-82772440D01*
X116874847Y-82772440D02*
X116827228Y-82677202D01*
X116827228Y-82677202D02*
X116731990Y-82629583D01*
X116731990Y-82629583D02*
X116208180Y-82629583D01*
X117255800Y-81439107D02*
X115970085Y-82296249D01*
X116208180Y-80534345D02*
X116684371Y-80867678D01*
X116208180Y-81105773D02*
X117208180Y-81105773D01*
X117208180Y-81105773D02*
X117208180Y-80724821D01*
X117208180Y-80724821D02*
X117160561Y-80629583D01*
X117160561Y-80629583D02*
X117112942Y-80581964D01*
X117112942Y-80581964D02*
X117017704Y-80534345D01*
X117017704Y-80534345D02*
X116874847Y-80534345D01*
X116874847Y-80534345D02*
X116779609Y-80581964D01*
X116779609Y-80581964D02*
X116731990Y-80629583D01*
X116731990Y-80629583D02*
X116684371Y-80724821D01*
X116684371Y-80724821D02*
X116684371Y-81105773D01*
X116731990Y-80105773D02*
X116731990Y-79772440D01*
X116208180Y-79629583D02*
X116208180Y-80105773D01*
X116208180Y-80105773D02*
X117208180Y-80105773D01*
X117208180Y-80105773D02*
X117208180Y-79629583D01*
X116208180Y-79201011D02*
X117208180Y-79201011D01*
X117208180Y-79201011D02*
X117208180Y-78962916D01*
X117208180Y-78962916D02*
X117160561Y-78820059D01*
X117160561Y-78820059D02*
X117065323Y-78724821D01*
X117065323Y-78724821D02*
X116970085Y-78677202D01*
X116970085Y-78677202D02*
X116779609Y-78629583D01*
X116779609Y-78629583D02*
X116636752Y-78629583D01*
X116636752Y-78629583D02*
X116446276Y-78677202D01*
X116446276Y-78677202D02*
X116351038Y-78724821D01*
X116351038Y-78724821D02*
X116255800Y-78820059D01*
X116255800Y-78820059D02*
X116208180Y-78962916D01*
X116208180Y-78962916D02*
X116208180Y-79201011D01*
M02*
