%TF.GenerationSoftware,KiCad,Pcbnew,9.0.6*%
%TF.CreationDate,2025-11-17T11:05:30-05:00*%
%TF.ProjectId,vldo,766c646f-2e6b-4696-9361-645f70636258,0.1*%
%TF.SameCoordinates,Original*%
%TF.FileFunction,Drillmap*%
%TF.FilePolarity,Positive*%
%FSLAX45Y45*%
G04 Gerber Fmt 4.5, Leading zero omitted, Abs format (unit mm)*
G04 Created by KiCad (PCBNEW 9.0.6) date 2025-11-17 11:05:30*
%MOMM*%
%LPD*%
G01*
G04 APERTURE LIST*
%ADD10C,0.304800*%
%ADD11C,0.200000*%
%ADD12C,0.100000*%
%ADD13C,0.110000*%
%ADD14C,0.180000*%
G04 APERTURE END LIST*
D10*
X10731500Y-6858000D02*
X16954500Y-6858000D01*
X16954500Y-8699500D01*
X10731500Y-8699500D01*
X10731500Y-6858000D01*
D11*
D12*
X10843500Y-6931900D02*
X10873500Y-6961900D01*
X10873500Y-6931900D02*
X10843500Y-6961900D01*
X10843500Y-7605000D02*
X10873500Y-7635000D01*
X10873500Y-7605000D02*
X10843500Y-7635000D01*
X11034000Y-6931900D02*
X11064000Y-6961900D01*
X11064000Y-6931900D02*
X11034000Y-6961900D01*
X11034000Y-7605000D02*
X11064000Y-7635000D01*
X11064000Y-7605000D02*
X11034000Y-7635000D01*
X11224500Y-6931900D02*
X11254500Y-6961900D01*
X11254500Y-6931900D02*
X11224500Y-6961900D01*
X11224500Y-7605000D02*
X11254500Y-7635000D01*
X11254500Y-7605000D02*
X11224500Y-7635000D01*
X11415000Y-6931900D02*
X11445000Y-6961900D01*
X11445000Y-6931900D02*
X11415000Y-6961900D01*
X11415000Y-7605000D02*
X11445000Y-7635000D01*
X11445000Y-7605000D02*
X11415000Y-7635000D01*
X11605500Y-6931900D02*
X11635500Y-6961900D01*
X11635500Y-6931900D02*
X11605500Y-6961900D01*
X11605500Y-7605000D02*
X11635500Y-7635000D01*
X11635500Y-7605000D02*
X11605500Y-7635000D01*
X11605500Y-7795500D02*
X11635500Y-7825500D01*
X11635500Y-7795500D02*
X11605500Y-7825500D01*
X11796000Y-6931900D02*
X11826000Y-6961900D01*
X11826000Y-6931900D02*
X11796000Y-6961900D01*
X11986500Y-6931900D02*
X12016500Y-6961900D01*
X12016500Y-6931900D02*
X11986500Y-6961900D01*
X12164300Y-7528800D02*
X12194300Y-7558800D01*
X12194300Y-7528800D02*
X12164300Y-7558800D01*
X12164300Y-7909800D02*
X12194300Y-7939800D01*
X12194300Y-7909800D02*
X12164300Y-7939800D01*
X12177000Y-6931900D02*
X12207000Y-6961900D01*
X12207000Y-6931900D02*
X12177000Y-6961900D01*
X12227800Y-8316200D02*
X12257800Y-8346200D01*
X12257800Y-8316200D02*
X12227800Y-8346200D01*
X12367500Y-6931900D02*
X12397500Y-6961900D01*
X12397500Y-6931900D02*
X12367500Y-6961900D01*
X12405600Y-7465300D02*
X12435600Y-7495300D01*
X12435600Y-7465300D02*
X12405600Y-7495300D01*
X12558000Y-6931900D02*
X12588000Y-6961900D01*
X12588000Y-6931900D02*
X12558000Y-6961900D01*
X12596100Y-7465300D02*
X12626100Y-7495300D01*
X12626100Y-7465300D02*
X12596100Y-7495300D01*
X12659600Y-7655800D02*
X12689600Y-7685800D01*
X12689600Y-7655800D02*
X12659600Y-7685800D01*
X12659600Y-7846300D02*
X12689600Y-7876300D01*
X12689600Y-7846300D02*
X12659600Y-7876300D01*
X12748500Y-6931900D02*
X12778500Y-6961900D01*
X12778500Y-6931900D02*
X12748500Y-6961900D01*
X12773900Y-7160500D02*
X12803900Y-7190500D01*
X12803900Y-7160500D02*
X12773900Y-7190500D01*
X12824700Y-7376400D02*
X12854700Y-7406400D01*
X12854700Y-7376400D02*
X12824700Y-7406400D01*
X12939000Y-6931900D02*
X12969000Y-6961900D01*
X12969000Y-6931900D02*
X12939000Y-6961900D01*
X13116800Y-8316200D02*
X13146800Y-8346200D01*
X13146800Y-8316200D02*
X13116800Y-8346200D01*
X13129500Y-6931900D02*
X13159500Y-6961900D01*
X13159500Y-6931900D02*
X13129500Y-6961900D01*
X13154900Y-7376400D02*
X13184900Y-7406400D01*
X13184900Y-7376400D02*
X13154900Y-7406400D01*
X13180300Y-7820900D02*
X13210300Y-7850900D01*
X13210300Y-7820900D02*
X13180300Y-7850900D01*
X13256500Y-8138400D02*
X13286500Y-8168400D01*
X13286500Y-8138400D02*
X13256500Y-8168400D01*
X13281900Y-7820900D02*
X13311900Y-7850900D01*
X13311900Y-7820900D02*
X13281900Y-7850900D01*
X13320000Y-6931900D02*
X13350000Y-6961900D01*
X13350000Y-6931900D02*
X13320000Y-6961900D01*
X13358100Y-7401800D02*
X13388100Y-7431800D01*
X13388100Y-7401800D02*
X13358100Y-7431800D01*
X13384254Y-7885154D02*
X13414254Y-7915154D01*
X13414254Y-7885154D02*
X13384254Y-7915154D01*
X13472400Y-7935200D02*
X13502400Y-7965200D01*
X13502400Y-7935200D02*
X13472400Y-7965200D01*
X13510500Y-6931900D02*
X13540500Y-6961900D01*
X13540500Y-6931900D02*
X13510500Y-6961900D01*
X13510500Y-7401800D02*
X13540500Y-7431800D01*
X13540500Y-7401800D02*
X13510500Y-7431800D01*
X13701000Y-6931900D02*
X13731000Y-6961900D01*
X13731000Y-6931900D02*
X13701000Y-6961900D01*
X13891500Y-6931900D02*
X13921500Y-6961900D01*
X13921500Y-6931900D02*
X13891500Y-6961900D01*
X14082000Y-6931900D02*
X14112000Y-6961900D01*
X14112000Y-6931900D02*
X14082000Y-6961900D01*
X14272500Y-6931900D02*
X14302500Y-6961900D01*
X14302500Y-6931900D02*
X14272500Y-6961900D01*
X14285200Y-8284700D02*
X14315200Y-8314700D01*
X14315200Y-8284700D02*
X14285200Y-8314700D01*
X14463000Y-6931900D02*
X14493000Y-6961900D01*
X14493000Y-6931900D02*
X14463000Y-6961900D01*
X14653500Y-6931900D02*
X14683500Y-6961900D01*
X14683500Y-6931900D02*
X14653500Y-6961900D01*
X14780500Y-7478000D02*
X14810500Y-7508000D01*
X14810500Y-7478000D02*
X14780500Y-7508000D01*
X14780500Y-7605000D02*
X14810500Y-7635000D01*
X14810500Y-7605000D02*
X14780500Y-7635000D01*
X14780500Y-7732000D02*
X14810500Y-7762000D01*
X14810500Y-7732000D02*
X14780500Y-7762000D01*
X14780500Y-7859000D02*
X14810500Y-7889000D01*
X14810500Y-7859000D02*
X14780500Y-7889000D01*
X14844000Y-6931900D02*
X14874000Y-6961900D01*
X14874000Y-6931900D02*
X14844000Y-6961900D01*
X14907500Y-7478000D02*
X14937500Y-7508000D01*
X14937500Y-7478000D02*
X14907500Y-7508000D01*
X14907500Y-7605000D02*
X14937500Y-7635000D01*
X14937500Y-7605000D02*
X14907500Y-7635000D01*
X14907500Y-7732000D02*
X14937500Y-7762000D01*
X14937500Y-7732000D02*
X14907500Y-7762000D01*
X14907500Y-7859000D02*
X14937500Y-7889000D01*
X14937500Y-7859000D02*
X14907500Y-7889000D01*
X15034500Y-6931900D02*
X15064500Y-6961900D01*
X15064500Y-6931900D02*
X15034500Y-6961900D01*
X15034500Y-7478000D02*
X15064500Y-7508000D01*
X15064500Y-7478000D02*
X15034500Y-7508000D01*
X15034500Y-7605000D02*
X15064500Y-7635000D01*
X15064500Y-7605000D02*
X15034500Y-7635000D01*
X15034500Y-7732000D02*
X15064500Y-7762000D01*
X15064500Y-7732000D02*
X15034500Y-7762000D01*
X15034500Y-7859000D02*
X15064500Y-7889000D01*
X15064500Y-7859000D02*
X15034500Y-7889000D01*
X15161500Y-7478000D02*
X15191500Y-7508000D01*
X15191500Y-7478000D02*
X15161500Y-7508000D01*
X15161500Y-7605000D02*
X15191500Y-7635000D01*
X15191500Y-7605000D02*
X15161500Y-7635000D01*
X15161500Y-7732000D02*
X15191500Y-7762000D01*
X15191500Y-7732000D02*
X15161500Y-7762000D01*
X15161500Y-7859000D02*
X15191500Y-7889000D01*
X15191500Y-7859000D02*
X15161500Y-7889000D01*
X15225000Y-6931900D02*
X15255000Y-6961900D01*
X15255000Y-6931900D02*
X15225000Y-6961900D01*
X15415500Y-6931900D02*
X15445500Y-6961900D01*
X15445500Y-6931900D02*
X15415500Y-6961900D01*
X15606000Y-6931900D02*
X15636000Y-6961900D01*
X15636000Y-6931900D02*
X15606000Y-6961900D01*
X15796500Y-6931900D02*
X15826500Y-6961900D01*
X15826500Y-6931900D02*
X15796500Y-6961900D01*
X15987000Y-6931900D02*
X16017000Y-6961900D01*
X16017000Y-6931900D02*
X15987000Y-6961900D01*
X16050500Y-7605000D02*
X16080500Y-7635000D01*
X16080500Y-7605000D02*
X16050500Y-7635000D01*
X16177500Y-6931900D02*
X16207500Y-6961900D01*
X16207500Y-6931900D02*
X16177500Y-6961900D01*
X16241000Y-7605000D02*
X16271000Y-7635000D01*
X16271000Y-7605000D02*
X16241000Y-7635000D01*
X16368000Y-6931900D02*
X16398000Y-6961900D01*
X16398000Y-6931900D02*
X16368000Y-6961900D01*
X16431500Y-7605000D02*
X16461500Y-7635000D01*
X16461500Y-7605000D02*
X16431500Y-7635000D01*
X16558500Y-6931900D02*
X16588500Y-6961900D01*
X16588500Y-6931900D02*
X16558500Y-6961900D01*
X16622000Y-7605000D02*
X16652000Y-7635000D01*
X16652000Y-7605000D02*
X16622000Y-7635000D01*
X16749000Y-6931900D02*
X16779000Y-6961900D01*
X16779000Y-6931900D02*
X16749000Y-6961900D01*
X16749000Y-7097000D02*
X16779000Y-7127000D01*
X16779000Y-7097000D02*
X16749000Y-7127000D01*
X16749000Y-7287500D02*
X16779000Y-7317500D01*
X16779000Y-7287500D02*
X16749000Y-7317500D01*
X16749000Y-7478000D02*
X16779000Y-7508000D01*
X16779000Y-7478000D02*
X16749000Y-7508000D01*
X12039000Y-7239000D02*
G75*
G02*
X11964000Y-7239000I-37500J0D01*
G01*
X11964000Y-7239000D02*
G75*
G02*
X12039000Y-7239000I37500J0D01*
G01*
X12166000Y-7239000D02*
G75*
G02*
X12091000Y-7239000I-37500J0D01*
G01*
X12091000Y-7239000D02*
G75*
G02*
X12166000Y-7239000I37500J0D01*
G01*
X12293000Y-7239000D02*
G75*
G02*
X12218000Y-7239000I-37500J0D01*
G01*
X12218000Y-7239000D02*
G75*
G02*
X12293000Y-7239000I37500J0D01*
G01*
X13055000Y-7175500D02*
G75*
G02*
X12980000Y-7175500I-37500J0D01*
G01*
X12980000Y-7175500D02*
G75*
G02*
X13055000Y-7175500I37500J0D01*
G01*
X13055000Y-7302500D02*
G75*
G02*
X12980000Y-7302500I-37500J0D01*
G01*
X12980000Y-7302500D02*
G75*
G02*
X13055000Y-7302500I37500J0D01*
G01*
X13055000Y-7429500D02*
G75*
G02*
X12980000Y-7429500I-37500J0D01*
G01*
X12980000Y-7429500D02*
G75*
G02*
X13055000Y-7429500I37500J0D01*
G01*
X13118500Y-7937500D02*
G75*
G02*
X13043500Y-7937500I-37500J0D01*
G01*
X13043500Y-7937500D02*
G75*
G02*
X13118500Y-7937500I37500J0D01*
G01*
X13118500Y-8064500D02*
G75*
G02*
X13043500Y-8064500I-37500J0D01*
G01*
X13043500Y-8064500D02*
G75*
G02*
X13118500Y-8064500I37500J0D01*
G01*
X13118500Y-8191500D02*
G75*
G02*
X13043500Y-8191500I-37500J0D01*
G01*
X13043500Y-8191500D02*
G75*
G02*
X13118500Y-8191500I37500J0D01*
G01*
D13*
X13863475Y-7361800D02*
X13863475Y-7471800D01*
X13808475Y-7416800D02*
X13918475Y-7416800D01*
X13863475Y-7615800D02*
X13863475Y-7725800D01*
X13808475Y-7670800D02*
X13918475Y-7670800D01*
X13863475Y-7869800D02*
X13863475Y-7979800D01*
X13808475Y-7924800D02*
X13918475Y-7924800D01*
D14*
X11239640Y-7401640D02*
X11239640Y-7274360D01*
X11112360Y-7274360D01*
X11112360Y-7401640D01*
X11239640Y-7401640D01*
X11239640Y-8191640D02*
X11239640Y-8064360D01*
X11112360Y-8064360D01*
X11112360Y-8191640D01*
X11239640Y-8191640D01*
X16446640Y-7401640D02*
X16446640Y-7274360D01*
X16319360Y-7274360D01*
X16319360Y-7401640D01*
X16446640Y-7401640D01*
X16446640Y-8191640D02*
X16446640Y-8064360D01*
X16319360Y-8064360D01*
X16319360Y-8191640D01*
X16446640Y-8191640D01*
D11*
X10977037Y-9026224D02*
X10977037Y-8826224D01*
X10977037Y-8826224D02*
X11024656Y-8826224D01*
X11024656Y-8826224D02*
X11053227Y-8835748D01*
X11053227Y-8835748D02*
X11072275Y-8854795D01*
X11072275Y-8854795D02*
X11081799Y-8873843D01*
X11081799Y-8873843D02*
X11091323Y-8911938D01*
X11091323Y-8911938D02*
X11091323Y-8940510D01*
X11091323Y-8940510D02*
X11081799Y-8978605D01*
X11081799Y-8978605D02*
X11072275Y-8997652D01*
X11072275Y-8997652D02*
X11053227Y-9016700D01*
X11053227Y-9016700D02*
X11024656Y-9026224D01*
X11024656Y-9026224D02*
X10977037Y-9026224D01*
X11177037Y-9026224D02*
X11177037Y-8892890D01*
X11177037Y-8930986D02*
X11186561Y-8911938D01*
X11186561Y-8911938D02*
X11196084Y-8902414D01*
X11196084Y-8902414D02*
X11215132Y-8892890D01*
X11215132Y-8892890D02*
X11234180Y-8892890D01*
X11300846Y-9026224D02*
X11300846Y-8892890D01*
X11300846Y-8826224D02*
X11291322Y-8835748D01*
X11291322Y-8835748D02*
X11300846Y-8845271D01*
X11300846Y-8845271D02*
X11310370Y-8835748D01*
X11310370Y-8835748D02*
X11300846Y-8826224D01*
X11300846Y-8826224D02*
X11300846Y-8845271D01*
X11424656Y-9026224D02*
X11405608Y-9016700D01*
X11405608Y-9016700D02*
X11396084Y-8997652D01*
X11396084Y-8997652D02*
X11396084Y-8826224D01*
X11529418Y-9026224D02*
X11510370Y-9016700D01*
X11510370Y-9016700D02*
X11500846Y-8997652D01*
X11500846Y-8997652D02*
X11500846Y-8826224D01*
X11757989Y-9026224D02*
X11757989Y-8826224D01*
X11757989Y-8826224D02*
X11824656Y-8969081D01*
X11824656Y-8969081D02*
X11891322Y-8826224D01*
X11891322Y-8826224D02*
X11891322Y-9026224D01*
X12072275Y-9026224D02*
X12072275Y-8921462D01*
X12072275Y-8921462D02*
X12062751Y-8902414D01*
X12062751Y-8902414D02*
X12043703Y-8892890D01*
X12043703Y-8892890D02*
X12005608Y-8892890D01*
X12005608Y-8892890D02*
X11986561Y-8902414D01*
X12072275Y-9016700D02*
X12053227Y-9026224D01*
X12053227Y-9026224D02*
X12005608Y-9026224D01*
X12005608Y-9026224D02*
X11986561Y-9016700D01*
X11986561Y-9016700D02*
X11977037Y-8997652D01*
X11977037Y-8997652D02*
X11977037Y-8978605D01*
X11977037Y-8978605D02*
X11986561Y-8959557D01*
X11986561Y-8959557D02*
X12005608Y-8950033D01*
X12005608Y-8950033D02*
X12053227Y-8950033D01*
X12053227Y-8950033D02*
X12072275Y-8940510D01*
X12167513Y-8892890D02*
X12167513Y-9092890D01*
X12167513Y-8902414D02*
X12186561Y-8892890D01*
X12186561Y-8892890D02*
X12224656Y-8892890D01*
X12224656Y-8892890D02*
X12243703Y-8902414D01*
X12243703Y-8902414D02*
X12253227Y-8911938D01*
X12253227Y-8911938D02*
X12262751Y-8930986D01*
X12262751Y-8930986D02*
X12262751Y-8988129D01*
X12262751Y-8988129D02*
X12253227Y-9007176D01*
X12253227Y-9007176D02*
X12243703Y-9016700D01*
X12243703Y-9016700D02*
X12224656Y-9026224D01*
X12224656Y-9026224D02*
X12186561Y-9026224D01*
X12186561Y-9026224D02*
X12167513Y-9016700D01*
X12348465Y-9007176D02*
X12357989Y-9016700D01*
X12357989Y-9016700D02*
X12348465Y-9026224D01*
X12348465Y-9026224D02*
X12338942Y-9016700D01*
X12338942Y-9016700D02*
X12348465Y-9007176D01*
X12348465Y-9007176D02*
X12348465Y-9026224D01*
X12348465Y-8902414D02*
X12357989Y-8911938D01*
X12357989Y-8911938D02*
X12348465Y-8921462D01*
X12348465Y-8921462D02*
X12338942Y-8911938D01*
X12338942Y-8911938D02*
X12348465Y-8902414D01*
X12348465Y-8902414D02*
X12348465Y-8921462D01*
D12*
X10686260Y-9339740D02*
X10716260Y-9369740D01*
X10716260Y-9339740D02*
X10686260Y-9369740D01*
D11*
X11015132Y-9246224D02*
X11034180Y-9246224D01*
X11034180Y-9246224D02*
X11053227Y-9255748D01*
X11053227Y-9255748D02*
X11062751Y-9265271D01*
X11062751Y-9265271D02*
X11072275Y-9284319D01*
X11072275Y-9284319D02*
X11081799Y-9322414D01*
X11081799Y-9322414D02*
X11081799Y-9370033D01*
X11081799Y-9370033D02*
X11072275Y-9408129D01*
X11072275Y-9408129D02*
X11062751Y-9427176D01*
X11062751Y-9427176D02*
X11053227Y-9436700D01*
X11053227Y-9436700D02*
X11034180Y-9446224D01*
X11034180Y-9446224D02*
X11015132Y-9446224D01*
X11015132Y-9446224D02*
X10996084Y-9436700D01*
X10996084Y-9436700D02*
X10986561Y-9427176D01*
X10986561Y-9427176D02*
X10977037Y-9408129D01*
X10977037Y-9408129D02*
X10967513Y-9370033D01*
X10967513Y-9370033D02*
X10967513Y-9322414D01*
X10967513Y-9322414D02*
X10977037Y-9284319D01*
X10977037Y-9284319D02*
X10986561Y-9265271D01*
X10986561Y-9265271D02*
X10996084Y-9255748D01*
X10996084Y-9255748D02*
X11015132Y-9246224D01*
X11167513Y-9427176D02*
X11177037Y-9436700D01*
X11177037Y-9436700D02*
X11167513Y-9446224D01*
X11167513Y-9446224D02*
X11157989Y-9436700D01*
X11157989Y-9436700D02*
X11167513Y-9427176D01*
X11167513Y-9427176D02*
X11167513Y-9446224D01*
X11243703Y-9246224D02*
X11367513Y-9246224D01*
X11367513Y-9246224D02*
X11300846Y-9322414D01*
X11300846Y-9322414D02*
X11329418Y-9322414D01*
X11329418Y-9322414D02*
X11348465Y-9331938D01*
X11348465Y-9331938D02*
X11357989Y-9341462D01*
X11357989Y-9341462D02*
X11367513Y-9360510D01*
X11367513Y-9360510D02*
X11367513Y-9408129D01*
X11367513Y-9408129D02*
X11357989Y-9427176D01*
X11357989Y-9427176D02*
X11348465Y-9436700D01*
X11348465Y-9436700D02*
X11329418Y-9446224D01*
X11329418Y-9446224D02*
X11272275Y-9446224D01*
X11272275Y-9446224D02*
X11253227Y-9436700D01*
X11253227Y-9436700D02*
X11243703Y-9427176D01*
X11491322Y-9246224D02*
X11510370Y-9246224D01*
X11510370Y-9246224D02*
X11529418Y-9255748D01*
X11529418Y-9255748D02*
X11538942Y-9265271D01*
X11538942Y-9265271D02*
X11548465Y-9284319D01*
X11548465Y-9284319D02*
X11557989Y-9322414D01*
X11557989Y-9322414D02*
X11557989Y-9370033D01*
X11557989Y-9370033D02*
X11548465Y-9408129D01*
X11548465Y-9408129D02*
X11538942Y-9427176D01*
X11538942Y-9427176D02*
X11529418Y-9436700D01*
X11529418Y-9436700D02*
X11510370Y-9446224D01*
X11510370Y-9446224D02*
X11491322Y-9446224D01*
X11491322Y-9446224D02*
X11472275Y-9436700D01*
X11472275Y-9436700D02*
X11462751Y-9427176D01*
X11462751Y-9427176D02*
X11453227Y-9408129D01*
X11453227Y-9408129D02*
X11443703Y-9370033D01*
X11443703Y-9370033D02*
X11443703Y-9322414D01*
X11443703Y-9322414D02*
X11453227Y-9284319D01*
X11453227Y-9284319D02*
X11462751Y-9265271D01*
X11462751Y-9265271D02*
X11472275Y-9255748D01*
X11472275Y-9255748D02*
X11491322Y-9246224D01*
X11681799Y-9246224D02*
X11700846Y-9246224D01*
X11700846Y-9246224D02*
X11719894Y-9255748D01*
X11719894Y-9255748D02*
X11729418Y-9265271D01*
X11729418Y-9265271D02*
X11738942Y-9284319D01*
X11738942Y-9284319D02*
X11748465Y-9322414D01*
X11748465Y-9322414D02*
X11748465Y-9370033D01*
X11748465Y-9370033D02*
X11738942Y-9408129D01*
X11738942Y-9408129D02*
X11729418Y-9427176D01*
X11729418Y-9427176D02*
X11719894Y-9436700D01*
X11719894Y-9436700D02*
X11700846Y-9446224D01*
X11700846Y-9446224D02*
X11681799Y-9446224D01*
X11681799Y-9446224D02*
X11662751Y-9436700D01*
X11662751Y-9436700D02*
X11653227Y-9427176D01*
X11653227Y-9427176D02*
X11643703Y-9408129D01*
X11643703Y-9408129D02*
X11634180Y-9370033D01*
X11634180Y-9370033D02*
X11634180Y-9322414D01*
X11634180Y-9322414D02*
X11643703Y-9284319D01*
X11643703Y-9284319D02*
X11653227Y-9265271D01*
X11653227Y-9265271D02*
X11662751Y-9255748D01*
X11662751Y-9255748D02*
X11681799Y-9246224D01*
X11834180Y-9446224D02*
X11834180Y-9312890D01*
X11834180Y-9331938D02*
X11843703Y-9322414D01*
X11843703Y-9322414D02*
X11862751Y-9312890D01*
X11862751Y-9312890D02*
X11891323Y-9312890D01*
X11891323Y-9312890D02*
X11910370Y-9322414D01*
X11910370Y-9322414D02*
X11919894Y-9341462D01*
X11919894Y-9341462D02*
X11919894Y-9446224D01*
X11919894Y-9341462D02*
X11929418Y-9322414D01*
X11929418Y-9322414D02*
X11948465Y-9312890D01*
X11948465Y-9312890D02*
X11977037Y-9312890D01*
X11977037Y-9312890D02*
X11996084Y-9322414D01*
X11996084Y-9322414D02*
X12005608Y-9341462D01*
X12005608Y-9341462D02*
X12005608Y-9446224D01*
X12100846Y-9446224D02*
X12100846Y-9312890D01*
X12100846Y-9331938D02*
X12110370Y-9322414D01*
X12110370Y-9322414D02*
X12129418Y-9312890D01*
X12129418Y-9312890D02*
X12157989Y-9312890D01*
X12157989Y-9312890D02*
X12177037Y-9322414D01*
X12177037Y-9322414D02*
X12186561Y-9341462D01*
X12186561Y-9341462D02*
X12186561Y-9446224D01*
X12186561Y-9341462D02*
X12196084Y-9322414D01*
X12196084Y-9322414D02*
X12215132Y-9312890D01*
X12215132Y-9312890D02*
X12243703Y-9312890D01*
X12243703Y-9312890D02*
X12262751Y-9322414D01*
X12262751Y-9322414D02*
X12272275Y-9341462D01*
X12272275Y-9341462D02*
X12272275Y-9446224D01*
X12662751Y-9236700D02*
X12491323Y-9493843D01*
X12919894Y-9246224D02*
X12938942Y-9246224D01*
X12938942Y-9246224D02*
X12957989Y-9255748D01*
X12957989Y-9255748D02*
X12967513Y-9265271D01*
X12967513Y-9265271D02*
X12977037Y-9284319D01*
X12977037Y-9284319D02*
X12986561Y-9322414D01*
X12986561Y-9322414D02*
X12986561Y-9370033D01*
X12986561Y-9370033D02*
X12977037Y-9408129D01*
X12977037Y-9408129D02*
X12967513Y-9427176D01*
X12967513Y-9427176D02*
X12957989Y-9436700D01*
X12957989Y-9436700D02*
X12938942Y-9446224D01*
X12938942Y-9446224D02*
X12919894Y-9446224D01*
X12919894Y-9446224D02*
X12900846Y-9436700D01*
X12900846Y-9436700D02*
X12891323Y-9427176D01*
X12891323Y-9427176D02*
X12881799Y-9408129D01*
X12881799Y-9408129D02*
X12872275Y-9370033D01*
X12872275Y-9370033D02*
X12872275Y-9322414D01*
X12872275Y-9322414D02*
X12881799Y-9284319D01*
X12881799Y-9284319D02*
X12891323Y-9265271D01*
X12891323Y-9265271D02*
X12900846Y-9255748D01*
X12900846Y-9255748D02*
X12919894Y-9246224D01*
X13072275Y-9427176D02*
X13081799Y-9436700D01*
X13081799Y-9436700D02*
X13072275Y-9446224D01*
X13072275Y-9446224D02*
X13062751Y-9436700D01*
X13062751Y-9436700D02*
X13072275Y-9427176D01*
X13072275Y-9427176D02*
X13072275Y-9446224D01*
X13205608Y-9246224D02*
X13224656Y-9246224D01*
X13224656Y-9246224D02*
X13243704Y-9255748D01*
X13243704Y-9255748D02*
X13253227Y-9265271D01*
X13253227Y-9265271D02*
X13262751Y-9284319D01*
X13262751Y-9284319D02*
X13272275Y-9322414D01*
X13272275Y-9322414D02*
X13272275Y-9370033D01*
X13272275Y-9370033D02*
X13262751Y-9408129D01*
X13262751Y-9408129D02*
X13253227Y-9427176D01*
X13253227Y-9427176D02*
X13243704Y-9436700D01*
X13243704Y-9436700D02*
X13224656Y-9446224D01*
X13224656Y-9446224D02*
X13205608Y-9446224D01*
X13205608Y-9446224D02*
X13186561Y-9436700D01*
X13186561Y-9436700D02*
X13177037Y-9427176D01*
X13177037Y-9427176D02*
X13167513Y-9408129D01*
X13167513Y-9408129D02*
X13157989Y-9370033D01*
X13157989Y-9370033D02*
X13157989Y-9322414D01*
X13157989Y-9322414D02*
X13167513Y-9284319D01*
X13167513Y-9284319D02*
X13177037Y-9265271D01*
X13177037Y-9265271D02*
X13186561Y-9255748D01*
X13186561Y-9255748D02*
X13205608Y-9246224D01*
X13462751Y-9446224D02*
X13348466Y-9446224D01*
X13405608Y-9446224D02*
X13405608Y-9246224D01*
X13405608Y-9246224D02*
X13386561Y-9274795D01*
X13386561Y-9274795D02*
X13367513Y-9293843D01*
X13367513Y-9293843D02*
X13348466Y-9303367D01*
X13653227Y-9446224D02*
X13538942Y-9446224D01*
X13596085Y-9446224D02*
X13596085Y-9246224D01*
X13596085Y-9246224D02*
X13577037Y-9274795D01*
X13577037Y-9274795D02*
X13557989Y-9293843D01*
X13557989Y-9293843D02*
X13538942Y-9303367D01*
X13767513Y-9331938D02*
X13748466Y-9322414D01*
X13748466Y-9322414D02*
X13738942Y-9312890D01*
X13738942Y-9312890D02*
X13729418Y-9293843D01*
X13729418Y-9293843D02*
X13729418Y-9284319D01*
X13729418Y-9284319D02*
X13738942Y-9265271D01*
X13738942Y-9265271D02*
X13748466Y-9255748D01*
X13748466Y-9255748D02*
X13767513Y-9246224D01*
X13767513Y-9246224D02*
X13805608Y-9246224D01*
X13805608Y-9246224D02*
X13824656Y-9255748D01*
X13824656Y-9255748D02*
X13834180Y-9265271D01*
X13834180Y-9265271D02*
X13843704Y-9284319D01*
X13843704Y-9284319D02*
X13843704Y-9293843D01*
X13843704Y-9293843D02*
X13834180Y-9312890D01*
X13834180Y-9312890D02*
X13824656Y-9322414D01*
X13824656Y-9322414D02*
X13805608Y-9331938D01*
X13805608Y-9331938D02*
X13767513Y-9331938D01*
X13767513Y-9331938D02*
X13748466Y-9341462D01*
X13748466Y-9341462D02*
X13738942Y-9350986D01*
X13738942Y-9350986D02*
X13729418Y-9370033D01*
X13729418Y-9370033D02*
X13729418Y-9408129D01*
X13729418Y-9408129D02*
X13738942Y-9427176D01*
X13738942Y-9427176D02*
X13748466Y-9436700D01*
X13748466Y-9436700D02*
X13767513Y-9446224D01*
X13767513Y-9446224D02*
X13805608Y-9446224D01*
X13805608Y-9446224D02*
X13824656Y-9436700D01*
X13824656Y-9436700D02*
X13834180Y-9427176D01*
X13834180Y-9427176D02*
X13843704Y-9408129D01*
X13843704Y-9408129D02*
X13843704Y-9370033D01*
X13843704Y-9370033D02*
X13834180Y-9350986D01*
X13834180Y-9350986D02*
X13824656Y-9341462D01*
X13824656Y-9341462D02*
X13805608Y-9331938D01*
X13919894Y-9246224D02*
X13919894Y-9284319D01*
X13996085Y-9246224D02*
X13996085Y-9284319D01*
X14291323Y-9522414D02*
X14281799Y-9512890D01*
X14281799Y-9512890D02*
X14262751Y-9484319D01*
X14262751Y-9484319D02*
X14253228Y-9465271D01*
X14253228Y-9465271D02*
X14243704Y-9436700D01*
X14243704Y-9436700D02*
X14234180Y-9389081D01*
X14234180Y-9389081D02*
X14234180Y-9350986D01*
X14234180Y-9350986D02*
X14243704Y-9303367D01*
X14243704Y-9303367D02*
X14253228Y-9274795D01*
X14253228Y-9274795D02*
X14262751Y-9255748D01*
X14262751Y-9255748D02*
X14281799Y-9227176D01*
X14281799Y-9227176D02*
X14291323Y-9217652D01*
X14396085Y-9331938D02*
X14377037Y-9322414D01*
X14377037Y-9322414D02*
X14367513Y-9312890D01*
X14367513Y-9312890D02*
X14357989Y-9293843D01*
X14357989Y-9293843D02*
X14357989Y-9284319D01*
X14357989Y-9284319D02*
X14367513Y-9265271D01*
X14367513Y-9265271D02*
X14377037Y-9255748D01*
X14377037Y-9255748D02*
X14396085Y-9246224D01*
X14396085Y-9246224D02*
X14434180Y-9246224D01*
X14434180Y-9246224D02*
X14453228Y-9255748D01*
X14453228Y-9255748D02*
X14462751Y-9265271D01*
X14462751Y-9265271D02*
X14472275Y-9284319D01*
X14472275Y-9284319D02*
X14472275Y-9293843D01*
X14472275Y-9293843D02*
X14462751Y-9312890D01*
X14462751Y-9312890D02*
X14453228Y-9322414D01*
X14453228Y-9322414D02*
X14434180Y-9331938D01*
X14434180Y-9331938D02*
X14396085Y-9331938D01*
X14396085Y-9331938D02*
X14377037Y-9341462D01*
X14377037Y-9341462D02*
X14367513Y-9350986D01*
X14367513Y-9350986D02*
X14357989Y-9370033D01*
X14357989Y-9370033D02*
X14357989Y-9408129D01*
X14357989Y-9408129D02*
X14367513Y-9427176D01*
X14367513Y-9427176D02*
X14377037Y-9436700D01*
X14377037Y-9436700D02*
X14396085Y-9446224D01*
X14396085Y-9446224D02*
X14434180Y-9446224D01*
X14434180Y-9446224D02*
X14453228Y-9436700D01*
X14453228Y-9436700D02*
X14462751Y-9427176D01*
X14462751Y-9427176D02*
X14472275Y-9408129D01*
X14472275Y-9408129D02*
X14472275Y-9370033D01*
X14472275Y-9370033D02*
X14462751Y-9350986D01*
X14462751Y-9350986D02*
X14453228Y-9341462D01*
X14453228Y-9341462D02*
X14434180Y-9331938D01*
X14596085Y-9246224D02*
X14615132Y-9246224D01*
X14615132Y-9246224D02*
X14634180Y-9255748D01*
X14634180Y-9255748D02*
X14643704Y-9265271D01*
X14643704Y-9265271D02*
X14653228Y-9284319D01*
X14653228Y-9284319D02*
X14662751Y-9322414D01*
X14662751Y-9322414D02*
X14662751Y-9370033D01*
X14662751Y-9370033D02*
X14653228Y-9408129D01*
X14653228Y-9408129D02*
X14643704Y-9427176D01*
X14643704Y-9427176D02*
X14634180Y-9436700D01*
X14634180Y-9436700D02*
X14615132Y-9446224D01*
X14615132Y-9446224D02*
X14596085Y-9446224D01*
X14596085Y-9446224D02*
X14577037Y-9436700D01*
X14577037Y-9436700D02*
X14567513Y-9427176D01*
X14567513Y-9427176D02*
X14557989Y-9408129D01*
X14557989Y-9408129D02*
X14548466Y-9370033D01*
X14548466Y-9370033D02*
X14548466Y-9322414D01*
X14548466Y-9322414D02*
X14557989Y-9284319D01*
X14557989Y-9284319D02*
X14567513Y-9265271D01*
X14567513Y-9265271D02*
X14577037Y-9255748D01*
X14577037Y-9255748D02*
X14596085Y-9246224D01*
X14900847Y-9446224D02*
X14900847Y-9246224D01*
X14986561Y-9446224D02*
X14986561Y-9341462D01*
X14986561Y-9341462D02*
X14977037Y-9322414D01*
X14977037Y-9322414D02*
X14957990Y-9312890D01*
X14957990Y-9312890D02*
X14929418Y-9312890D01*
X14929418Y-9312890D02*
X14910370Y-9322414D01*
X14910370Y-9322414D02*
X14900847Y-9331938D01*
X15110370Y-9446224D02*
X15091323Y-9436700D01*
X15091323Y-9436700D02*
X15081799Y-9427176D01*
X15081799Y-9427176D02*
X15072275Y-9408129D01*
X15072275Y-9408129D02*
X15072275Y-9350986D01*
X15072275Y-9350986D02*
X15081799Y-9331938D01*
X15081799Y-9331938D02*
X15091323Y-9322414D01*
X15091323Y-9322414D02*
X15110370Y-9312890D01*
X15110370Y-9312890D02*
X15138942Y-9312890D01*
X15138942Y-9312890D02*
X15157990Y-9322414D01*
X15157990Y-9322414D02*
X15167513Y-9331938D01*
X15167513Y-9331938D02*
X15177037Y-9350986D01*
X15177037Y-9350986D02*
X15177037Y-9408129D01*
X15177037Y-9408129D02*
X15167513Y-9427176D01*
X15167513Y-9427176D02*
X15157990Y-9436700D01*
X15157990Y-9436700D02*
X15138942Y-9446224D01*
X15138942Y-9446224D02*
X15110370Y-9446224D01*
X15291323Y-9446224D02*
X15272275Y-9436700D01*
X15272275Y-9436700D02*
X15262751Y-9417652D01*
X15262751Y-9417652D02*
X15262751Y-9246224D01*
X15443704Y-9436700D02*
X15424656Y-9446224D01*
X15424656Y-9446224D02*
X15386561Y-9446224D01*
X15386561Y-9446224D02*
X15367513Y-9436700D01*
X15367513Y-9436700D02*
X15357990Y-9417652D01*
X15357990Y-9417652D02*
X15357990Y-9341462D01*
X15357990Y-9341462D02*
X15367513Y-9322414D01*
X15367513Y-9322414D02*
X15386561Y-9312890D01*
X15386561Y-9312890D02*
X15424656Y-9312890D01*
X15424656Y-9312890D02*
X15443704Y-9322414D01*
X15443704Y-9322414D02*
X15453228Y-9341462D01*
X15453228Y-9341462D02*
X15453228Y-9360510D01*
X15453228Y-9360510D02*
X15357990Y-9379557D01*
X15529418Y-9436700D02*
X15548466Y-9446224D01*
X15548466Y-9446224D02*
X15586561Y-9446224D01*
X15586561Y-9446224D02*
X15605609Y-9436700D01*
X15605609Y-9436700D02*
X15615132Y-9417652D01*
X15615132Y-9417652D02*
X15615132Y-9408129D01*
X15615132Y-9408129D02*
X15605609Y-9389081D01*
X15605609Y-9389081D02*
X15586561Y-9379557D01*
X15586561Y-9379557D02*
X15557990Y-9379557D01*
X15557990Y-9379557D02*
X15538942Y-9370033D01*
X15538942Y-9370033D02*
X15529418Y-9350986D01*
X15529418Y-9350986D02*
X15529418Y-9341462D01*
X15529418Y-9341462D02*
X15538942Y-9322414D01*
X15538942Y-9322414D02*
X15557990Y-9312890D01*
X15557990Y-9312890D02*
X15586561Y-9312890D01*
X15586561Y-9312890D02*
X15605609Y-9322414D01*
X15681799Y-9522414D02*
X15691323Y-9512890D01*
X15691323Y-9512890D02*
X15710371Y-9484319D01*
X15710371Y-9484319D02*
X15719894Y-9465271D01*
X15719894Y-9465271D02*
X15729418Y-9436700D01*
X15729418Y-9436700D02*
X15738942Y-9389081D01*
X15738942Y-9389081D02*
X15738942Y-9350986D01*
X15738942Y-9350986D02*
X15729418Y-9303367D01*
X15729418Y-9303367D02*
X15719894Y-9274795D01*
X15719894Y-9274795D02*
X15710371Y-9255748D01*
X15710371Y-9255748D02*
X15691323Y-9227176D01*
X15691323Y-9227176D02*
X15681799Y-9217652D01*
D12*
X10716260Y-9618740D02*
G75*
G02*
X10641260Y-9618740I-37500J0D01*
G01*
X10641260Y-9618740D02*
G75*
G02*
X10716260Y-9618740I37500J0D01*
G01*
D11*
X11015132Y-9510224D02*
X11034180Y-9510224D01*
X11034180Y-9510224D02*
X11053227Y-9519748D01*
X11053227Y-9519748D02*
X11062751Y-9529271D01*
X11062751Y-9529271D02*
X11072275Y-9548319D01*
X11072275Y-9548319D02*
X11081799Y-9586414D01*
X11081799Y-9586414D02*
X11081799Y-9634033D01*
X11081799Y-9634033D02*
X11072275Y-9672129D01*
X11072275Y-9672129D02*
X11062751Y-9691176D01*
X11062751Y-9691176D02*
X11053227Y-9700700D01*
X11053227Y-9700700D02*
X11034180Y-9710224D01*
X11034180Y-9710224D02*
X11015132Y-9710224D01*
X11015132Y-9710224D02*
X10996084Y-9700700D01*
X10996084Y-9700700D02*
X10986561Y-9691176D01*
X10986561Y-9691176D02*
X10977037Y-9672129D01*
X10977037Y-9672129D02*
X10967513Y-9634033D01*
X10967513Y-9634033D02*
X10967513Y-9586414D01*
X10967513Y-9586414D02*
X10977037Y-9548319D01*
X10977037Y-9548319D02*
X10986561Y-9529271D01*
X10986561Y-9529271D02*
X10996084Y-9519748D01*
X10996084Y-9519748D02*
X11015132Y-9510224D01*
X11167513Y-9691176D02*
X11177037Y-9700700D01*
X11177037Y-9700700D02*
X11167513Y-9710224D01*
X11167513Y-9710224D02*
X11157989Y-9700700D01*
X11157989Y-9700700D02*
X11167513Y-9691176D01*
X11167513Y-9691176D02*
X11167513Y-9710224D01*
X11243703Y-9510224D02*
X11377037Y-9510224D01*
X11377037Y-9510224D02*
X11291322Y-9710224D01*
X11548465Y-9510224D02*
X11453227Y-9510224D01*
X11453227Y-9510224D02*
X11443703Y-9605462D01*
X11443703Y-9605462D02*
X11453227Y-9595938D01*
X11453227Y-9595938D02*
X11472275Y-9586414D01*
X11472275Y-9586414D02*
X11519894Y-9586414D01*
X11519894Y-9586414D02*
X11538942Y-9595938D01*
X11538942Y-9595938D02*
X11548465Y-9605462D01*
X11548465Y-9605462D02*
X11557989Y-9624510D01*
X11557989Y-9624510D02*
X11557989Y-9672129D01*
X11557989Y-9672129D02*
X11548465Y-9691176D01*
X11548465Y-9691176D02*
X11538942Y-9700700D01*
X11538942Y-9700700D02*
X11519894Y-9710224D01*
X11519894Y-9710224D02*
X11472275Y-9710224D01*
X11472275Y-9710224D02*
X11453227Y-9700700D01*
X11453227Y-9700700D02*
X11443703Y-9691176D01*
X11681799Y-9510224D02*
X11700846Y-9510224D01*
X11700846Y-9510224D02*
X11719894Y-9519748D01*
X11719894Y-9519748D02*
X11729418Y-9529271D01*
X11729418Y-9529271D02*
X11738942Y-9548319D01*
X11738942Y-9548319D02*
X11748465Y-9586414D01*
X11748465Y-9586414D02*
X11748465Y-9634033D01*
X11748465Y-9634033D02*
X11738942Y-9672129D01*
X11738942Y-9672129D02*
X11729418Y-9691176D01*
X11729418Y-9691176D02*
X11719894Y-9700700D01*
X11719894Y-9700700D02*
X11700846Y-9710224D01*
X11700846Y-9710224D02*
X11681799Y-9710224D01*
X11681799Y-9710224D02*
X11662751Y-9700700D01*
X11662751Y-9700700D02*
X11653227Y-9691176D01*
X11653227Y-9691176D02*
X11643703Y-9672129D01*
X11643703Y-9672129D02*
X11634180Y-9634033D01*
X11634180Y-9634033D02*
X11634180Y-9586414D01*
X11634180Y-9586414D02*
X11643703Y-9548319D01*
X11643703Y-9548319D02*
X11653227Y-9529271D01*
X11653227Y-9529271D02*
X11662751Y-9519748D01*
X11662751Y-9519748D02*
X11681799Y-9510224D01*
X11834180Y-9710224D02*
X11834180Y-9576890D01*
X11834180Y-9595938D02*
X11843703Y-9586414D01*
X11843703Y-9586414D02*
X11862751Y-9576890D01*
X11862751Y-9576890D02*
X11891323Y-9576890D01*
X11891323Y-9576890D02*
X11910370Y-9586414D01*
X11910370Y-9586414D02*
X11919894Y-9605462D01*
X11919894Y-9605462D02*
X11919894Y-9710224D01*
X11919894Y-9605462D02*
X11929418Y-9586414D01*
X11929418Y-9586414D02*
X11948465Y-9576890D01*
X11948465Y-9576890D02*
X11977037Y-9576890D01*
X11977037Y-9576890D02*
X11996084Y-9586414D01*
X11996084Y-9586414D02*
X12005608Y-9605462D01*
X12005608Y-9605462D02*
X12005608Y-9710224D01*
X12100846Y-9710224D02*
X12100846Y-9576890D01*
X12100846Y-9595938D02*
X12110370Y-9586414D01*
X12110370Y-9586414D02*
X12129418Y-9576890D01*
X12129418Y-9576890D02*
X12157989Y-9576890D01*
X12157989Y-9576890D02*
X12177037Y-9586414D01*
X12177037Y-9586414D02*
X12186561Y-9605462D01*
X12186561Y-9605462D02*
X12186561Y-9710224D01*
X12186561Y-9605462D02*
X12196084Y-9586414D01*
X12196084Y-9586414D02*
X12215132Y-9576890D01*
X12215132Y-9576890D02*
X12243703Y-9576890D01*
X12243703Y-9576890D02*
X12262751Y-9586414D01*
X12262751Y-9586414D02*
X12272275Y-9605462D01*
X12272275Y-9605462D02*
X12272275Y-9710224D01*
X12662751Y-9500700D02*
X12491323Y-9757843D01*
X12919894Y-9510224D02*
X12938942Y-9510224D01*
X12938942Y-9510224D02*
X12957989Y-9519748D01*
X12957989Y-9519748D02*
X12967513Y-9529271D01*
X12967513Y-9529271D02*
X12977037Y-9548319D01*
X12977037Y-9548319D02*
X12986561Y-9586414D01*
X12986561Y-9586414D02*
X12986561Y-9634033D01*
X12986561Y-9634033D02*
X12977037Y-9672129D01*
X12977037Y-9672129D02*
X12967513Y-9691176D01*
X12967513Y-9691176D02*
X12957989Y-9700700D01*
X12957989Y-9700700D02*
X12938942Y-9710224D01*
X12938942Y-9710224D02*
X12919894Y-9710224D01*
X12919894Y-9710224D02*
X12900846Y-9700700D01*
X12900846Y-9700700D02*
X12891323Y-9691176D01*
X12891323Y-9691176D02*
X12881799Y-9672129D01*
X12881799Y-9672129D02*
X12872275Y-9634033D01*
X12872275Y-9634033D02*
X12872275Y-9586414D01*
X12872275Y-9586414D02*
X12881799Y-9548319D01*
X12881799Y-9548319D02*
X12891323Y-9529271D01*
X12891323Y-9529271D02*
X12900846Y-9519748D01*
X12900846Y-9519748D02*
X12919894Y-9510224D01*
X13072275Y-9691176D02*
X13081799Y-9700700D01*
X13081799Y-9700700D02*
X13072275Y-9710224D01*
X13072275Y-9710224D02*
X13062751Y-9700700D01*
X13062751Y-9700700D02*
X13072275Y-9691176D01*
X13072275Y-9691176D02*
X13072275Y-9710224D01*
X13205608Y-9510224D02*
X13224656Y-9510224D01*
X13224656Y-9510224D02*
X13243704Y-9519748D01*
X13243704Y-9519748D02*
X13253227Y-9529271D01*
X13253227Y-9529271D02*
X13262751Y-9548319D01*
X13262751Y-9548319D02*
X13272275Y-9586414D01*
X13272275Y-9586414D02*
X13272275Y-9634033D01*
X13272275Y-9634033D02*
X13262751Y-9672129D01*
X13262751Y-9672129D02*
X13253227Y-9691176D01*
X13253227Y-9691176D02*
X13243704Y-9700700D01*
X13243704Y-9700700D02*
X13224656Y-9710224D01*
X13224656Y-9710224D02*
X13205608Y-9710224D01*
X13205608Y-9710224D02*
X13186561Y-9700700D01*
X13186561Y-9700700D02*
X13177037Y-9691176D01*
X13177037Y-9691176D02*
X13167513Y-9672129D01*
X13167513Y-9672129D02*
X13157989Y-9634033D01*
X13157989Y-9634033D02*
X13157989Y-9586414D01*
X13157989Y-9586414D02*
X13167513Y-9548319D01*
X13167513Y-9548319D02*
X13177037Y-9529271D01*
X13177037Y-9529271D02*
X13186561Y-9519748D01*
X13186561Y-9519748D02*
X13205608Y-9510224D01*
X13348466Y-9529271D02*
X13357989Y-9519748D01*
X13357989Y-9519748D02*
X13377037Y-9510224D01*
X13377037Y-9510224D02*
X13424656Y-9510224D01*
X13424656Y-9510224D02*
X13443704Y-9519748D01*
X13443704Y-9519748D02*
X13453227Y-9529271D01*
X13453227Y-9529271D02*
X13462751Y-9548319D01*
X13462751Y-9548319D02*
X13462751Y-9567367D01*
X13462751Y-9567367D02*
X13453227Y-9595938D01*
X13453227Y-9595938D02*
X13338942Y-9710224D01*
X13338942Y-9710224D02*
X13462751Y-9710224D01*
X13557989Y-9710224D02*
X13596085Y-9710224D01*
X13596085Y-9710224D02*
X13615132Y-9700700D01*
X13615132Y-9700700D02*
X13624656Y-9691176D01*
X13624656Y-9691176D02*
X13643704Y-9662605D01*
X13643704Y-9662605D02*
X13653227Y-9624510D01*
X13653227Y-9624510D02*
X13653227Y-9548319D01*
X13653227Y-9548319D02*
X13643704Y-9529271D01*
X13643704Y-9529271D02*
X13634180Y-9519748D01*
X13634180Y-9519748D02*
X13615132Y-9510224D01*
X13615132Y-9510224D02*
X13577037Y-9510224D01*
X13577037Y-9510224D02*
X13557989Y-9519748D01*
X13557989Y-9519748D02*
X13548466Y-9529271D01*
X13548466Y-9529271D02*
X13538942Y-9548319D01*
X13538942Y-9548319D02*
X13538942Y-9595938D01*
X13538942Y-9595938D02*
X13548466Y-9614986D01*
X13548466Y-9614986D02*
X13557989Y-9624510D01*
X13557989Y-9624510D02*
X13577037Y-9634033D01*
X13577037Y-9634033D02*
X13615132Y-9634033D01*
X13615132Y-9634033D02*
X13634180Y-9624510D01*
X13634180Y-9624510D02*
X13643704Y-9614986D01*
X13643704Y-9614986D02*
X13653227Y-9595938D01*
X13834180Y-9510224D02*
X13738942Y-9510224D01*
X13738942Y-9510224D02*
X13729418Y-9605462D01*
X13729418Y-9605462D02*
X13738942Y-9595938D01*
X13738942Y-9595938D02*
X13757989Y-9586414D01*
X13757989Y-9586414D02*
X13805608Y-9586414D01*
X13805608Y-9586414D02*
X13824656Y-9595938D01*
X13824656Y-9595938D02*
X13834180Y-9605462D01*
X13834180Y-9605462D02*
X13843704Y-9624510D01*
X13843704Y-9624510D02*
X13843704Y-9672129D01*
X13843704Y-9672129D02*
X13834180Y-9691176D01*
X13834180Y-9691176D02*
X13824656Y-9700700D01*
X13824656Y-9700700D02*
X13805608Y-9710224D01*
X13805608Y-9710224D02*
X13757989Y-9710224D01*
X13757989Y-9710224D02*
X13738942Y-9700700D01*
X13738942Y-9700700D02*
X13729418Y-9691176D01*
X13919894Y-9510224D02*
X13919894Y-9548319D01*
X13996085Y-9510224D02*
X13996085Y-9548319D01*
X14291323Y-9786414D02*
X14281799Y-9776890D01*
X14281799Y-9776890D02*
X14262751Y-9748319D01*
X14262751Y-9748319D02*
X14253228Y-9729271D01*
X14253228Y-9729271D02*
X14243704Y-9700700D01*
X14243704Y-9700700D02*
X14234180Y-9653081D01*
X14234180Y-9653081D02*
X14234180Y-9614986D01*
X14234180Y-9614986D02*
X14243704Y-9567367D01*
X14243704Y-9567367D02*
X14253228Y-9538795D01*
X14253228Y-9538795D02*
X14262751Y-9519748D01*
X14262751Y-9519748D02*
X14281799Y-9491176D01*
X14281799Y-9491176D02*
X14291323Y-9481652D01*
X14377037Y-9710224D02*
X14415132Y-9710224D01*
X14415132Y-9710224D02*
X14434180Y-9700700D01*
X14434180Y-9700700D02*
X14443704Y-9691176D01*
X14443704Y-9691176D02*
X14462751Y-9662605D01*
X14462751Y-9662605D02*
X14472275Y-9624510D01*
X14472275Y-9624510D02*
X14472275Y-9548319D01*
X14472275Y-9548319D02*
X14462751Y-9529271D01*
X14462751Y-9529271D02*
X14453228Y-9519748D01*
X14453228Y-9519748D02*
X14434180Y-9510224D01*
X14434180Y-9510224D02*
X14396085Y-9510224D01*
X14396085Y-9510224D02*
X14377037Y-9519748D01*
X14377037Y-9519748D02*
X14367513Y-9529271D01*
X14367513Y-9529271D02*
X14357989Y-9548319D01*
X14357989Y-9548319D02*
X14357989Y-9595938D01*
X14357989Y-9595938D02*
X14367513Y-9614986D01*
X14367513Y-9614986D02*
X14377037Y-9624510D01*
X14377037Y-9624510D02*
X14396085Y-9634033D01*
X14396085Y-9634033D02*
X14434180Y-9634033D01*
X14434180Y-9634033D02*
X14453228Y-9624510D01*
X14453228Y-9624510D02*
X14462751Y-9614986D01*
X14462751Y-9614986D02*
X14472275Y-9595938D01*
X14710370Y-9710224D02*
X14710370Y-9510224D01*
X14796085Y-9710224D02*
X14796085Y-9605462D01*
X14796085Y-9605462D02*
X14786561Y-9586414D01*
X14786561Y-9586414D02*
X14767513Y-9576890D01*
X14767513Y-9576890D02*
X14738942Y-9576890D01*
X14738942Y-9576890D02*
X14719894Y-9586414D01*
X14719894Y-9586414D02*
X14710370Y-9595938D01*
X14919894Y-9710224D02*
X14900847Y-9700700D01*
X14900847Y-9700700D02*
X14891323Y-9691176D01*
X14891323Y-9691176D02*
X14881799Y-9672129D01*
X14881799Y-9672129D02*
X14881799Y-9614986D01*
X14881799Y-9614986D02*
X14891323Y-9595938D01*
X14891323Y-9595938D02*
X14900847Y-9586414D01*
X14900847Y-9586414D02*
X14919894Y-9576890D01*
X14919894Y-9576890D02*
X14948466Y-9576890D01*
X14948466Y-9576890D02*
X14967513Y-9586414D01*
X14967513Y-9586414D02*
X14977037Y-9595938D01*
X14977037Y-9595938D02*
X14986561Y-9614986D01*
X14986561Y-9614986D02*
X14986561Y-9672129D01*
X14986561Y-9672129D02*
X14977037Y-9691176D01*
X14977037Y-9691176D02*
X14967513Y-9700700D01*
X14967513Y-9700700D02*
X14948466Y-9710224D01*
X14948466Y-9710224D02*
X14919894Y-9710224D01*
X15100847Y-9710224D02*
X15081799Y-9700700D01*
X15081799Y-9700700D02*
X15072275Y-9681652D01*
X15072275Y-9681652D02*
X15072275Y-9510224D01*
X15253228Y-9700700D02*
X15234180Y-9710224D01*
X15234180Y-9710224D02*
X15196085Y-9710224D01*
X15196085Y-9710224D02*
X15177037Y-9700700D01*
X15177037Y-9700700D02*
X15167513Y-9681652D01*
X15167513Y-9681652D02*
X15167513Y-9605462D01*
X15167513Y-9605462D02*
X15177037Y-9586414D01*
X15177037Y-9586414D02*
X15196085Y-9576890D01*
X15196085Y-9576890D02*
X15234180Y-9576890D01*
X15234180Y-9576890D02*
X15253228Y-9586414D01*
X15253228Y-9586414D02*
X15262751Y-9605462D01*
X15262751Y-9605462D02*
X15262751Y-9624510D01*
X15262751Y-9624510D02*
X15167513Y-9643557D01*
X15338942Y-9700700D02*
X15357990Y-9710224D01*
X15357990Y-9710224D02*
X15396085Y-9710224D01*
X15396085Y-9710224D02*
X15415132Y-9700700D01*
X15415132Y-9700700D02*
X15424656Y-9681652D01*
X15424656Y-9681652D02*
X15424656Y-9672129D01*
X15424656Y-9672129D02*
X15415132Y-9653081D01*
X15415132Y-9653081D02*
X15396085Y-9643557D01*
X15396085Y-9643557D02*
X15367513Y-9643557D01*
X15367513Y-9643557D02*
X15348466Y-9634033D01*
X15348466Y-9634033D02*
X15338942Y-9614986D01*
X15338942Y-9614986D02*
X15338942Y-9605462D01*
X15338942Y-9605462D02*
X15348466Y-9586414D01*
X15348466Y-9586414D02*
X15367513Y-9576890D01*
X15367513Y-9576890D02*
X15396085Y-9576890D01*
X15396085Y-9576890D02*
X15415132Y-9586414D01*
X15491323Y-9786414D02*
X15500847Y-9776890D01*
X15500847Y-9776890D02*
X15519894Y-9748319D01*
X15519894Y-9748319D02*
X15529418Y-9729271D01*
X15529418Y-9729271D02*
X15538942Y-9700700D01*
X15538942Y-9700700D02*
X15548466Y-9653081D01*
X15548466Y-9653081D02*
X15548466Y-9614986D01*
X15548466Y-9614986D02*
X15538942Y-9567367D01*
X15538942Y-9567367D02*
X15529418Y-9538795D01*
X15529418Y-9538795D02*
X15519894Y-9519748D01*
X15519894Y-9519748D02*
X15500847Y-9491176D01*
X15500847Y-9491176D02*
X15491323Y-9481652D01*
D13*
X10661260Y-9827740D02*
X10661260Y-9937740D01*
X10606260Y-9882740D02*
X10716260Y-9882740D01*
D11*
X11081799Y-9974224D02*
X10967513Y-9974224D01*
X11024656Y-9974224D02*
X11024656Y-9774224D01*
X11024656Y-9774224D02*
X11005608Y-9802795D01*
X11005608Y-9802795D02*
X10986561Y-9821843D01*
X10986561Y-9821843D02*
X10967513Y-9831367D01*
X11167513Y-9955176D02*
X11177037Y-9964700D01*
X11177037Y-9964700D02*
X11167513Y-9974224D01*
X11167513Y-9974224D02*
X11157989Y-9964700D01*
X11157989Y-9964700D02*
X11167513Y-9955176D01*
X11167513Y-9955176D02*
X11167513Y-9974224D01*
X11367513Y-9974224D02*
X11253227Y-9974224D01*
X11310370Y-9974224D02*
X11310370Y-9774224D01*
X11310370Y-9774224D02*
X11291322Y-9802795D01*
X11291322Y-9802795D02*
X11272275Y-9821843D01*
X11272275Y-9821843D02*
X11253227Y-9831367D01*
X11491322Y-9774224D02*
X11510370Y-9774224D01*
X11510370Y-9774224D02*
X11529418Y-9783748D01*
X11529418Y-9783748D02*
X11538942Y-9793271D01*
X11538942Y-9793271D02*
X11548465Y-9812319D01*
X11548465Y-9812319D02*
X11557989Y-9850414D01*
X11557989Y-9850414D02*
X11557989Y-9898033D01*
X11557989Y-9898033D02*
X11548465Y-9936129D01*
X11548465Y-9936129D02*
X11538942Y-9955176D01*
X11538942Y-9955176D02*
X11529418Y-9964700D01*
X11529418Y-9964700D02*
X11510370Y-9974224D01*
X11510370Y-9974224D02*
X11491322Y-9974224D01*
X11491322Y-9974224D02*
X11472275Y-9964700D01*
X11472275Y-9964700D02*
X11462751Y-9955176D01*
X11462751Y-9955176D02*
X11453227Y-9936129D01*
X11453227Y-9936129D02*
X11443703Y-9898033D01*
X11443703Y-9898033D02*
X11443703Y-9850414D01*
X11443703Y-9850414D02*
X11453227Y-9812319D01*
X11453227Y-9812319D02*
X11462751Y-9793271D01*
X11462751Y-9793271D02*
X11472275Y-9783748D01*
X11472275Y-9783748D02*
X11491322Y-9774224D01*
X11681799Y-9774224D02*
X11700846Y-9774224D01*
X11700846Y-9774224D02*
X11719894Y-9783748D01*
X11719894Y-9783748D02*
X11729418Y-9793271D01*
X11729418Y-9793271D02*
X11738942Y-9812319D01*
X11738942Y-9812319D02*
X11748465Y-9850414D01*
X11748465Y-9850414D02*
X11748465Y-9898033D01*
X11748465Y-9898033D02*
X11738942Y-9936129D01*
X11738942Y-9936129D02*
X11729418Y-9955176D01*
X11729418Y-9955176D02*
X11719894Y-9964700D01*
X11719894Y-9964700D02*
X11700846Y-9974224D01*
X11700846Y-9974224D02*
X11681799Y-9974224D01*
X11681799Y-9974224D02*
X11662751Y-9964700D01*
X11662751Y-9964700D02*
X11653227Y-9955176D01*
X11653227Y-9955176D02*
X11643703Y-9936129D01*
X11643703Y-9936129D02*
X11634180Y-9898033D01*
X11634180Y-9898033D02*
X11634180Y-9850414D01*
X11634180Y-9850414D02*
X11643703Y-9812319D01*
X11643703Y-9812319D02*
X11653227Y-9793271D01*
X11653227Y-9793271D02*
X11662751Y-9783748D01*
X11662751Y-9783748D02*
X11681799Y-9774224D01*
X11834180Y-9974224D02*
X11834180Y-9840890D01*
X11834180Y-9859938D02*
X11843703Y-9850414D01*
X11843703Y-9850414D02*
X11862751Y-9840890D01*
X11862751Y-9840890D02*
X11891323Y-9840890D01*
X11891323Y-9840890D02*
X11910370Y-9850414D01*
X11910370Y-9850414D02*
X11919894Y-9869462D01*
X11919894Y-9869462D02*
X11919894Y-9974224D01*
X11919894Y-9869462D02*
X11929418Y-9850414D01*
X11929418Y-9850414D02*
X11948465Y-9840890D01*
X11948465Y-9840890D02*
X11977037Y-9840890D01*
X11977037Y-9840890D02*
X11996084Y-9850414D01*
X11996084Y-9850414D02*
X12005608Y-9869462D01*
X12005608Y-9869462D02*
X12005608Y-9974224D01*
X12100846Y-9974224D02*
X12100846Y-9840890D01*
X12100846Y-9859938D02*
X12110370Y-9850414D01*
X12110370Y-9850414D02*
X12129418Y-9840890D01*
X12129418Y-9840890D02*
X12157989Y-9840890D01*
X12157989Y-9840890D02*
X12177037Y-9850414D01*
X12177037Y-9850414D02*
X12186561Y-9869462D01*
X12186561Y-9869462D02*
X12186561Y-9974224D01*
X12186561Y-9869462D02*
X12196084Y-9850414D01*
X12196084Y-9850414D02*
X12215132Y-9840890D01*
X12215132Y-9840890D02*
X12243703Y-9840890D01*
X12243703Y-9840890D02*
X12262751Y-9850414D01*
X12262751Y-9850414D02*
X12272275Y-9869462D01*
X12272275Y-9869462D02*
X12272275Y-9974224D01*
X12662751Y-9764700D02*
X12491323Y-10021843D01*
X12919894Y-9774224D02*
X12938942Y-9774224D01*
X12938942Y-9774224D02*
X12957989Y-9783748D01*
X12957989Y-9783748D02*
X12967513Y-9793271D01*
X12967513Y-9793271D02*
X12977037Y-9812319D01*
X12977037Y-9812319D02*
X12986561Y-9850414D01*
X12986561Y-9850414D02*
X12986561Y-9898033D01*
X12986561Y-9898033D02*
X12977037Y-9936129D01*
X12977037Y-9936129D02*
X12967513Y-9955176D01*
X12967513Y-9955176D02*
X12957989Y-9964700D01*
X12957989Y-9964700D02*
X12938942Y-9974224D01*
X12938942Y-9974224D02*
X12919894Y-9974224D01*
X12919894Y-9974224D02*
X12900846Y-9964700D01*
X12900846Y-9964700D02*
X12891323Y-9955176D01*
X12891323Y-9955176D02*
X12881799Y-9936129D01*
X12881799Y-9936129D02*
X12872275Y-9898033D01*
X12872275Y-9898033D02*
X12872275Y-9850414D01*
X12872275Y-9850414D02*
X12881799Y-9812319D01*
X12881799Y-9812319D02*
X12891323Y-9793271D01*
X12891323Y-9793271D02*
X12900846Y-9783748D01*
X12900846Y-9783748D02*
X12919894Y-9774224D01*
X13072275Y-9955176D02*
X13081799Y-9964700D01*
X13081799Y-9964700D02*
X13072275Y-9974224D01*
X13072275Y-9974224D02*
X13062751Y-9964700D01*
X13062751Y-9964700D02*
X13072275Y-9955176D01*
X13072275Y-9955176D02*
X13072275Y-9974224D01*
X13205608Y-9774224D02*
X13224656Y-9774224D01*
X13224656Y-9774224D02*
X13243704Y-9783748D01*
X13243704Y-9783748D02*
X13253227Y-9793271D01*
X13253227Y-9793271D02*
X13262751Y-9812319D01*
X13262751Y-9812319D02*
X13272275Y-9850414D01*
X13272275Y-9850414D02*
X13272275Y-9898033D01*
X13272275Y-9898033D02*
X13262751Y-9936129D01*
X13262751Y-9936129D02*
X13253227Y-9955176D01*
X13253227Y-9955176D02*
X13243704Y-9964700D01*
X13243704Y-9964700D02*
X13224656Y-9974224D01*
X13224656Y-9974224D02*
X13205608Y-9974224D01*
X13205608Y-9974224D02*
X13186561Y-9964700D01*
X13186561Y-9964700D02*
X13177037Y-9955176D01*
X13177037Y-9955176D02*
X13167513Y-9936129D01*
X13167513Y-9936129D02*
X13157989Y-9898033D01*
X13157989Y-9898033D02*
X13157989Y-9850414D01*
X13157989Y-9850414D02*
X13167513Y-9812319D01*
X13167513Y-9812319D02*
X13177037Y-9793271D01*
X13177037Y-9793271D02*
X13186561Y-9783748D01*
X13186561Y-9783748D02*
X13205608Y-9774224D01*
X13443704Y-9840890D02*
X13443704Y-9974224D01*
X13396085Y-9764700D02*
X13348466Y-9907557D01*
X13348466Y-9907557D02*
X13472275Y-9907557D01*
X13529418Y-9774224D02*
X13653227Y-9774224D01*
X13653227Y-9774224D02*
X13586561Y-9850414D01*
X13586561Y-9850414D02*
X13615132Y-9850414D01*
X13615132Y-9850414D02*
X13634180Y-9859938D01*
X13634180Y-9859938D02*
X13643704Y-9869462D01*
X13643704Y-9869462D02*
X13653227Y-9888510D01*
X13653227Y-9888510D02*
X13653227Y-9936129D01*
X13653227Y-9936129D02*
X13643704Y-9955176D01*
X13643704Y-9955176D02*
X13634180Y-9964700D01*
X13634180Y-9964700D02*
X13615132Y-9974224D01*
X13615132Y-9974224D02*
X13557989Y-9974224D01*
X13557989Y-9974224D02*
X13538942Y-9964700D01*
X13538942Y-9964700D02*
X13529418Y-9955176D01*
X13719894Y-9774224D02*
X13843704Y-9774224D01*
X13843704Y-9774224D02*
X13777037Y-9850414D01*
X13777037Y-9850414D02*
X13805608Y-9850414D01*
X13805608Y-9850414D02*
X13824656Y-9859938D01*
X13824656Y-9859938D02*
X13834180Y-9869462D01*
X13834180Y-9869462D02*
X13843704Y-9888510D01*
X13843704Y-9888510D02*
X13843704Y-9936129D01*
X13843704Y-9936129D02*
X13834180Y-9955176D01*
X13834180Y-9955176D02*
X13824656Y-9964700D01*
X13824656Y-9964700D02*
X13805608Y-9974224D01*
X13805608Y-9974224D02*
X13748466Y-9974224D01*
X13748466Y-9974224D02*
X13729418Y-9964700D01*
X13729418Y-9964700D02*
X13719894Y-9955176D01*
X13919894Y-9774224D02*
X13919894Y-9812319D01*
X13996085Y-9774224D02*
X13996085Y-9812319D01*
X14291323Y-10050414D02*
X14281799Y-10040890D01*
X14281799Y-10040890D02*
X14262751Y-10012319D01*
X14262751Y-10012319D02*
X14253228Y-9993271D01*
X14253228Y-9993271D02*
X14243704Y-9964700D01*
X14243704Y-9964700D02*
X14234180Y-9917081D01*
X14234180Y-9917081D02*
X14234180Y-9878986D01*
X14234180Y-9878986D02*
X14243704Y-9831367D01*
X14243704Y-9831367D02*
X14253228Y-9802795D01*
X14253228Y-9802795D02*
X14262751Y-9783748D01*
X14262751Y-9783748D02*
X14281799Y-9755176D01*
X14281799Y-9755176D02*
X14291323Y-9745652D01*
X14348466Y-9774224D02*
X14472275Y-9774224D01*
X14472275Y-9774224D02*
X14405608Y-9850414D01*
X14405608Y-9850414D02*
X14434180Y-9850414D01*
X14434180Y-9850414D02*
X14453228Y-9859938D01*
X14453228Y-9859938D02*
X14462751Y-9869462D01*
X14462751Y-9869462D02*
X14472275Y-9888510D01*
X14472275Y-9888510D02*
X14472275Y-9936129D01*
X14472275Y-9936129D02*
X14462751Y-9955176D01*
X14462751Y-9955176D02*
X14453228Y-9964700D01*
X14453228Y-9964700D02*
X14434180Y-9974224D01*
X14434180Y-9974224D02*
X14377037Y-9974224D01*
X14377037Y-9974224D02*
X14357989Y-9964700D01*
X14357989Y-9964700D02*
X14348466Y-9955176D01*
X14710370Y-9974224D02*
X14710370Y-9774224D01*
X14796085Y-9974224D02*
X14796085Y-9869462D01*
X14796085Y-9869462D02*
X14786561Y-9850414D01*
X14786561Y-9850414D02*
X14767513Y-9840890D01*
X14767513Y-9840890D02*
X14738942Y-9840890D01*
X14738942Y-9840890D02*
X14719894Y-9850414D01*
X14719894Y-9850414D02*
X14710370Y-9859938D01*
X14919894Y-9974224D02*
X14900847Y-9964700D01*
X14900847Y-9964700D02*
X14891323Y-9955176D01*
X14891323Y-9955176D02*
X14881799Y-9936129D01*
X14881799Y-9936129D02*
X14881799Y-9878986D01*
X14881799Y-9878986D02*
X14891323Y-9859938D01*
X14891323Y-9859938D02*
X14900847Y-9850414D01*
X14900847Y-9850414D02*
X14919894Y-9840890D01*
X14919894Y-9840890D02*
X14948466Y-9840890D01*
X14948466Y-9840890D02*
X14967513Y-9850414D01*
X14967513Y-9850414D02*
X14977037Y-9859938D01*
X14977037Y-9859938D02*
X14986561Y-9878986D01*
X14986561Y-9878986D02*
X14986561Y-9936129D01*
X14986561Y-9936129D02*
X14977037Y-9955176D01*
X14977037Y-9955176D02*
X14967513Y-9964700D01*
X14967513Y-9964700D02*
X14948466Y-9974224D01*
X14948466Y-9974224D02*
X14919894Y-9974224D01*
X15100847Y-9974224D02*
X15081799Y-9964700D01*
X15081799Y-9964700D02*
X15072275Y-9945652D01*
X15072275Y-9945652D02*
X15072275Y-9774224D01*
X15253228Y-9964700D02*
X15234180Y-9974224D01*
X15234180Y-9974224D02*
X15196085Y-9974224D01*
X15196085Y-9974224D02*
X15177037Y-9964700D01*
X15177037Y-9964700D02*
X15167513Y-9945652D01*
X15167513Y-9945652D02*
X15167513Y-9869462D01*
X15167513Y-9869462D02*
X15177037Y-9850414D01*
X15177037Y-9850414D02*
X15196085Y-9840890D01*
X15196085Y-9840890D02*
X15234180Y-9840890D01*
X15234180Y-9840890D02*
X15253228Y-9850414D01*
X15253228Y-9850414D02*
X15262751Y-9869462D01*
X15262751Y-9869462D02*
X15262751Y-9888510D01*
X15262751Y-9888510D02*
X15167513Y-9907557D01*
X15338942Y-9964700D02*
X15357990Y-9974224D01*
X15357990Y-9974224D02*
X15396085Y-9974224D01*
X15396085Y-9974224D02*
X15415132Y-9964700D01*
X15415132Y-9964700D02*
X15424656Y-9945652D01*
X15424656Y-9945652D02*
X15424656Y-9936129D01*
X15424656Y-9936129D02*
X15415132Y-9917081D01*
X15415132Y-9917081D02*
X15396085Y-9907557D01*
X15396085Y-9907557D02*
X15367513Y-9907557D01*
X15367513Y-9907557D02*
X15348466Y-9898033D01*
X15348466Y-9898033D02*
X15338942Y-9878986D01*
X15338942Y-9878986D02*
X15338942Y-9869462D01*
X15338942Y-9869462D02*
X15348466Y-9850414D01*
X15348466Y-9850414D02*
X15367513Y-9840890D01*
X15367513Y-9840890D02*
X15396085Y-9840890D01*
X15396085Y-9840890D02*
X15415132Y-9850414D01*
X15491323Y-10050414D02*
X15500847Y-10040890D01*
X15500847Y-10040890D02*
X15519894Y-10012319D01*
X15519894Y-10012319D02*
X15529418Y-9993271D01*
X15529418Y-9993271D02*
X15538942Y-9964700D01*
X15538942Y-9964700D02*
X15548466Y-9917081D01*
X15548466Y-9917081D02*
X15548466Y-9878986D01*
X15548466Y-9878986D02*
X15538942Y-9831367D01*
X15538942Y-9831367D02*
X15529418Y-9802795D01*
X15529418Y-9802795D02*
X15519894Y-9783748D01*
X15519894Y-9783748D02*
X15500847Y-9755176D01*
X15500847Y-9755176D02*
X15491323Y-9745652D01*
D14*
X10689900Y-10210380D02*
X10689900Y-10083100D01*
X10562620Y-10083100D01*
X10562620Y-10210380D01*
X10689900Y-10210380D01*
D11*
X11081799Y-10238224D02*
X10967513Y-10238224D01*
X11024656Y-10238224D02*
X11024656Y-10038224D01*
X11024656Y-10038224D02*
X11005608Y-10066795D01*
X11005608Y-10066795D02*
X10986561Y-10085843D01*
X10986561Y-10085843D02*
X10967513Y-10095367D01*
X11167513Y-10219176D02*
X11177037Y-10228700D01*
X11177037Y-10228700D02*
X11167513Y-10238224D01*
X11167513Y-10238224D02*
X11157989Y-10228700D01*
X11157989Y-10228700D02*
X11167513Y-10219176D01*
X11167513Y-10219176D02*
X11167513Y-10238224D01*
X11291322Y-10123938D02*
X11272275Y-10114414D01*
X11272275Y-10114414D02*
X11262751Y-10104890D01*
X11262751Y-10104890D02*
X11253227Y-10085843D01*
X11253227Y-10085843D02*
X11253227Y-10076319D01*
X11253227Y-10076319D02*
X11262751Y-10057271D01*
X11262751Y-10057271D02*
X11272275Y-10047748D01*
X11272275Y-10047748D02*
X11291322Y-10038224D01*
X11291322Y-10038224D02*
X11329418Y-10038224D01*
X11329418Y-10038224D02*
X11348465Y-10047748D01*
X11348465Y-10047748D02*
X11357989Y-10057271D01*
X11357989Y-10057271D02*
X11367513Y-10076319D01*
X11367513Y-10076319D02*
X11367513Y-10085843D01*
X11367513Y-10085843D02*
X11357989Y-10104890D01*
X11357989Y-10104890D02*
X11348465Y-10114414D01*
X11348465Y-10114414D02*
X11329418Y-10123938D01*
X11329418Y-10123938D02*
X11291322Y-10123938D01*
X11291322Y-10123938D02*
X11272275Y-10133462D01*
X11272275Y-10133462D02*
X11262751Y-10142986D01*
X11262751Y-10142986D02*
X11253227Y-10162033D01*
X11253227Y-10162033D02*
X11253227Y-10200129D01*
X11253227Y-10200129D02*
X11262751Y-10219176D01*
X11262751Y-10219176D02*
X11272275Y-10228700D01*
X11272275Y-10228700D02*
X11291322Y-10238224D01*
X11291322Y-10238224D02*
X11329418Y-10238224D01*
X11329418Y-10238224D02*
X11348465Y-10228700D01*
X11348465Y-10228700D02*
X11357989Y-10219176D01*
X11357989Y-10219176D02*
X11367513Y-10200129D01*
X11367513Y-10200129D02*
X11367513Y-10162033D01*
X11367513Y-10162033D02*
X11357989Y-10142986D01*
X11357989Y-10142986D02*
X11348465Y-10133462D01*
X11348465Y-10133462D02*
X11329418Y-10123938D01*
X11491322Y-10038224D02*
X11510370Y-10038224D01*
X11510370Y-10038224D02*
X11529418Y-10047748D01*
X11529418Y-10047748D02*
X11538942Y-10057271D01*
X11538942Y-10057271D02*
X11548465Y-10076319D01*
X11548465Y-10076319D02*
X11557989Y-10114414D01*
X11557989Y-10114414D02*
X11557989Y-10162033D01*
X11557989Y-10162033D02*
X11548465Y-10200129D01*
X11548465Y-10200129D02*
X11538942Y-10219176D01*
X11538942Y-10219176D02*
X11529418Y-10228700D01*
X11529418Y-10228700D02*
X11510370Y-10238224D01*
X11510370Y-10238224D02*
X11491322Y-10238224D01*
X11491322Y-10238224D02*
X11472275Y-10228700D01*
X11472275Y-10228700D02*
X11462751Y-10219176D01*
X11462751Y-10219176D02*
X11453227Y-10200129D01*
X11453227Y-10200129D02*
X11443703Y-10162033D01*
X11443703Y-10162033D02*
X11443703Y-10114414D01*
X11443703Y-10114414D02*
X11453227Y-10076319D01*
X11453227Y-10076319D02*
X11462751Y-10057271D01*
X11462751Y-10057271D02*
X11472275Y-10047748D01*
X11472275Y-10047748D02*
X11491322Y-10038224D01*
X11681799Y-10038224D02*
X11700846Y-10038224D01*
X11700846Y-10038224D02*
X11719894Y-10047748D01*
X11719894Y-10047748D02*
X11729418Y-10057271D01*
X11729418Y-10057271D02*
X11738942Y-10076319D01*
X11738942Y-10076319D02*
X11748465Y-10114414D01*
X11748465Y-10114414D02*
X11748465Y-10162033D01*
X11748465Y-10162033D02*
X11738942Y-10200129D01*
X11738942Y-10200129D02*
X11729418Y-10219176D01*
X11729418Y-10219176D02*
X11719894Y-10228700D01*
X11719894Y-10228700D02*
X11700846Y-10238224D01*
X11700846Y-10238224D02*
X11681799Y-10238224D01*
X11681799Y-10238224D02*
X11662751Y-10228700D01*
X11662751Y-10228700D02*
X11653227Y-10219176D01*
X11653227Y-10219176D02*
X11643703Y-10200129D01*
X11643703Y-10200129D02*
X11634180Y-10162033D01*
X11634180Y-10162033D02*
X11634180Y-10114414D01*
X11634180Y-10114414D02*
X11643703Y-10076319D01*
X11643703Y-10076319D02*
X11653227Y-10057271D01*
X11653227Y-10057271D02*
X11662751Y-10047748D01*
X11662751Y-10047748D02*
X11681799Y-10038224D01*
X11834180Y-10238224D02*
X11834180Y-10104890D01*
X11834180Y-10123938D02*
X11843703Y-10114414D01*
X11843703Y-10114414D02*
X11862751Y-10104890D01*
X11862751Y-10104890D02*
X11891323Y-10104890D01*
X11891323Y-10104890D02*
X11910370Y-10114414D01*
X11910370Y-10114414D02*
X11919894Y-10133462D01*
X11919894Y-10133462D02*
X11919894Y-10238224D01*
X11919894Y-10133462D02*
X11929418Y-10114414D01*
X11929418Y-10114414D02*
X11948465Y-10104890D01*
X11948465Y-10104890D02*
X11977037Y-10104890D01*
X11977037Y-10104890D02*
X11996084Y-10114414D01*
X11996084Y-10114414D02*
X12005608Y-10133462D01*
X12005608Y-10133462D02*
X12005608Y-10238224D01*
X12100846Y-10238224D02*
X12100846Y-10104890D01*
X12100846Y-10123938D02*
X12110370Y-10114414D01*
X12110370Y-10114414D02*
X12129418Y-10104890D01*
X12129418Y-10104890D02*
X12157989Y-10104890D01*
X12157989Y-10104890D02*
X12177037Y-10114414D01*
X12177037Y-10114414D02*
X12186561Y-10133462D01*
X12186561Y-10133462D02*
X12186561Y-10238224D01*
X12186561Y-10133462D02*
X12196084Y-10114414D01*
X12196084Y-10114414D02*
X12215132Y-10104890D01*
X12215132Y-10104890D02*
X12243703Y-10104890D01*
X12243703Y-10104890D02*
X12262751Y-10114414D01*
X12262751Y-10114414D02*
X12272275Y-10133462D01*
X12272275Y-10133462D02*
X12272275Y-10238224D01*
X12662751Y-10028700D02*
X12491323Y-10285843D01*
X12919894Y-10038224D02*
X12938942Y-10038224D01*
X12938942Y-10038224D02*
X12957989Y-10047748D01*
X12957989Y-10047748D02*
X12967513Y-10057271D01*
X12967513Y-10057271D02*
X12977037Y-10076319D01*
X12977037Y-10076319D02*
X12986561Y-10114414D01*
X12986561Y-10114414D02*
X12986561Y-10162033D01*
X12986561Y-10162033D02*
X12977037Y-10200129D01*
X12977037Y-10200129D02*
X12967513Y-10219176D01*
X12967513Y-10219176D02*
X12957989Y-10228700D01*
X12957989Y-10228700D02*
X12938942Y-10238224D01*
X12938942Y-10238224D02*
X12919894Y-10238224D01*
X12919894Y-10238224D02*
X12900846Y-10228700D01*
X12900846Y-10228700D02*
X12891323Y-10219176D01*
X12891323Y-10219176D02*
X12881799Y-10200129D01*
X12881799Y-10200129D02*
X12872275Y-10162033D01*
X12872275Y-10162033D02*
X12872275Y-10114414D01*
X12872275Y-10114414D02*
X12881799Y-10076319D01*
X12881799Y-10076319D02*
X12891323Y-10057271D01*
X12891323Y-10057271D02*
X12900846Y-10047748D01*
X12900846Y-10047748D02*
X12919894Y-10038224D01*
X13072275Y-10219176D02*
X13081799Y-10228700D01*
X13081799Y-10228700D02*
X13072275Y-10238224D01*
X13072275Y-10238224D02*
X13062751Y-10228700D01*
X13062751Y-10228700D02*
X13072275Y-10219176D01*
X13072275Y-10219176D02*
X13072275Y-10238224D01*
X13205608Y-10038224D02*
X13224656Y-10038224D01*
X13224656Y-10038224D02*
X13243704Y-10047748D01*
X13243704Y-10047748D02*
X13253227Y-10057271D01*
X13253227Y-10057271D02*
X13262751Y-10076319D01*
X13262751Y-10076319D02*
X13272275Y-10114414D01*
X13272275Y-10114414D02*
X13272275Y-10162033D01*
X13272275Y-10162033D02*
X13262751Y-10200129D01*
X13262751Y-10200129D02*
X13253227Y-10219176D01*
X13253227Y-10219176D02*
X13243704Y-10228700D01*
X13243704Y-10228700D02*
X13224656Y-10238224D01*
X13224656Y-10238224D02*
X13205608Y-10238224D01*
X13205608Y-10238224D02*
X13186561Y-10228700D01*
X13186561Y-10228700D02*
X13177037Y-10219176D01*
X13177037Y-10219176D02*
X13167513Y-10200129D01*
X13167513Y-10200129D02*
X13157989Y-10162033D01*
X13157989Y-10162033D02*
X13157989Y-10114414D01*
X13157989Y-10114414D02*
X13167513Y-10076319D01*
X13167513Y-10076319D02*
X13177037Y-10057271D01*
X13177037Y-10057271D02*
X13186561Y-10047748D01*
X13186561Y-10047748D02*
X13205608Y-10038224D01*
X13338942Y-10038224D02*
X13472275Y-10038224D01*
X13472275Y-10038224D02*
X13386561Y-10238224D01*
X13586561Y-10038224D02*
X13605608Y-10038224D01*
X13605608Y-10038224D02*
X13624656Y-10047748D01*
X13624656Y-10047748D02*
X13634180Y-10057271D01*
X13634180Y-10057271D02*
X13643704Y-10076319D01*
X13643704Y-10076319D02*
X13653227Y-10114414D01*
X13653227Y-10114414D02*
X13653227Y-10162033D01*
X13653227Y-10162033D02*
X13643704Y-10200129D01*
X13643704Y-10200129D02*
X13634180Y-10219176D01*
X13634180Y-10219176D02*
X13624656Y-10228700D01*
X13624656Y-10228700D02*
X13605608Y-10238224D01*
X13605608Y-10238224D02*
X13586561Y-10238224D01*
X13586561Y-10238224D02*
X13567513Y-10228700D01*
X13567513Y-10228700D02*
X13557989Y-10219176D01*
X13557989Y-10219176D02*
X13548466Y-10200129D01*
X13548466Y-10200129D02*
X13538942Y-10162033D01*
X13538942Y-10162033D02*
X13538942Y-10114414D01*
X13538942Y-10114414D02*
X13548466Y-10076319D01*
X13548466Y-10076319D02*
X13557989Y-10057271D01*
X13557989Y-10057271D02*
X13567513Y-10047748D01*
X13567513Y-10047748D02*
X13586561Y-10038224D01*
X13748466Y-10238224D02*
X13786561Y-10238224D01*
X13786561Y-10238224D02*
X13805608Y-10228700D01*
X13805608Y-10228700D02*
X13815132Y-10219176D01*
X13815132Y-10219176D02*
X13834180Y-10190605D01*
X13834180Y-10190605D02*
X13843704Y-10152510D01*
X13843704Y-10152510D02*
X13843704Y-10076319D01*
X13843704Y-10076319D02*
X13834180Y-10057271D01*
X13834180Y-10057271D02*
X13824656Y-10047748D01*
X13824656Y-10047748D02*
X13805608Y-10038224D01*
X13805608Y-10038224D02*
X13767513Y-10038224D01*
X13767513Y-10038224D02*
X13748466Y-10047748D01*
X13748466Y-10047748D02*
X13738942Y-10057271D01*
X13738942Y-10057271D02*
X13729418Y-10076319D01*
X13729418Y-10076319D02*
X13729418Y-10123938D01*
X13729418Y-10123938D02*
X13738942Y-10142986D01*
X13738942Y-10142986D02*
X13748466Y-10152510D01*
X13748466Y-10152510D02*
X13767513Y-10162033D01*
X13767513Y-10162033D02*
X13805608Y-10162033D01*
X13805608Y-10162033D02*
X13824656Y-10152510D01*
X13824656Y-10152510D02*
X13834180Y-10142986D01*
X13834180Y-10142986D02*
X13843704Y-10123938D01*
X13919894Y-10038224D02*
X13919894Y-10076319D01*
X13996085Y-10038224D02*
X13996085Y-10076319D01*
X14291323Y-10314414D02*
X14281799Y-10304890D01*
X14281799Y-10304890D02*
X14262751Y-10276319D01*
X14262751Y-10276319D02*
X14253228Y-10257271D01*
X14253228Y-10257271D02*
X14243704Y-10228700D01*
X14243704Y-10228700D02*
X14234180Y-10181081D01*
X14234180Y-10181081D02*
X14234180Y-10142986D01*
X14234180Y-10142986D02*
X14243704Y-10095367D01*
X14243704Y-10095367D02*
X14253228Y-10066795D01*
X14253228Y-10066795D02*
X14262751Y-10047748D01*
X14262751Y-10047748D02*
X14281799Y-10019176D01*
X14281799Y-10019176D02*
X14291323Y-10009652D01*
X14453228Y-10104890D02*
X14453228Y-10238224D01*
X14405608Y-10028700D02*
X14357989Y-10171557D01*
X14357989Y-10171557D02*
X14481799Y-10171557D01*
X14710370Y-10238224D02*
X14710370Y-10038224D01*
X14796085Y-10238224D02*
X14796085Y-10133462D01*
X14796085Y-10133462D02*
X14786561Y-10114414D01*
X14786561Y-10114414D02*
X14767513Y-10104890D01*
X14767513Y-10104890D02*
X14738942Y-10104890D01*
X14738942Y-10104890D02*
X14719894Y-10114414D01*
X14719894Y-10114414D02*
X14710370Y-10123938D01*
X14919894Y-10238224D02*
X14900847Y-10228700D01*
X14900847Y-10228700D02*
X14891323Y-10219176D01*
X14891323Y-10219176D02*
X14881799Y-10200129D01*
X14881799Y-10200129D02*
X14881799Y-10142986D01*
X14881799Y-10142986D02*
X14891323Y-10123938D01*
X14891323Y-10123938D02*
X14900847Y-10114414D01*
X14900847Y-10114414D02*
X14919894Y-10104890D01*
X14919894Y-10104890D02*
X14948466Y-10104890D01*
X14948466Y-10104890D02*
X14967513Y-10114414D01*
X14967513Y-10114414D02*
X14977037Y-10123938D01*
X14977037Y-10123938D02*
X14986561Y-10142986D01*
X14986561Y-10142986D02*
X14986561Y-10200129D01*
X14986561Y-10200129D02*
X14977037Y-10219176D01*
X14977037Y-10219176D02*
X14967513Y-10228700D01*
X14967513Y-10228700D02*
X14948466Y-10238224D01*
X14948466Y-10238224D02*
X14919894Y-10238224D01*
X15100847Y-10238224D02*
X15081799Y-10228700D01*
X15081799Y-10228700D02*
X15072275Y-10209652D01*
X15072275Y-10209652D02*
X15072275Y-10038224D01*
X15253228Y-10228700D02*
X15234180Y-10238224D01*
X15234180Y-10238224D02*
X15196085Y-10238224D01*
X15196085Y-10238224D02*
X15177037Y-10228700D01*
X15177037Y-10228700D02*
X15167513Y-10209652D01*
X15167513Y-10209652D02*
X15167513Y-10133462D01*
X15167513Y-10133462D02*
X15177037Y-10114414D01*
X15177037Y-10114414D02*
X15196085Y-10104890D01*
X15196085Y-10104890D02*
X15234180Y-10104890D01*
X15234180Y-10104890D02*
X15253228Y-10114414D01*
X15253228Y-10114414D02*
X15262751Y-10133462D01*
X15262751Y-10133462D02*
X15262751Y-10152510D01*
X15262751Y-10152510D02*
X15167513Y-10171557D01*
X15338942Y-10228700D02*
X15357990Y-10238224D01*
X15357990Y-10238224D02*
X15396085Y-10238224D01*
X15396085Y-10238224D02*
X15415132Y-10228700D01*
X15415132Y-10228700D02*
X15424656Y-10209652D01*
X15424656Y-10209652D02*
X15424656Y-10200129D01*
X15424656Y-10200129D02*
X15415132Y-10181081D01*
X15415132Y-10181081D02*
X15396085Y-10171557D01*
X15396085Y-10171557D02*
X15367513Y-10171557D01*
X15367513Y-10171557D02*
X15348466Y-10162033D01*
X15348466Y-10162033D02*
X15338942Y-10142986D01*
X15338942Y-10142986D02*
X15338942Y-10133462D01*
X15338942Y-10133462D02*
X15348466Y-10114414D01*
X15348466Y-10114414D02*
X15367513Y-10104890D01*
X15367513Y-10104890D02*
X15396085Y-10104890D01*
X15396085Y-10104890D02*
X15415132Y-10114414D01*
X15491323Y-10314414D02*
X15500847Y-10304890D01*
X15500847Y-10304890D02*
X15519894Y-10276319D01*
X15519894Y-10276319D02*
X15529418Y-10257271D01*
X15529418Y-10257271D02*
X15538942Y-10228700D01*
X15538942Y-10228700D02*
X15548466Y-10181081D01*
X15548466Y-10181081D02*
X15548466Y-10142986D01*
X15548466Y-10142986D02*
X15538942Y-10095367D01*
X15538942Y-10095367D02*
X15529418Y-10066795D01*
X15529418Y-10066795D02*
X15519894Y-10047748D01*
X15519894Y-10047748D02*
X15500847Y-10019176D01*
X15500847Y-10019176D02*
X15491323Y-10009652D01*
M02*
